<svg width="19" height="19" viewBox="0 0 19 19" fill="none" xmlns="http://www.w3.org/2000/svg">
<path d="M19 9.5C19 9.80235 18.8799 10.0923 18.6661 10.3061C18.4523 10.5199 18.1623 10.64 17.86 10.64H10.64V17.86C10.64 18.1623 10.5199 18.4523 10.3061 18.6661C10.0923 18.8799 9.80235 19 9.5 19C9.19765 19 8.90769 18.8799 8.6939 18.6661C8.48011 18.4523 8.36 18.1623 8.36 17.86V10.64H1.14C0.837653 10.64 0.54769 10.5199 0.333898 10.3061C0.120107 10.0923 0 9.80235 0 9.5C0 9.19765 0.120107 8.90769 0.333898 8.6939C0.54769 8.48011 0.837653 8.36 1.14 8.36H8.36V1.14C8.36 0.837653 8.48011 0.54769 8.6939 0.333898C8.90769 0.120107 9.19765 0 9.5 0C9.80235 0 10.0923 0.120107 10.3061 0.333898C10.5199 0.54769 10.64 0.837653 10.64 1.14V8.36H17.86C18.1623 8.36 18.4523 8.48011 18.6661 8.6939C18.8799 8.90769 19 9.19765 19 9.5Z" fill="white"/>
</svg>
