<svg width="11" height="8" viewBox="0 0 11 8" fill="none" xmlns="http://www.w3.org/2000/svg">
<path d="M10.9999 4.84351C10.9999 4.93468 10.9637 5.02212 10.8992 5.08658C10.8347 5.15105 10.7473 5.18726 10.6561 5.18726H9.96864V5.87476C9.96864 5.96593 9.93242 6.05337 9.86796 6.11783C9.80349 6.1823 9.71606 6.21851 9.62489 6.21851C9.53372 6.21851 9.44629 6.1823 9.38182 6.11783C9.31735 6.05337 9.28114 5.96593 9.28114 5.87476V5.18726H8.59364C8.50247 5.18726 8.41504 5.15105 8.35057 5.08658C8.2861 5.02212 8.24989 4.93468 8.24989 4.84351C8.24989 4.75235 8.2861 4.66491 8.35057 4.60045C8.41504 4.53598 8.50247 4.49976 8.59364 4.49976H9.28114V3.81226C9.28114 3.7211 9.31735 3.63366 9.38182 3.5692C9.44629 3.50473 9.53372 3.46852 9.62489 3.46852C9.71606 3.46852 9.80349 3.50473 9.86796 3.5692C9.93242 3.63366 9.96864 3.7211 9.96864 3.81226V4.49976H10.6561C10.7473 4.49976 10.8347 4.53598 10.8992 4.60045C10.9637 4.66491 10.9999 4.75235 10.9999 4.84351ZM8.51329 7.37223C8.57198 7.44208 8.60051 7.53239 8.59261 7.62329C8.58472 7.71419 8.54103 7.79822 8.47118 7.85691C8.40132 7.9156 8.31101 7.94414 8.22011 7.93624C8.12922 7.92834 8.04518 7.88466 7.98649 7.8148C7.12196 6.78527 5.93344 6.21851 4.64051 6.21851C3.34758 6.21851 2.15907 6.78527 1.29454 7.8148C1.23585 7.8846 1.15183 7.92823 1.06098 7.93609C0.970121 7.94395 0.879865 7.91539 0.810064 7.8567C0.740264 7.79801 0.696636 7.71399 0.688779 7.62314C0.680923 7.53228 0.70948 7.44203 0.76817 7.37223C1.41012 6.60824 2.20848 6.06555 3.09579 5.77508C2.55692 5.43945 2.14202 4.93745 1.91386 4.34502C1.6857 3.7526 1.6567 3.10198 1.83124 2.4916C2.00578 1.88122 2.37436 1.3443 2.88123 0.962053C3.3881 0.579809 4.00567 0.373047 4.64051 0.373047C5.27536 0.373047 5.89293 0.579809 6.3998 0.962053C6.90666 1.3443 7.27525 1.88122 7.44979 2.4916C7.62433 3.10198 7.59532 3.7526 7.36717 4.34502C7.13901 4.93745 6.72411 5.43945 6.18524 5.77508C7.07254 6.06555 7.8709 6.60824 8.51329 7.37223ZM4.64051 5.53101C5.08243 5.53101 5.51442 5.39997 5.88187 5.15445C6.24931 4.90894 6.53569 4.55998 6.70481 4.1517C6.87392 3.74342 6.91817 3.29416 6.83196 2.86074C6.74574 2.42731 6.53294 2.02918 6.22045 1.7167C5.90797 1.40422 5.50984 1.19141 5.07642 1.1052C4.64299 1.01898 4.19373 1.06323 3.78545 1.23235C3.37718 1.40146 3.02821 1.68785 2.7827 2.05529C2.53718 2.42273 2.40614 2.85472 2.40614 3.29664C2.40682 3.88902 2.64245 4.45695 3.06133 4.87583C3.4802 5.29471 4.04813 5.53033 4.64051 5.53101Z" fill="white"/>
</svg>
