<?xml version="1.0" encoding="UTF-8" standalone="no"?>
<!-- Created with Inkscape (http://www.inkscape.org/) -->

<svg
   version="1.1"
   id="svg1"
   width="254"
   height="230"
   viewBox="0 0 254 230"
   sodipodi:docname="ambos.svg"
   inkscape:version="1.3 (0e150ed6c4, 2023-07-21)"
   xml:space="preserve"
   xmlns:inkscape="http://www.inkscape.org/namespaces/inkscape"
   xmlns:sodipodi="http://sodipodi.sourceforge.net/DTD/sodipodi-0.dtd"
   xmlns="http://www.w3.org/2000/svg"
   xmlns:svg="http://www.w3.org/2000/svg"><defs
     id="defs1" /><sodipodi:namedview
     id="namedview1"
     pagecolor="#ffffff"
     bordercolor="#000000"
     borderopacity="0.25"
     inkscape:showpageshadow="2"
     inkscape:pageopacity="0.0"
     inkscape:pagecheckerboard="0"
     inkscape:deskcolor="#d1d1d1"
     inkscape:zoom="1.3934783"
     inkscape:cx="188.01871"
     inkscape:cy="-36.240248"
     inkscape:window-width="1600"
     inkscape:window-height="837"
     inkscape:window-x="1432"
     inkscape:window-y="-8"
     inkscape:window-maximized="1"
     inkscape:current-layer="g1" /><g
     inkscape:groupmode="layer"
     inkscape:label="Image"
     id="g1"><path
       style="opacity:1;fill:#f9f9f9;fill-opacity:1;stroke:none;stroke-width:0.290256;stroke-linecap:square;stroke-linejoin:miter;stroke-dasharray:none;stroke-opacity:1"
       d=""
       id="path8" /><g
       id="g19"
       transform="matrix(0.39301217,0,0,0.39301217,113.00366,106.37531)"><g
         id="g18"><path
           style="opacity:1;fill:#f9f9f9;fill-opacity:1;stroke:none;stroke-width:0.820967;stroke-linecap:square;stroke-linejoin:miter;stroke-dasharray:none;stroke-opacity:1"
           d="m -128.58077,70.986552 c -11.72157,-19.958129 -30.20806,-63.7982233 -37.49885,-88.927269 -4.75326,-16.382975 -10.36375,-39.350184 -14.02433,-57.410295 -1.2,-5.920437 -2.73116,-13.068073 -3.40257,-15.883636 l -1.22075,-5.119206 16.65381,-1.791518 c 35.31279,-3.798738 60.13047,-10.317498 90.996894,-23.901778 13.67838,-6.01984 39.698029,-20.0242 41.195132,-22.17214 0.394696,-0.56628 2.209693,-1.81568 4.033317,-2.77644 3.244988,-1.7096 11.725507,-8.02707 41.6745635,-31.04507 8.1674325,-6.27724 17.3771345,-13.22893 20.4660235,-15.44818 l 5.616148,-4.03502 4.650995,3.28159 c 12.239257,8.63561 41.250057,31.6693 41.250057,32.75128 0,0.6714 -0.507062,1.43601 -1.12682,1.69914 -0.619745,0.26313 -5.509824,6.12011 -10.866836,13.01551 -5.357012,6.8954 -10.352182,12.91543 -11.100367,13.37783 -0.7482,0.46241 -5.47621,-2.43435 -10.506715,-6.43724 -5.030506,-4.0029 -10.526221,-7.27799 -12.21272,-7.27799 -1.686485,0 -9.022373,4.31326 -16.301955,9.58502 -55.192736,39.969712 -65.86328,46.316291 -92.174754,54.823271 -18.122283,5.859266 -34.118623,8.729602 -48.838213,8.763388 -14.53438,0.03336 -17.90125,1.979418 -17.90125,10.346929 0,3.218567 0.61365,8.187405 1.36368,11.041859 0.75003,2.854455 3.08648,12.94031 5.19213,22.413008 4.21728,18.972409 7.98334,33.0624024 12.14057,45.421633 2.28617,6.796662 2.52385,9.808434 1.47247,18.658346 -1.29373,10.889814 -3.95375,28.337621 -5.64803,37.046978 l -0.96581,4.964713 z"
           id="path1" /><path
           style="opacity:1;fill:#f9f9f9;fill-opacity:1;stroke:none;stroke-width:0.820967;stroke-linecap:square;stroke-linejoin:miter;stroke-dasharray:none;stroke-opacity:1"
           d="m -155.0078,-177.97191 v -7.89392 h -7.89391 -7.89392 v -7.89391 -7.89392 h 7.89392 7.89391 v -7.89392 -7.89391 h 7.17629 7.17629 v 7.89391 7.89392 h 7.89391 7.89392 v 7.89392 7.89391 h -7.89392 -7.89391 v 7.89392 7.89391 h -7.17629 -7.17629 z"
           id="path2" /><path
           style="opacity:1;fill:#f9f9f9;fill-opacity:1;stroke:none;stroke-width:0.820967;stroke-linecap:square;stroke-linejoin:miter;stroke-dasharray:none;stroke-opacity:1"
           d="m -203.80655,-137.78471 v -7.89391 h 7.17629 7.17629 v 7.89391 7.89392 h -7.17629 -7.17629 z"
           id="path3" /><path
           style="opacity:1;fill:#f9f9f9;fill-opacity:1;stroke:none;stroke-width:0.820967;stroke-linecap:square;stroke-linejoin:miter;stroke-dasharray:none;stroke-opacity:1"
           d="m -91.856472,-201.65366 v -7.17629 h 7.176287 7.176287 v 7.17629 7.17629 h -7.176287 -7.176287 z"
           id="path4" /><path
           style="opacity:1;fill:#f9f9f9;fill-opacity:1;stroke:none;stroke-width:0.820967;stroke-linecap:square;stroke-linejoin:miter;stroke-dasharray:none;stroke-opacity:1"
           d="M -89.282481,28.117352 C -99.649028,17.625922 -100.60462,16.121613 -104.50368,4.1558021 c -3.96445,-12.1665131 -5.41062,-17.5122881 -8.69556,-32.1433211 -0.79755,-3.552262 -2.55579,-10.827527 -3.90721,-16.167254 -1.35141,-5.339729 -2.14623,-10.019476 -1.76627,-10.399439 0.37996,-0.379964 3.86913,-1.035699 7.7537,-1.457189 28.024905,-3.040805 52.529789,-10.229959 76.672843,-22.494001 13.465625,-6.840185 52.748557,-33.432358 66.397058,-44.946798 3.400886,-2.86913 3.903154,-2.76285 9.483449,2.00656 l 4.835267,4.13265 -6.170185,8.42249 c -3.393595,4.63237 -6.563461,8.74542 -7.044143,9.140113 -0.480668,0.394696 -5.896669,7.176287 -12.035555,15.070202 -6.138879,7.893916 -11.9303712,15.321373 -12.8699811,16.50546 -0.9396099,1.184087 -6.7599703,8.611544 -12.9341332,16.50546 C -18.13968,-34.594006 -19.42246,-32.960736 -38.490802,-8.7533735 -46.635785,1.586723 -58.46517,16.666926 -64.778328,24.75819 c -6.313156,8.091263 -11.920531,14.675836 -12.460832,14.632377 -0.540302,-0.04346 -5.959796,-5.116406 -12.043321,-11.273215 z"
           id="path5" /><path
           style="opacity:1;fill:#f9f9f9;fill-opacity:1;stroke:none;stroke-width:0.820967;stroke-linecap:square;stroke-linejoin:miter;stroke-dasharray:none;stroke-opacity:1"
           d="m -49.992161,67.336449 c -9.016877,-9.028185 -13.023638,-14.013164 -12.262392,-15.256169 0.911281,-1.487989 21.653733,-28.11009 28.832257,-37.005054 0.957831,-1.186843 6.742831,-8.6165678 12.855556,-16.5104834 6.112727,-7.8939155 11.4927788,-14.6755066 11.9556737,-15.0702026 0.9451141,-0.805868 35.0080643,-44.004399 39.4690993,-50.054593 1.578784,-2.141193 7.731096,-10.000562 13.671806,-17.465264 5.940708,-7.4647 12.076433,-15.277871 13.634945,-17.362603 6.949572,-9.29604 47.088066,-60.07853 47.486086,-60.07853 0.24374,0 7.08917,-1.64439 15.21207,-3.6542 8.12288,-2.0098 17.35234,-4.24204 20.50991,-4.96053 3.15757,-0.71849 15.42902,-3.63571 27.26989,-6.4827 11.84087,-2.847 28.31045,-6.76311 36.59906,-8.70248 8.28862,-1.93937 17.05366,-4.15936 19.47788,-4.93331 13.72624,-4.38222 12.3249,-2.37499 -23.06602,33.03899 l -34.42374,34.44617 H 125.23741 83.244927 v 8.61155 8.61154 h 33.315783 33.31578 l -7.06838,7.17629 -7.06839,7.176287 H 101.59841 67.457096 v 9.295281 9.29528 l 24.406882,0.392707 24.406882,0.392707 L 39.835896,4.4917384 -36.599063,80.746331 Z"
           id="path6" /><path
           style="opacity:1;fill:#f9f9f9;fill-opacity:1;stroke:none;stroke-width:0.820967;stroke-linecap:square;stroke-linejoin:miter;stroke-dasharray:none;stroke-opacity:1"
           d="M -9.5139149,107.7734 -22.615972,94.373195 113.5594,-41.796529 C 211.04123,-139.27431 249.73478,-177.09556 249.73478,-174.902 c 0,1.68533 -2.16516,11.69498 -4.81145,22.24365 -2.6463,10.54868 -5.62621,23.05461 -6.62202,27.79096 -0.99581,4.73635 -2.6462,11.51794 -3.66753,15.0702 -1.02133,3.55226 -3.24141,12.594385 -4.93351,20.093604 -1.6921,7.49922 -4.65814,19.958012 -6.59122,27.686204 -1.93306,7.728194 -3.51467,14.255532 -3.51467,14.505196 0,0.386028 -33.49671,26.984475 -48.08573,38.1830131 -16.93127,12.9964564 -35.51688,27.5927079 -36.59446,28.7395359 -0.39469,0.420071 -6.53042,5.248148 -13.63494,10.72908 -11.71374,9.036797 -23.918406,18.657083 -31.603979,24.911734 -1.594356,1.297515 -5.469551,4.26257 -8.611544,6.589022 -3.141993,2.326438 -6.035648,4.612903 -6.430344,5.081012 -1.586054,1.881092 -67.9467141,53.395919 -69.4395224,53.904909 -0.883144,0.30112 -7.5016425,-5.48261 -14.7077755,-12.85272 z"
           id="path7" /><path
           style="opacity:1;fill:#f9f9f9;fill-opacity:1;stroke:none;stroke-width:0.820967;stroke-linecap:square;stroke-linejoin:miter;stroke-dasharray:none;stroke-opacity:1"
           d="m 31.575662,240.76514 c -29.9226287,-19.68425 -52.499095,-37.32359 -72.885,-56.94619 l -11.886561,-11.44148 4.302747,-4.30276 4.302747,-4.30274 9.955964,9.61167 c 10.985423,10.60553 11.131447,10.64624 29.6110402,8.25524 l 8.6115442,-1.11422 12.8077906,8.44684 c 13.801923,9.10247 17.549967,10.60862 22.997272,9.24143 8.405075,-2.10954 47.022094,-30.33675 65.953994,-48.20926 28.69004,-27.08457 57.48612,-71.133909 72.17905,-110.412222 5.09023,-13.607603 9.82877,-27.153314 12.03865,-34.4139049 1.58471,-5.2066085 3.80418,-7.7846924 12.74485,-14.8041272 5.95429,-4.6747869 12.13045,-9.5881439 13.7248,-10.9185729 1.59436,-1.330429 5.46955,-4.336206 8.61155,-6.679507 12.42647,-9.267672 12.21682,-8.803352 19.4619,-43.102947 4.18116,-19.79439 6.35186,-25.835695 9.44119,-26.275901 2.89499,-0.412515 3.01117,-0.0852 1.78295,5.023401 -0.72259,3.005568 -2.67002,11.923327 -4.32761,19.817243 -4.75302,22.635159 -5.52346,25.756702 -14.1698,57.410294 -6.07127,22.226439 -29.20622,74.685096 -42.59371,96.581483 -11.06224,18.093231 -18.75853,29.582501 -29.04287,43.356111 -4.42061,5.92044 -8.3604,11.08736 -8.7551,11.48206 -0.39469,0.39469 -3.26117,3.94696 -6.36997,7.89391 -9.26129,11.75825 -50.728785,52.40297 -65.392895,64.0954 -12.489795,9.95875 -47.36338,34.3218 -48.874801,34.14445 -0.352868,-0.0414 -2.256243,-1.13747 -4.229722,-2.4357 z"
           id="path9" /><path
           style="opacity:1;fill:#f9f9f9;fill-opacity:1;stroke:none;stroke-width:0.820967;stroke-linecap:square;stroke-linejoin:miter;stroke-dasharray:none;stroke-opacity:1"
           d="m 33.253966,177.43487 c -1.34235,-0.85096 -0.530051,-1.48668 2.733723,-2.13944 6.504367,-1.30087 8.505289,-3.39619 8.505289,-8.90655 0,-4.11569 -1.816115,-6.56666 -13.18959,-17.80025 -11.289329,-11.15048 -12.891887,-13.3041 -11.123245,-14.94815 1.894102,-1.76068 23.263556,-18.66767 73.101739,-57.83631 1.189502,-0.934851 8.621388,-6.743749 16.515308,-12.908663 7.89391,-6.164914 15.32137,-11.979475 16.50546,-12.921248 22.22403,-17.676036 37.31669,-28.911822 37.31669,-27.780552 0,1.722416 -6.30196,18.640127 -8.36198,22.447869 -0.80992,1.497054 -4.35723,8.53471 -7.88292,15.639234 -9.40787,18.957574 -9.54007,19.182824 -20.98216,35.751648 -18.34109,26.558962 -45.639948,53.268642 -74.011362,72.414002 -16.05454,10.83379 -16.147247,10.87735 -19.126952,8.98841 z"
           id="path10" /><path
           style="opacity:1;fill:#f9f9f9;fill-opacity:1;stroke:none;stroke-width:0.820967;stroke-linecap:square;stroke-linejoin:miter;stroke-dasharray:none;stroke-opacity:1"
           d="m -61.304299,119.48461 -44.780611,-44.851227 1.33746,-10.046801 c 0.7356,-5.525741 1.83794,-12.797571 2.44963,-16.159621 l 1.11218,-6.11282 58.567352,58.586839 58.567357,58.58683 -11.9214928,1.77596 c -6.5568197,0.97678 -13.8631897,2.06758 -16.2363762,2.42401 -4.022328,0.60411 -7.351083,-2.39293 -49.095499,-44.20317 z"
           id="path11" /><path
           style="opacity:1;fill:#f9f9f9;fill-opacity:1;stroke:none;stroke-width:0.290256;stroke-linecap:square;stroke-linejoin:miter;stroke-dasharray:none;stroke-opacity:1"
           d="m -125.20173,76.892213 c 0.091,-0.272879 11.49876,11.175605 13.70046,14.901795 l 6.1595,10.424442 -1.20622,1.28397 c -2.05264,2.91343 -18.04764,-24.457722 -18.65374,-26.610207 z"
           id="path12"
           sodipodi:nodetypes="cscsc" /><path
           style="opacity:1;fill:#f9f9f9;fill-opacity:1;stroke:none;stroke-width:0.290256;stroke-linecap:square;stroke-linejoin:miter;stroke-dasharray:none;stroke-opacity:1"
           d="m -93.554305,151.63887 c -9.387205,-9.39673 -17.063725,-17.21766 -17.058945,-17.37983 0.005,-0.16217 4.12325,-4.48891 9.15215,-9.61497 l 9.143472,-9.32013 17.529734,17.54981 17.529732,17.5498 -3.522837,3.44144 c -7.43952,7.26763 -15.377804,14.85885 -15.53818,14.85885 -0.09212,0 -7.847924,-7.68824 -17.235126,-17.08497 z"
           id="path13" /><path
           style="opacity:1;fill:#f9f9f9;fill-opacity:1;stroke:none;stroke-width:0.290256;stroke-linecap:square;stroke-linejoin:miter;stroke-dasharray:none;stroke-opacity:1"
           d="m -149.69483,238.24313 c 0,-0.27909 -0.39961,-0.50967 -0.88802,-0.5124 -1.12465,-0.006 -29.05095,-27.98291 -29.05095,-29.10331 0,-0.45688 -0.22835,-0.83069 -0.50744,-0.83069 -0.27909,0 -0.50744,-0.68505 -0.50744,-1.52233 0,-0.83727 0.22835,-1.52232 0.50744,-1.52232 0.27909,0 0.50744,-0.35883 0.50744,-0.7974 0,-0.99456 -3.20603,2.32504 28.10538,-29.10093 14.76023,-14.81423 27.09103,-26.93044 27.40177,-26.92493 0.31074,0.006 8.27534,7.73922 17.69912,17.18601 l 17.134136,17.17598 -23.039896,23.02862 c -30.28357,30.26874 -32.50177,32.41626 -33.48329,32.41626 -0.45849,0 -0.83361,0.22835 -0.83361,0.50744 0,0.27909 -0.68505,0.50744 -1.52232,0.50744 -0.83728,0 -1.52232,-0.22835 -1.52232,-0.50744 z"
           id="path14" /><path
           style="opacity:1;fill:#f9f9f9;fill-opacity:1;stroke:none;stroke-width:0.580512;stroke-linecap:square;stroke-linejoin:miter;stroke-dasharray:none;stroke-opacity:1"
           d="m 131.93443,214.13973 v -7.61161 h 7.6116 7.6116 v 7.61161 7.6116 h -7.6116 -7.6116 z"
           id="path15" /><path
           style="opacity:1;fill:#f9f9f9;fill-opacity:1;stroke:none;stroke-width:0.580512;stroke-linecap:square;stroke-linejoin:miter;stroke-dasharray:none;stroke-opacity:1"
           d="m 212.10997,229.87037 v -8.11904 h -7.61161 -7.6116 v -7.6116 -7.61161 h 7.6116 7.61161 v -8.11904 -8.11904 h 7.6116 7.6116 v 8.11904 8.11904 h 8.11904 8.11904 v 7.61161 7.6116 h -8.11904 -8.11904 v 8.11904 8.11904 h -7.6116 -7.6116 z"
           id="path16" /><path
           style="opacity:1;fill:#f9f9f9;fill-opacity:1;stroke:none;stroke-width:0.580512;stroke-linecap:square;stroke-linejoin:miter;stroke-dasharray:none;stroke-opacity:1"
           d="m 244.58613,117.72611 v -7.61161 h -8.11904 -8.11904 v -7.6116 -7.611599 h 8.11904 8.11904 v -8.119042 -8.119042 h 7.6116 7.61161 v 8.119042 8.119042 h 7.6116 7.6116 v 7.611599 7.6116 h -7.6116 -7.6116 v 7.61161 7.6116 h -7.61161 -7.6116 z"
           id="path17" /><path
           style="opacity:1;fill:#f9f9f9;fill-opacity:1;stroke:none;stroke-width:0.580512;stroke-linecap:square;stroke-linejoin:miter;stroke-dasharray:none;stroke-opacity:1"
           d="m 260.82422,254.22749 v -7.10416 h 7.10416 7.10416 v 7.10416 7.10417 h -7.10416 -7.10416 z"
           id="path18" /></g></g></g></svg>
