<svg width="46" height="39" viewBox="0 0 46 39" fill="none" xmlns="http://www.w3.org/2000/svg">
<path d="M4.70068 24.454L7.89597 16.4453L5.09944 8.715L41.2868 8.70898L38.2722 16.5663L41.7385 24.4541" fill="black"/>
<path d="M4.70068 24.454L7.89597 16.4453L5.09944 8.715L41.2868 8.70898L38.2722 16.5663L41.7385 24.4541" stroke="black" stroke-width="1.50538" stroke-linecap="round" stroke-linejoin="round"/>
<path d="M12.0459 23.3556C12.0459 23.3556 12.9996 21.5473 14.1268 21.2557C14.1268 21.2557 14.3027 22.4848 15.514 23.239C15.514 23.239 16.7279 21.7807 17.4215 21.489C17.4215 21.489 17.9778 23.0952 18.8423 24.1039C18.8423 24.1039 20.3378 22.2986 20.858 22.1236C20.858 22.1236 20.0611 23.1812 20.8897 23.7056C20.8897 23.7056 21.2365 22.1306 21.7567 21.6057C21.7567 21.6057 22.2891 23.0198 23.4041 23.589C23.4041 23.589 24.1844 21.9557 24.5312 21.664C24.5312 21.664 25.3448 23.0098 26.0919 23.3556C26.0919 23.3556 26.0201 22.4842 27.3986 21.4094C27.3986 21.4094 27.7208 22.2785 29.6467 23.2973C29.6467 23.2973 30.1283 21.5906 31.3421 20.9932C31.3421 20.9932 31.6844 22.473 32.8548 23.3556C32.8548 23.3556 33.1476 21.7444 34.7249 21.0515C34.7249 21.0515 34.3164 22.1 35.1091 23.064L34.9273 24.3674L12.0591 24.3262L12.0459 23.3556Z" fill="white"/>
<path d="M11.7383 15.3203L19.6384 17.508C19.6384 17.508 12.4907 20.2208 11.7383 15.3203Z" fill="white" stroke="white" stroke-width="1.70121" stroke-linecap="round" stroke-linejoin="round"/>
<path d="M35.1457 15.3604L27.2456 17.5481C27.2456 17.5481 34.3933 20.2608 35.1457 15.3604Z" fill="white" stroke="white" stroke-width="1.70121" stroke-linecap="round" stroke-linejoin="round"/>
<path d="M1.94629 24.54L4.88875 37.6298L42.1599 37.5443L44.9798 24.54H1.94629Z" fill="white"/>
<path d="M5.13623 8.68878L7.32366 1.53027H37.4309L41.2493 8.68175" fill="white"/>
<path d="M12.2749 24.3389C12.2749 24.3389 9.3428 22.5058 9.76774 20.8926C9.76774 20.8926 7.81299 23.2146 7.81299 24.4612" fill="white"/>
<path d="M12.2749 24.3389C12.2749 24.3389 9.3428 22.5058 9.76774 20.8926C9.76774 20.8926 7.81299 23.2146 7.81299 24.4612" stroke="black" stroke-width="0.5" stroke-linecap="round" stroke-linejoin="round"/>
<path d="M34.1099 24.3028C34.1099 24.3028 37.0319 22.4109 36.6084 20.7461C36.6084 20.7461 38.5565 23.1315 38.5565 24.418" fill="white"/>
<path d="M34.1099 24.3028C34.1099 24.3028 37.0319 22.4109 36.6084 20.7461C36.6084 20.7461 38.5565 23.1315 38.5565 24.418" stroke="black" stroke-width="0.5" stroke-linecap="round" stroke-linejoin="round"/>
<path d="M13.0615 8.71289C13.0615 8.71289 10.1493 10.6635 10.5713 12.3801C10.5713 12.3801 8.62988 10.2734 8.62988 8.94696" fill="white"/>
<path d="M13.0615 8.71289C13.0615 8.71289 10.1493 10.6635 10.5713 12.3801C10.5713 12.3801 8.62988 10.2734 8.62988 8.94696" stroke="black" stroke-width="0.5" stroke-linecap="round" stroke-linejoin="round"/>
<path d="M18.7812 24.0876C18.7812 24.0876 25.7589 24.9202 26.2691 27.7883C26.7794 30.6564 26.9597 31.2741 26.9597 31.2741C26.9597 31.2741 27.9982 35.0475 34.5744 35.5025C34.5744 35.5025 37.7491 35.8387 39.5632 34.0981C39.5632 34.0981 40.9071 33.0044 41.1338 32.1341C41.1338 32.1341 40.8504 31.7781 40.1984 32.1341C39.5465 32.4901 37.82 32.8618 37.82 32.8618C37.82 32.8618 34.752 33.0399 34.9788 29.5091C34.9788 29.5091 35.3304 27.2525 32.5644 24.3573C32.5644 24.3573 26.3385 18.9139 19.3857 20.2877" fill="black"/>
<path d="M32.9004 8.46875C32.9004 8.46875 35.8175 10.39 35.3947 12.0807C35.3947 12.0807 37.3395 10.0057 37.3395 8.6993" fill="white"/>
<path d="M32.9004 8.46875C32.9004 8.46875 35.8175 10.39 35.3947 12.0807C35.3947 12.0807 37.3395 10.0057 37.3395 8.6993" stroke="black" stroke-width="0.5" stroke-linecap="round" stroke-linejoin="round"/>
<path d="M39.0947 24.1125L40.3821 21.9736L42.0372 24.2836L39.0947 24.1125Z" fill="white" stroke="black" stroke-width="0.5" stroke-linecap="round"/>
<path d="M7.2796 24.3691L6.05357 21.9736L5.07275 23.9414L7.2796 24.3691Z" fill="white" stroke="black" stroke-width="0.5" stroke-linecap="round"/>
<path d="M37.6772 9.36655L39.8445 11.8771L41.0149 8.61035L37.4604 8.76159L37.6772 9.36655Z" fill="white" stroke="black" stroke-width="0.5" stroke-linecap="round" stroke-linejoin="round"/>
<path d="M8.33135 8.82216L6.5108 12.0284L5.38379 8.70117L8.33135 8.82216Z" fill="white" stroke="black" stroke-width="0.5" stroke-linecap="round" stroke-linejoin="round"/>
</svg>
