<svg width="39" height="40" viewBox="0 0 39 40" fill="none" xmlns="http://www.w3.org/2000/svg">
<path d="M3.98535 25.1233L6.6944 16.8954L4.32343 8.95357L35.004 8.94739L32.4481 17.0197L35.3869 25.1234" fill="black"/>
<path d="M3.98535 25.1233L6.6944 16.8954L4.32343 8.95357L35.004 8.94739L32.4481 17.0197L35.3869 25.1234" stroke="black" stroke-width="1.50538" stroke-linecap="round" stroke-linejoin="round"/>
<path d="M10.2129 23.995C10.2129 23.995 11.0215 22.1372 11.9771 21.8376C11.9771 21.8376 12.1263 23.1003 13.1533 23.8751C13.1533 23.8751 14.1824 22.3769 14.7705 22.0773C14.7705 22.0773 15.2421 23.7274 15.975 24.7638C15.975 24.7638 17.243 22.909 17.684 22.7292C17.684 22.7292 17.0084 23.8158 17.7109 24.3546C17.7109 24.3546 18.0049 22.7365 18.446 22.1971C18.446 22.1971 18.8973 23.65 19.8427 24.2347C19.8427 24.2347 20.5042 22.5567 20.7983 22.2571C20.7983 22.2571 21.488 23.6397 22.1215 23.995C22.1215 23.995 22.0606 23.0997 23.2293 21.9955C23.2293 21.9955 23.5025 22.8884 25.1353 23.9351C25.1353 23.9351 25.5436 22.1817 26.5727 21.5679C26.5727 21.5679 26.8629 23.0882 27.8552 23.995C27.8552 23.995 28.1034 22.3397 29.4408 21.6278C29.4408 21.6278 29.0944 22.705 29.7664 23.6953L29.6123 25.0345L10.2241 24.9921L10.2129 23.995Z" fill="white"/>
<path d="M9.95215 15.7395L16.6501 17.9871C16.6501 17.9871 10.59 20.7741 9.95215 15.7395Z" fill="white" stroke="white" stroke-width="1.70121" stroke-linecap="round" stroke-linejoin="round"/>
<path d="M29.7975 15.7811L23.0996 18.0287C23.0996 18.0287 29.1596 20.8157 29.7975 15.7811Z" fill="white" stroke="white" stroke-width="1.70121" stroke-linecap="round" stroke-linejoin="round"/>
<path d="M1.65039 25.2123L4.14508 38.6603L35.7445 38.5724L38.1353 25.2123H1.65039Z" fill="white"/>
<path d="M4.35547 8.9269L6.21003 1.57251H31.7357L34.973 8.91968" fill="white"/>
<path d="M10.407 25.0053C10.407 25.0053 7.92103 23.1219 8.28131 21.4646C8.28131 21.4646 6.62402 23.8502 6.62402 25.1308" fill="white"/>
<path d="M10.407 25.0053C10.407 25.0053 7.92103 23.1219 8.28131 21.4646C8.28131 21.4646 6.62402 23.8502 6.62402 25.1308" stroke="black" stroke-width="0.5" stroke-linecap="round" stroke-linejoin="round"/>
<path d="M28.9199 24.9686C28.9199 24.9686 31.3973 23.025 31.0383 21.3146C31.0383 21.3146 32.6899 23.7653 32.6899 25.0869" fill="white"/>
<path d="M28.9199 24.9686C28.9199 24.9686 31.3973 23.025 31.0383 21.3146C31.0383 21.3146 32.6899 23.7653 32.6899 25.0869" stroke="black" stroke-width="0.5" stroke-linecap="round" stroke-linejoin="round"/>
<path d="M11.0736 8.95203C11.0736 8.95203 8.6046 10.956 8.96243 12.7196C8.96243 12.7196 7.31641 10.5552 7.31641 9.19251" fill="white"/>
<path d="M11.0736 8.95203C11.0736 8.95203 8.6046 10.956 8.96243 12.7196C8.96243 12.7196 7.31641 10.5552 7.31641 9.19251" stroke="black" stroke-width="0.5" stroke-linecap="round" stroke-linejoin="round"/>
<path d="M15.9238 24.7467C15.9238 24.7467 21.8397 25.6021 22.2723 28.5487C22.7048 31.4953 22.8578 32.1299 22.8578 32.1299C22.8578 32.1299 23.7382 36.0066 29.3137 36.474C29.3137 36.474 32.0053 36.8195 33.5433 35.0312C33.5433 35.0312 34.6827 33.9076 34.8749 33.0134C34.8749 33.0134 34.6346 32.6476 34.0819 33.0134C33.5291 33.3792 32.0654 33.7611 32.0654 33.7611C32.0654 33.7611 29.4643 33.944 29.6565 30.3166C29.6565 30.3166 29.9546 27.9983 27.6095 25.0238C27.6095 25.0238 22.3311 19.4315 16.4363 20.8429" fill="black"/>
<path d="M27.8936 8.70068C27.8936 8.70068 30.3668 10.6745 30.0083 12.4114C30.0083 12.4114 31.6571 10.2797 31.6571 8.93754" fill="white"/>
<path d="M27.8936 8.70068C27.8936 8.70068 30.3668 10.6745 30.0083 12.4114C30.0083 12.4114 31.6571 10.2797 31.6571 8.93754" stroke="black" stroke-width="0.5" stroke-linecap="round" stroke-linejoin="round"/>
<path d="M33.1455 24.7728L34.2369 22.5754L35.6402 24.9486L33.1455 24.7728Z" fill="white" stroke="black" stroke-width="0.5" stroke-linecap="round"/>
<path d="M6.1718 25.0365L5.13235 22.5754L4.30078 24.597L6.1718 25.0365Z" fill="white" stroke="black" stroke-width="0.5" stroke-linecap="round"/>
<path d="M31.9435 9.62369L33.781 12.203L34.7733 8.8468L31.7598 9.00218L31.9435 9.62369Z" fill="white" stroke="black" stroke-width="0.5" stroke-linecap="round" stroke-linejoin="round"/>
<path d="M7.06445 9.06437L5.52094 12.3584L4.56543 8.94006L7.06445 9.06437Z" fill="white" stroke="black" stroke-width="0.5" stroke-linecap="round" stroke-linejoin="round"/>
</svg>
