<svg width="45" height="50" viewBox="0 0 45 50" fill="none" xmlns="http://www.w3.org/2000/svg">
<path d="M4.59863 31.404L7.72446 21.1191L4.98873 11.1918L40.3894 11.1841L37.4403 21.2745L40.8312 31.404" fill="black"/>
<path d="M4.59863 31.404L7.72446 21.1191L4.98873 11.1918L40.3894 11.1841L37.4403 21.2745L40.8312 31.404" stroke="black" stroke-width="1.50538" stroke-linecap="round" stroke-linejoin="round"/>
<path d="M11.7842 29.9939C11.7842 29.9939 12.7172 27.6716 13.8198 27.2971C13.8198 27.2971 13.992 28.8755 15.1769 29.844C15.1769 29.844 16.3644 27.9713 17.0429 27.5967C17.0429 27.5967 17.5871 29.6594 18.4328 30.9548C18.4328 30.9548 19.8958 28.6364 20.4047 28.4116C20.4047 28.4116 19.6251 29.7699 20.4357 30.4433C20.4357 30.4433 20.775 28.4207 21.2839 27.7465C21.2839 27.7465 21.8047 29.5626 22.8954 30.2935C22.8954 30.2935 23.6588 28.196 23.9981 27.8214C23.9981 27.8214 24.7939 29.5497 25.5248 29.9939C25.5248 29.9939 25.4546 28.8747 26.8031 27.4945C26.8031 27.4945 27.1183 28.6107 29.0024 29.9189C29.0024 29.9189 29.4735 27.7272 30.6609 26.96C30.6609 26.96 30.9957 28.8603 32.1407 29.9939C32.1407 29.9939 32.4271 27.9247 33.9702 27.0349C33.9702 27.0349 33.5706 28.3814 34.346 29.6193L34.1681 31.2932L11.7971 31.2403L11.7842 29.9939Z" fill="white"/>
<path d="M11.4834 19.6743L19.2118 22.4838C19.2118 22.4838 12.2194 25.9676 11.4834 19.6743Z" fill="white" stroke="white" stroke-width="1.70121" stroke-linecap="round" stroke-linejoin="round"/>
<path d="M34.3817 19.7263L26.6533 22.5358C26.6533 22.5358 33.6457 26.0196 34.3817 19.7263Z" fill="white" stroke="white" stroke-width="1.70121" stroke-linecap="round" stroke-linejoin="round"/>
<path d="M1.9043 31.5154L4.78279 48.3254L41.2437 48.2155L44.0023 31.5154H1.9043Z" fill="white"/>
<path d="M5.02539 11.1586L7.16527 1.96558H36.618L40.3534 11.1495" fill="white"/>
<path d="M12.0085 31.2564C12.0085 31.2564 9.14011 28.9022 9.55581 26.8306C9.55581 26.8306 7.64355 29.8125 7.64355 31.4134" fill="white"/>
<path d="M12.0085 31.2564C12.0085 31.2564 9.14011 28.9022 9.55581 26.8306C9.55581 26.8306 7.64355 29.8125 7.64355 31.4134" stroke="black" stroke-width="0.5" stroke-linecap="round" stroke-linejoin="round"/>
<path d="M33.3691 31.2108C33.3691 31.2108 36.2277 28.7813 35.8134 26.6433C35.8134 26.6433 37.7191 29.7067 37.7191 31.3587" fill="white"/>
<path d="M33.3691 31.2108C33.3691 31.2108 36.2277 28.7813 35.8134 26.6433C35.8134 26.6433 37.7191 29.7067 37.7191 31.3587" stroke="black" stroke-width="0.5" stroke-linecap="round" stroke-linejoin="round"/>
<path d="M12.7776 11.1899C12.7776 11.1899 9.92876 13.6949 10.3416 15.8993C10.3416 15.8993 8.44238 13.1939 8.44238 11.4905" fill="white"/>
<path d="M12.7776 11.1899C12.7776 11.1899 9.92876 13.6949 10.3416 15.8993C10.3416 15.8993 8.44238 13.1939 8.44238 11.4905" stroke="black" stroke-width="0.5" stroke-linecap="round" stroke-linejoin="round"/>
<path d="M18.373 30.9333C18.373 30.9333 25.199 32.0025 25.6982 35.6858C26.1973 39.369 26.3738 40.1624 26.3738 40.1624C26.3738 40.1624 27.3896 45.0082 33.8229 45.5924C33.8229 45.5924 36.9286 46.0243 38.7032 43.7889C38.7032 43.7889 40.0179 42.3844 40.2397 41.2667C40.2397 41.2667 39.9624 40.8095 39.3246 41.2667C38.6869 41.7239 36.9979 42.2013 36.9979 42.2013C36.9979 42.2013 33.9966 42.4299 34.2185 37.8957C34.2185 37.8957 34.5624 34.9978 31.8565 31.2797C31.8565 31.2797 25.7661 24.2893 18.9644 26.0535" fill="black"/>
<path d="M32.1855 10.8757C32.1855 10.8757 35.0392 13.343 34.6257 15.5142C34.6257 15.5142 36.5281 12.8495 36.5281 11.1718" fill="white"/>
<path d="M32.1855 10.8757C32.1855 10.8757 35.0392 13.343 34.6257 15.5142C34.6257 15.5142 36.5281 12.8495 36.5281 11.1718" stroke="black" stroke-width="0.5" stroke-linecap="round" stroke-linejoin="round"/>
<path d="M38.2451 30.966L39.5045 28.2192L41.1236 31.1857L38.2451 30.966Z" fill="white" stroke="black" stroke-width="0.5" stroke-linecap="round"/>
<path d="M7.12176 31.2956L5.92239 28.2192L4.96289 30.7462L7.12176 31.2956Z" fill="white" stroke="black" stroke-width="0.5" stroke-linecap="round"/>
<path d="M36.8585 12.0297L38.9787 15.2538L40.1236 11.0586L36.6465 11.2528L36.8585 12.0297Z" fill="white" stroke="black" stroke-width="0.5" stroke-linecap="round" stroke-linejoin="round"/>
<path d="M8.15107 11.3304L6.37009 15.448L5.26758 11.175L8.15107 11.3304Z" fill="white" stroke="black" stroke-width="0.5" stroke-linecap="round" stroke-linejoin="round"/>
</svg>
