<svg width="27" height="27" viewBox="0 0 27 27" fill="none" xmlns="http://www.w3.org/2000/svg">
<path d="M2.75879 16.9583L4.63428 11.4044L2.99284 6.04372L24.2332 6.03955L22.4638 11.4884L24.4984 16.9583" fill="black"/>
<path d="M2.75879 16.9583L4.63428 11.4044L2.99284 6.04372L24.2332 6.03955L22.4638 11.4884L24.4983 16.9583" stroke="black" stroke-width="1.50538" stroke-linecap="round" stroke-linejoin="round"/>
<path d="M7.07031 16.1966C7.07031 16.1966 7.63012 14.9426 8.2917 14.7404C8.2917 14.7404 8.39499 15.5927 9.10596 16.1157C9.10596 16.1157 9.81844 15.1045 10.2256 14.9022C10.2256 14.9022 10.5521 16.0161 11.0595 16.7156C11.0595 16.7156 11.9373 15.4636 12.2426 15.3423C12.2426 15.3423 11.7749 16.0757 12.2612 16.4394C12.2612 16.4394 12.4648 15.3472 12.7701 14.9831C12.7701 14.9831 13.0826 15.9638 13.7371 16.3585C13.7371 16.3585 14.1951 15.2258 14.3987 15.0235C14.3987 15.0235 14.8762 15.9568 15.3147 16.1966C15.3147 16.1966 15.2725 15.5923 16.0817 14.847C16.0817 14.847 16.2708 15.4497 17.4012 16.1562C17.4012 16.1562 17.6839 14.9727 18.3964 14.5583C18.3964 14.5583 18.5972 15.5845 19.2842 16.1966C19.2842 16.1966 19.4561 15.0793 20.3819 14.5988C20.3819 14.5988 20.1421 15.3259 20.6074 15.9944L20.5007 16.8983L7.07808 16.8697L7.07031 16.1966Z" fill="white"/>
<path d="M6.88965 10.6243L11.5267 12.1414C11.5267 12.1414 7.33127 14.0226 6.88965 10.6243Z" fill="white" stroke="white" stroke-width="1.70121" stroke-linecap="round" stroke-linejoin="round"/>
<path d="M20.6292 10.6523L15.9922 12.1695C15.9922 12.1695 20.1876 14.0507 20.6292 10.6523Z" fill="white" stroke="white" stroke-width="1.70121" stroke-linecap="round" stroke-linejoin="round"/>
<path d="M1.14258 17.0183L2.86967 26.0957L24.7462 26.0364L26.4014 17.0183H1.14258Z" fill="white"/>
<path d="M3.01465 6.02574L4.29857 1.06152H21.9702L24.2114 6.02087" fill="white"/>
<path d="M7.2049 16.8785C7.2049 16.8785 5.48387 15.6072 5.73329 14.4885C5.73329 14.4885 4.58594 16.0988 4.58594 16.9632" fill="white"/>
<path d="M7.2049 16.8785C7.2049 16.8785 5.48387 15.6072 5.73329 14.4885C5.73329 14.4885 4.58594 16.0988 4.58594 16.9632" stroke="black" stroke-width="0.5" stroke-linecap="round" stroke-linejoin="round"/>
<path d="M20.0215 16.8539C20.0215 16.8539 21.7366 15.542 21.488 14.3875C21.488 14.3875 22.6315 16.0417 22.6315 16.9338" fill="white"/>
<path d="M20.0215 16.8539C20.0215 16.8539 21.7366 15.542 21.488 14.3875C21.488 14.3875 22.6315 16.0417 22.6315 16.9338" stroke="black" stroke-width="0.5" stroke-linecap="round" stroke-linejoin="round"/>
<path d="M7.66659 6.04272C7.66659 6.04272 5.95726 7.39543 6.20499 8.5858C6.20499 8.5858 5.06543 7.12489 5.06543 6.20505" fill="white"/>
<path d="M7.66659 6.04272C7.66659 6.04272 5.95726 7.39543 6.20499 8.58581C6.20499 8.58581 5.06543 7.12489 5.06543 6.20505" stroke="black" stroke-width="0.5" stroke-linecap="round" stroke-linejoin="round"/>
<path d="M11.0234 16.704C11.0234 16.704 15.119 17.2814 15.4185 19.2704C15.718 21.2593 15.8239 21.6877 15.8239 21.6877C15.8239 21.6877 16.4334 24.3045 20.2933 24.62C20.2933 24.62 22.1567 24.8531 23.2216 23.6461C23.2216 23.6461 24.0103 22.8876 24.1434 22.2841C24.1434 22.2841 23.9771 22.0372 23.5944 22.2841C23.2117 22.531 22.1983 22.7887 22.1983 22.7887C22.1983 22.7887 20.3976 22.9122 20.5307 20.4637C20.5307 20.4637 20.737 18.8988 19.1135 16.8911C19.1135 16.8911 15.4592 13.1163 11.3783 14.0689" fill="black"/>
<path d="M19.3115 5.87305C19.3115 5.87305 21.0237 7.20536 20.7756 8.3778C20.7756 8.3778 21.9171 6.9389 21.9171 6.03292" fill="white"/>
<path d="M19.3115 5.87305C19.3115 5.87305 21.0237 7.20536 20.7756 8.3778C20.7756 8.3778 21.9171 6.9389 21.9171 6.03292" stroke="black" stroke-width="0.5" stroke-linecap="round" stroke-linejoin="round"/>
<path d="M22.9473 16.7218L23.7029 15.2385L24.6744 16.8404L22.9473 16.7218Z" fill="white" stroke="black" stroke-width="0.5" stroke-linecap="round"/>
<path d="M4.27286 16.8997L3.55324 15.2385L2.97754 16.6031L4.27286 16.8997Z" fill="white" stroke="black" stroke-width="0.5" stroke-linecap="round"/>
<path d="M22.1155 6.49608L23.3876 8.2371L24.0746 5.97168L21.9883 6.07656L22.1155 6.49608Z" fill="white" stroke="black" stroke-width="0.5" stroke-linecap="round" stroke-linejoin="round"/>
<path d="M4.89025 6.11857L3.82166 8.34204L3.16016 6.03467L4.89025 6.11857Z" fill="white" stroke="black" stroke-width="0.5" stroke-linecap="round" stroke-linejoin="round"/>
</svg>
