<svg width="46" height="39" viewBox="0 0 46 39" fill="none" xmlns="http://www.w3.org/2000/svg">
<path d="M4.70068 24.4542L7.89597 16.4454L5.09944 8.71512L41.2868 8.70911L38.2722 16.5664L41.7385 24.4542" fill="black"/>
<path d="M4.70068 24.4541L7.89597 16.4454L5.09944 8.71512L41.2868 8.70911L38.2722 16.5664L41.7385 24.4542" stroke="black" stroke-width="1.50538" stroke-linecap="round" stroke-linejoin="round"/>
<path d="M12.0459 23.3559C12.0459 23.3559 12.9996 21.5476 14.1268 21.2559C14.1268 21.2559 14.3027 22.485 15.514 23.2392C15.514 23.2392 16.7279 21.7809 17.4215 21.4892C17.4215 21.4892 17.9778 23.0954 18.8423 24.1042C18.8423 24.1042 20.3378 22.2988 20.858 22.1238C20.858 22.1238 20.0611 23.1815 20.8897 23.7059C20.8897 23.7059 21.2365 22.1309 21.7567 21.6059C21.7567 21.6059 22.2891 23.02 23.4041 23.5892C23.4041 23.5892 24.1844 21.9559 24.5312 21.6642C24.5312 21.6642 25.3448 23.01 26.0919 23.3559C26.0919 23.3559 26.0201 22.4844 27.3986 21.4097C27.3986 21.4097 27.7208 22.2788 29.6467 23.2975C29.6467 23.2975 30.1283 21.5909 31.3421 20.9934C31.3421 20.9934 31.6844 22.4732 32.8548 23.3559C32.8548 23.3559 33.1476 21.7447 34.7249 21.0517C34.7249 21.0517 34.3164 22.1003 35.1091 23.0642L34.9273 24.3677L12.0591 24.3264L12.0459 23.3559Z" fill="white"/>
<path d="M11.7383 15.3202L19.6384 17.5079C19.6384 17.5079 12.4907 20.2207 11.7383 15.3202Z" fill="white" stroke="white" stroke-width="1.70121" stroke-linecap="round" stroke-linejoin="round"/>
<path d="M35.1457 15.3608L27.2456 17.5486C27.2456 17.5486 34.3933 20.2613 35.1457 15.3608Z" fill="white" stroke="white" stroke-width="1.70121" stroke-linecap="round" stroke-linejoin="round"/>
<path d="M1.94629 24.5408L4.88875 37.6306L42.1599 37.545L44.9798 24.5408H1.94629Z" fill="white"/>
<path d="M5.13623 8.68914L7.32366 1.53064H37.4309L41.2493 8.68211" fill="white"/>
<path d="M12.2749 24.3392C12.2749 24.3392 9.3428 22.506 9.76774 20.8928C9.76774 20.8928 7.81299 23.2149 7.81299 24.4614" fill="white"/>
<path d="M12.2749 24.3392C12.2749 24.3392 9.3428 22.506 9.76774 20.8928C9.76774 20.8928 7.81299 23.2149 7.81299 24.4614" stroke="black" stroke-width="0.5" stroke-linecap="round" stroke-linejoin="round"/>
<path d="M34.1099 24.3035C34.1099 24.3035 37.0319 22.4117 36.6084 20.7468C36.6084 20.7468 38.5565 23.1322 38.5565 24.4187" fill="white"/>
<path d="M34.1099 24.3035C34.1099 24.3035 37.0319 22.4117 36.6084 20.7468C36.6084 20.7468 38.5565 23.1322 38.5565 24.4187" stroke="black" stroke-width="0.5" stroke-linecap="round" stroke-linejoin="round"/>
<path d="M13.0615 8.7135C13.0615 8.7135 10.1493 10.6641 10.5713 12.3807C10.5713 12.3807 8.62988 10.274 8.62988 8.94757" fill="white"/>
<path d="M13.0615 8.7135C13.0615 8.7135 10.1493 10.6641 10.5713 12.3807C10.5713 12.3807 8.62988 10.274 8.62988 8.94757" stroke="black" stroke-width="0.5" stroke-linecap="round" stroke-linejoin="round"/>
<path d="M18.7812 24.0876C18.7812 24.0876 25.7589 24.9202 26.2691 27.7883C26.7794 30.6564 26.9597 31.2741 26.9597 31.2741C26.9597 31.2741 27.9982 35.0475 34.5744 35.5025C34.5744 35.5025 37.7491 35.8387 39.5632 34.0981C39.5632 34.0981 40.9071 33.0044 41.1338 32.1341C41.1338 32.1341 40.8504 31.7781 40.1984 32.1341C39.5465 32.4901 37.82 32.8618 37.82 32.8618C37.82 32.8618 34.752 33.0399 34.9788 29.5091C34.9788 29.5091 35.3304 27.2525 32.5644 24.3573C32.5644 24.3573 26.3385 18.9139 19.3857 20.2877" fill="black"/>
<path d="M32.9004 8.46899C32.9004 8.46899 35.8175 10.3902 35.3947 12.0809C35.3947 12.0809 37.3395 10.006 37.3395 8.69954" fill="white"/>
<path d="M32.9004 8.46899C32.9004 8.46899 35.8175 10.3902 35.3947 12.0809C35.3947 12.0809 37.3395 10.006 37.3395 8.69954" stroke="black" stroke-width="0.5" stroke-linecap="round" stroke-linejoin="round"/>
<path d="M39.0947 24.113L40.3821 21.9741L42.0372 24.2841L39.0947 24.113Z" fill="white" stroke="black" stroke-width="0.5" stroke-linecap="round"/>
<path d="M7.2796 24.3696L6.05357 21.9741L5.07275 23.9419L7.2796 24.3696Z" fill="white" stroke="black" stroke-width="0.5" stroke-linecap="round"/>
<path d="M37.6772 9.36741L39.8445 11.878L41.0149 8.61121L37.4604 8.76245L37.6772 9.36741Z" fill="white" stroke="black" stroke-width="0.5" stroke-linecap="round" stroke-linejoin="round"/>
<path d="M8.33135 8.8229L6.5108 12.0292L5.38379 8.7019L8.33135 8.8229Z" fill="white" stroke="black" stroke-width="0.5" stroke-linecap="round" stroke-linejoin="round"/>
</svg>
