<svg width="71" height="73" viewBox="0 0 71 73" fill="none" xmlns="http://www.w3.org/2000/svg">
<path d="M7.25537 45.8501L12.1872 30.8342L7.87085 16.3404L63.7252 16.3291L59.0722 31.0611L64.4224 45.8502" fill="black"/>
<path d="M7.25537 45.8501L12.1872 30.8342L7.87085 16.3404L63.7252 16.3291L59.0722 31.0611L64.4224 45.8502" stroke="black" stroke-width="1.50538" stroke-linecap="round" stroke-linejoin="round"/>
<path d="M18.5933 43.7908C18.5933 43.7908 20.0653 40.4003 21.8051 39.8535C21.8051 39.8535 22.0767 42.158 23.9463 43.5721C23.9463 43.5721 25.8198 40.8378 26.8904 40.291C26.8904 40.291 27.749 43.3025 29.0833 45.1939C29.0833 45.1939 31.3916 41.8089 32.1945 41.4808C32.1945 41.4808 30.9645 43.4638 32.2434 44.447C32.2434 44.447 32.7787 41.494 33.5817 40.5097C33.5817 40.5097 34.4034 43.1611 36.1244 44.2283C36.1244 44.2283 37.3288 41.1659 37.8641 40.6191C37.8641 40.6191 39.1198 43.1424 40.2729 43.7908C40.2729 43.7908 40.1621 42.1569 42.2898 40.1418C42.2898 40.1418 42.7871 41.7714 45.7598 43.6814C45.7598 43.6814 46.503 40.4816 48.3766 39.3613C48.3766 39.3613 48.9048 42.1359 50.7113 43.7908C50.7113 43.7908 51.1632 40.7699 53.5978 39.4707C53.5978 39.4707 52.9673 41.4366 54.1908 43.244L53.9102 45.6879L18.6137 45.6106L18.5933 43.7908Z" fill="white"/>
<path d="M18.1177 28.7246L30.3113 32.8265C30.3113 32.8265 19.279 37.9128 18.1177 28.7246Z" fill="white" stroke="white" stroke-width="1.70121" stroke-linecap="round" stroke-linejoin="round"/>
<path d="M54.2474 28.8008L42.0537 32.9026C42.0537 32.9026 53.0861 37.9889 54.2474 28.8008Z" fill="white" stroke="white" stroke-width="1.70121" stroke-linecap="round" stroke-linejoin="round"/>
<path d="M3.00439 46.0127L7.54601 70.5553L65.0732 70.3949L69.4256 46.0127H3.00439Z" fill="white"/>
<path d="M7.92822 16.2919L11.3045 2.87012H57.7743L63.6679 16.2787" fill="white"/>
<path d="M18.946 45.6346C18.946 45.6346 14.4203 42.1975 15.0762 39.1729C15.0762 39.1729 12.0591 43.5265 12.0591 45.8638" fill="white"/>
<path d="M18.946 45.6346C18.946 45.6346 14.4203 42.1975 15.0762 39.1729C15.0762 39.1729 12.0591 43.5265 12.0591 45.8638" stroke="black" stroke-width="0.5" stroke-linecap="round" stroke-linejoin="round"/>
<path d="M52.6484 45.568C52.6484 45.568 57.1586 42.0209 56.505 38.8994C56.505 38.8994 59.5117 43.3719 59.5117 45.784" fill="white"/>
<path d="M52.6484 45.568C52.6484 45.568 57.1586 42.0209 56.505 38.8994C56.505 38.8994 59.5117 43.3719 59.5117 45.784" stroke="black" stroke-width="0.5" stroke-linecap="round" stroke-linejoin="round"/>
<path d="M20.1604 16.3379C20.1604 16.3379 15.6655 19.9952 16.3169 23.2136C16.3169 23.2136 13.3203 19.2637 13.3203 16.7768" fill="white"/>
<path d="M20.1604 16.3379C20.1604 16.3379 15.6655 19.9952 16.3169 23.2136C16.3169 23.2136 13.3203 19.2637 13.3203 16.7768" stroke="black" stroke-width="0.5" stroke-linecap="round" stroke-linejoin="round"/>
<path d="M28.9883 45.1634C28.9883 45.1634 39.7582 46.7244 40.5457 52.1019C41.3332 57.4795 41.6116 58.6378 41.6116 58.6378C41.6116 58.6378 43.2145 65.7127 53.3647 66.5656C53.3647 66.5656 58.2648 67.1961 61.0648 63.9325C61.0648 63.9325 63.139 61.8819 63.489 60.2501C63.489 60.2501 63.0515 59.5826 62.0452 60.2501C61.039 60.9177 58.3741 61.6146 58.3741 61.6146C58.3741 61.6146 53.6388 61.9484 53.9888 55.3284C53.9888 55.3284 54.5315 51.0975 50.2622 45.6691C50.2622 45.6691 40.6528 35.4631 29.9213 38.0388" fill="black"/>
<path d="M50.7808 15.8789C50.7808 15.8789 55.2833 19.4811 54.6307 22.651C54.6307 22.651 57.6324 18.7607 57.6324 16.3112" fill="white"/>
<path d="M50.7808 15.8789C50.7808 15.8789 55.2833 19.4811 54.6307 22.651C54.6307 22.651 57.6324 18.7607 57.6324 16.3112" stroke="black" stroke-width="0.5" stroke-linecap="round" stroke-linejoin="round"/>
<path d="M60.3423 45.2104L62.3293 41.2002L64.8839 45.5312L60.3423 45.2104Z" fill="white" stroke="black" stroke-width="0.5" stroke-linecap="round"/>
<path d="M11.2363 45.6916L9.34395 41.2002L7.83008 44.8896L11.2363 45.6916Z" fill="white" stroke="black" stroke-width="0.5" stroke-linecap="round"/>
<path d="M58.1543 17.5633L61.4996 22.2705L63.306 16.1455L57.8198 16.4291L58.1543 17.5633Z" fill="white" stroke="black" stroke-width="0.5" stroke-linecap="round" stroke-linejoin="round"/>
<path d="M12.86 16.5423L10.0501 22.5539L8.31055 16.3154L12.86 16.5423Z" fill="white" stroke="black" stroke-width="0.5" stroke-linecap="round" stroke-linejoin="round"/>
</svg>
