<svg width="86" height="73" viewBox="0 0 86 73" fill="none" xmlns="http://www.w3.org/2000/svg">
<path d="M8.78827 45.8501L14.7621 30.8342L9.53378 16.3404L77.1884 16.3291L71.5523 31.0611L78.0328 45.8502" fill="black"/>
<path d="M8.78827 45.8501L14.7621 30.8342L9.53378 16.3404L77.1884 16.3291L71.5523 31.0611L78.0328 45.8502" stroke="black" stroke-width="1.50538" stroke-linecap="round" stroke-linejoin="round"/>
<path d="M22.5213 43.7913C22.5213 43.7913 24.3044 40.4008 26.4117 39.854C26.4117 39.854 26.7406 42.1585 29.0052 43.5726C29.0052 43.5726 31.2746 40.8383 32.5714 40.2915C32.5714 40.2915 33.6113 43.303 35.2275 45.1943C35.2275 45.1943 38.0235 41.8094 38.9961 41.4813C38.9961 41.4813 37.5062 43.4643 39.0553 44.4475C39.0553 44.4475 39.7037 41.4945 40.6763 40.5102C40.6763 40.5102 41.6716 43.1616 43.7562 44.2288C43.7562 44.2288 45.215 41.1664 45.8634 40.6196C45.8634 40.6196 47.3844 43.1428 48.7812 43.7913C48.7812 43.7913 48.6469 42.1574 51.2242 40.1423C51.2242 40.1423 51.8265 41.7718 55.4272 43.6819C55.4272 43.6819 56.3275 40.4821 58.5969 39.3618C58.5969 39.3618 59.2367 42.1363 61.4249 43.7913C61.4249 43.7913 61.9723 40.7704 64.9212 39.4712C64.9212 39.4712 64.1575 41.4371 65.6394 43.2444L65.2995 45.6884L22.546 45.6111L22.5213 43.7913Z" fill="white"/>
<path d="M21.9456 28.7246L36.7153 32.8265C36.7153 32.8265 23.3522 37.9128 21.9456 28.7246Z" fill="white" stroke="white" stroke-width="1.70121" stroke-linecap="round" stroke-linejoin="round"/>
<path d="M65.7078 28.8008L50.938 32.9026C50.938 32.9026 64.3011 37.9889 65.7078 28.8008Z" fill="white" stroke="white" stroke-width="1.70121" stroke-linecap="round" stroke-linejoin="round"/>
<path d="M3.63904 46.0127L9.14015 70.5553L78.821 70.3949L84.0929 46.0127H3.63904Z" fill="white"/>
<path d="M9.60327 16.2919L13.6928 2.87012H69.9802L77.1189 16.2787" fill="white"/>
<path d="M22.9486 45.6346C22.9486 45.6346 17.4668 42.1975 18.2613 39.1729C18.2613 39.1729 14.6068 43.5265 14.6068 45.8638" fill="white"/>
<path d="M22.9486 45.6346C22.9486 45.6346 17.4668 42.1975 18.2613 39.1729C18.2613 39.1729 14.6068 43.5265 14.6068 45.8638" stroke="black" stroke-width="0.5" stroke-linecap="round" stroke-linejoin="round"/>
<path d="M63.7713 45.568C63.7713 45.568 69.2343 42.0209 68.4426 38.8994C68.4426 38.8994 72.0846 43.3719 72.0846 45.784" fill="white"/>
<path d="M63.7713 45.568C63.7713 45.568 69.2343 42.0209 68.4426 38.8994C68.4426 38.8994 72.0846 43.3719 72.0846 45.784" stroke="black" stroke-width="0.5" stroke-linecap="round" stroke-linejoin="round"/>
<path d="M24.4195 16.3379C24.4195 16.3379 18.975 19.9952 19.764 23.2136C19.764 23.2136 16.1343 19.2637 16.1343 16.7768" fill="white"/>
<path d="M24.4195 16.3379C24.4195 16.3379 18.975 19.9952 19.764 23.2136C19.764 23.2136 16.1343 19.2637 16.1343 16.7768" stroke="black" stroke-width="0.5" stroke-linecap="round" stroke-linejoin="round"/>
<path d="M35.1127 45.1629C35.1127 45.1629 48.1579 46.7239 49.1118 52.1014C50.0657 57.479 50.403 58.6373 50.403 58.6373C50.403 58.6373 52.3445 65.7122 64.6391 66.5652C64.6391 66.5652 70.5744 67.1956 73.966 63.932C73.966 63.932 76.4784 61.8814 76.9023 60.2496C76.9023 60.2496 76.3724 59.5821 75.1535 60.2496C73.9347 60.9172 70.7069 61.6141 70.7069 61.6141C70.7069 61.6141 64.9711 61.9479 65.3951 55.328C65.3951 55.328 66.0524 51.097 60.8812 45.6686C60.8812 45.6686 49.2416 35.4626 36.2429 38.0383" fill="black"/>
<path d="M61.5093 15.8789C61.5093 15.8789 66.963 19.4811 66.1726 22.651C66.1726 22.651 69.8084 18.7607 69.8084 16.3112" fill="white"/>
<path d="M61.5093 15.8789C61.5093 15.8789 66.963 19.4811 66.1726 22.651C66.1726 22.651 69.8084 18.7607 69.8084 16.3112" stroke="black" stroke-width="0.5" stroke-linecap="round" stroke-linejoin="round"/>
<path d="M73.0907 45.2104L75.4974 41.2002L78.5918 45.5312L73.0907 45.2104Z" fill="white" stroke="black" stroke-width="0.5" stroke-linecap="round"/>
<path d="M13.6098 45.6916L11.3177 41.2002L9.48401 44.8896L13.6098 45.6916Z" fill="white" stroke="black" stroke-width="0.5" stroke-linecap="round"/>
<path d="M70.4402 17.5638L74.4921 22.271L76.6802 16.146L70.035 16.4296L70.4402 17.5638Z" fill="white" stroke="black" stroke-width="0.5" stroke-linecap="round" stroke-linejoin="round"/>
<path d="M15.5767 16.5428L12.1731 22.5544L10.066 16.3159L15.5767 16.5428Z" fill="white" stroke="black" stroke-width="0.5" stroke-linecap="round" stroke-linejoin="round"/>
</svg>
