<?xml version="1.0" encoding="UTF-8" standalone="no"?>
<svg
   data-name="Layer 51"
   viewBox="0 0 10000 15625"
   x="0px"
   y="0px"
   version="1.1"
   id="svg26"
   sodipodi:docname="noun-d20-dice-4888855.svg"
   inkscape:export-filename="..\..\..\Códigos\Bau\static\img\public\d20..svg"
   inkscape:export-xdpi="96"
   inkscape:export-ydpi="96"
   width="10000"
   height="15625"
   xmlns:inkscape="http://www.inkscape.org/namespaces/inkscape"
   xmlns:sodipodi="http://sodipodi.sourceforge.net/DTD/sodipodi-0.dtd"
   xmlns="http://www.w3.org/2000/svg"
   xmlns:svg="http://www.w3.org/2000/svg">
  <defs
     id="defs30" />
  <sodipodi:namedview
     id="namedview28"
     pagecolor="#ffffff"
     bordercolor="#666666"
     borderopacity="1.0"
     inkscape:showpageshadow="2"
     inkscape:pageopacity="0.0"
     inkscape:pagecheckerboard="0"
     inkscape:deskcolor="#d1d1d1"
     showgrid="false" />
  <polygon
     points="22.59,66.81 12.27,72.79 46.1,91.93 "
     id="polygon2"
     transform="translate(-0.26483051,10.858051)"
     style="fill:#ffffff" />
  <polygon
     points="21.84,65.51 11.51,31.44 11.51,71.49 "
     id="polygon4"
     transform="translate(-0.26483051,10.858051)"
     style="fill:#ffffff" />
  <polygon
     points="22.94,63.95 48.51,17.88 11.71,26.92 "
     id="polygon6"
     transform="translate(-0.26483051,10.858051)"
     style="fill:#ffffff" />
  <polygon
     points="49.24,16.16 49.24,6.26 16.19,24.28 "
     id="polygon8"
     transform="translate(-0.26483051,10.858051)"
     style="fill:#ffffff" />
  <polygon
     points="73.19,60.08 49.99,18.29 24.01,65.11 75.98,65.11 "
     id="polygon10"
     transform="translate(-0.26483051,10.858051)"
     style="fill:#ffffff" />
  <polygon
     points="24.46,66.61 49.99,93.9 57.95,85.39 75.53,66.61 "
     id="polygon12"
     transform="translate(-0.26483051,10.858051)"
     style="fill:#ffffff" />
  <polygon
     points="53.89,91.93 87.73,72.79 80.82,68.79 77.4,66.81 "
     id="polygon14"
     transform="translate(-0.26483051,10.858051)"
     style="fill:#ffffff" />
  <polygon
     points="78.15,65.51 88.49,71.49 88.49,31.44 "
     id="polygon16"
     transform="translate(-0.26483051,10.858051)"
     style="fill:#ffffff" />
  <polygon
     points="77.05,63.95 88.3,26.92 58.56,19.62 51.48,17.88 "
     id="polygon18"
     transform="translate(-0.26483051,10.858051)"
     style="fill:#ffffff" />
  <polygon
     points="83.81,24.28 50.74,6.26 50.74,16.16 "
     id="polygon20"
     transform="translate(-0.26483051,10.858051)"
     style="fill:#ffffff" />
</svg>
