<?xml version="1.0" encoding="UTF-8" standalone="no"?>
<!-- Created with Inkscape (http://www.inkscape.org/) -->

<svg
   version="1.1"
   id="svg1"
   width="254"
   height="230"
   viewBox="0 0 254 230"
   sodipodi:docname="dnd-2@2x.svg"
   inkscape:version="1.3 (0e150ed6c4, 2023-07-21)"
   xmlns:inkscape="http://www.inkscape.org/namespaces/inkscape"
   xmlns:sodipodi="http://sodipodi.sourceforge.net/DTD/sodipodi-0.dtd"
   xmlns="http://www.w3.org/2000/svg"
   xmlns:svg="http://www.w3.org/2000/svg">
  <defs
     id="defs1" />
  <sodipodi:namedview
     id="namedview1"
     pagecolor="#ffffff"
     bordercolor="#000000"
     borderopacity="0.25"
     inkscape:showpageshadow="2"
     inkscape:pageopacity="0.0"
     inkscape:pagecheckerboard="0"
     inkscape:deskcolor="#d1d1d1"
     inkscape:zoom="0.98533793"
     inkscape:cx="57.848174"
     inkscape:cy="164.91804"
     inkscape:window-width="1600"
     inkscape:window-height="837"
     inkscape:window-x="1432"
     inkscape:window-y="-8"
     inkscape:window-maximized="1"
     inkscape:current-layer="g1" />
  <g
     inkscape:groupmode="layer"
     inkscape:label="Image"
     id="g1">
    <path
       style="fill:#ffffff;fill-opacity:1;stroke:none;stroke-width:0.580512;stroke-linecap:square;stroke-linejoin:miter;stroke-dasharray:none;stroke-opacity:1"
       d="m 60.565912,220.249 c -9.798231,-3.39381 -17.217068,-8.16479 -24.097659,-15.49691 -3.273808,-3.48865 -6.196355,-6.343 -6.494551,-6.343 -0.298197,0 -0.542175,1.66922 -0.542175,3.70937 0,3.66919 -0.02243,3.68908 -2.070106,1.83596 -2.827865,-2.55919 -8.71692,-14.87833 -10.655942,-22.29086 -3.514618,-13.43574 -2.892202,-27.5531 1.739679,-39.45855 1.059765,-2.72395 1.676023,-5.20345 1.369462,-5.51002 -0.306561,-0.30656 -2.150085,0.20213 -4.09672,1.13041 -1.946636,0.92829 -3.539337,1.45165 -3.539337,1.16304 0,-4.24833 19.950185,-31.58941 21.742372,-29.79722 0.229593,0.22959 0.0496,2.47222 -0.399984,4.98361 -2.019962,11.28354 -2.254164,16.23728 -0.767664,16.23728 0.79093,0 2.291288,-0.94281 3.33413,-2.09514 3.889667,-4.29803 20.262229,-14.96488 21.330274,-13.89684 0.217674,0.21768 -0.05311,1.96095 -0.601754,3.87394 -1.326804,4.62629 -1.265748,9.0734 0.124573,9.0734 0.617153,0 2.45812,-1.12419 4.091038,-2.4982 3.292289,-2.77028 9.343804,-4.79793 11.663151,-3.90791 1.261112,0.48393 1.189161,0.92126 -0.449149,2.73002 -3.234963,3.57151 -10.136297,15.75527 -12.067319,21.30388 -2.657462,7.63597 -2.436911,21.93295 0.435241,28.21402 6.86058,15.00331 21.953974,20.58873 36.4729,13.49707 5.742388,-2.80482 16.383348,-12.34611 21.792038,-19.53997 l 2.50629,-3.33351 8.2046,6.10794 c 4.51253,3.35937 8.45712,6.76599 8.76575,7.57028 1.5068,3.92668 -11.33292,22.26781 -21.40399,30.57489 -16.30116,13.44597 -38.719474,18.28189 -56.385148,12.16302 z"
       id="path1" />
    <path
       style="fill:#ffffff;fill-opacity:1;stroke:none;stroke-width:0.580512;stroke-linecap:square;stroke-linejoin:miter;stroke-dasharray:none;stroke-opacity:1"
       d="m 86.518541,143.91424 c 2.576193,-2.88775 2.278794,-5.38309 -0.641569,-5.38309 -2.358549,0 -2.384429,-0.093 -1.059426,-3.8058 1.900786,-5.32624 1.755676,-9.37689 -0.466462,-13.02095 -2.691372,-4.41354 -8.337357,-6.86143 -14.467186,-6.27243 -2.712359,0.26063 -4.931562,0.16641 -4.931562,-0.20936 0,-1.41801 7.244792,-9.07548 9.162128,-9.68402 3.079514,-0.9774 2.381536,-2.36499 -1.561736,-3.10475 -1.95981,-0.36766 -3.776811,-1.01396 -4.037781,-1.43622 -0.510175,-0.82548 7.723652,-3.574715 13.944073,-4.65586 4.557359,-0.792096 4.915091,-1.989759 0.83789,-2.805199 -6.353942,-1.270789 -20.181449,2.463178 -26.243173,7.086679 -3.749367,2.85978 -3.152766,4.32642 1.809317,4.4479 1.898863,0.0465 0.956225,0.7939 -3.746702,2.97076 -3.456146,1.59976 -8.342656,4.32511 -10.858909,6.05634 l -4.575007,3.14769 -0.304773,-5.74586 c -0.378264,-7.13136 -2.920283,-9.44402 -11.419679,-10.38931 l -5.732921,-0.63762 6.394153,-3.434006 C 39.327863,91.288003 44.537524,87.725467 45.174679,85.717971 45.926132,83.350353 44.359255,80.196375 40.21971,75.744085 l -3.176581,-3.416575 5.994665,0.71856 c 3.297067,0.395207 6.608114,0.953962 7.357882,1.241674 1.744351,0.669371 1.705866,-1.195311 -0.129839,-6.290767 -2.725109,-7.564231 -2.045818,-8.512888 2.761656,-3.856761 2.372282,2.2976 7.748229,6.245421 11.946548,8.772937 4.198319,2.527514 10.343935,6.967491 13.656924,9.866612 3.31299,2.899122 6.185311,4.78605 6.382937,4.193173 0.675253,-2.025757 -3.051434,-7.807918 -8.034856,-12.466522 -4.32976,-4.047547 -5.05638,-5.309651 -5.574242,-9.682188 -0.327517,-2.76537 -0.04147,-7.696641 0.635668,-10.95838 l 1.231153,-5.930434 2.417479,5.97126 c 2.08677,5.1544 4.716571,8.244816 19.223851,22.590962 9.243505,9.140834 17.077625,16.348443 17.409165,16.016905 C 114.01208,90.824583 109.10381,84.10262 98.719626,73.885699 86.431829,61.795824 85.079197,59.326424 87.155418,52.773773 c 0.544228,-1.717612 1.002721,-2.255835 1.051931,-1.234862 0.23658,4.908274 5.780331,12.430439 17.882651,24.264485 13.50396,13.204614 18.74027,21.002626 18.74027,27.908344 0,2.00655 0.59121,3.6487 1.4294,3.97034 0.78618,0.30168 1.98332,1.88579 2.66032,3.52023 1.49549,3.61041 1.98197,3.65389 5.40345,0.48298 l 2.68539,-2.48874 v 2.83408 c 0,3.3693 -5.24372,14.25703 -8.12016,16.86017 -1.98123,1.793 -2.02864,1.77111 -2.02864,-0.93666 0,-4.55358 -4.64144,-8.29094 -11.3352,-9.12727 l -5.69162,-0.71112 1.08317,-3.5293 c 1.69985,-5.53861 -0.28782,-6.80617 -10.67281,-6.80617 -8.564242,0 -19.05315,1.84701 -19.05315,3.3551 0,0.45013 2.223328,1.12421 4.94073,1.49794 l 4.940729,0.67953 -1.450609,4.94849 c -1.615797,5.51201 -0.612632,9.10613 2.541639,9.10613 1.447737,0 1.69762,0.72912 1.382465,4.03383 -0.337702,3.54114 -0.06122,4.1812 2.263649,5.24048 2.547005,1.1605 2.580205,1.28195 0.867703,3.17424 -1.937101,2.14048 -5.413192,4.10774 -9.397025,5.31816 -2.459298,0.74722 -2.482669,0.70977 -0.76116,-1.21994 z m 25.118289,-40.53038 c 0,-0.35276 -0.92144,-2.13229 -2.04764,-3.954515 -3.62109,-5.859047 -10.130926,-8.709847 -10.130926,-4.436554 0,3.056122 6.312056,9.032439 9.539876,9.032439 1.45128,0 2.63869,-0.28862 2.63869,-0.64137 z"
       id="path2" />
    <path
       style="fill:#ffffff;fill-opacity:1;stroke:none;stroke-width:0.580512;stroke-linecap:square;stroke-linejoin:miter;stroke-dasharray:none;stroke-opacity:1"
       d="m 107.93977,69.234711 -9.177332,-9.356776 2.095022,-4.059521 c 1.59847,-3.097337 2.09853,-5.98389 2.10978,-12.178563 0.0171,-9.416095 -1.50237,-13.081957 -7.234709,-17.454222 -3.21027,-2.448592 -4.654762,-2.843383 -10.40359,-2.843383 -5.364753,0 -7.326456,0.464139 -9.989396,2.363491 -5.665098,4.040656 -6.612209,7.128314 -7.835914,25.545715 l -1.11262,16.745525 -6.606064,-6.596722 c -4.045088,-4.039369 -7.373106,-8.463941 -8.584659,-11.413235 -1.088227,-2.649083 -2.435292,-4.674063 -2.993476,-4.499957 -1.684288,0.525353 -4.474011,9.992582 -4.539637,15.405752 l -0.06152,5.074401 -1.980203,-3.089687 C 36.636983,55.094078 35.216779,38.313994 38.946159,31.220975 l 1.474465,-2.804328 0.704754,2.790921 c 0.700652,2.774673 3.529353,3.971833 3.529353,1.493688 0,-2.837088 7.064384,-15.712306 10.981986,-20.015253 4.11867,-4.5237943 4.158365,-4.5405813 4.199594,-1.77604 0.05154,3.455647 1.068728,3.503558 4.955097,0.233394 6.529392,-5.4941208 11.917721,-7.083836 24.010614,-7.083836 10.04192,0 11.758818,0.2788088 17.086418,2.7746823 11.16236,5.2293457 17.57237,12.2680197 22.16756,24.3416767 4.65293,12.22536 1.10022,29.737703 -9.05923,44.655553 l -1.87967,2.760054 z"
       id="path3" />
    <path
       style="fill:#ffffff;fill-opacity:1;stroke:none;stroke-width:0.580512;stroke-linecap:square;stroke-linejoin:miter;stroke-dasharray:none;stroke-opacity:1"
       d="m 146.31059,141.01609 c -2.9777,-2.48308 -5.83205,-4.5147 -6.343,-4.5147 -2.38767,0 -0.30276,-3.3812 6.79773,-11.02418 13.70282,-14.74977 25.43832,-22.49321 39.46521,-26.040366 5.02365,-1.270393 9.0038,-2.698673 8.84476,-3.173954 -0.47867,-1.430529 -11.48092,-0.307016 -17.86619,1.824435 -8.35168,2.787855 -19.13872,8.373795 -23.40601,12.120535 -8.12028,7.1297 -0.63222,-4.9313 8.56413,-13.794237 4.15298,-4.002402 6.09968,-5.355807 5.68028,-3.949084 -0.39079,1.310728 -0.0644,2.616358 0.84227,3.368787 1.86604,1.548672 3.47921,0.726706 12.97918,-6.613359 7.57021,-5.849056 9.6834,-6.769374 7.90243,-3.441612 -2.26762,4.237087 1.57708,5.234728 9.27127,2.405752 10.4327,-3.835864 24.87305,-1.290864 36.36985,6.409905 l 5.62156,3.765422 -8.62411,1.249055 c -9.59929,1.390291 -16.47254,3.077261 -20.31989,4.987311 -2.08148,1.03337 -3.18859,1.00398 -5.95208,-0.15798 -4.96349,-2.08699 -17.92622,-1.82189 -22.9709,0.46978 -7.85868,3.57 -19.73517,18.26288 -27.7937,34.38471 -1.74381,3.48865 -3.27816,6.31949 -3.40967,6.29074 -0.13151,-0.0287 -2.67542,-2.08387 -5.65312,-4.56696 z"
       id="path4" />
    <path
       style="fill:#ffffff;fill-opacity:1;stroke:none;stroke-width:0.580512;stroke-linecap:square;stroke-linejoin:miter;stroke-dasharray:none;stroke-opacity:1"
       d="m 186.7314,225.87749 c -8.31041,-2.52791 -15.83836,-9.88655 -19.13914,-18.70867 -1.19173,-3.18518 -2.16678,-6.45915 -2.16678,-7.27548 0,-2.67822 -2.95555,-1.55304 -4.76517,1.81411 -1.19755,2.22826 -1.76373,5.52088 -1.74515,10.1488 0.0151,3.76774 -0.30505,6.85044 -0.71152,6.85044 -1.59461,0 -8.06497,-8.69371 -9.01462,-12.11224 -0.55285,-1.99012 -1.00944,-8.41371 -1.01464,-14.27464 -0.0108,-12.11994 -1.10242,-14.92378 -7.75827,-19.92633 -2.12833,-1.59967 -5.24991,-4.21037 -6.93684,-5.80157 -1.68694,-1.5912 -5.94565,-5.22992 -9.46381,-8.08605 -7.51222,-6.09861 -10.02546,-9.78118 -10.89362,-15.96205 -1.01102,-7.19789 -2.34983,-9.65009 -7.15109,-13.09809 -3.91869,-2.81419 -7.527366,-7.52023 -7.527366,-9.81636 0,-0.40411 1.07207,0.27241 2.382376,1.50338 1.56628,1.47144 4.60826,2.5837 8.8802,3.24693 7.07363,1.09819 11.06479,4.12829 11.06479,8.40042 0,4.53747 2.53801,6.47523 9.45066,7.21551 l 6.46065,0.69188 15.13287,12.5806 c 16.85194,14.00973 19.64242,15.70948 25.79026,15.70948 5.56396,0 11.16254,-5.10156 11.16254,-10.17158 0,-2.70333 0.24879,-3.06392 1.43484,-2.07958 2.39095,1.98431 5.66932,9.97178 5.66932,13.81282 0,3.70769 -2.04544,8.69224 -4.90271,11.94746 -5.13992,5.85579 12.86429,4.11652 20.05946,-1.93781 6.40922,-5.39301 6.30836,-15.79699 -0.20644,-21.29438 l -3.27919,-2.76709 4.00347,0.74631 c 10.19236,1.90002 19.76438,9.20238 22.84084,17.42499 2.47777,6.62241 2.5529,8.59534 0.58032,15.23775 -3.06109,10.30781 -14.42049,18.77359 -27.17091,20.24956 -3.20956,0.37153 -5.83556,1.07031 -5.83556,1.55283 0,1.55932 7.90221,4.963 13.41364,5.7776 l 5.36164,0.79245 -4.60022,2.72333 c -2.53011,1.49785 -6.58361,3.42313 -9.00779,4.27842 -4.57574,1.61443 -15.97023,1.95343 -20.39704,0.60685 z"
       id="path5" />
  </g>
</svg>
