<svg width="110" height="109" viewBox="0 0 110 109" fill="none" xmlns="http://www.w3.org/2000/svg">
<g clip-path="url(#clip0_686_11)">
<path d="M108.538 30.2919L73.5375 1.215C73.0728 0.829382 72.5212 0.523601 71.9142 0.315127C71.3073 0.106653 70.6568 -0.000427787 70 1.28436e-06H10C7.34783 1.28436e-06 4.8043 0.875273 2.92893 2.43327C1.05357 3.99126 0 6.10436 0 8.30769V99.6923C0 101.896 1.05357 104.009 2.92893 105.567C4.8043 107.125 7.34783 108 10 108H100C102.652 108 105.196 107.125 107.071 105.567C108.946 104.009 110 101.896 110 99.6923V33.2308C110.001 32.6851 109.872 32.1447 109.621 31.6405C109.37 31.1362 109.002 30.678 108.538 30.2919ZM75 14.1802L92.9313 29.0769H75V14.1802ZM100 99.6923H10V8.30769H65V33.2308C65 34.3324 65.5268 35.389 66.4645 36.168C67.4021 36.947 68.6739 37.3846 70 37.3846H100V99.6923ZM80 58.1538C80 59.2555 79.4732 60.3121 78.5355 61.0911C77.5979 61.8701 76.3261 62.3077 75 62.3077H35C33.6739 62.3077 32.4021 61.8701 31.4645 61.0911C30.5268 60.3121 30 59.2555 30 58.1538C30 57.0522 30.5268 55.9956 31.4645 55.2166C32.4021 54.4376 33.6739 54 35 54H75C76.3261 54 77.5979 54.4376 78.5355 55.2166C79.4732 55.9956 80 57.0522 80 58.1538ZM80 74.7692C80 75.8709 79.4732 76.9275 78.5355 77.7065C77.5979 78.4854 76.3261 78.9231 75 78.9231H35C33.6739 78.9231 32.4021 78.4854 31.4645 77.7065C30.5268 76.9275 30 75.8709 30 74.7692C30 73.6676 30.5268 72.611 31.4645 71.832C32.4021 71.053 33.6739 70.6154 35 70.6154H75C76.3261 70.6154 77.5979 71.053 78.5355 71.832C79.4732 72.611 80 73.6676 80 74.7692Z" fill="#FAFAFA"/>
</g>
<defs>
<clipPath id="clip0_686_11">
<rect width="109.994" height="108.304" fill="white"/>
</clipPath>
</defs>
</svg>
