<svg width="46" height="46" viewBox="0 0 46 46" fill="none" xmlns="http://www.w3.org/2000/svg">
<path d="M40.9688 25.875V37.375C40.9688 37.9469 40.7416 38.4953 40.3372 38.8997C39.9328 39.3041 39.3844 39.5312 38.8125 39.5312H7.1875C6.61563 39.5312 6.06718 39.3041 5.6628 38.8997C5.25843 38.4953 5.03125 37.9469 5.03125 37.375V25.875C5.03125 25.3031 5.25843 24.7547 5.6628 24.3503C6.06718 23.9459 6.61563 23.7188 7.1875 23.7188C7.75937 23.7188 8.30782 23.9459 8.7122 24.3503C9.11657 24.7547 9.34375 25.3031 9.34375 25.875V35.2188H36.6562V25.875C36.6562 25.3031 36.8834 24.7547 37.2878 24.3503C37.6922 23.9459 38.2406 23.7188 38.8125 23.7188C39.3844 23.7188 39.9328 23.9459 40.3372 24.3503C40.7416 24.7547 40.9688 25.3031 40.9688 25.875ZM21.4745 27.4005C21.6748 27.6016 21.9128 27.7611 22.1749 27.8699C22.437 27.9787 22.718 28.0347 23.0018 28.0347C23.2856 28.0347 23.5666 27.9787 23.8287 27.8699C24.0908 27.7611 24.3288 27.6016 24.5291 27.4005L31.7166 20.213C32.1217 19.808 32.3493 19.2586 32.3493 18.6857C32.3493 18.1128 32.1217 17.5634 31.7166 17.1584C31.3116 16.7533 30.7622 16.5257 30.1893 16.5257C29.6164 16.5257 29.067 16.7533 28.662 17.1584L25.1562 20.6641V5.75C25.1562 5.17813 24.9291 4.62968 24.5247 4.2253C24.1203 3.82093 23.5719 3.59375 23 3.59375C22.4281 3.59375 21.8797 3.82093 21.4753 4.2253C21.0709 4.62968 20.8438 5.17813 20.8438 5.75V20.6641L17.338 17.162C17.1375 16.9614 16.8994 16.8023 16.6373 16.6937C16.3752 16.5852 16.0944 16.5293 15.8107 16.5293C15.2378 16.5293 14.6884 16.7569 14.2834 17.162C14.0828 17.3625 13.9237 17.6006 13.8151 17.8627C13.7066 18.1248 13.6507 18.4056 13.6507 18.6893C13.6507 19.2622 13.8783 19.8116 14.2834 20.2166L21.4745 27.4005Z" fill="white"/>
</svg>
