<svg width="29" height="29" viewBox="0 0 29 29" fill="none" xmlns="http://www.w3.org/2000/svg">
<path d="M28.9531 17.9688V26.0625C28.9531 26.8291 28.6486 27.5644 28.1065 28.1065C27.5644 28.6486 26.8291 28.9531 26.0625 28.9531H2.9375C2.17086 28.9531 1.43562 28.6486 0.893519 28.1065C0.351422 27.5644 0.046875 26.8291 0.046875 26.0625V17.9688C0.046875 17.5088 0.229603 17.0676 0.554862 16.7424C0.88012 16.4171 1.32127 16.2344 1.78125 16.2344C2.24123 16.2344 2.68238 16.4171 3.00764 16.7424C3.3329 17.0676 3.51562 17.5088 3.51562 17.9688V25.4844H25.4844V17.9688C25.4844 17.5088 25.6671 17.0676 25.9924 16.7424C26.3176 16.4171 26.7588 16.2344 27.2188 16.2344C27.6787 16.2344 28.1199 16.4171 28.4451 16.7424C28.7704 17.0676 28.9531 17.5088 28.9531 17.9688ZM13.2729 19.1958C13.4341 19.3575 13.6255 19.4858 13.8363 19.5733C14.0472 19.6609 14.2732 19.7059 14.5014 19.7059C14.7297 19.7059 14.9557 19.6609 15.1666 19.5733C15.3774 19.4858 15.5688 19.3575 15.73 19.1958L21.5112 13.4146C21.837 13.0887 22.0201 12.6468 22.0201 12.1861C22.0201 11.7253 21.837 11.2834 21.5112 10.9575C21.1854 10.6317 20.7435 10.4487 20.2827 10.4487C19.8219 10.4487 19.38 10.6317 19.0542 10.9575L16.2344 13.7773V1.78125C16.2344 1.32127 16.0516 0.88012 15.7264 0.554862C15.4011 0.229603 14.96 0.046875 14.5 0.046875C14.04 0.046875 13.5989 0.229603 13.2736 0.554862C12.9484 0.88012 12.7656 1.32127 12.7656 1.78125V13.7773L9.94582 10.9604C9.62 10.6346 9.17809 10.4516 8.7173 10.4516C8.25652 10.4516 7.81461 10.6346 7.48879 10.9604C7.16297 11.2863 6.97992 11.7282 6.97992 12.1889C6.97992 12.6497 7.16297 13.0916 7.48879 13.4175L13.2729 19.1958Z" fill="#FAF9F9"/>
</svg>
