<svg width="85" height="94" viewBox="0 0 85 94" fill="none" xmlns="http://www.w3.org/2000/svg">
<path d="M84.2195 93.7888C84.2195 93.7888 79.3839 87.5995 83.9432 32.8017C83.9432 32.8017 84.634 23.1404 84.7722 14.5358C84.7722 14.5358 85.1507 13.3435 82.0734 13.557C82.0734 13.557 83.0015 8.54001 77.2376 6.672C77.2376 6.672 80.1195 12.1693 78.361 13.3968C78.361 13.3968 75.8698 12.8631 76.2118 16.2789C76.5537 19.6947 76.1141 47.3413 76.1141 47.3413C76.1141 47.3413 75.101 80.8064 66.2588 93.6379L84.2195 93.7888Z" fill="white"/>
<path d="M37.7982 93.7879C37.7982 93.7879 37.2455 81.7113 14.0347 62.5396C14.0347 62.5396 2.98196 52.7273 8.6465 30.2345C8.6465 30.2345 10.1712 22.2023 14.372 17.2921C14.372 17.2921 15.2782 16.2331 14.1383 13.1385C14.1383 13.1385 14.3801 8.34556 19.1466 7.17564C19.1466 7.17564 13.0331 3.25072 10.408 10.6477C10.408 10.6477 8.8279 9.15287 7.85097 10.7807C6.87403 12.4085 4.08723 17.8559 4.08723 17.8559C4.08723 17.8559 -2.12995 32.197 0.771401 47.7457C3.67275 63.2944 4.50171 63.4453 4.50171 63.4453C4.50171 63.4453 11.4097 84.1266 1.04772 93.637L37.7982 93.7879Z" fill="white"/>
<path d="M24.6297 67.7809C24.6297 67.7809 32.5429 74.2923 36.0598 80.5901C36.0598 80.5901 58.8224 82.1913 56.4778 54.1177C56.4778 54.1177 53.2028 55.4437 48.2291 47.8958C48.2291 47.8958 45.1032 66.23 24.6297 67.7809Z" fill="white"/>
<path d="M38.489 84.2785C38.489 84.2785 41.4594 88.3543 42.4266 93.6379L49.2655 93.7888C49.2655 93.7888 44.1536 87.826 43.4628 83.0708" fill="white"/>
<path d="M46.2951 82.1643L50.0945 79.8999C50.0945 79.8999 55.6209 87.2214 64.394 88.5045L60.6637 93.7126L53.7557 93.7881C53.7557 93.7881 48.4366 88.9574 46.2951 82.1643Z" fill="white"/>
<path d="M55.8966 73.4852L52.5117 77.9385C52.5117 77.9385 58.7289 85.0335 66.3277 85.1845C66.3277 85.1845 69.0909 79.9764 69.229 77.4101C69.229 77.4101 59.8342 77.0327 55.8966 73.4852Z" fill="white"/>
<path d="M69.9206 74.314C71.5094 70.7665 71.5785 65.4829 71.5785 65.4829C71.5785 65.4829 64.7396 65.7848 59.2823 63.3695C59.2823 63.3695 59.006 67.8982 57.279 70.6155C57.279 70.6155 63.358 74.163 69.9206 74.314Z" fill="white"/>
<path d="M59.6963 59.8983L59.9035 53.1052C59.9035 53.1052 66.5352 56.0489 71.1635 54.8412C71.1635 54.8412 72.0616 59.1436 71.5089 61.9363C71.5089 61.9363 62.874 62.3137 59.6963 59.8983Z" fill="white"/>
<path d="M58.0383 43.217L59.4889 49.4063C59.4889 49.4063 66.466 52.7274 70.818 51.3688L69.4364 45.6324C69.4364 45.6324 62.4594 45.3305 58.0383 43.217Z" fill="white"/>
<path d="M44.5682 12.6483C44.5682 12.6483 46.7787 11.7425 49.5419 13.0257C49.5419 13.0257 51.1294 13.6365 51.9842 12.5957L56.6247 0L44.5682 12.6483Z" fill="white"/>
<path d="M23.9823 47.7459C23.9823 47.7459 24.1205 53.7842 28.6798 53.7087C33.239 53.6332 38.8345 48.3497 38.8345 48.3497L45.8806 42.3869C45.8806 42.3869 47.1241 40.9528 48.6438 42.9152C50.1636 44.8777 53.5485 48.9535 53.5485 48.9535C53.5485 48.9535 54.7229 50.8405 56.1045 50.6141C56.1045 50.6141 56.8643 51.3311 54.0321 42.2359C54.0321 42.2359 53.303 39.2814 56.82 39.8685C60.337 40.4556 70.3506 42.2169 70.3506 42.2169H73.6233L61.2162 31.7027L73.3791 20.121L58.725 24.9778L73.4768 2.77515L51.2026 16.2782C51.2026 16.2782 38.8932 12.6489 31.8593 22.5761L25.265 27.0059C25.265 27.0059 23.5553 28.5537 21.8946 26.3121C20.2338 24.0705 20.7222 21.2952 20.7222 21.2952C20.7222 21.2952 19.0614 22.8429 18.0845 25.2447C18.0845 25.2447 15.9353 30.9021 15.1537 36.6129C15.1537 36.6129 13.3952 36.9865 13.5418 40.9893C13.5418 40.9893 13.8837 42.4304 14.421 42.3236C14.9583 42.2169 17.6937 39.7618 17.6937 39.7618L20.1361 37.9471C20.1361 37.9471 22.0411 36.3994 22.5784 40.2421L24.63 36.1325C24.63 36.1325 25.7534 35.6522 26.2419 39.1213C26.2419 39.1213 27.5608 38.1073 27.6096 35.8123L34.9855 34.905C34.9855 34.905 38.5513 34.2645 40.2609 29.6745C40.2609 29.6745 43.1429 35.8657 38.3071 40.6157C38.3071 40.6157 36.5486 41.3096 34.9855 39.3882C34.9855 39.3882 34.3016 39.3348 34.3505 42.9107L31.0777 45.3658C31.0777 45.3658 29.9543 45.099 29.3681 43.9782C29.3681 43.9782 27.9027 46.8069 27.7073 48.3013C27.7073 48.3013 25.7771 49.2186 23.9823 47.7459Z" fill="white"/>
<path d="M36.5548 24.9128C36.5548 24.9128 36.7275 21.7804 41.9776 20.0444C47.2276 18.3084 47.124 18.2329 47.124 18.2329L44.6717 20.9502C44.6717 20.9502 46.1224 20.9879 47.0204 20.5728C47.0204 20.5728 45.3279 23.5919 43.2555 24.2335C41.1831 24.8751 40.9759 23.6297 36.5548 24.9128Z" fill="black"/>
</svg>
