<svg width="225" height="162" viewBox="0 0 225 162" fill="none" xmlns="http://www.w3.org/2000/svg">
<g opacity="0.4">
<path d="M189.385 13.0516C189.057 12.941 188.958 12.672 189.457 12.4802C190.088 12.239 190.606 11.6797 190.714 11.9612C190.908 11.764 191.342 11.3362 191.337 10.6784C191.179 10.9922 189.838 12.3774 184.754 13.9921C184.754 13.9921 186.21 14.1905 187.994 13.8612C187.803 13.7172 187.778 13.5134 188.077 13.4575C188.44 13.3899 189.28 13.4427 189.954 13.2264C190.278 13.1232 190.553 12.8769 190.741 12.6769C190.537 12.8048 189.873 13.2169 189.385 13.0516Z" fill="url(#paint0_linear_607_178)"/>
<path d="M197.869 5.51249C197.587 5.77961 197.428 6.84788 196.843 6.80415C196.945 7.53396 198.555 6.19413 198.892 5.93874C200.282 4.88626 200.136 3.77881 200.441 3.29607C200.826 2.68395 201.314 3.52711 201.314 3.52711C201.78 3.28227 202.165 2.23419 201.876 1.11428C201.603 0.0552938 200.755 0.615536 200.755 0.615536C201.497 0.319845 201.457 1.73336 200.896 1.89638C199.916 2.18184 200.343 2.98906 199.316 3.0255C198.369 3.05969 198.814 1.90683 198.814 1.90683C198.468 2.21166 198.329 2.67866 198.329 2.67866C198.109 3.65814 198.737 3.95428 198.923 4.69013C199.048 5.1848 198.792 5.65295 198.636 5.79498C198.506 5.90563 197.664 6.80696 197.869 5.51249Z" fill="url(#paint1_linear_607_178)"/>
<path d="M190.769 2.55542C190.79 2.58933 190.432 3.45616 191.921 3.83547C191.921 3.83547 192.077 3.56801 192.494 3.71698C192.91 3.8657 193.913 3.72246 194.032 3.31775C194.032 3.31775 193.761 3.51258 193.469 3.58515C193.104 3.67402 192.723 3.62992 192.985 3.44365C192.988 3.44254 191.287 3.41 190.769 2.55542Z" fill="url(#paint2_linear_607_178)"/>
<path d="M209.911 6.71721C209.371 5.92082 209.327 5.43756 209.327 5.43756C208.808 5.46632 208.462 4.98308 208.462 4.98308C208.462 4.98308 207.537 5.9119 207.589 4.89671C207.617 4.36249 207.216 4.13697 206.856 4.18993C206.496 4.2429 206.174 4.57596 206.174 4.57596C206.516 4.3441 207.223 4.53879 207.154 5.7946C207.085 7.03931 208.077 7.00888 208.765 7.52189C209.619 8.15672 208.493 9.30747 208.493 9.30747C209.499 9.03417 210.45 7.50974 209.911 6.71721Z" fill="url(#paint3_linear_607_178)"/>
<path d="M206.304 7.72691C206.833 6.94987 206.492 5.87543 206.492 5.87543C206.492 5.87543 205.979 6.9695 205 6.73687C204.023 6.5025 205.458 5.51038 204.35 4.92329C204.35 4.92329 204.763 5.63094 204.098 6.29978C204.863 6.38136 203.451 7.63812 202.457 8.00612C202.457 8.00612 204.217 7.97049 204.65 7.12832C204.65 7.12832 205.22 6.97423 205.471 8.05367C205.719 9.12564 206.646 9.02382 206.646 9.02382C206.646 9.02382 205.778 8.50074 206.304 7.72691Z" fill="url(#paint4_linear_607_178)"/>
<path d="M221.844 2.73714C223.71 1.86285 224.887 2.71348 224.887 2.71348C224.887 2.71348 223.256 1.39461 222.405 1.82385C221.555 2.25309 217.262 1.96987 217.262 1.96987C218.751 2.84131 219.979 3.60991 221.844 2.73714Z" fill="url(#paint5_linear_607_178)"/>
</g>
<defs>
<linearGradient id="paint0_linear_607_178" x1="188.401" y1="10.2631" x2="187.812" y2="14.4247" gradientUnits="userSpaceOnUse">
<stop stop-color="#8C0000"/>
<stop offset="1" stop-color="#210707"/>
</linearGradient>
<linearGradient id="paint1_linear_607_178" x1="200.103" y1="0.301209" x2="199.111" y2="7.31019" gradientUnits="userSpaceOnUse">
<stop stop-color="#8C0000"/>
<stop offset="1" stop-color="#210707"/>
</linearGradient>
<linearGradient id="paint2_linear_607_178" x1="192.425" y1="2.78969" x2="192.27" y2="3.88485" gradientUnits="userSpaceOnUse">
<stop stop-color="#8C0000"/>
<stop offset="1" stop-color="#210707"/>
</linearGradient>
<linearGradient id="paint3_linear_607_178" x1="208.387" y1="4.37738" x2="207.705" y2="9.19605" gradientUnits="userSpaceOnUse">
<stop stop-color="#8C0000"/>
<stop offset="1" stop-color="#210707"/>
</linearGradient>
<linearGradient id="paint4_linear_607_178" x1="205.13" y1="5.03369" x2="204.604" y2="8.75721" gradientUnits="userSpaceOnUse">
<stop stop-color="#8C0000"/>
<stop offset="1" stop-color="#210707"/>
</linearGradient>
<linearGradient id="paint5_linear_607_178" x1="221.214" y1="1.50033" x2="220.966" y2="3.25257" gradientUnits="userSpaceOnUse">
<stop stop-color="#8C0000"/>
<stop offset="1" stop-color="#210707"/>
</linearGradient>
</defs>
</svg>
