<svg width="231" height="162" viewBox="0 0 231 162" fill="none" xmlns="http://www.w3.org/2000/svg">
<g opacity="0.4">
<path d="M194.577 13.0516C194.242 12.941 194.14 12.672 194.651 12.4802C195.296 12.239 195.826 11.6797 195.936 11.9612C196.135 11.764 196.578 11.3362 196.573 10.6784C196.412 10.9922 195.04 12.3774 189.841 13.9921C189.841 13.9921 191.33 14.1905 193.154 13.8612C192.959 13.7172 192.933 13.5134 193.239 13.4575C193.61 13.3899 194.469 13.4427 195.158 13.2264C195.49 13.1232 195.771 12.8769 195.964 12.6769C195.755 12.8048 195.076 13.2169 194.577 13.0516Z" fill="url(#paint0_linear_1131_960)"/>
<path d="M203.253 5.51249C202.965 5.77961 202.803 6.84788 202.204 6.80415C202.308 7.53396 203.955 6.19413 204.299 5.93874C205.721 4.88626 205.572 3.77881 205.883 3.29607C206.277 2.68395 206.776 3.52711 206.776 3.52711C207.253 3.28227 207.647 2.23419 207.351 1.11428C207.072 0.0552937 206.205 0.615536 206.205 0.615536C206.964 0.319845 206.923 1.73336 206.349 1.89638C205.346 2.18184 205.784 2.98906 204.733 3.0255C203.765 3.05969 204.22 1.90683 204.22 1.90683C203.866 2.21166 203.723 2.67866 203.723 2.67866C203.498 3.65814 204.141 3.95428 204.331 4.69013C204.459 5.1848 204.198 5.65295 204.037 5.79498C203.905 5.90563 203.044 6.80696 203.253 5.51249Z" fill="url(#paint1_linear_1131_960)"/>
<path d="M195.992 2.55566C196.014 2.58957 195.647 3.45641 197.17 3.83571C197.17 3.83571 197.329 3.56825 197.756 3.71723C198.181 3.86594 199.208 3.72271 199.33 3.318C199.33 3.318 199.052 3.51282 198.754 3.58539C198.38 3.67426 197.99 3.63017 198.259 3.4439C198.261 3.44279 196.522 3.41024 195.992 2.55566Z" fill="url(#paint2_linear_1131_960)"/>
<path d="M215.569 6.71721C215.017 5.92082 214.971 5.43756 214.971 5.43756C214.441 5.46632 214.087 4.98308 214.087 4.98308C214.087 4.98308 213.141 5.9119 213.194 4.89671C213.222 4.36249 212.813 4.13697 212.444 4.18993C212.076 4.2429 211.747 4.57596 211.747 4.57596C212.097 4.3441 212.82 4.53879 212.749 5.7946C212.679 7.03931 213.693 7.00888 214.397 7.52189C215.27 8.15672 214.118 9.30747 214.118 9.30747C215.147 9.03417 216.12 7.50974 215.569 6.71721Z" fill="url(#paint3_linear_1131_960)"/>
<path d="M211.88 7.72685C212.421 6.94981 212.072 5.87537 212.072 5.87537C212.072 5.87537 211.547 6.96944 210.547 6.73681C209.547 6.50244 211.014 5.51032 209.881 4.92323C209.881 4.92323 210.304 5.63088 209.624 6.29972C210.407 6.3813 208.962 7.63806 207.946 8.00606C207.946 8.00606 209.745 7.97043 210.188 7.12826C210.188 7.12826 210.771 6.97417 211.028 8.05361C211.282 9.12558 212.23 9.02376 212.23 9.02376C212.23 9.02376 211.341 8.50068 211.88 7.72685Z" fill="url(#paint4_linear_1131_960)"/>
<path d="M227.773 2.73714C229.681 1.86285 230.884 2.71348 230.884 2.71348C230.884 2.71348 229.216 1.39461 228.346 1.82385C227.477 2.25309 223.086 1.96987 223.086 1.96987C224.609 2.84131 225.865 3.60991 227.773 2.73714Z" fill="url(#paint5_linear_1131_960)"/>
</g>
<defs>
<linearGradient id="paint0_linear_1131_960" x1="193.57" y1="10.2631" x2="192.994" y2="14.4282" gradientUnits="userSpaceOnUse">
<stop stop-color="#8C0000"/>
<stop offset="1" stop-color="#210707"/>
</linearGradient>
<linearGradient id="paint1_linear_1131_960" x1="205.538" y1="0.301209" x2="204.568" y2="7.31623" gradientUnits="userSpaceOnUse">
<stop stop-color="#8C0000"/>
<stop offset="1" stop-color="#210707"/>
</linearGradient>
<linearGradient id="paint2_linear_1131_960" x1="197.686" y1="2.78994" x2="197.534" y2="3.88603" gradientUnits="userSpaceOnUse">
<stop stop-color="#8C0000"/>
<stop offset="1" stop-color="#210707"/>
</linearGradient>
<linearGradient id="paint3_linear_1131_960" x1="214.01" y1="4.37738" x2="213.342" y2="9.20021" gradientUnits="userSpaceOnUse">
<stop stop-color="#8C0000"/>
<stop offset="1" stop-color="#210707"/>
</linearGradient>
<linearGradient id="paint4_linear_1131_960" x1="210.68" y1="5.03363" x2="210.164" y2="8.76036" gradientUnits="userSpaceOnUse">
<stop stop-color="#8C0000"/>
<stop offset="1" stop-color="#210707"/>
</linearGradient>
<linearGradient id="paint5_linear_1131_960" x1="227.128" y1="1.50033" x2="226.885" y2="3.25408" gradientUnits="userSpaceOnUse">
<stop stop-color="#8C0000"/>
<stop offset="1" stop-color="#210707"/>
</linearGradient>
</defs>
</svg>
