<svg width="45" height="46" viewBox="0 0 45 46" fill="none" xmlns="http://www.w3.org/2000/svg">
<path d="M37.0913 15.0301L27.4253 5.25514C27.297 5.1255 27.1446 5.0227 26.977 4.95262C26.8094 4.88253 26.6297 4.84654 26.4483 4.84668H9.87799C9.14554 4.84668 8.44308 5.14093 7.92516 5.66469C7.40724 6.18845 7.11627 6.89883 7.11627 7.63954V38.361C7.11627 39.1017 7.40724 39.812 7.92516 40.3358C8.44308 40.8596 9.14554 41.1538 9.87799 41.1538H34.7335C35.4659 41.1538 36.1684 40.8596 36.6863 40.3358C37.2042 39.812 37.4952 39.1017 37.4952 38.361V16.0181C37.4954 15.8347 37.4598 15.653 37.3905 15.4835C37.3212 15.314 37.2195 15.1599 37.0913 15.0301ZM26.4483 16.0181V8.33775L34.0431 16.0181H26.4483Z" fill="white"/>
</svg>
