<svg width="431" height="579" viewBox="0 0 431 579" fill="none" xmlns="http://www.w3.org/2000/svg">
<path opacity="0.3" d="M146.759 229.441C145.758 234.336 151.436 234.224 151.436 234.224C155.956 232.547 153.408 230.153 153.408 230.153C153.595 230.47 152.725 233.041 151.611 231.262C150.498 229.483 155.245 228.166 157.293 225.478C159.342 222.791 160.734 218.438 161.108 213.095C161.469 208.016 161.618 206.594 163.865 202.551C164.889 200.703 168.816 196.559 169.63 200.229C175.35 195.696 173.453 180.444 173.453 180.444C172.861 184.352 169.576 192.032 166.798 194.453C163.366 197.436 158.395 198.693 155.639 204.757C154.858 206.485 159.798 204.607 157.662 214.016C158.63 218.947 150.751 224.842 151.437 224.247C152.115 223.652 152.151 219.546 150.184 217.88C147.336 215.464 150.974 208.096 150.974 208.096C146.468 210.518 145.067 217.851 146.824 220.582C148.59 223.314 147.759 224.553 146.759 229.441Z" fill="url(#paint0_linear_1131_967)"/>
<path opacity="0.3" d="M88.8784 262.026C89.8749 263.44 91.0145 263.347 91.6889 262.451C92.315 261.624 92.871 258.428 90.2491 253.796C90.2491 253.796 92.5825 259.716 89.6194 259.033C86.6563 258.351 85.7171 258.663 85.5553 259.883C85.3857 261.103 81.7789 261.828 83.0144 259.763C83.0144 259.763 84.1719 258.139 84.2317 256.452C84.266 255.346 83.6133 254.022 82.5977 253.745C82.5977 253.745 84.159 256.575 80.1999 260.05C80.1999 260.05 72.0522 266.639 74.2894 276.412C74.2894 276.412 74.6433 270.304 77.934 270.171C77.934 270.171 76.4555 279.212 80.6907 281.259C80.6907 281.259 80.2149 279.681 82.2437 280.847C84.2726 282.012 87.5478 283.272 90.4383 281.268C90.4383 281.268 88.6621 281.879 87.1613 281.518C85.6606 281.149 85.0017 280.66 83.2086 278.546C81.4692 276.503 80.0793 273.28 81.3131 268.523C81.3131 268.523 82.2595 262.183 87.029 262.79C87.0367 262.797 86.9542 259.306 88.8784 262.026Z" fill="url(#paint1_linear_1131_967)"/>
<path opacity="0.3" d="M81.5354 287.155C84.0151 286.681 87.3089 282.727 87.3089 282.727C87.3089 282.727 84.4173 283.827 83.3288 282.557C82.2404 281.277 81.1684 281.369 81.1684 281.369C81.5352 282.488 80.4667 282.838 80.4667 282.838C75.0963 282.025 75.9174 272.988 75.9174 272.988C74.3541 277.01 74.8491 281.746 76.1283 284.783C77.0969 287.094 79.3286 287.32 79.3286 287.32C77.3472 284.853 81.5354 287.155 81.5354 287.155Z" fill="url(#paint2_linear_1131_967)"/>
<path opacity="0.3" d="M162.668 240.502C162.668 240.502 155.882 256.8 137.851 257.728C136.465 257.799 135.047 257.879 133.605 257.966C140.163 254.276 141.083 249.795 141.083 249.795C137.264 255.321 124.939 257.239 124.939 257.239C124.939 257.239 121.859 257.065 119.201 260.028C115.044 261.179 111.449 262.945 109.083 265.755C109.083 265.755 112.428 264.528 111.071 267.237C109.713 269.946 108.039 273.25 110.492 280.604C110.492 280.604 110.078 278.372 113.064 275.045C116.133 271.611 122.591 267.132 134.267 264.079C134.283 264.079 142.175 263.834 145.595 263.454C149.022 263.082 152.937 258.625 152.937 258.625C152.937 258.625 146.377 262.396 147.407 260.545C160.207 254.748 162.277 241.762 162.668 240.502Z" fill="url(#paint3_linear_1131_967)"/>
<path opacity="0.3" d="M115.877 279.768C115.877 279.768 113.8 280.278 112.4 281.314C108.029 284.541 105.898 276.415 106.897 273.411C106.897 273.411 103.713 275.887 104.436 281.205C107.372 279.024 105.656 286.002 107.089 285.643C108.522 285.285 112.259 282.756 114.455 283.205C116.66 283.653 123.503 282.801 123.503 282.801C123.503 282.801 111.821 281.954 115.877 279.768Z" fill="url(#paint4_linear_1131_967)"/>
<path opacity="0.3" d="M144.54 204.326C150.482 200.346 157.58 196.775 162.5 196.156C170.726 195.121 157.708 168.388 178.551 169.093C184.074 166.539 186.923 158.48 188.135 149.201C193.279 145.202 192.98 142.652 192.055 138C190.941 132.399 196.397 129.325 196.397 129.325C192.714 130.933 190.356 132.869 188.857 134.774C188.713 126.599 187.737 119.133 186.611 115.139C183.476 104.059 200.202 89.2569 200.202 89.2569C196.068 91.9303 192.118 94.5224 188.653 97.1882C188.653 97.1882 181.737 97.2107 174.525 104.347C172.856 105.999 170.809 107.956 170.084 110.374C170.084 110.374 174.998 105.618 175.734 108.392C176.463 111.157 172.075 109.522 170.281 115.879C170.281 115.879 171.935 113.749 171.91 115.231C171.899 115.901 171.932 118.883 172.164 122.303C172.001 122.953 171.861 123.58 171.737 124.172C171.058 121.609 170.089 119.125 169.319 117.448C165.485 109.089 178.841 97.64 178.841 97.64C167.21 102.329 163.317 108.749 159.191 116.38C155.199 123.745 154.034 131.559 150.608 135.063C149.355 136.343 147.772 137.36 146.011 138.165C145.824 137.962 145.659 137.825 145.569 137.765C145.013 137.414 146.966 137.391 148.858 134.72C151.217 131.386 151.543 126.902 151.543 126.902C151.095 128.269 148.254 132.694 146.727 132.64C149.368 133.764 142.952 137.009 141.548 137.359C139.228 137.93 137.801 140.506 137.801 140.506C131.735 141.487 126.177 141.159 125.964 141.156C117.401 141.022 123.897 138.005 123.897 138.005C121.973 136.722 125.036 133.992 125.036 133.992C118.3 135.031 115.052 139.282 114.307 143.325C119.337 137.54 122.716 145.408 130.365 144.759C129.308 143.899 130.416 143.068 131.261 143.013C134.235 142.836 137.305 145.608 137.395 145.24C137.878 143.17 139.259 145.115 140.684 143.552C141.018 145.332 136.889 148.667 136.889 148.667C136.911 158.205 123.8 161.828 123.8 161.828C139.084 162.757 145.54 156.64 150.001 153.067C156.249 148.061 155.658 141.161 156.585 137.548C158.172 131.356 164.366 132.68 164.366 132.68C172.213 133.859 162.437 145.701 162.437 145.701C164.098 144.551 165.724 143.217 167.163 141.696C165.099 146.491 162.221 151.317 158.623 152.875C157.352 153.427 156.233 153.956 155.236 154.487C155.634 153.873 156.011 152.706 156.117 150.479C156.117 150.479 152.269 156.515 149.331 155.394C149.331 155.394 149.213 155.644 148.977 156.076C149.206 155.594 149.325 155.302 149.325 155.302C146.35 159.105 138.62 161.88 135.678 162.828C128.968 164.988 123.176 164.616 122.234 161.429C120.759 156.452 122.899 155.334 125.62 154.391C124.598 154.134 122.91 153.776 121.827 153.962C119.701 154.335 117.726 155.573 116.223 157.302C114.554 157.598 109.478 158.876 106.397 163.557C102.669 169.226 100.475 166.365 100.475 166.365C100.475 166.365 101.78 170.118 105.564 168.344C109.348 166.571 112.789 168.527 113.383 176.583C113.383 176.583 115.743 171.825 114.055 167.824C112.82 164.893 112.433 163.498 113.487 163.16C113.479 163.202 113.478 163.244 113.47 163.286C120.708 176.189 112.075 179.797 112.075 179.797C115.055 169.353 100.052 169.801 97.502 170.503C95.3794 171.085 93.6625 172.846 92.1512 175.036C91.3581 174.749 90.6112 173.516 90.0187 169.882C88.7567 162.227 102.762 161.406 102.762 161.406L96.5665 160.157C92.8535 159.947 87.7652 161.075 85.445 163.463C82.5834 166.405 83.0364 171.553 82.9147 172.464C82.697 174.111 79.8058 174.749 79.8058 174.749C81.7604 174.667 80.7059 184.04 80.7059 184.04C84.4558 182.057 84.0309 185.174 83.2523 187.634C83.1683 187.658 83.092 187.674 83.0082 187.689C76.2302 188.962 79.5541 175.709 79.2797 175.755C78.9977 175.802 72.3464 183.549 73.0454 193.499C73.0762 193.926 73.1608 194.321 73.3068 194.675L73.2075 194.707C73.2075 194.707 71.3515 201.121 75.8453 205.964C75.8453 205.964 74.3457 200.232 76.9724 199.506C76.9724 199.506 75.8031 198.084 77.2132 196.939C79.5002 196.979 82.3761 195.896 84.8839 193.652C91.1031 188.093 94.7655 175.046 98.4289 176.847C97.8881 182.341 100.106 186.508 103.132 189.573C103.132 189.573 97.4637 187.234 96.6838 183.447C96.6838 183.447 96.4305 194.891 111.021 194.998C113.788 196.318 115.907 196.883 115.907 196.883C115.907 196.883 107.439 189.255 109.853 183.585C107.522 181.627 106.845 177.113 111.082 178.695C110.19 180.223 114.377 181.168 112.765 183.5C116.429 182.972 119.083 174.785 120 174.027C114.994 169.838 121.005 166.705 128.208 166.837C128.208 166.837 135.289 171.917 127.467 178.76C127.467 178.76 133.982 175.944 134.613 174.152C134.613 174.152 133.399 174.478 133.484 173.5C133.559 172.672 136.496 170.2 137.538 168.338C138.872 168.105 140.121 167.478 141.284 166.614C142.881 166.519 144.69 166.075 146.284 164.84C146.284 164.84 143.882 163.041 147.764 161.352C148.124 161.198 148.469 161.018 148.799 160.822C147.723 162.875 146.812 165.526 145.771 169.146C152.36 163.257 153.745 176.717 152.667 181.14C150.716 189.136 140.457 196.289 135.446 200.098C127.732 205.963 129.587 199.574 129.587 199.574C125.162 203.323 129.355 206.622 122.167 210.107C110.52 215.768 104.596 207.388 104.596 207.388C105.077 209.036 106.076 211.084 107.455 213.172C107.455 213.172 96.8869 208.421 97.8956 202.221C97.8956 202.221 94.8649 205.731 97.7312 211.087C97.7312 211.087 99.6598 213.911 100.416 216.869C101.164 219.818 101.11 220.797 105.565 221.126C105.565 221.126 101.475 218.516 103.922 216.699C106.377 214.882 106.904 221.078 109.227 221.235C109.227 221.235 109.506 219.522 112.604 219.263C113.308 219.909 114.042 220.514 114.793 221.06L114.762 221.076C114.762 221.076 118.461 226.679 112.911 230.397C112.911 230.397 115.317 230.564 116.901 228.575C118.446 226.637 121.078 228.323 120.672 229.406C119.956 231.322 117.147 232.908 117.029 234.95C116.771 239.452 118.47 241.954 116.71 240.807C117.851 244.843 116.643 246.635 114.247 248.528C113.208 249.343 112.239 250.469 110.195 250.399C110.195 250.399 111.124 250.746 112.236 250.636L112.151 250.719C112.151 250.719 110.544 251.802 108.917 251.369C108.966 252.065 110.387 252.579 111.511 252.175C110.827 251.68 113.994 250.049 115.774 250.408C116.63 250.579 117.72 250.812 118.576 250.547C119.5 250.267 120.167 249.463 120.54 248.974C120.54 248.974 119.304 249.703 118.572 249.869C117.679 250.066 117.345 249.609 118.603 248.462C121.514 247.129 124.479 245.235 126.065 242.669C126.065 242.669 116.412 244.078 124.209 234.186C127.696 229.762 135.489 229.6 133.079 235.974C133.079 235.974 138.84 233.674 139.233 228.89C139.625 224.072 131.752 222.255 137.236 217.942C142.758 213.605 146.255 213.963 148.733 208.57C148.71 208.57 137.635 213.602 144.54 204.326Z" fill="url(#paint5_linear_1131_967)"/>
<path opacity="0.3" d="M280.08 146.845C260.897 176.145 240.701 182.537 247.027 171.541C214.426 181.177 186.369 160.305 213.797 146.277C212.666 148.981 212.21 152.44 211.255 153.757C209.244 156.509 209.116 152.262 209.116 152.262C205.367 162.87 218.951 163.564 218.951 163.564C208.838 156.978 214.961 150.292 219.273 147.182C223.6 144.064 222.485 153.072 229.786 149.995C237.118 146.901 233.11 133.764 233.11 133.764C233.38 139.088 230.087 149.397 221.596 144.062C221.195 143.811 220.817 143.593 220.452 143.419C221.468 143.052 222.529 142.693 223.644 142.336C194.97 134.021 197.211 119.02 228.793 106.294C226.388 99.6944 230.018 93.0334 236.115 89.7276C251.201 97.9752 263.455 94.5589 261.685 82.5113C257.289 103.803 229.929 75.5691 226.906 74.3414C221.316 72.0788 214.357 81.6852 214.357 81.6852C214.357 81.6852 222.141 77.174 223.68 82.9229C224.623 86.4437 223.036 92.5819 218.833 100.133C211.058 114.134 194.207 107.566 203.653 93.8501C213.271 79.8741 201.096 71.7257 231.671 61.5784C231.671 61.5784 230.188 60.6599 227.368 60.1129C239.74 55.5713 247.331 33.4842 252.037 40.5644C264.227 33.2495 264.231 11.211 264.231 11.211C264.045 11.3186 255.739 31.3963 238.447 33.8031C235.772 34.1732 233.239 34.7571 230.833 35.4613C231.883 31.273 232.769 26.3284 234.789 19.8656C239.258 5.59031 267.401 1.41716 267.401 1.41716C256.09 -0.381505 246.528 -0.588718 236.271 3.63448C226.745 7.56266 222.368 19.1278 221.648 24.634C220.576 32.8975 210.759 47.8113 210.846 40.3816C209.645 41.2887 208.189 42.8363 206.602 44.4583C205.088 43.9716 205.148 41.7779 205.431 40.8751C198.063 41.5284 194.674 47.9893 192.73 47.6576C188.673 46.9751 184.258 56.6926 181.053 57.6739C177.847 58.6553 176.785 58.1747 177.016 56.7205C177.876 51.4705 180.047 55.6435 181.973 53.433C183.899 51.2225 186.714 47.0584 184.735 40.5833C183.973 46.3684 179.864 49.7099 177.086 50.7479C175.47 51.3528 174.704 52.3252 174.534 48.7642C172.071 51.1114 171.755 55.8096 171.755 55.8096C173.613 59.8767 169.262 58.9698 167.748 69.8455C169.451 73.2157 167.574 72.9697 166.38 72.0806C167.153 75.2263 170.658 73.7152 170.658 73.7152C173.118 70.6647 171.59 80.5658 171.59 80.5658C173.578 78.7713 176.936 75.5721 176.694 73.0946C182.852 70.7387 177.949 84.4403 177.949 84.4403C182.962 82.3568 185.297 77.6693 186.387 74.6508C186.387 74.6508 186.051 84.2208 175.856 89.7159C175.856 89.7159 180.187 89.1058 182.23 87.6594C184.274 86.2131 185.325 82.8213 188.682 83.257C189.033 83.3042 189.401 83.2754 189.769 83.1957C186.837 86.5363 182.943 89.8637 177.847 92.2851C177.847 92.2851 181.66 93.3795 188.657 89.315C195.692 85.2341 200.762 81.0924 200.405 84.5869C200.149 87.1168 185.163 98.3249 186.146 105.837C192.374 97.8644 193.388 103.954 194.745 106.963C195.438 108.506 195.286 112.097 192.613 114.577C189.118 117.825 185.28 123.212 186.155 130.748C186.155 130.748 189.408 124.192 193.006 122.149C195.994 120.452 199.427 122.745 199.214 126.741C198.957 131.601 186.916 139.588 185.448 155.014C195.419 146.44 193.113 152.585 188.191 160.644C191.974 162.144 189.568 166.509 185.882 169.687C184.765 169.29 183.415 169.983 182.392 169.859C180.705 169.667 182.132 168.068 182.132 168.068C183.517 166.638 184.722 167.705 184.722 167.705C186.427 164.085 183.346 160.001 183.346 160.001C183.235 166.558 175.324 171.364 175.324 171.364C170.509 167.544 164.084 174.048 163.635 178.889C168.713 176.586 164.819 187.624 167.201 192.402C167.201 192.402 171.501 178.615 178.507 183.956C179.814 184.948 183.148 186.299 188.099 187.477L188.053 187.485C188.053 187.485 192.78 189.685 193.401 195.472C193.739 198.578 200.343 197.855 194.182 200.854C194.836 203.829 201.503 206.615 206.167 205.289C199.438 202.079 204.351 199.121 205.526 198.832C207.484 198.351 212.137 202.27 217.59 203.09C222.007 203.752 228.698 201.92 231.885 201.599C231.885 201.599 207.112 193.668 219.357 192.624C228.845 191.814 233.928 196.518 242.382 196.278C244.876 196.211 247.676 194.758 250.95 193.794C250.95 193.794 238.098 194.093 251.151 190.467C261.515 188.075 264.588 184.017 264.588 184.017C264.588 184.017 262.34 185.367 258.79 185.937C256.429 186.32 253.484 186.364 250.074 186.326C258.667 185.088 266.775 180.894 279.865 159.171C293.962 135.775 314.808 134.84 314.808 134.84C314.808 134.84 295.251 123.676 280.08 146.845ZM192.973 79.0877C190.915 79.6442 188.809 79.7763 189.634 77.5846C190.403 75.5362 191.383 73.6093 191.88 72.2604C193.512 72.5539 195.171 73.0256 196.228 73.3367C195.491 74.9111 194.432 76.9132 192.973 79.0877ZM197.545 70.0587C197.545 70.0587 197.302 70.8603 196.737 72.1828C195.658 69.9481 193.406 66.5365 191.637 67.1732C187.028 68.8301 183.684 70.784 184.357 67.1836C185.5 61.0393 191.74 59.2268 194.768 58.7514C197.797 58.276 199.81 63.5908 205.071 61.3328C206.997 60.5034 237.691 46.4855 225.705 59.8699C219.995 59.2324 210.364 60.3969 197.545 70.0587Z" fill="url(#paint6_linear_1131_967)"/>
<path opacity="0.3" d="M250.34 181.671C246.021 184.88 239.589 193.205 233.538 196.574C241.055 196.01 247.971 196.63 259.624 191.553C271.284 186.477 271.39 194.716 271.39 194.716C283.373 182.69 281.607 171.802 288.783 149.238C295.959 126.674 341.145 120.089 341.145 120.089C322.975 117.255 307.614 116.912 291.149 123.59C275.846 129.792 268.826 148.073 267.678 156.787C265.952 169.845 250.196 193.417 250.34 181.671Z" fill="url(#paint7_linear_1131_967)"/>
<path opacity="0.3" d="M65.9906 208.094C68.3539 209.28 69.5951 209.078 69.5951 209.078C69.5951 209.078 62.6391 203.956 65.3355 197.224C67.0656 200.405 68.536 202.572 68.6163 202.826C68.6163 202.826 66.8893 189.862 69.2516 180.6C69.8599 183.286 71.2154 184.971 71.2154 184.971C69.5085 179.955 75.7458 172.043 76.4222 171.597L75.936 171.708C76.0981 171.668 76.2602 171.629 76.4223 171.589L76.4764 171.573C78.559 171.163 77.8466 167.811 80.4674 163.747C84.5724 157.371 94.0237 153.552 103.043 161.219C103.392 161.518 104.537 162.022 104.809 161.833C103.105 160.285 105.559 158.391 107.187 158.506C113.138 153.881 126.704 147.248 125.255 154.721C132.298 151.929 136.765 145.062 137.058 145.015C137.058 145.015 136.452 144.931 135.401 144.824C135.401 144.824 135.406 144.521 134.469 144.012C133.532 143.502 130.805 142.892 129.957 143.04C129.957 143.04 133.336 144.206 131.762 144.522C125.833 144.129 116.264 143.998 110.194 146.516C100.881 150.379 108.436 124.931 113.557 120.733C107.859 123.551 102.604 125.643 100.587 130.363C100.067 131.585 98.5669 137.121 94.8509 138.653C94.0302 138.996 90.9778 140.385 92.2939 137.103C92.2773 137.17 90.1549 138.118 90.0026 141.685C93.3159 143.987 89.986 146.787 84.4396 149.27C80.8454 150.88 77.3416 151.219 75.4824 147.034C71.1565 137.293 73.2865 124.93 80.8207 118.533C80.8207 118.533 71.9716 122.201 67.0308 129.365C68.4759 125.723 71.056 121.792 72.8661 120.218C76.1585 117.358 76.2236 103.434 81.4909 102.917C85.5722 102.518 78.8143 113.497 78.8143 113.497C82.9807 112.611 89.0506 103.685 90.9259 83.1518C92.311 67.9997 104.084 64.6586 104.084 64.6586C99.0557 63.7479 94.9015 65.7368 91.5005 69.1084C85.9572 74.6058 78.8184 88.1217 80.7967 75.175C70.0197 89.7102 75.7591 99.0582 72.6952 106.61C66.8484 121.011 64.5148 122.629 61.6483 126.218C58.7818 129.808 62.3099 133.964 62.3099 133.964L64.3681 135.003C63.68 137.519 63.5638 140.313 64.2963 143.387C67.407 156.353 66.7069 162.321 64.3814 167.113C62.5467 167.408 58.3443 165.869 60.1843 163.427C62.1422 160.836 62.9083 159.625 63.6071 161.959C66.3399 158.09 64.1931 152.26 64.1931 152.26C64.1767 156.435 63.7294 157.886 61.4237 158.763C59.1179 159.641 58.3408 164.244 57.4321 165.25C57.0326 165.691 55.4722 165.678 54.9459 164.517C54.3159 163.12 55.9732 161.029 57.217 162.04C57.3285 160.441 59.3539 157.952 59.3539 157.952C58.8292 158.063 58.3503 158.199 57.9093 158.362C58.6798 153.236 62.5449 154.721 62.5449 154.721C64.409 148.567 61.6089 144.554 58.3545 141.041C55.1001 137.528 59.0561 131.782 59.0561 131.782C54.1324 134.728 53.7927 139.842 55.3916 145.336C56.9905 150.831 58.197 148.574 53.701 156.713C49.998 163.414 50.1725 169.95 50.3446 172.057C50.3446 172.057 48.5517 171.241 46.8527 168.953C44.0885 162.348 48.9593 152.043 48.9593 152.043C45.5338 157.325 44.5418 160.999 44.2849 163.016C44.0787 162.02 43.9355 160.932 43.8866 159.727C43.8866 159.727 40.1966 173.879 46.3383 178.964C47.0385 170.706 54.7957 184.864 54.7957 184.864L55.9526 184.644C56.4013 186.309 55.1447 187.428 55.1948 189.475C55.1948 189.475 54.8988 190.161 54.8159 190.977C54.3449 191.096 53.9048 191.208 53.4966 191.253C50.2613 191.63 49.1801 185.983 49.1801 185.983C49.1892 196.406 54.3644 194.506 57.6195 197.977C58.05 198.438 58.3734 198.863 58.6281 199.263C58.7217 200.097 58.915 200.942 59.2546 201.78C59.0756 202.822 58.3589 203.384 58.3589 203.384C58.3589 203.384 56.6189 204.901 54.9661 202.614C55.1618 202.861 55.3989 206.13 59.0613 208.698C61.6144 210.484 66.6656 211.841 71.007 211.976C70.9911 212.01 67.099 210.298 65.9906 208.094ZM53.5005 176.402C53.5005 176.402 53.5019 176.772 53.5459 177.354L50.5688 172.439L52.3572 168.043C52.3379 172.387 54.8304 173.667 55.7695 174.968C56.3103 175.725 57.6494 178.378 59.0832 181.353C57.9088 180.781 54.6712 179.011 53.5005 176.402Z" fill="url(#paint8_linear_1131_967)"/>
<path opacity="0.3" d="M98.9088 207.075C93.0307 208.683 89.5155 219.091 89.5155 219.091C93.4119 212.081 96.6356 212.364 100.309 211.498C103.983 210.632 108.466 208.998 112.692 201.816C116.918 194.634 130.568 199.249 130.568 199.249C116.841 189.751 106.654 195.88 106.654 195.88C109.092 196.431 104.795 205.467 98.9088 207.075Z" fill="url(#paint9_linear_1131_967)"/>
<path opacity="0.3" d="M304.154 234.127C300.599 230.521 295.547 229.113 289.94 230.238C288.5 229.121 285.403 227.74 280.603 230.731C272.901 235.523 271.615 237.28 268.942 236.089C268.942 236.089 270.223 240.165 275.352 237.912C275.767 237.732 276.166 237.552 276.541 237.387C274.414 239.246 272.312 241.468 270.274 244.062C261.234 255.562 249.675 247.861 247.824 244.448C244.828 238.929 234.36 241.158 234.36 241.158C241.496 248.733 228.681 251.615 220.215 256.146C211.585 260.763 211.118 270.582 217.283 272.239C217.283 272.239 219.809 272.492 222.409 271.971C218.951 280.571 230.905 277.629 230.905 277.629C222.222 277.098 229.303 267.677 229.303 267.677L227.572 268.669C228.7 266.66 230.759 267.447 232.879 267.338C234.837 267.236 236.936 266.103 236.936 266.103C231.218 264.613 230.674 260.927 233.299 256.696C235.915 252.473 241.637 250.986 243.834 252.339C249.695 255.936 247.391 262.286 247.391 262.286C251.055 263.159 258.322 261.185 266.091 255.62C268.386 257.572 263.92 261.923 261.673 263.578C259.095 265.479 259.715 263.261 259.715 263.261C258.209 267.411 255.431 268.341 255.431 268.341C276.378 263.215 276.584 251.416 275.793 246.815C277.003 245.444 278.199 243.985 279.367 242.411C290.753 227.095 304.154 234.127 304.154 234.127Z" fill="url(#paint10_linear_1131_967)"/>
<path opacity="0.3" d="M128.255 234.731C121.755 244.819 117.092 244.381 115.399 248.481C115.085 247.163 115.753 245.233 117.955 242.488C114.121 243.932 110.782 248.009 106.204 254.609C101.625 261.201 98.8656 268.2 98.8656 268.2C98.8656 268.2 119.248 248.795 113.328 260.413C115.354 259.162 118.887 252.469 122.642 255.669C123.985 256.818 131.184 255.03 134.695 252.277C140.998 247.327 144.389 239.232 144.389 239.232C144.715 239.871 146.624 250.483 136.387 256.727C141.822 255.715 147.322 252.624 152.471 247.249C154.391 245.249 157.26 238.364 160.457 233.415C163.654 228.457 167.184 225.435 170.426 231.125C171.914 227.648 175.103 222.725 174.131 219.52C173.833 218.55 171.321 220.656 171.633 218.103C171.539 216.605 172.227 214.37 172.018 213.037C169.637 213.961 166.553 212.684 167.052 209.716C167.018 209.941 168.048 210.121 168.889 209.967C167.332 207.327 169.635 203.862 169.635 203.862C169.635 203.862 166.253 205.155 163.457 209.884C160.977 214.086 160.848 224.392 155.748 228.158C156.423 233.89 144.414 253.323 146.851 232.568C141.848 235.465 140.63 242.059 140.161 243.227C139.13 245.779 133.373 244.587 133.094 241.617C132.822 238.647 136.893 238.651 138.398 241.255C141.387 237.538 141.862 231.525 141.862 231.525C141.862 231.525 139.265 235.117 136.009 236.046C133.309 236.836 128.604 237.572 128.255 234.731Z" fill="url(#paint11_linear_1131_967)"/>
<path opacity="0.3" d="M352.737 245.292C361.726 253.974 364.951 251.445 364.951 251.445C364.951 251.445 358.996 247.126 353.735 235.36C348.474 223.594 342.412 224.755 342.412 224.755C335.066 220.333 325.279 228.841 313.583 232.801C308.351 234.923 294.927 233.949 289.951 237.303C273.44 248.426 280.566 265.027 260.424 269.502C248.504 272.146 237.229 288.504 237.659 288.274C262.457 275.019 259.504 285.908 264.875 289.773C267.516 291.676 280.067 263.549 296.348 250.506C313.153 237.049 333.565 238.817 327.064 250.926C336.267 258.417 348.104 268.777 362.866 272.998C401.058 283.904 420.314 254.7 420.314 254.7C409.562 262.641 369.035 284.642 352.737 245.292Z" fill="url(#paint12_linear_1131_967)"/>
<path opacity="0.3" d="M298.13 210.727C287.025 208.954 279.558 217.156 279.558 217.156C293.444 210.384 300.318 225.179 309.712 224.143C319.107 223.107 335.286 214.417 350.057 224.535C358.64 230.417 363.101 214.148 372.467 198.934C381.833 183.72 401.018 191.274 401.018 191.274C401.018 191.274 366.886 172.688 361.061 195.993C355.751 217.246 304.807 211.789 298.13 210.727Z" fill="url(#paint13_linear_1131_967)"/>
<path opacity="0.3" d="M398.171 220.108C410.238 222.787 396.476 229.879 392.246 231.737C376.502 238.67 355.039 234.978 355.039 234.978C355.039 234.978 362.052 238.661 370.546 242.135C379.039 245.608 398.261 242.211 407.57 232.348C416.88 222.485 430.951 227.206 430.951 227.206C414.93 213.614 405.792 214.644 398.171 220.108Z" fill="url(#paint14_linear_1131_967)"/>
<path opacity="0.3" d="M333.646 270.911C322.137 255.965 319.143 263.132 312.609 259.325C306.074 255.518 317.628 250.904 317.628 250.904C297.306 248.393 277.399 278.566 277.399 278.566C277.399 278.566 300.845 259.513 319.903 269.14C323.471 270.942 324.695 272.883 325.34 275.002C324.783 273.891 322.928 272.071 316.699 271.921C316.699 271.921 324.12 274.596 324.597 280.081C324.986 284.526 326.53 286.576 333.373 288.074C344.125 294.666 364.333 287.93 364.333 287.93C364.333 287.93 345.156 285.858 333.646 270.911Z" fill="url(#paint15_linear_1131_967)"/>
<path opacity="0.3" d="M311.728 199.784C313.902 195.802 319.502 198.628 324.766 200.425C329.898 202.176 335.327 196.523 335.327 196.523C335.327 196.523 330.232 198.641 328.007 197.721C325.199 196.553 317.362 191.278 310.089 191.517C306.61 191.638 302.456 197.38 300.563 197.256C290.963 196.618 285.324 210.549 285.324 210.549C299.842 197.238 307.914 206.776 311.728 199.784Z" fill="url(#paint16_linear_1131_967)"/>
<path opacity="0.3" d="M322.102 201.828C314.482 198.667 313.112 201.704 313.112 201.704C313.112 201.704 314.713 206.739 309.12 205.118C303.527 203.496 300.105 206.539 300.105 206.539C309.12 205.118 303.901 211.31 322.266 208.623C325.241 208.185 327.862 207.431 330.165 206.464C328.266 209.15 325.392 210.076 325.392 210.076C332.605 209.092 339.138 200.566 339.138 200.566C343.98 195.872 345.609 190.965 345.609 190.965C341.552 198.231 330.463 205.292 322.102 201.828Z" fill="url(#paint17_linear_1131_967)"/>
<path opacity="0.3" d="M271.326 211.12C266.431 217.291 263.512 233.932 260.924 236.669C257.526 240.281 254.323 238.13 254.323 238.13C254.323 238.13 262.397 248.009 269.615 241.997C262.58 237.172 270.662 229.217 272.046 227.154C275.292 222.326 289.638 223.121 289.638 223.121C289.638 223.121 286.83 220.234 281.371 219.805C275.912 219.376 285.211 202.384 285.211 202.384C285.211 202.384 275.218 206.218 271.326 211.12Z" fill="url(#paint18_linear_1131_967)"/>
<path opacity="0.3" d="M317.846 227.347C313.841 228.71 303.987 225.303 298.781 222.618C293.582 219.932 289.595 225.874 289.595 225.874C289.595 225.874 297.197 224.42 304.827 227.39C307.992 228.622 305.93 231.223 305.93 231.223C311.356 231.615 317.846 227.347 317.846 227.347Z" fill="url(#paint19_linear_1131_967)"/>
<defs>
<linearGradient id="paint0_linear_1131_967" x1="160.286" y1="180.264" x2="159.546" y2="234.336" gradientUnits="userSpaceOnUse">
<stop stop-color="#8C0000"/>
<stop offset="1" stop-color="#210707"/>
</linearGradient>
<linearGradient id="paint1_linear_1131_967" x1="83.272" y1="253.7" x2="82.8808" y2="282.266" gradientUnits="userSpaceOnUse">
<stop stop-color="#8C0000"/>
<stop offset="1" stop-color="#210707"/>
</linearGradient>
<linearGradient id="paint2_linear_1131_967" x1="81.2507" y1="273.061" x2="81.0551" y2="287.344" gradientUnits="userSpaceOnUse">
<stop stop-color="#8C0000"/>
<stop offset="1" stop-color="#210707"/>
</linearGradient>
<linearGradient id="paint3_linear_1131_967" x1="136.094" y1="240.138" x2="135.535" y2="280.947" gradientUnits="userSpaceOnUse">
<stop stop-color="#8C0000"/>
<stop offset="1" stop-color="#210707"/>
</linearGradient>
<linearGradient id="paint4_linear_1131_967" x1="114.045" y1="273.509" x2="113.878" y2="285.751" gradientUnits="userSpaceOnUse">
<stop stop-color="#8C0000"/>
<stop offset="1" stop-color="#210707"/>
</linearGradient>
<linearGradient id="paint5_linear_1131_967" x1="137.442" y1="88.3975" x2="135.193" y2="252.654" gradientUnits="userSpaceOnUse">
<stop stop-color="#8C0000"/>
<stop offset="1" stop-color="#210707"/>
</linearGradient>
<linearGradient id="paint6_linear_1131_967" x1="241.86" y1="0.0297617" x2="239.038" y2="206.115" gradientUnits="userSpaceOnUse">
<stop stop-color="#8C0000"/>
<stop offset="1" stop-color="#210707"/>
</linearGradient>
<linearGradient id="paint7_linear_1131_967" x1="288.025" y1="117.728" x2="286.935" y2="197.305" gradientUnits="userSpaceOnUse">
<stop stop-color="#8C0000"/>
<stop offset="1" stop-color="#210707"/>
</linearGradient>
<linearGradient id="paint8_linear_1131_967" x1="91.4772" y1="64.2969" x2="89.4514" y2="212.229" gradientUnits="userSpaceOnUse">
<stop stop-color="#8C0000"/>
<stop offset="1" stop-color="#210707"/>
</linearGradient>
<linearGradient id="paint9_linear_1131_967" x1="110.299" y1="193.866" x2="109.95" y2="219.371" gradientUnits="userSpaceOnUse">
<stop stop-color="#8C0000"/>
<stop offset="1" stop-color="#210707"/>
</linearGradient>
<linearGradient id="paint10_linear_1131_967" x1="259.006" y1="228.556" x2="258.321" y2="278.547" gradientUnits="userSpaceOnUse">
<stop stop-color="#8C0000"/>
<stop offset="1" stop-color="#210707"/>
</linearGradient>
<linearGradient id="paint11_linear_1131_967" x1="137.281" y1="203.419" x2="136.387" y2="268.714" gradientUnits="userSpaceOnUse">
<stop stop-color="#8C0000"/>
<stop offset="1" stop-color="#210707"/>
</linearGradient>
<linearGradient id="paint12_linear_1131_967" x1="329.79" y1="223.403" x2="328.867" y2="290.738" gradientUnits="userSpaceOnUse">
<stop stop-color="#8C0000"/>
<stop offset="1" stop-color="#210707"/>
</linearGradient>
<linearGradient id="paint13_linear_1131_967" x1="340.632" y1="183.754" x2="340.059" y2="225.583" gradientUnits="userSpaceOnUse">
<stop stop-color="#8C0000"/>
<stop offset="1" stop-color="#210707"/>
</linearGradient>
<linearGradient id="paint14_linear_1131_967" x1="393.247" y1="216.109" x2="392.87" y2="243.655" gradientUnits="userSpaceOnUse">
<stop stop-color="#8C0000"/>
<stop offset="1" stop-color="#210707"/>
</linearGradient>
<linearGradient id="paint15_linear_1131_967" x1="321.411" y1="250.838" x2="320.867" y2="290.627" gradientUnits="userSpaceOnUse">
<stop stop-color="#8C0000"/>
<stop offset="1" stop-color="#210707"/>
</linearGradient>
<linearGradient id="paint16_linear_1131_967" x1="310.528" y1="191.507" x2="310.263" y2="210.891" gradientUnits="userSpaceOnUse">
<stop stop-color="#8C0000"/>
<stop offset="1" stop-color="#210707"/>
</linearGradient>
<linearGradient id="paint17_linear_1131_967" x1="322.993" y1="190.655" x2="322.728" y2="210.04" gradientUnits="userSpaceOnUse">
<stop stop-color="#8C0000"/>
<stop offset="1" stop-color="#210707"/>
</linearGradient>
<linearGradient id="paint18_linear_1131_967" x1="272.459" y1="202.21" x2="271.886" y2="244.039" gradientUnits="userSpaceOnUse">
<stop stop-color="#8C0000"/>
<stop offset="1" stop-color="#210707"/>
</linearGradient>
<linearGradient id="paint19_linear_1131_967" x1="303.798" y1="222.027" x2="303.672" y2="231.209" gradientUnits="userSpaceOnUse">
<stop stop-color="#8C0000"/>
<stop offset="1" stop-color="#210707"/>
</linearGradient>
</defs>
</svg>
