<svg width="36" height="35" viewBox="0 0 36 35" fill="none" xmlns="http://www.w3.org/2000/svg">
<path d="M33.6375 13.4213C33.5012 13.0247 33.2445 12.6747 32.8991 12.415C32.5538 12.1552 32.1352 11.9971 31.6954 11.9604L23.3437 11.2804L20.07 3.92787C19.8995 3.54207 19.612 3.21253 19.2437 2.98073C18.8753 2.74893 18.4426 2.62524 18 2.62524C17.5574 2.62524 17.1246 2.74893 16.7563 2.98073C16.3879 3.21253 16.1004 3.54207 15.93 3.92787L12.6661 11.2804L4.30451 11.9644C3.863 11.9994 3.44227 12.1568 3.09508 12.4167C2.74789 12.6767 2.4897 13.0277 2.35288 13.4257C2.21606 13.8237 2.20671 14.251 2.326 14.654C2.44529 15.057 2.6879 15.4178 3.02342 15.6911L9.36701 20.9265L7.46576 28.7014C7.36523 29.1082 7.39392 29.5341 7.54824 29.9256C7.70256 30.3172 7.97566 30.6571 8.33341 30.9028C8.69116 31.1486 9.11768 31.2893 9.55963 31.3073C10.0016 31.3254 10.4394 31.22 10.8183 31.0044L17.9901 26.8872L25.1775 31.0044C25.5564 31.22 25.9942 31.3254 26.4361 31.3073C26.8781 31.2893 27.3046 31.1486 27.6623 30.9028C28.0201 30.6571 28.2932 30.3172 28.4475 29.9256C28.6018 29.5341 28.6305 29.1082 28.53 28.7014L26.6301 20.9186L32.9723 15.6911C33.3078 15.4168 33.5499 15.055 33.6683 14.6512C33.7866 14.2473 33.7759 13.8194 33.6375 13.4213ZM31.4972 14.0854L25.155 19.3129C24.8463 19.5665 24.6167 19.8947 24.4908 20.2624C24.3649 20.63 24.3476 21.0231 24.4406 21.3994L26.3461 29.1875L19.1644 25.0703C18.814 24.8688 18.4116 24.7622 18.0014 24.7622C17.5911 24.7622 17.1888 24.8688 16.8384 25.0703L9.66654 29.1875L11.5594 21.4047C11.6524 21.0284 11.635 20.6353 11.5091 20.2677C11.3833 19.9 11.1537 19.5718 10.845 19.3182L4.49998 14.0933C4.49947 14.0894 4.49947 14.0854 4.49998 14.0814L12.8587 13.3987C13.2668 13.3648 13.6574 13.2262 13.9882 12.998C14.319 12.7698 14.5776 12.4606 14.7361 12.1038L18 4.7606L21.2625 12.1038C21.4209 12.4606 21.6795 12.7698 22.0104 12.998C22.3412 13.2262 22.7317 13.3648 23.1398 13.3987L31.5 14.0814C31.5 14.0814 31.5 14.0894 31.5 14.0907L31.4972 14.0854Z" fill="white"/>
</svg>
