<svg width="55" height="55" viewBox="0 0 55 55" fill="none" xmlns="http://www.w3.org/2000/svg">
<path d="M45.9035 17.6902L33.8723 5.65898C33.7125 5.49943 33.5229 5.3729 33.3143 5.28664C33.1056 5.20038 32.882 5.15607 32.6562 5.15625H12.0312C11.1196 5.15625 10.2452 5.51841 9.60057 6.16307C8.95591 6.80773 8.59375 7.68207 8.59375 8.59375V46.4062C8.59375 47.3179 8.95591 48.1923 9.60057 48.8369C10.2452 49.4816 11.1196 49.8438 12.0312 49.8438H42.9688C43.8804 49.8438 44.7548 49.4816 45.3994 48.8369C46.0441 48.1923 46.4062 47.3179 46.4062 46.4062V18.9062C46.4064 18.6805 46.3621 18.4569 46.2759 18.2482C46.1896 18.0396 46.0631 17.85 45.9035 17.6902ZM34.375 11.0236L40.5389 17.1875H34.375V11.0236ZM42.9688 46.4062H12.0312V8.59375H30.9375V18.9062C30.9375 19.3621 31.1186 19.7993 31.4409 20.1216C31.7632 20.4439 32.2004 20.625 32.6562 20.625H42.9688V46.4062ZM36.0938 29.2188C36.0938 29.6746 35.9127 30.1118 35.5903 30.4341C35.268 30.7564 34.8308 30.9375 34.375 30.9375H20.625C20.1692 30.9375 19.732 30.7564 19.4097 30.4341C19.0873 30.1118 18.9062 29.6746 18.9062 29.2188C18.9062 28.7629 19.0873 28.3257 19.4097 28.0034C19.732 27.6811 20.1692 27.5 20.625 27.5H34.375C34.8308 27.5 35.268 27.6811 35.5903 28.0034C35.9127 28.3257 36.0938 28.7629 36.0938 29.2188ZM36.0938 36.0938C36.0938 36.5496 35.9127 36.9868 35.5903 37.3091C35.268 37.6314 34.8308 37.8125 34.375 37.8125H20.625C20.1692 37.8125 19.732 37.6314 19.4097 37.3091C19.0873 36.9868 18.9062 36.5496 18.9062 36.0938C18.9062 35.6379 19.0873 35.2007 19.4097 34.8784C19.732 34.5561 20.1692 34.375 20.625 34.375H34.375C34.8308 34.375 35.268 34.5561 35.5903 34.8784C35.9127 35.2007 36.0938 35.6379 36.0938 36.0938Z" fill="#FAFAFA"/>
</svg>
