<svg width="194" height="164" viewBox="0 0 194 164" fill="none" xmlns="http://www.w3.org/2000/svg">
<path d="M90.211 101.433C98.3363 96.8603 104.505 90.1983 107.805 82.4325C111.105 74.6666 111.361 66.2092 108.536 58.3107C105.71 50.4123 99.9526 43.4922 92.1148 38.5739C84.277 33.6555 74.7749 31 65.0137 31C55.2525 31 45.7504 33.6555 37.9126 38.5739C30.0748 43.4922 24.3174 50.4123 21.4917 58.3107C18.6661 66.2092 18.9222 74.6666 22.2223 82.4325C25.5224 90.1983 31.6912 96.8603 39.8164 101.433C25.1186 106.013 12.5663 114.487 4.03254 125.591C3.58403 126.155 3.2725 126.788 3.11605 127.454C2.9596 128.12 2.96135 128.806 3.1212 129.472C3.28106 130.137 3.59582 130.769 4.0472 131.331C4.49858 131.893 5.07757 132.374 5.75052 132.745C6.42347 133.116 7.17695 133.37 7.96716 133.493C8.75738 133.615 9.56857 133.604 10.3536 133.459C11.1386 133.315 11.8818 133.04 12.5399 132.65C13.198 132.261 13.758 131.764 14.1872 131.19C19.6919 124.033 27.2243 118.152 36.1004 114.08C44.9765 110.009 54.9151 107.876 65.0137 107.876C75.1123 107.876 85.0509 110.009 93.927 114.08C102.803 118.152 110.336 124.033 115.84 131.19C116.729 132.307 118.103 133.084 119.664 133.352C121.225 133.62 122.848 133.357 124.182 132.622C125.516 131.886 126.454 130.736 126.794 129.421C127.133 128.105 126.846 126.729 125.995 125.591C117.461 114.487 104.909 106.013 90.211 101.433ZM31.67 69.4531C31.67 63.8781 33.6255 58.4284 37.2894 53.793C40.9533 49.1575 46.1608 45.5447 52.2536 43.4112C58.3464 41.2778 65.0507 40.7196 71.5188 41.8072C77.9868 42.8948 83.9281 45.5794 88.5913 49.5215C93.2545 53.4636 96.4302 58.4861 97.7168 63.954C99.0033 69.4218 98.343 75.0894 95.8193 80.24C93.2956 85.3906 89.0219 89.7929 83.5385 92.8901C78.0552 95.9874 71.6085 97.6406 65.0137 97.6406C56.1735 97.6321 47.6982 94.6597 41.4472 89.3753C35.1962 84.091 31.68 76.9263 31.67 69.4531ZM190.917 132.683C189.57 133.425 187.93 133.685 186.357 133.405C184.783 133.125 183.406 132.328 182.528 131.19C177.03 124.029 169.498 118.145 160.62 114.075C151.742 110.005 141.8 107.879 131.701 107.891C130.093 107.891 128.551 107.351 127.414 106.39C126.277 105.428 125.639 104.125 125.639 102.766C125.639 101.406 126.277 100.103 127.414 99.1417C128.551 98.1805 130.093 97.6406 131.701 97.6406C136.612 97.6367 141.46 96.716 145.901 94.9443C150.342 93.1726 154.265 90.5937 157.39 87.3917C160.515 84.1898 162.765 80.4439 163.979 76.4217C165.192 72.3995 165.341 68.2002 164.412 64.124C163.484 60.0478 161.502 56.1953 158.608 52.8417C155.714 49.488 151.98 46.7161 147.672 44.7239C143.364 42.7317 138.589 41.5685 133.688 41.3173C128.786 41.0661 123.88 41.7331 119.319 43.2708C118.575 43.5425 117.774 43.6855 116.964 43.6913C116.154 43.6971 115.351 43.5656 114.602 43.3045C113.853 43.0433 113.173 42.658 112.603 42.1711C112.034 41.6843 111.585 41.1058 111.284 40.4699C110.983 39.834 110.836 39.1535 110.852 38.4687C110.867 37.784 111.045 37.1088 111.374 36.483C111.703 35.8573 112.178 35.2937 112.769 34.8256C113.361 34.3574 114.057 33.9942 114.817 33.7575C125.256 30.2382 136.866 30.1116 147.409 33.402C157.951 36.6924 166.679 43.1667 171.908 51.5759C177.137 59.9851 178.496 69.7334 175.725 78.9402C172.953 88.147 166.246 96.1599 156.898 101.433C171.596 106.013 184.149 114.487 192.682 125.591C193.561 126.729 193.868 128.116 193.537 129.446C193.206 130.776 192.263 131.94 190.917 132.683Z" fill="#322F2F"/>
</svg>
