<svg width="78" height="69" viewBox="0 0 78 69" fill="none" xmlns="http://www.w3.org/2000/svg">
<path d="M72.7576 23.7118C72.4635 22.8408 71.9093 22.0721 71.164 21.5015C70.4187 20.931 69.5153 20.5838 68.5662 20.5031L50.541 19.0096L43.4754 2.86101C43.1075 2.01366 42.487 1.28987 41.6921 0.780763C40.8971 0.271656 39.9631 0 39.0078 0C38.0525 0 37.1186 0.271656 36.3236 0.780763C35.5286 1.28987 34.9081 2.01366 34.5402 2.86101L27.4959 19.0096L9.44945 20.5119C8.49655 20.5888 7.58851 20.9345 6.83918 21.5055C6.08986 22.0764 5.53261 22.8473 5.23732 23.7215C4.94204 24.5956 4.92185 25.5341 5.17931 26.4193C5.43676 27.3044 5.96038 28.0968 6.68452 28.697L20.3756 40.1959L16.2722 57.2721C16.0553 58.1657 16.1172 59.101 16.4502 59.9609C16.7833 60.8209 17.3727 61.5674 18.1449 62.1072C18.917 62.6469 19.8375 62.956 20.7914 62.9956C21.7452 63.0353 22.6901 62.8038 23.5078 62.3302L38.9866 53.2875L54.4987 62.3302C55.3164 62.8038 56.2613 63.0353 57.2151 62.9956C58.169 62.956 59.0895 62.6469 59.8617 62.1072C60.6338 61.5674 61.2232 60.8209 61.5563 59.9609C61.8893 59.101 61.9512 58.1657 61.7343 57.2721L57.6339 40.1784L71.322 28.697C72.046 28.0947 72.5686 27.3001 72.8241 26.4131C73.0795 25.526 73.0564 24.5862 72.7576 23.7118ZM68.1382 25.1703L54.4501 36.6517C53.784 37.2087 53.2884 37.9297 53.0167 38.7371C52.745 39.5446 52.7076 40.408 52.9083 41.2343L57.0208 58.3397L41.5208 49.297C40.7646 48.8544 39.8963 48.6202 39.0108 48.6202C38.1254 48.6202 37.2571 48.8544 36.5009 49.297L21.0221 58.3397L25.1073 41.246C25.308 40.4196 25.2706 39.5563 24.9989 38.7488C24.7272 37.9413 24.2317 37.2203 23.5655 36.6634L9.87132 25.1878C9.87021 25.1791 9.87021 25.1703 9.87132 25.1616L27.9117 23.6622C28.7924 23.5876 29.6353 23.2833 30.3493 22.7821C31.0634 22.2809 31.6215 21.6018 31.9635 20.8182L39.0078 4.68998L46.0491 20.8182C46.3911 21.6018 46.9492 22.2809 47.6632 22.7821C48.3773 23.2833 49.2201 23.5876 50.1009 23.6622L68.1443 25.1616C68.1443 25.1616 68.1443 25.1791 68.1443 25.182L68.1382 25.1703Z" fill="white"/>
</svg>
