<svg width="169" height="164" viewBox="0 0 169 164" fill="none" xmlns="http://www.w3.org/2000/svg">
<path d="M126.75 20.5H42.25C36.6473 20.5 31.2741 22.6598 27.3124 26.5043C23.3507 30.3488 21.125 35.5631 21.125 41V123C21.125 128.437 23.3507 133.651 27.3124 137.496C31.2741 141.34 36.6473 143.5 42.25 143.5H126.75C132.353 143.5 137.726 141.34 141.688 137.496C145.649 133.651 147.875 128.437 147.875 123V41C147.875 35.5631 145.649 30.3488 141.688 26.5043C137.726 22.6598 132.353 20.5 126.75 20.5ZM137.312 123C137.312 125.718 136.2 128.326 134.219 130.248C132.238 132.17 129.551 133.25 126.75 133.25H42.25C39.4487 133.25 36.762 132.17 34.7812 130.248C32.8003 128.326 31.6875 125.718 31.6875 123V41C31.6875 38.2815 32.8003 35.6744 34.7812 33.7522C36.762 31.8299 39.4487 30.75 42.25 30.75H126.75C129.551 30.75 132.238 31.8299 134.219 33.7522C136.2 35.6744 137.312 38.2815 137.312 41V123ZM68.6562 53.8125C68.6562 55.3329 68.1916 56.8192 67.3212 58.0834C66.4507 59.3476 65.2135 60.333 63.7659 60.9148C62.3184 61.4967 60.7256 61.6489 59.1889 61.3523C57.6522 61.0557 56.2407 60.3235 55.1328 59.2484C54.0249 58.1733 53.2704 56.8035 52.9647 55.3123C52.659 53.821 52.8159 52.2753 53.4155 50.8706C54.0151 49.4659 55.0305 48.2653 56.3332 47.4206C57.636 46.5759 59.1676 46.125 60.7344 46.125C62.8354 46.125 64.8503 46.9349 66.336 48.3766C67.8216 49.8183 68.6562 51.7736 68.6562 53.8125ZM116.188 53.8125C116.188 55.3329 115.723 56.8192 114.852 58.0834C113.982 59.3476 112.745 60.333 111.297 60.9148C109.85 61.4967 108.257 61.6489 106.72 61.3523C105.183 61.0557 103.772 60.3235 102.664 59.2484C101.556 58.1733 100.802 56.8035 100.496 55.3123C100.19 53.821 100.347 52.2753 100.947 50.8706C101.546 49.4659 102.562 48.2653 103.864 47.4206C105.167 46.5759 106.699 46.125 108.266 46.125C110.367 46.125 112.382 46.9349 113.867 48.3766C115.353 49.8183 116.188 51.7736 116.188 53.8125ZM68.6562 82C68.6562 83.5204 68.1916 85.0067 67.3212 86.2709C66.4507 87.5351 65.2135 88.5205 63.7659 89.1023C62.3184 89.6842 60.7256 89.8364 59.1889 89.5398C57.6522 89.2432 56.2407 88.511 55.1328 87.4359C54.0249 86.3608 53.2704 84.991 52.9647 83.4998C52.659 82.0085 52.8159 80.4628 53.4155 79.0581C54.0151 77.6534 55.0305 76.4528 56.3332 75.6081C57.636 74.7634 59.1676 74.3125 60.7344 74.3125C62.8354 74.3125 64.8503 75.1224 66.336 76.5641C67.8216 78.0058 68.6562 79.9611 68.6562 82ZM116.188 82C116.188 83.5204 115.723 85.0067 114.852 86.2709C113.982 87.5351 112.745 88.5205 111.297 89.1023C109.85 89.6842 108.257 89.8364 106.72 89.5398C105.183 89.2432 103.772 88.511 102.664 87.4359C101.556 86.3608 100.802 84.991 100.496 83.4998C100.19 82.0085 100.347 80.4628 100.947 79.0581C101.546 77.6534 102.562 76.4528 103.864 75.6081C105.167 74.7634 106.699 74.3125 108.266 74.3125C110.367 74.3125 112.382 75.1224 113.867 76.5641C115.353 78.0058 116.188 79.9611 116.188 82ZM68.6562 110.188C68.6562 111.708 68.1916 113.194 67.3212 114.458C66.4507 115.723 65.2135 116.708 63.7659 117.29C62.3184 117.872 60.7256 118.024 59.1889 117.727C57.6522 117.431 56.2407 116.698 55.1328 115.623C54.0249 114.548 53.2704 113.178 52.9647 111.687C52.659 110.196 52.8159 108.65 53.4155 107.246C54.0151 105.841 55.0305 104.64 56.3332 103.796C57.636 102.951 59.1676 102.5 60.7344 102.5C62.8354 102.5 64.8503 103.31 66.336 104.752C67.8216 106.193 68.6562 108.149 68.6562 110.188ZM116.188 110.188C116.188 111.708 115.723 113.194 114.852 114.458C113.982 115.723 112.745 116.708 111.297 117.29C109.85 117.872 108.257 118.024 106.72 117.727C105.183 117.431 103.772 116.698 102.664 115.623C101.556 114.548 100.802 113.178 100.496 111.687C100.19 110.196 100.347 108.65 100.947 107.246C101.546 105.841 102.562 104.64 103.864 103.796C105.167 102.951 106.699 102.5 108.266 102.5C110.367 102.5 112.382 103.31 113.867 104.752C115.353 106.193 116.188 108.149 116.188 110.188Z" fill="#FAFAFA"/>
</svg>
