<svg width="27" height="29" viewBox="0 0 27 29" fill="none" xmlns="http://www.w3.org/2000/svg">
<g clip-path="url(#clip0_1308_45)">
<path d="M26.4311 25.4592C26.7933 25.8482 26.9968 26.3758 26.9968 26.9259C26.9968 27.476 26.7933 28.0035 26.4311 28.3925C26.069 28.7815 25.5778 29 25.0656 29C24.5534 29 24.0622 28.7815 23.7 28.3925L13.5 17.4341L3.29678 28.389C2.93461 28.778 2.4434 28.9965 1.93121 28.9965C1.41902 28.9965 0.92781 28.778 0.565638 28.389C0.203466 28.0001 7.6322e-09 27.4725 0 26.9224C-7.6322e-09 26.3723 0.203466 25.8447 0.565638 25.4558L10.7689 14.5009L0.568851 3.5425C0.206679 3.15352 0.00321318 2.62596 0.00321318 2.07586C0.00321319 1.52577 0.206679 0.998202 0.568851 0.609226C0.931022 0.22025 1.42223 0.00172517 1.93442 0.00172517C2.44661 0.00172516 2.93782 0.22025 3.29999 0.609226L13.5 11.5676L23.7032 0.6075C24.0654 0.218524 24.5566 -9.16459e-09 25.0688 0C25.581 9.16459e-09 26.0722 0.218524 26.4344 0.6075C26.7965 0.996476 27 1.52404 27 2.07414C27 2.62423 26.7965 3.1518 26.4344 3.54077L16.2311 14.5009L26.4311 25.4592Z" fill="#F7F7F7"/>
</g>
<defs>
<clipPath id="clip0_1308_45">
<rect width="27" height="29" fill="white"/>
</clipPath>
</defs>
</svg>
