<svg width="422" height="579" viewBox="0 0 422 579" fill="none" xmlns="http://www.w3.org/2000/svg">
<path opacity="0.3" d="M143.376 229.441C142.397 234.337 147.95 234.224 147.95 234.224C152.369 232.547 149.878 230.153 149.878 230.153C150.06 230.47 149.21 233.041 148.121 231.263C147.032 229.484 151.674 228.166 153.677 225.479C155.68 222.791 157.041 218.439 157.407 213.095C157.76 208.017 157.906 206.595 160.103 202.552C161.104 200.703 164.944 196.559 165.74 200.23C171.333 195.696 169.478 180.445 169.478 180.445C168.899 184.353 165.687 192.032 162.97 194.453C159.615 197.437 154.754 198.693 152.059 204.757C151.296 206.485 156.126 204.607 154.037 214.017C154.984 218.948 147.28 224.843 147.951 224.248C148.614 223.652 148.648 219.546 146.725 217.88C143.941 215.465 147.498 208.096 147.498 208.096C143.091 210.519 141.722 217.851 143.44 220.583C145.166 223.314 144.354 224.553 143.376 229.441Z" fill="url(#paint0_linear_607_206)"/>
<path opacity="0.3" d="M86.7799 262.025C87.7543 263.439 88.8686 263.347 89.528 262.451C90.1402 261.623 90.684 258.427 88.1202 253.795C88.1202 253.795 90.4019 259.716 87.5045 259.033C84.6072 258.35 83.6888 258.662 83.5306 259.883C83.3647 261.103 79.8379 261.827 81.046 259.763C81.046 259.763 82.1779 258.138 82.2363 256.452C82.2699 255.346 81.6316 254.022 80.6385 253.745C80.6385 253.745 82.1652 256.575 78.2939 260.049C78.2939 260.049 70.3269 266.639 72.5145 276.412C72.5145 276.412 72.8606 270.303 76.0783 270.171C76.0783 270.171 74.6326 279.212 78.7738 281.258C78.7738 281.258 78.3086 279.681 80.2924 280.846C82.2763 282.011 85.4788 283.271 88.3052 281.268C88.3052 281.268 86.5684 281.878 85.1009 281.517C83.6335 281.148 82.9892 280.66 81.2359 278.546C79.5351 276.502 78.176 273.28 79.3824 268.522C79.3824 268.522 80.3079 262.182 84.9716 262.789C84.9791 262.797 84.8984 259.306 86.7799 262.025Z" fill="url(#paint1_linear_607_206)"/>
<path opacity="0.3" d="M79.6001 287.155C82.0248 286.681 85.2455 282.727 85.2455 282.727C85.2455 282.727 82.4181 283.828 81.3537 282.557C80.2895 281.277 79.2412 281.37 79.2412 281.37C79.5999 282.488 78.5551 282.838 78.5551 282.838C73.3038 282.026 74.1067 272.988 74.1067 272.988C72.5781 277.01 73.0621 281.746 74.3129 284.783C75.2601 287.094 77.4423 287.321 77.4423 287.321C75.5048 284.853 79.6001 287.155 79.6001 287.155Z" fill="url(#paint2_linear_607_206)"/>
<path opacity="0.3" d="M158.933 240.502C158.933 240.502 152.297 256.8 134.666 257.728C133.311 257.799 131.924 257.878 130.514 257.965C136.927 254.276 137.827 249.794 137.827 249.794C134.092 255.321 122.041 257.239 122.041 257.239C122.041 257.239 119.029 257.065 116.43 260.027C112.366 261.178 108.85 262.945 106.536 265.755C106.536 265.755 109.807 264.527 108.48 267.236C107.152 269.946 105.516 273.25 107.914 280.604C107.914 280.604 107.51 278.372 110.429 275.044C113.43 271.611 119.745 267.131 131.161 264.079C131.177 264.079 138.895 263.834 142.238 263.453C145.59 263.081 149.417 258.624 149.417 258.624C149.417 258.624 143.003 262.396 144.01 260.545C156.526 254.747 158.55 241.762 158.933 240.502Z" fill="url(#paint3_linear_607_206)"/>
<path opacity="0.3" d="M113.18 279.769C113.18 279.769 111.149 280.278 109.781 281.314C105.506 284.541 103.423 276.415 104.4 273.411C104.4 273.411 101.285 275.887 101.993 281.205C104.864 279.025 103.186 286.003 104.587 285.644C105.988 285.285 109.642 282.757 111.79 283.205C113.946 283.653 120.637 282.801 120.637 282.801C120.637 282.801 109.214 281.954 113.18 279.769Z" fill="url(#paint4_linear_607_206)"/>
<path opacity="0.3" d="M141.207 204.325C147.017 200.345 153.957 196.775 158.768 196.155C166.811 195.121 154.082 168.388 174.463 169.092C179.863 166.538 182.649 158.48 183.834 149.201C188.864 145.202 188.572 142.652 187.667 138C186.578 132.399 191.912 129.325 191.912 129.325C188.311 130.933 186.005 132.868 184.54 134.774C184.399 126.599 183.445 119.132 182.344 115.139C179.278 104.059 195.633 89.2566 195.633 89.2566C191.591 91.93 187.729 94.5221 184.341 97.1879C184.341 97.1879 177.578 97.2104 170.527 104.347C168.894 105.999 166.893 107.956 166.184 110.374C166.184 110.374 170.989 105.618 171.708 108.391C172.421 111.156 168.13 109.522 166.376 115.879C166.376 115.879 167.994 113.749 167.969 115.231C167.958 115.901 167.991 118.882 168.217 122.302C168.058 122.953 167.921 123.579 167.8 124.172C167.136 121.609 166.189 119.125 165.436 117.448C161.687 109.088 174.747 97.6397 174.747 97.6397C163.373 102.329 159.567 108.749 155.532 116.38C151.628 123.745 150.489 131.559 147.139 135.062C145.914 136.343 144.367 137.36 142.644 138.165C142.462 137.961 142.301 137.825 142.212 137.765C141.668 137.414 143.579 137.391 145.428 134.72C147.735 131.386 148.054 126.902 148.054 126.902C147.615 128.269 144.837 132.694 143.345 132.639C145.927 133.764 139.654 137.009 138.28 137.358C136.012 137.93 134.617 140.506 134.617 140.506C128.685 141.486 123.251 141.159 123.043 141.156C114.669 141.022 121.021 138.004 121.021 138.004C119.14 136.722 122.135 133.992 122.135 133.992C115.548 135.03 112.372 139.282 111.644 143.325C116.562 137.54 119.866 145.408 127.346 144.759C126.312 143.898 127.396 143.068 128.222 143.012C131.13 142.835 134.132 145.607 134.219 145.24C134.692 143.17 136.042 145.115 137.435 143.552C137.763 145.332 133.725 148.667 133.725 148.667C133.746 158.205 120.926 161.827 120.926 161.827C135.871 162.757 142.184 156.64 146.546 153.067C152.655 148.061 152.078 141.161 152.984 137.548C154.535 131.356 160.593 132.68 160.593 132.68C168.265 133.859 158.706 145.7 158.706 145.7C160.33 144.551 161.92 143.216 163.328 141.695C161.309 146.49 158.495 151.316 154.976 152.875C153.734 153.427 152.64 153.956 151.665 154.487C152.054 153.872 152.423 152.705 152.526 150.479C152.526 150.479 148.763 156.514 145.891 155.394C145.891 155.394 145.775 155.644 145.545 156.076C145.769 155.593 145.885 155.302 145.885 155.302C142.976 159.105 135.417 161.88 132.54 162.827C125.98 164.988 120.316 164.616 119.395 161.429C117.953 156.451 120.045 155.333 122.706 154.391C121.707 154.134 120.056 153.776 118.997 153.962C116.918 154.335 114.987 155.572 113.517 157.302C111.885 157.597 106.922 158.876 103.909 163.557C100.264 169.225 98.1186 166.365 98.1186 166.365C98.1186 166.365 99.3945 170.118 103.095 168.344C106.795 166.57 110.159 168.527 110.74 176.582C110.74 176.582 113.048 171.825 111.397 167.824C110.189 164.893 109.811 163.497 110.842 163.16C110.834 163.202 110.833 163.244 110.825 163.285C117.903 176.189 109.461 179.797 109.461 179.797C112.375 169.353 97.7053 169.801 95.2116 170.503C93.1361 171.085 91.4573 172.845 89.9796 175.035C89.204 174.748 88.4737 173.515 87.8943 169.881C86.6603 162.227 100.355 161.405 100.355 161.405L94.2968 160.156C90.6663 159.946 85.6908 161.074 83.4221 163.463C80.624 166.405 81.067 171.553 80.9479 172.464C80.735 174.11 77.908 174.749 77.908 174.749C79.8192 174.667 78.7881 184.04 78.7881 184.04C82.4548 182.056 82.0393 185.174 81.278 187.634C81.1959 187.658 81.1213 187.674 81.0393 187.689C74.4117 188.961 77.6618 175.709 77.3935 175.755C77.1178 175.802 70.614 183.549 71.2976 193.498C71.3277 193.926 71.4104 194.321 71.5532 194.674L71.456 194.706C71.456 194.706 69.6412 201.121 74.0354 205.964C74.0354 205.964 72.569 200.232 75.1374 199.506C75.1374 199.506 73.9941 198.083 75.3729 196.939C77.6092 196.978 80.4212 195.895 82.8734 193.652C88.9547 188.093 92.5358 175.046 96.118 176.846C95.5891 182.341 97.7575 186.508 100.717 189.573C100.717 189.573 95.1742 187.234 94.4116 183.446C94.4116 183.446 94.1639 194.89 108.431 194.998C111.136 196.317 113.208 196.882 113.208 196.882C113.208 196.882 104.928 189.255 107.288 183.585C105.009 181.627 104.348 177.112 108.491 178.695C107.619 180.223 111.713 181.168 110.136 183.499C113.719 182.972 116.314 174.785 117.211 174.027C112.315 169.838 118.193 166.705 125.236 166.837C125.236 166.837 132.16 171.916 124.512 178.76C124.512 178.76 130.883 175.943 131.499 174.151C131.499 174.151 130.312 174.478 130.395 173.5C130.468 172.672 133.341 170.199 134.36 168.338C135.664 168.105 136.886 167.477 138.022 166.614C139.584 166.519 141.353 166.074 142.911 164.84C142.911 164.84 140.563 163.04 144.359 161.352C144.71 161.197 145.048 161.018 145.371 160.821C144.319 162.875 143.428 165.526 142.41 169.146C148.853 163.257 150.207 176.716 149.153 181.14C147.246 189.136 137.214 196.289 132.314 200.097C124.771 205.963 126.585 199.573 126.585 199.573C122.258 203.323 126.358 206.621 119.33 210.107C107.94 215.768 102.148 207.388 102.148 207.388C102.619 209.036 103.596 211.084 104.944 213.171C104.944 213.171 94.6101 208.421 95.5965 202.221C95.5965 202.221 92.633 205.73 95.4358 211.087C95.4358 211.087 97.3215 213.91 98.0606 216.868C98.7924 219.818 98.7391 220.797 103.096 221.126C103.096 221.126 99.0962 218.516 101.489 216.699C103.89 214.882 104.405 221.077 106.676 221.235C106.676 221.235 106.95 219.522 109.979 219.263C110.667 219.909 111.385 220.514 112.119 221.06L112.089 221.076C112.089 221.076 115.705 226.679 110.278 230.396C110.278 230.396 112.632 230.563 114.18 228.575C115.691 226.637 118.264 228.323 117.868 229.406C117.167 231.322 114.421 232.908 114.306 234.95C114.053 239.451 115.714 241.953 113.994 240.807C115.109 244.842 113.928 246.635 111.585 248.528C110.569 249.343 109.621 250.468 107.623 250.398C107.623 250.398 108.532 250.746 109.619 250.636L109.535 250.718C109.535 250.718 107.964 251.802 106.374 251.369C106.422 252.065 107.81 252.578 108.909 252.175C108.241 251.68 111.337 250.048 113.078 250.408C113.915 250.579 114.981 250.811 115.818 250.547C116.722 250.266 117.374 249.463 117.739 248.974C117.739 248.974 116.53 249.703 115.814 249.868C114.941 250.065 114.615 249.609 115.845 248.462C118.691 247.128 121.59 245.235 123.141 242.669C123.141 242.669 113.702 244.077 121.326 234.185C124.736 229.761 132.356 229.6 129.999 235.973C129.999 235.973 135.633 233.674 136.017 228.889C136.4 224.071 128.702 222.255 134.064 217.942C139.464 213.605 142.884 213.962 145.306 208.57C145.284 208.57 134.455 213.601 141.207 204.325Z" fill="url(#paint5_linear_607_206)"/>
<path opacity="0.3" d="M273.739 146.845C254.983 176.145 235.235 182.537 241.42 171.541C209.542 181.177 182.107 160.305 208.928 146.277C207.821 148.981 207.376 152.44 206.442 153.757C204.475 156.509 204.35 152.262 204.35 152.262C200.684 162.87 213.967 163.564 213.967 163.564C204.078 156.978 210.065 150.292 214.281 147.182C218.513 144.064 217.422 153.072 224.561 149.995C231.731 146.901 227.812 133.764 227.812 133.764C228.076 139.088 224.855 149.397 216.554 144.062C216.161 143.811 215.791 143.594 215.435 143.419C216.428 143.052 217.466 142.693 218.556 142.336C190.518 134.021 192.709 119.02 223.59 106.294C221.239 99.6944 224.788 93.0334 230.75 89.7276C245.501 97.9752 257.484 94.5589 255.753 82.5113C251.455 103.803 224.702 75.5691 221.746 74.3414C216.28 72.0788 209.474 81.6852 209.474 81.6852C209.474 81.6852 217.086 77.174 218.591 82.9229C219.513 86.4437 217.961 92.5819 213.852 100.133C206.249 114.134 189.772 107.566 199.008 93.8501C208.412 79.8741 196.508 71.7257 226.405 61.5784C226.405 61.5784 224.954 60.6599 222.197 60.1129C234.295 55.5713 241.717 33.4842 246.319 40.5644C258.238 33.2495 258.242 11.211 258.242 11.211C258.061 11.3186 249.939 31.3963 233.031 33.8031C230.415 34.1732 227.938 34.7571 225.586 35.4613C226.612 31.273 227.478 26.3284 229.454 19.8656C233.824 5.59031 261.342 1.41716 261.342 1.41716C250.282 -0.381505 240.932 -0.588718 230.902 3.63448C221.588 7.56266 217.308 19.1278 216.604 24.634C215.556 32.8975 205.956 47.8113 206.041 40.3816C204.867 41.2887 203.444 42.8363 201.892 44.4583C200.412 43.9716 200.47 41.7779 200.747 40.8751C193.543 41.5284 190.229 47.9893 188.327 47.6576C184.361 46.9751 180.043 56.6926 176.909 57.6739C173.775 58.6553 172.736 58.1747 172.962 56.7205C173.803 51.4705 175.926 55.6435 177.809 53.433C179.692 51.2225 182.445 47.0584 180.51 40.5833C179.765 46.3684 175.747 49.7099 173.03 50.7479C171.45 51.3528 170.701 52.3252 170.535 48.7642C168.126 51.1114 167.817 55.8096 167.817 55.8096C169.635 59.8767 165.38 58.9698 163.9 69.8455C165.564 73.2157 163.729 72.9697 162.562 72.0806C163.318 75.2263 166.745 73.7152 166.745 73.7152C169.151 70.6647 167.657 80.5658 167.657 80.5658C169.601 78.7713 172.883 75.5721 172.648 73.0946C178.668 70.7387 173.874 84.4403 173.874 84.4403C178.776 82.3568 181.059 77.6693 182.126 74.6508C182.126 74.6508 181.796 84.2208 171.828 89.7159C171.828 89.7159 176.063 89.1058 178.061 87.6594C180.059 86.2131 181.086 82.8213 184.369 83.257C184.713 83.3042 185.072 83.2753 185.432 83.1957C182.566 86.5363 178.757 89.8637 173.775 92.2851C173.775 92.2851 177.503 93.3795 184.344 89.315C191.223 85.2341 196.182 81.0924 195.833 84.5869C195.582 87.1168 180.929 98.3249 181.889 105.837C187.98 97.8644 188.971 103.954 190.298 106.963C190.975 108.506 190.826 112.097 188.213 114.577C184.795 117.825 181.043 123.212 181.898 130.748C181.898 130.748 185.079 124.192 188.597 122.149C191.519 120.452 194.876 122.745 194.668 126.741C194.416 131.601 182.643 139.588 181.207 155.014C190.957 146.44 188.702 152.585 183.889 160.644C187.588 162.144 185.235 166.509 181.631 169.687C180.539 169.29 179.219 169.983 178.219 169.859C176.57 169.667 177.964 168.068 177.964 168.068C179.319 166.638 180.498 167.705 180.498 167.705C182.165 164.085 179.151 160.001 179.151 160.001C179.043 166.558 171.308 171.364 171.308 171.364C166.6 167.544 160.317 174.048 159.878 178.889C164.843 176.586 161.035 187.624 163.364 192.402C163.364 192.402 167.569 178.615 174.42 183.956C175.698 184.948 178.958 186.299 183.799 187.477L183.754 187.485C183.754 187.485 188.376 189.685 188.984 195.472C189.314 198.578 195.771 197.855 189.748 200.854C190.387 203.829 196.906 206.615 201.466 205.289C194.887 202.079 199.691 199.121 200.84 198.832C202.754 198.351 207.304 202.27 212.636 203.09C216.955 203.752 223.498 201.92 226.614 201.599C226.614 201.599 202.39 193.668 214.364 192.624C223.642 191.814 228.611 196.518 236.878 196.278C239.317 196.211 242.055 194.758 245.256 193.794C245.256 193.794 232.689 194.093 245.453 190.467C255.587 188.075 258.592 184.017 258.592 184.017C258.592 184.017 256.394 185.367 252.922 185.937C250.613 186.32 247.734 186.364 244.399 186.326C252.802 185.088 260.73 180.894 273.529 159.171C287.314 135.775 307.697 134.84 307.697 134.84C307.697 134.84 288.574 123.676 273.739 146.845ZM188.565 79.0877C186.552 79.6442 184.494 79.7763 185.3 77.5846C186.052 75.5362 187.011 73.6093 187.496 72.2604C189.092 72.5538 190.714 73.0256 191.748 73.3367C191.027 74.9111 189.992 76.9132 188.565 79.0877ZM193.036 70.0587C193.036 70.0587 192.798 70.8603 192.246 72.1828C191.191 69.9481 188.989 66.5365 187.259 67.1732C182.752 68.8301 179.482 70.784 180.14 67.1836C181.258 61.0393 187.359 59.2268 190.321 58.7514C193.282 58.276 195.251 63.5908 200.395 61.3328C202.278 60.5034 232.291 46.4855 220.571 59.8699C214.988 59.2324 205.57 60.3969 193.036 70.0587Z" fill="url(#paint6_linear_607_206)"/>
<path opacity="0.3" d="M244.66 181.671C240.436 184.88 234.147 193.205 228.23 196.574C235.581 196.01 242.343 196.63 253.737 191.553C265.139 186.477 265.242 194.716 265.242 194.716C276.96 182.69 275.233 171.802 282.25 149.238C289.267 126.674 333.45 120.089 333.45 120.089C315.683 117.255 300.663 116.912 284.563 123.59C269.6 129.792 262.735 148.073 261.613 156.787C259.925 169.845 244.519 193.417 244.66 181.671Z" fill="url(#paint7_linear_607_206)"/>
<path opacity="0.3" d="M64.3998 208.094C66.7106 209.28 67.9243 209.078 67.9243 209.078C67.9243 209.078 61.1226 203.957 63.7592 197.225C65.4509 200.406 66.8886 202.573 66.9672 202.826C66.9672 202.826 65.2785 189.863 67.5884 180.6C68.1832 183.286 69.5086 184.971 69.5086 184.971C67.8396 179.956 73.9386 172.043 74.5999 171.598L74.1245 171.709C74.283 171.669 74.4415 171.629 74.6 171.589L74.6529 171.573C76.6894 171.164 75.9928 167.812 78.5554 163.747C82.5694 157.372 91.8109 153.552 100.631 161.219C100.971 161.519 102.091 162.023 102.357 161.833C100.691 160.286 103.09 158.391 104.682 158.506C110.501 153.882 123.766 147.248 122.35 154.721C129.237 151.93 133.605 145.062 133.891 145.016C133.891 145.016 133.298 144.931 132.27 144.824C132.27 144.824 132.275 144.521 131.359 144.012C130.443 143.502 127.777 142.892 126.947 143.041C126.947 143.041 130.251 144.207 128.712 144.522C122.915 144.129 113.558 143.998 107.623 146.517C98.516 150.38 105.903 124.931 110.911 120.733C105.34 123.551 100.201 125.643 98.2289 130.364C97.7202 131.586 96.2534 137.122 92.6199 138.654C91.8174 138.996 88.8327 140.385 90.1195 137.103C90.1034 137.17 88.028 138.118 87.8791 141.685C91.1188 143.987 87.8628 146.787 82.4395 149.271C78.925 150.88 75.499 151.219 73.6809 147.035C69.451 137.294 71.5338 124.93 78.9008 118.534C78.9008 118.534 70.2481 122.201 65.4168 129.365C66.8299 125.723 69.3527 121.793 71.1227 120.218C74.3421 117.359 74.4057 103.434 79.5562 102.917C83.5469 102.518 76.939 113.497 76.939 113.497C81.0129 112.611 86.9482 103.686 88.7819 83.1522C90.1363 68.0001 101.648 64.659 101.648 64.659C96.7313 63.7482 92.6693 65.7372 89.3437 69.1087C83.9235 74.6062 76.9429 88.122 78.8774 75.1754C68.3395 89.7106 73.9515 99.0585 70.9556 106.611C65.2385 121.011 62.9567 122.629 60.1538 126.219C57.3509 129.808 60.8006 133.965 60.8006 133.965L62.8132 135.003C62.1404 137.52 62.0268 140.313 62.743 143.388C65.7847 156.353 65.1002 162.321 62.8262 167.114C61.0322 167.408 56.923 165.869 58.7222 163.428C60.6367 160.836 61.3858 159.626 62.0691 161.959C64.7413 158.09 62.6421 152.26 62.6421 152.26C62.626 156.436 62.1887 157.886 59.9341 158.764C57.6795 159.641 56.9197 164.244 56.0311 165.251C55.6404 165.691 54.1146 165.678 53.6 164.518C52.984 163.12 54.6046 161.029 55.8208 162.04C55.9298 160.442 57.9102 157.952 57.9102 157.952C57.3972 158.063 56.9289 158.2 56.4977 158.362C57.2511 153.237 61.0305 154.721 61.0305 154.721C62.8532 148.567 60.1152 144.555 56.933 141.042C53.7508 137.528 57.6191 131.782 57.6191 131.782C52.8046 134.728 52.4724 139.843 54.0358 145.337C55.5993 150.831 56.779 148.574 52.3828 156.713C48.7619 163.414 48.9325 169.95 49.1008 172.057C49.1008 172.057 47.3477 171.241 45.6864 168.953C42.9835 162.348 47.7462 152.043 47.7462 152.043C44.3967 157.325 43.4267 160.999 43.1755 163.016C42.9739 162.02 42.8339 160.932 42.7861 159.727C42.7861 159.727 39.1779 173.88 45.1834 178.965C45.868 170.707 53.4532 184.864 53.4532 184.864L54.5844 184.645C55.0231 186.309 53.7944 187.429 53.8434 189.475C53.8434 189.475 53.554 190.161 53.4729 190.977C53.0124 191.097 52.582 191.209 52.1829 191.253C49.0194 191.63 47.9621 185.983 47.9621 185.983C47.9711 196.406 53.0314 194.507 56.2143 197.978C56.6353 198.438 56.9515 198.864 57.2005 199.263C57.292 200.098 57.4811 200.942 57.8131 201.78C57.6381 202.822 56.9373 203.385 56.9373 203.385C56.9373 203.385 55.2359 204.901 53.6197 202.614C53.8111 202.861 54.043 206.131 57.6242 208.698C60.1206 210.484 65.0598 211.842 69.3049 211.977C69.2893 212.01 65.4836 210.298 64.3998 208.094ZM52.1866 176.402C52.1866 176.402 52.1881 176.773 52.2311 177.354L49.3201 172.439L51.0688 168.043C51.0499 172.387 53.487 173.668 54.4053 174.969C54.9341 175.725 56.2436 178.379 57.6455 181.353C56.4972 180.782 53.3315 179.011 52.1866 176.402Z" fill="url(#paint8_linear_607_206)"/>
<path opacity="0.3" d="M96.5876 207.074C90.8399 208.682 87.4027 219.091 87.4027 219.091C91.2127 212.08 94.3649 212.363 97.9568 211.498C101.549 210.632 105.933 208.997 110.065 201.816C114.198 194.634 127.544 199.249 127.544 199.249C114.122 189.751 104.161 195.879 104.161 195.879C106.545 196.43 102.343 205.466 96.5876 207.074Z" fill="url(#paint9_linear_607_206)"/>
<path opacity="0.3" d="M297.28 234.127C293.803 230.521 288.864 229.113 283.381 230.238C281.973 229.121 278.945 227.74 274.252 230.731C266.721 235.522 265.462 237.279 262.849 236.089C262.849 236.089 264.102 240.164 269.117 237.911C269.523 237.732 269.912 237.552 270.279 237.387C268.2 239.246 266.145 241.468 264.152 244.061C255.312 255.562 244.01 247.861 242.199 244.448C239.27 238.929 229.034 241.158 229.034 241.158C236.012 248.733 223.481 251.615 215.203 256.146C206.765 260.763 206.307 270.582 212.336 272.239C212.336 272.239 214.806 272.491 217.349 271.97C213.967 280.571 225.656 277.629 225.656 277.629C217.166 277.098 224.09 267.677 224.09 267.677L222.396 268.669C223.499 266.66 225.513 267.446 227.586 267.338C229.5 267.236 231.553 266.103 231.553 266.103C225.961 264.613 225.43 260.927 227.996 256.696C230.555 252.472 236.15 250.986 238.298 252.339C244.029 255.936 241.777 262.286 241.777 262.286C245.359 263.159 252.464 261.185 260.061 255.62C262.306 257.572 257.939 261.923 255.741 263.578C253.221 265.479 253.827 263.261 253.827 263.261C252.354 267.411 249.637 268.341 249.637 268.341C270.12 263.215 270.322 251.416 269.548 246.815C270.731 245.444 271.901 243.984 273.043 242.411C284.177 227.095 297.28 234.127 297.28 234.127Z" fill="url(#paint10_linear_607_206)"/>
<path opacity="0.3" d="M125.283 234.731C118.926 244.819 114.367 244.381 112.712 248.481C112.404 247.163 113.058 245.233 115.211 242.488C111.462 243.932 108.197 248.009 103.72 254.609C99.2432 261.201 96.545 268.2 96.545 268.2C96.545 268.2 116.475 248.795 110.686 260.413C112.668 259.162 116.122 252.469 119.794 255.67C121.107 256.819 128.147 255.03 131.58 252.277C137.742 247.327 141.059 239.232 141.059 239.232C141.377 239.871 143.244 250.483 133.234 256.728C138.548 255.715 143.926 252.624 148.961 247.249C150.838 245.249 153.645 238.364 156.77 233.415C159.896 228.458 163.348 225.435 166.518 231.125C167.973 227.649 171.091 222.726 170.141 219.52C169.85 218.55 167.393 220.656 167.698 218.103C167.606 216.605 168.279 214.371 168.074 213.037C165.747 213.961 162.731 212.684 163.219 209.716C163.186 209.942 164.193 210.121 165.015 209.967C163.492 207.328 165.745 203.862 165.745 203.862C165.745 203.862 162.438 205.156 159.704 209.884C157.278 214.086 157.153 224.392 152.166 228.158C152.825 233.891 141.083 253.323 143.466 232.568C138.574 235.465 137.383 242.059 136.924 243.227C135.916 245.779 130.287 244.587 130.014 241.617C129.748 238.647 133.729 238.651 135.201 241.255C138.123 237.538 138.588 231.525 138.588 231.525C138.588 231.525 136.048 235.117 132.864 236.047C130.224 236.836 125.624 237.572 125.283 234.731Z" fill="url(#paint11_linear_607_206)"/>
<path opacity="0.3" d="M344.785 245.292C353.575 253.973 356.728 251.445 356.728 251.445C356.728 251.445 350.905 247.126 345.761 235.36C340.617 223.593 334.69 224.755 334.69 224.755C327.507 220.333 317.936 228.841 306.5 232.801C301.384 234.923 288.258 233.949 283.392 237.303C267.248 248.426 274.216 265.027 254.52 269.501C242.864 272.146 231.839 288.503 232.26 288.274C256.508 275.019 253.62 285.908 258.872 289.773C261.455 291.676 273.728 263.549 289.647 250.506C306.079 237.049 326.038 238.816 319.681 250.926C328.681 258.417 340.255 268.777 354.69 272.998C392.034 283.903 410.863 254.7 410.863 254.7C400.35 262.64 360.722 284.642 344.785 245.292Z" fill="url(#paint12_linear_607_206)"/>
<path opacity="0.3" d="M291.39 210.727C280.531 208.954 273.23 217.156 273.23 217.156C286.807 210.384 293.528 225.179 302.715 224.143C311.901 223.107 327.722 214.417 342.165 224.535C350.557 230.417 354.92 214.148 364.078 198.934C373.235 183.72 391.995 191.274 391.995 191.274C391.995 191.274 358.621 172.688 352.924 195.993C347.732 217.246 297.919 211.789 291.39 210.727Z" fill="url(#paint13_linear_607_206)"/>
<path opacity="0.3" d="M389.212 220.108C401.011 222.787 387.554 229.879 383.418 231.737C368.024 238.67 347.037 234.978 347.037 234.978C347.037 234.978 353.894 238.661 362.199 242.135C370.504 245.608 389.299 242.211 398.403 232.348C407.506 222.485 421.265 227.206 421.265 227.206C405.599 213.614 396.663 214.644 389.212 220.108Z" fill="url(#paint14_linear_607_206)"/>
<path opacity="0.3" d="M326.118 270.911C314.864 255.965 311.937 263.132 305.547 259.325C299.158 255.518 310.456 250.903 310.456 250.903C290.584 248.393 271.118 278.566 271.118 278.566C271.118 278.566 294.044 259.513 312.679 269.14C316.169 270.942 317.366 272.883 317.997 275.002C317.452 273.89 315.638 272.071 309.547 271.921C309.547 271.921 316.803 274.596 317.269 280.081C317.65 284.526 319.159 286.576 325.85 288.074C336.364 294.666 356.125 287.93 356.125 287.93C356.125 287.93 337.372 285.857 326.118 270.911Z" fill="url(#paint15_linear_607_206)"/>
<path opacity="0.3" d="M304.686 199.784C306.812 195.802 312.287 198.627 317.435 200.425C322.453 202.176 327.762 196.522 327.762 196.522C327.762 196.522 322.779 198.641 320.604 197.721C317.859 196.553 310.195 191.278 303.084 191.516C299.681 191.637 295.62 197.38 293.768 197.256C284.382 196.617 278.868 210.549 278.868 210.549C293.064 197.237 300.956 206.776 304.686 199.784Z" fill="url(#paint16_linear_607_206)"/>
<path opacity="0.3" d="M314.83 201.828C307.379 198.667 306.04 201.705 306.04 201.705C306.04 201.705 307.605 206.74 302.136 205.118C296.667 203.496 293.321 206.54 293.321 206.54C302.136 205.118 297.032 211.31 314.99 208.623C317.899 208.185 320.463 207.432 322.714 206.464C320.857 209.15 318.047 210.077 318.047 210.077C325.1 209.092 331.488 200.567 331.488 200.567C336.223 195.872 337.816 190.965 337.816 190.965C333.848 198.232 323.006 205.293 314.83 201.828Z" fill="url(#paint17_linear_607_206)"/>
<path opacity="0.3" d="M265.18 211.12C260.394 217.29 257.539 233.931 255.008 236.669C251.686 240.281 248.554 238.129 248.554 238.129C248.554 238.129 256.45 248.009 263.507 241.997C256.628 237.172 264.531 229.216 265.885 227.153C269.058 222.326 283.086 223.121 283.086 223.121C283.086 223.121 280.34 220.233 275.002 219.805C269.664 219.376 278.757 202.384 278.757 202.384C278.757 202.384 268.986 206.217 265.18 211.12Z" fill="url(#paint18_linear_607_206)"/>
<path opacity="0.3" d="M310.669 227.347C306.752 228.71 297.116 225.303 292.026 222.618C286.942 219.933 283.043 225.874 283.043 225.874C283.043 225.874 290.477 224.42 297.938 227.39C301.033 228.622 299.016 231.223 299.016 231.223C304.322 231.615 310.669 227.347 310.669 227.347Z" fill="url(#paint19_linear_607_206)"/>
<defs>
<linearGradient id="paint0_linear_607_206" x1="156.604" y1="180.264" x2="155.846" y2="234.336" gradientUnits="userSpaceOnUse">
<stop stop-color="#8C0000"/>
<stop offset="1" stop-color="#210707"/>
</linearGradient>
<linearGradient id="paint1_linear_607_206" x1="81.2979" y1="253.7" x2="80.8979" y2="282.266" gradientUnits="userSpaceOnUse">
<stop stop-color="#8C0000"/>
<stop offset="1" stop-color="#210707"/>
</linearGradient>
<linearGradient id="paint2_linear_607_206" x1="79.3217" y1="273.061" x2="79.1217" y2="287.344" gradientUnits="userSpaceOnUse">
<stop stop-color="#8C0000"/>
<stop offset="1" stop-color="#210707"/>
</linearGradient>
<linearGradient id="paint3_linear_607_206" x1="132.948" y1="240.138" x2="132.377" y2="280.947" gradientUnits="userSpaceOnUse">
<stop stop-color="#8C0000"/>
<stop offset="1" stop-color="#210707"/>
</linearGradient>
<linearGradient id="paint4_linear_607_206" x1="111.389" y1="273.509" x2="111.217" y2="285.751" gradientUnits="userSpaceOnUse">
<stop stop-color="#8C0000"/>
<stop offset="1" stop-color="#210707"/>
</linearGradient>
<linearGradient id="paint5_linear_607_206" x1="134.266" y1="88.3972" x2="131.966" y2="252.652" gradientUnits="userSpaceOnUse">
<stop stop-color="#8C0000"/>
<stop offset="1" stop-color="#210707"/>
</linearGradient>
<linearGradient id="paint6_linear_607_206" x1="236.368" y1="0.0297616" x2="233.482" y2="206.113" gradientUnits="userSpaceOnUse">
<stop stop-color="#8C0000"/>
<stop offset="1" stop-color="#210707"/>
</linearGradient>
<linearGradient id="paint7_linear_607_206" x1="281.508" y1="117.728" x2="280.394" y2="197.305" gradientUnits="userSpaceOnUse">
<stop stop-color="#8C0000"/>
<stop offset="1" stop-color="#210707"/>
</linearGradient>
<linearGradient id="paint8_linear_607_206" x1="89.321" y1="64.2973" x2="87.2493" y2="212.229" gradientUnits="userSpaceOnUse">
<stop stop-color="#8C0000"/>
<stop offset="1" stop-color="#210707"/>
</linearGradient>
<linearGradient id="paint9_linear_607_206" x1="107.725" y1="193.865" x2="107.368" y2="219.371" gradientUnits="userSpaceOnUse">
<stop stop-color="#8C0000"/>
<stop offset="1" stop-color="#210707"/>
</linearGradient>
<linearGradient id="paint10_linear_607_206" x1="253.133" y1="228.556" x2="252.433" y2="278.546" gradientUnits="userSpaceOnUse">
<stop stop-color="#8C0000"/>
<stop offset="1" stop-color="#210707"/>
</linearGradient>
<linearGradient id="paint11_linear_607_206" x1="134.108" y1="203.419" x2="133.193" y2="268.713" gradientUnits="userSpaceOnUse">
<stop stop-color="#8C0000"/>
<stop offset="1" stop-color="#210707"/>
</linearGradient>
<linearGradient id="paint12_linear_607_206" x1="322.347" y1="223.403" x2="321.404" y2="290.737" gradientUnits="userSpaceOnUse">
<stop stop-color="#8C0000"/>
<stop offset="1" stop-color="#210707"/>
</linearGradient>
<linearGradient id="paint13_linear_607_206" x1="332.949" y1="183.754" x2="332.363" y2="225.583" gradientUnits="userSpaceOnUse">
<stop stop-color="#8C0000"/>
<stop offset="1" stop-color="#210707"/>
</linearGradient>
<linearGradient id="paint14_linear_607_206" x1="384.397" y1="216.109" x2="384.011" y2="243.654" gradientUnits="userSpaceOnUse">
<stop stop-color="#8C0000"/>
<stop offset="1" stop-color="#210707"/>
</linearGradient>
<linearGradient id="paint15_linear_607_206" x1="314.155" y1="250.838" x2="313.597" y2="290.627" gradientUnits="userSpaceOnUse">
<stop stop-color="#8C0000"/>
<stop offset="1" stop-color="#210707"/>
</linearGradient>
<linearGradient id="paint16_linear_607_206" x1="303.513" y1="191.506" x2="303.241" y2="210.89" gradientUnits="userSpaceOnUse">
<stop stop-color="#8C0000"/>
<stop offset="1" stop-color="#210707"/>
</linearGradient>
<linearGradient id="paint17_linear_607_206" x1="315.701" y1="190.656" x2="315.43" y2="210.04" gradientUnits="userSpaceOnUse">
<stop stop-color="#8C0000"/>
<stop offset="1" stop-color="#210707"/>
</linearGradient>
<linearGradient id="paint18_linear_607_206" x1="266.288" y1="202.209" x2="265.702" y2="244.038" gradientUnits="userSpaceOnUse">
<stop stop-color="#8C0000"/>
<stop offset="1" stop-color="#210707"/>
</linearGradient>
<linearGradient id="paint19_linear_607_206" x1="296.931" y1="222.027" x2="296.803" y2="231.209" gradientUnits="userSpaceOnUse">
<stop stop-color="#8C0000"/>
<stop offset="1" stop-color="#210707"/>
</linearGradient>
</defs>
</svg>
