<svg width="177" height="173" viewBox="0 0 177 173" fill="none" xmlns="http://www.w3.org/2000/svg">
<path d="M149.344 21.625H105.094C104.247 21.6249 103.411 21.815 102.651 22.1805C101.891 22.5461 101.227 23.0774 100.71 23.7334L56.4602 79.9652L49.7812 73.4507C48.7538 72.4454 47.5337 71.6478 46.1908 71.1037C44.8478 70.5596 43.4083 70.2795 41.9545 70.2795C40.5007 70.2795 39.0612 70.5596 37.7182 71.1037C36.3752 71.6478 35.1552 72.4454 34.1278 73.4507L25.3538 82.0331C24.3263 83.0371 23.5112 84.2292 22.9551 85.5412C22.399 86.8532 22.1128 88.2594 22.1128 89.6795C22.1128 91.0997 22.399 92.5059 22.9551 93.8179C23.5112 95.1299 24.3263 96.3219 25.3538 97.326L39.1819 110.842L19.8226 129.764C18.7951 130.768 17.98 131.96 17.4239 133.272C16.8678 134.584 16.5815 135.99 16.5815 137.41C16.5815 138.83 16.8678 140.236 17.4239 141.548C17.98 142.86 18.7951 144.052 19.8226 145.056L28.5965 153.625C30.6709 155.652 33.4836 156.79 36.4163 156.79C39.349 156.79 42.1617 155.652 44.2361 153.625L63.5955 134.703L77.4236 148.219C78.451 149.224 79.6711 150.022 81.0141 150.566C82.357 151.11 83.7966 151.39 85.2503 151.39C86.7041 151.39 88.1437 151.11 89.4866 150.566C90.8296 150.022 92.0497 149.224 93.0771 148.219L101.851 139.637C102.879 138.633 103.694 137.441 104.25 136.129C104.806 134.817 105.092 133.41 105.092 131.99C105.092 130.57 104.806 129.164 104.25 127.852C103.694 126.54 102.879 125.348 101.851 124.344L95.1859 117.829L152.718 74.5792C153.391 74.0728 153.936 73.4217 154.31 72.6763C154.684 71.931 154.877 71.1114 154.875 70.2812V27.0312C154.875 25.5974 154.292 24.2223 153.255 23.2085C152.218 22.1946 150.811 21.625 149.344 21.625ZM36.4301 145.969L27.6562 137.4L47.0156 118.478L55.7826 127.047L36.4301 145.969ZM85.2503 140.562L33.1875 89.6829L41.9683 81.0937L94.0312 131.987L85.2503 140.562ZM143.812 67.6187L87.2969 110.112L79.7329 102.719L114.538 68.6999C115.575 67.6855 116.157 66.31 116.157 64.876C116.156 63.442 115.573 62.067 114.535 61.0535C113.497 60.0399 112.09 59.4709 110.622 59.4715C109.155 59.4721 107.749 60.0424 106.712 61.0568L71.9062 95.0689L64.3491 87.6759L107.818 32.4375H143.812V67.6187Z" fill="#FAFAFA"/>
</svg>
