<svg width="390" height="446" viewBox="0 0 390 446" fill="none" xmlns="http://www.w3.org/2000/svg">
<path opacity="0.3" d="M102.376 111.947C101.397 116.843 106.95 116.73 106.95 116.73C111.369 115.053 108.878 112.659 108.878 112.659C109.06 112.976 108.21 115.547 107.121 113.768C106.032 111.99 110.674 110.672 112.677 107.984C114.68 105.297 116.041 100.944 116.407 95.6009C116.76 90.5222 116.906 89.1002 119.103 85.0575C120.104 83.2087 123.944 79.0648 124.74 82.7355C130.333 78.2021 128.478 62.9503 128.478 62.9503C127.899 66.8584 124.687 74.5381 121.97 76.959C118.615 79.9423 113.754 81.1989 111.059 87.2631C110.296 88.9911 115.126 87.1131 113.037 96.5224C113.984 101.454 106.28 107.348 106.951 106.753C107.614 106.158 107.648 102.052 105.725 100.386C102.941 97.9706 106.498 90.6021 106.498 90.6021C102.091 93.0242 100.722 100.357 102.44 103.089C104.166 105.82 103.354 107.059 102.376 111.947Z" fill="url(#paint0_linear_607_207)"/>
<path opacity="0.3" d="M45.7799 144.531C46.7543 145.945 47.8686 145.852 48.528 144.956C49.1402 144.129 49.684 140.933 47.1202 136.301C47.1202 136.301 49.4019 142.221 46.5045 141.539C43.6072 140.856 42.6888 141.168 42.5306 142.388C42.3647 143.609 38.8379 144.333 40.046 142.268C40.046 142.268 41.1779 140.644 41.2363 138.958C41.2699 137.852 40.6316 136.527 39.6385 136.25C39.6385 136.25 41.1652 139.081 37.2939 142.555C37.2939 142.555 29.3269 149.144 31.5145 158.917C31.5145 158.917 31.8606 152.809 35.0783 152.676C35.0783 152.676 33.6326 161.717 37.7738 163.764C37.7738 163.764 37.3086 162.187 39.2924 163.352C41.2763 164.517 44.4788 165.777 47.3052 163.774C47.3052 163.774 45.5684 164.384 44.1009 164.023C42.6335 163.654 41.9892 163.165 40.2359 161.051C38.5351 159.008 37.176 155.785 38.3824 151.028C38.3824 151.028 39.3079 144.688 43.9716 145.295C43.9791 145.303 43.8984 141.812 45.7799 144.531Z" fill="url(#paint1_linear_607_207)"/>
<path opacity="0.3" d="M38.6001 169.661C41.0248 169.187 44.2455 165.233 44.2455 165.233C44.2455 165.233 41.4181 166.333 40.3537 165.063C39.2895 163.783 38.2412 163.875 38.2412 163.875C38.5999 164.994 37.5551 165.344 37.5551 165.344C32.3038 164.531 33.1067 155.494 33.1067 155.494C31.5781 159.516 32.0621 164.252 33.3129 167.289C34.2601 169.6 36.4423 169.826 36.4423 169.826C34.5048 167.359 38.6001 169.661 38.6001 169.661Z" fill="url(#paint2_linear_607_207)"/>
<path opacity="0.3" d="M117.933 123.008C117.933 123.008 111.297 139.305 93.666 140.233C92.311 140.305 90.9244 140.384 89.5141 140.471C95.9267 136.781 96.8269 132.3 96.8269 132.3C93.0917 137.826 81.041 139.744 81.041 139.744C81.041 139.744 78.0292 139.571 75.4302 142.533C71.3655 143.684 67.8496 145.45 65.5364 148.261C65.5364 148.261 68.8074 147.033 67.4798 149.742C66.1523 152.451 64.5158 155.756 66.9136 163.11C66.9136 163.11 66.5095 160.877 69.4294 157.55C72.4296 154.117 78.7451 149.637 90.1612 146.584C90.177 146.585 97.8947 146.339 101.238 145.959C104.59 145.587 108.417 141.13 108.417 141.13C108.417 141.13 102.003 144.902 103.01 143.051C115.526 137.253 117.55 124.267 117.933 123.008Z" fill="url(#paint3_linear_607_207)"/>
<path opacity="0.3" d="M72.1797 162.274C72.1797 162.274 70.1489 162.784 68.7805 163.82C64.5059 167.047 62.4228 158.921 63.3996 155.917C63.3996 155.917 60.2854 158.393 60.9928 163.711C63.8636 161.53 62.1856 168.508 63.5869 168.149C64.9882 167.791 68.642 165.262 70.7896 165.711C72.946 166.159 79.6368 165.307 79.6368 165.307C79.6368 165.307 68.2136 164.46 72.1797 162.274Z" fill="url(#paint4_linear_607_207)"/>
<path opacity="0.3" d="M100.207 225.325C106.017 221.345 112.957 217.775 117.768 217.155C125.811 216.121 113.082 189.388 133.463 190.092C138.863 187.538 141.649 179.48 142.834 170.201C147.864 166.202 147.572 163.652 146.667 159C145.578 153.399 150.912 150.325 150.912 150.325C147.311 151.933 145.005 153.868 143.54 155.774C143.399 147.599 142.445 140.132 141.344 136.139C138.278 125.059 154.633 110.257 154.633 110.257C150.591 112.93 146.729 115.522 143.341 118.188C143.341 118.188 136.578 118.21 129.527 125.347C127.894 126.999 125.893 128.956 125.184 131.374C125.184 131.374 129.989 126.618 130.708 129.391C131.421 132.156 127.13 130.522 125.376 136.879C125.376 136.879 126.994 134.749 126.969 136.231C126.958 136.901 126.991 139.882 127.217 143.302C127.058 143.953 126.921 144.579 126.8 145.172C126.136 142.609 125.189 140.125 124.436 138.448C120.687 130.088 133.747 118.64 133.747 118.64C122.373 123.329 118.567 129.749 114.532 137.38C110.628 144.745 109.489 152.559 106.139 156.062C104.914 157.343 103.367 158.36 101.644 159.165C101.462 158.961 101.301 158.825 101.212 158.765C100.668 158.414 102.579 158.391 104.428 155.72C106.735 152.386 107.054 147.902 107.054 147.902C106.615 149.269 103.837 153.694 102.345 153.639C104.927 154.764 98.6535 158.009 97.2804 158.358C95.0118 158.93 93.6168 161.506 93.6168 161.506C87.6852 162.486 82.2506 162.159 82.0426 162.156C73.6694 162.022 80.0211 159.004 80.0211 159.004C78.1397 157.722 81.1349 154.992 81.1349 154.992C74.5483 156.03 71.372 160.282 70.6441 164.325C75.5623 158.54 78.8663 166.408 86.3457 165.759C85.312 164.898 86.3958 164.068 87.2216 164.012C90.1303 163.835 93.1316 166.607 93.2194 166.24C93.6919 164.17 95.0422 166.115 96.4353 164.552C96.7627 166.332 92.7245 169.667 92.7245 169.667C92.746 179.205 79.9264 182.827 79.9264 182.827C94.8709 183.757 101.184 177.64 105.546 174.067C111.655 169.061 111.078 162.161 111.984 158.548C113.535 152.356 119.593 153.68 119.593 153.68C127.265 154.859 117.706 166.7 117.706 166.7C119.33 165.551 120.92 164.216 122.328 162.695C120.309 167.49 117.495 172.316 113.976 173.875C112.734 174.427 111.64 174.956 110.665 175.487C111.054 174.872 111.423 173.705 111.526 171.479C111.526 171.479 107.763 177.514 104.891 176.394C104.891 176.394 104.775 176.644 104.545 177.076C104.769 176.593 104.885 176.302 104.885 176.302C101.976 180.105 94.4171 182.88 91.5403 183.827C84.9799 185.988 79.3157 185.616 78.3946 182.429C76.953 177.451 79.0448 176.333 81.706 175.391C80.7069 175.134 79.0556 174.776 77.9972 174.962C75.9177 175.335 73.9874 176.572 72.5172 178.302C70.8849 178.597 65.9218 179.876 62.9094 184.557C59.2638 190.225 57.1186 187.365 57.1186 187.365C57.1186 187.365 58.3945 191.118 62.0949 189.344C65.7953 187.57 69.1593 189.527 69.7402 197.582C69.7402 197.582 72.048 192.825 70.3971 188.824C69.1894 185.893 68.811 184.497 69.8421 184.16C69.834 184.202 69.8333 184.244 69.8252 184.285C76.9033 197.189 68.4611 200.797 68.4611 200.797C71.3752 190.353 56.7053 190.801 54.2116 191.503C52.1361 192.085 50.4573 193.845 48.9796 196.035C48.204 195.748 47.4737 194.515 46.8943 190.881C45.6603 183.227 59.3553 182.405 59.3553 182.405L53.2968 181.156C49.6663 180.946 44.6908 182.074 42.4221 184.463C39.624 187.405 40.067 192.553 39.9479 193.464C39.735 195.11 36.908 195.749 36.908 195.749C38.8192 195.667 37.7881 205.04 37.7881 205.04C41.4548 203.056 41.0393 206.174 40.278 208.634C40.1959 208.658 40.1213 208.674 40.0393 208.689C33.4117 209.961 36.6618 196.709 36.3935 196.755C36.1178 196.802 29.614 204.549 30.2976 214.498C30.3277 214.926 30.4104 215.321 30.5532 215.674L30.456 215.706C30.456 215.706 28.6412 222.121 33.0354 226.964C33.0354 226.964 31.569 221.232 34.1374 220.506C34.1374 220.506 32.9941 219.083 34.3729 217.939C36.6092 217.978 39.4212 216.895 41.8734 214.652C47.9547 209.093 51.5358 196.046 55.118 197.846C54.5891 203.341 56.7575 207.508 59.7168 210.573C59.7168 210.573 54.1742 208.234 53.4116 204.446C53.4116 204.446 53.1639 215.89 67.4307 215.998C70.1364 217.317 72.2079 217.882 72.2079 217.882C72.2079 217.882 63.9283 210.255 66.2882 204.585C64.0092 202.627 63.3478 198.112 67.4909 199.695C66.6185 201.223 70.7126 202.168 69.1359 204.499C72.7192 203.972 75.3137 195.785 76.2106 195.027C71.3152 190.838 77.1931 187.705 84.236 187.837C84.236 187.837 91.1604 192.916 83.5122 199.76C83.5122 199.76 89.8828 196.943 90.4994 195.151C90.4994 195.151 89.3124 195.478 89.3954 194.5C89.4685 193.672 92.3406 191.199 93.3596 189.338C94.664 189.105 95.8856 188.477 97.022 187.614C98.5842 187.519 100.353 187.074 101.911 185.84C101.911 185.84 99.5629 184.04 103.359 182.352C103.71 182.197 104.048 182.018 104.371 181.821C103.319 183.875 102.428 186.526 101.41 190.146C107.853 184.257 109.207 197.716 108.153 202.14C106.246 210.136 96.2142 217.289 91.3136 221.097C83.7707 226.963 85.5851 220.573 85.5851 220.573C81.2577 224.323 85.3577 227.621 78.3295 231.107C66.9404 236.768 61.1479 228.388 61.1479 228.388C61.6187 230.036 62.5957 232.084 63.9436 234.171C63.9436 234.171 53.6101 229.421 54.5965 223.221C54.5965 223.221 51.633 226.73 54.4358 232.087C54.4358 232.087 56.3215 234.91 57.0606 237.868C57.7924 240.818 57.7391 241.797 62.096 242.126C62.096 242.126 58.0962 239.516 60.4893 237.699C62.8899 235.882 63.4048 242.077 65.6763 242.235C65.6763 242.235 65.9497 240.522 68.9786 240.263C69.6665 240.909 70.3849 241.514 71.1191 242.06L71.0891 242.076C71.0891 242.076 74.7052 247.679 69.2785 251.396C69.2785 251.396 71.6315 251.563 73.1803 249.575C74.6911 247.637 77.2644 249.323 76.8675 250.406C76.1672 252.322 73.4211 253.908 73.3058 255.95C73.0534 260.451 74.7141 262.953 72.9939 261.807C74.1092 265.842 72.9278 267.635 70.5854 269.528C69.5687 270.343 68.6213 271.468 66.6233 271.398C66.6233 271.398 67.5317 271.746 68.6185 271.636L68.5354 271.718C68.5354 271.718 66.9644 272.802 65.3737 272.369C65.4217 273.065 66.8104 273.578 67.9095 273.175C67.2414 272.68 70.3374 271.048 72.078 271.408C72.9149 271.579 73.9812 271.811 74.8179 271.547C75.7218 271.266 76.3741 270.463 76.7388 269.974C76.7388 269.974 75.5304 270.703 74.8142 270.868C73.9415 271.065 73.6146 270.609 74.8448 269.462C77.6907 268.128 80.5905 266.235 82.1413 263.669C82.1413 263.669 72.7023 265.077 80.3263 255.185C83.7359 250.761 91.3559 250.6 88.9993 256.973C88.9993 256.973 94.6331 254.674 95.0165 249.889C95.4005 245.071 87.7015 243.255 93.0637 238.942C98.4635 234.605 101.884 234.962 104.306 229.57C104.284 229.57 93.4547 234.601 100.207 225.325Z" fill="url(#paint5_linear_607_207)"/>
<path opacity="0.3" d="M232.74 167.845C213.983 197.145 194.235 203.537 200.42 192.541C168.543 202.177 141.108 181.305 167.928 167.277C166.822 169.981 166.376 173.44 165.442 174.757C163.475 177.509 163.351 173.262 163.351 173.262C159.684 183.87 172.968 184.564 172.968 184.564C163.079 177.978 169.066 171.292 173.282 168.182C177.513 165.064 176.423 174.072 183.562 170.995C190.731 167.901 186.812 154.764 186.812 154.764C187.076 160.088 183.856 170.397 175.554 165.062C175.162 164.811 174.792 164.594 174.436 164.419C175.429 164.052 176.466 163.693 177.556 163.336C149.519 155.021 151.709 140.02 182.591 127.294C180.239 120.694 183.789 114.033 189.75 110.728C204.502 118.975 216.484 115.559 214.754 103.511C210.455 124.803 183.702 96.5691 180.746 95.3414C175.28 93.0788 168.475 102.685 168.475 102.685C168.475 102.685 176.086 98.174 177.592 103.923C178.513 107.444 176.962 113.582 172.852 121.133C165.249 135.134 148.772 128.566 158.008 114.85C167.413 100.874 155.508 92.7257 185.405 82.5784C185.405 82.5784 183.955 81.6599 181.197 81.1129C193.296 76.5713 200.718 54.4842 205.319 61.5644C217.239 54.2495 217.243 32.211 217.243 32.211C217.061 32.3186 208.94 52.3963 192.031 54.8031C189.415 55.1732 186.938 55.7571 184.586 56.4613C185.612 52.273 186.479 47.3284 188.454 40.8656C192.824 26.5903 220.342 22.4172 220.342 22.4172C209.283 20.6185 199.932 20.4113 189.903 24.6345C180.589 28.5627 176.308 40.1278 175.605 45.634C174.556 53.8975 164.957 68.8113 165.042 61.3816C163.868 62.2887 162.444 63.8363 160.892 65.4583C159.412 64.9716 159.471 62.7779 159.747 61.8751C152.543 62.5284 149.229 68.9893 147.328 68.6576C143.361 67.9751 139.044 77.6926 135.91 78.6739C132.775 79.6553 131.736 79.1747 131.962 77.7205C132.804 72.4705 134.926 76.6435 136.809 74.433C138.693 72.2225 141.445 68.0584 139.511 61.5833C138.765 67.3684 134.747 70.7099 132.031 71.7479C130.45 72.3528 129.702 73.3252 129.536 69.7642C127.127 72.1114 126.818 76.8096 126.818 76.8096C128.635 80.8767 124.381 79.9698 122.901 90.8455C124.565 94.2157 122.73 93.9697 121.563 93.0806C122.319 96.2263 125.746 94.7152 125.746 94.7152C128.151 91.6647 126.657 101.566 126.657 101.566C128.601 99.7713 131.884 96.5721 131.648 94.0946C137.669 91.7387 132.875 105.44 132.875 105.44C137.777 103.357 140.06 98.6693 141.126 95.6508C141.126 95.6508 140.797 105.221 130.829 110.716C130.829 110.716 135.063 110.106 137.061 108.659C139.059 107.213 140.087 103.821 143.37 104.257C143.713 104.304 144.072 104.275 144.433 104.196C141.566 107.536 137.758 110.864 132.775 113.285C132.775 113.285 136.504 114.379 143.345 110.315C150.224 106.234 155.182 102.092 154.833 105.587C154.582 108.117 139.929 119.325 140.89 126.837C146.98 118.864 147.972 124.954 149.298 127.963C149.976 129.506 149.827 133.097 147.214 135.577C143.796 138.825 140.043 144.212 140.899 151.748C140.899 151.748 144.08 145.192 147.598 143.149C150.519 141.452 153.876 143.745 153.669 147.741C153.417 152.601 141.643 160.588 140.208 176.014C149.957 167.44 147.703 173.585 142.889 181.644C146.588 183.144 144.236 187.509 140.632 190.687C139.539 190.29 138.219 190.983 137.219 190.859C135.57 190.667 136.965 189.068 136.965 189.068C138.319 187.638 139.498 188.705 139.498 188.705C141.165 185.085 138.152 181.001 138.152 181.001C138.044 187.558 130.308 192.364 130.308 192.364C125.6 188.544 119.317 195.048 118.878 199.889C123.844 197.586 120.036 208.624 122.365 213.402C122.365 213.402 126.57 199.615 133.421 204.956C134.698 205.948 137.958 207.299 142.799 208.477L142.754 208.485C142.754 208.485 147.377 210.685 147.984 216.472C148.314 219.578 154.772 218.855 148.748 221.854C149.387 224.829 155.906 227.615 160.467 226.289C153.887 223.079 158.692 220.121 159.84 219.832C161.755 219.351 166.304 223.27 171.637 224.09C175.955 224.752 182.498 222.92 185.614 222.599C185.614 222.599 161.391 214.668 173.364 213.624C182.642 212.814 187.612 217.518 195.878 217.278C198.317 217.211 201.055 215.758 204.256 214.794C204.256 214.794 191.69 215.093 204.453 211.467C214.587 209.075 217.592 205.017 217.592 205.017C217.592 205.017 215.394 206.367 211.923 206.937C209.614 207.32 206.734 207.364 203.4 207.326C211.802 206.088 219.73 201.894 232.53 180.171C246.314 156.775 266.698 155.84 266.698 155.84C266.698 155.84 247.575 144.676 232.74 167.845ZM147.566 100.088C145.553 100.644 143.494 100.776 144.301 98.5846C145.052 96.5362 146.011 94.6093 146.497 93.2604C148.092 93.5538 149.714 94.0256 150.749 94.3367C150.027 95.9111 148.993 97.9132 147.566 100.088ZM152.036 91.0587C152.036 91.0587 151.799 91.8603 151.246 93.1828C150.191 90.9481 147.989 87.5365 146.259 88.1732C141.753 89.8301 138.483 91.784 139.14 88.1836C140.258 82.0393 146.36 80.2268 149.321 79.7514C152.283 79.276 154.251 84.5908 159.396 82.3328C161.279 81.5034 191.292 67.4855 179.571 80.8699C173.989 80.2324 164.57 81.3969 152.036 91.0587Z" fill="url(#paint6_linear_607_207)"/>
<path opacity="0.3" d="M203.66 64.1767C199.435 67.386 193.146 75.7108 187.23 79.0798C194.58 78.5157 201.343 79.1357 212.737 74.0591C224.138 68.9826 224.242 77.2218 224.242 77.2218C235.959 65.196 234.232 54.3076 241.249 31.7437C248.266 9.1797 292.45 2.59458 292.45 2.59458C274.682 -0.238975 259.662 -0.58273 243.562 6.09553C228.599 12.2978 221.735 30.5782 220.612 39.2922C218.925 52.3507 203.519 75.9228 203.66 64.1767Z" fill="url(#paint7_linear_607_207)"/>
<path opacity="0.3" d="M23.3998 229.094C25.7106 230.28 26.9243 230.078 26.9243 230.078C26.9243 230.078 20.1226 224.957 22.7592 218.225C24.4509 221.406 25.8886 223.573 25.9672 223.826C25.9672 223.826 24.2785 210.863 26.5884 201.6C27.1832 204.286 28.5086 205.971 28.5086 205.971C26.8396 200.956 32.9386 193.043 33.5999 192.598L33.1245 192.709C33.283 192.669 33.4415 192.629 33.6 192.589L33.6529 192.573C35.6894 192.164 34.9928 188.812 37.5554 184.747C41.5694 178.372 50.8109 174.552 59.6305 182.219C59.9714 182.519 61.0907 183.023 61.3569 182.833C59.691 181.286 62.0901 179.391 63.6819 179.506C69.5013 174.882 82.7659 168.248 81.35 175.721C88.2367 172.93 92.6046 166.062 92.891 166.016C92.891 166.016 92.2985 165.931 91.2704 165.824C91.2704 165.824 91.2754 165.521 90.3591 165.012C89.4428 164.502 86.7767 163.892 85.9473 164.041C85.9473 164.041 89.2508 165.207 87.7121 165.522C81.9151 165.129 72.5581 164.998 66.623 167.517C57.516 171.38 64.9033 145.931 69.9113 141.733C64.3397 144.551 59.201 146.643 57.2289 151.364C56.7202 152.586 55.2534 158.122 51.6199 159.654C50.8174 159.996 47.8327 161.385 49.1195 158.103C49.1034 158.17 47.028 159.118 46.8791 162.685C50.1188 164.987 46.8628 167.787 41.4395 170.271C37.925 171.88 34.499 172.219 32.6809 168.035C28.451 158.294 30.5338 145.93 37.9008 139.534C37.9008 139.534 29.2481 143.201 24.4168 150.365C25.8299 146.723 28.3527 142.793 30.1227 141.218C33.3421 138.359 33.4057 124.434 38.5562 123.917C42.5469 123.518 35.939 134.497 35.939 134.497C40.0129 133.611 45.9482 124.686 47.7819 104.152C49.1363 89.0001 60.6478 85.659 60.6478 85.659C55.7313 84.7482 51.6693 86.7372 48.3437 90.1087C42.9235 95.6062 35.9429 109.122 37.8774 96.1754C27.3395 110.711 32.9515 120.059 29.9556 127.611C24.2385 142.011 21.9567 143.629 19.1538 147.219C16.3509 150.808 19.8006 154.965 19.8006 154.965L21.8132 156.003C21.1404 158.52 21.0268 161.313 21.743 164.388C24.7847 177.353 24.1002 183.321 21.8262 188.114C20.0322 188.408 15.923 186.869 17.7222 184.428C19.6367 181.836 20.3858 180.626 21.0691 182.959C23.7413 179.09 21.6421 173.26 21.6421 173.26C21.626 177.436 21.1887 178.886 18.9341 179.764C16.6795 180.641 15.9197 185.244 15.0311 186.251C14.6404 186.691 13.1146 186.678 12.6 185.518C11.984 184.12 13.6046 182.029 14.8208 183.04C14.9298 181.442 16.9102 178.952 16.9102 178.952C16.3972 179.063 15.9289 179.2 15.4977 179.362C16.2511 174.237 20.0305 175.721 20.0305 175.721C21.8532 169.567 19.1152 165.555 15.933 162.042C12.7508 158.528 16.6191 152.782 16.6191 152.782C11.8046 155.728 11.4724 160.843 13.0358 166.337C14.5993 171.831 15.779 169.574 11.3828 177.713C7.76189 184.414 7.93252 190.95 8.10082 193.057C8.10082 193.057 6.34765 192.241 4.68636 189.953C1.98351 183.348 6.74619 173.043 6.74619 173.043C3.39673 178.325 2.42668 181.999 2.17549 184.016C1.97388 183.02 1.83391 181.932 1.78607 180.727C1.78607 180.727 -1.82207 194.88 4.18337 199.965C4.868 191.707 12.4532 205.864 12.4532 205.864L13.5844 205.645C14.0231 207.309 12.7944 208.429 12.8434 210.475C12.8434 210.475 12.554 211.161 12.4729 211.977C12.0124 212.097 11.582 212.209 11.1829 212.253C8.01937 212.63 6.96211 206.983 6.96211 206.983C6.97106 217.406 12.0314 215.507 15.2143 218.978C15.6353 219.438 15.9515 219.864 16.2005 220.263C16.292 221.098 16.4811 221.942 16.8131 222.78C16.6381 223.822 15.9373 224.385 15.9373 224.385C15.9373 224.385 14.2359 225.901 12.6197 223.614C12.8111 223.861 13.043 227.131 16.6242 229.698C19.1206 231.484 24.0598 232.842 28.3049 232.977C28.2893 233.01 24.4836 231.298 23.3998 229.094ZM11.1866 197.402C11.1866 197.402 11.1881 197.773 11.2311 198.354L8.32006 193.439L10.0688 189.043C10.0499 193.387 12.487 194.668 13.4053 195.969C13.9341 196.725 15.2436 199.379 16.6455 202.353C15.4972 201.782 12.3315 200.011 11.1866 197.402Z" fill="url(#paint8_linear_607_207)"/>
<path opacity="0.3" d="M55.5876 89.5799C49.8399 91.1878 46.4027 101.597 46.4027 101.597C50.2127 94.5858 53.3649 94.8689 56.9568 94.0033C60.5488 93.1377 64.9329 91.5028 69.0653 84.3212C73.1977 77.1396 86.5442 81.7546 86.5442 81.7546C73.1222 72.2565 63.1611 78.3848 63.1611 78.3848C65.545 78.9359 61.3431 87.9721 55.5876 89.5799Z" fill="url(#paint9_linear_607_207)"/>
<path opacity="0.3" d="M256.28 116.633C252.803 113.027 247.864 111.619 242.381 112.744C240.973 111.627 237.945 110.245 233.252 113.237C225.721 118.028 224.462 119.785 221.849 118.595C221.849 118.595 223.102 122.67 228.117 120.417C228.523 120.237 228.912 120.057 229.279 119.893C227.2 121.751 225.145 123.973 223.152 126.567C214.312 138.068 203.01 130.367 201.199 126.953C198.27 121.435 188.034 123.663 188.034 123.663C195.012 131.239 182.481 134.121 174.203 138.651C165.765 143.268 165.307 153.087 171.336 154.745C171.336 154.745 173.806 154.997 176.349 154.476C172.967 163.076 184.656 160.134 184.656 160.134C176.166 159.604 183.09 150.182 183.09 150.182L181.396 151.175C182.499 149.166 184.513 149.952 186.586 149.844C188.5 149.742 190.553 148.609 190.553 148.609C184.961 147.119 184.43 143.433 186.996 139.202C189.555 134.978 195.15 133.492 197.298 134.845C203.029 138.442 200.777 144.791 200.777 144.791C204.359 145.664 211.464 143.691 219.061 138.126C221.306 140.077 216.939 144.429 214.741 146.084C212.221 147.985 212.827 145.767 212.827 145.767C211.354 149.917 208.637 150.847 208.637 150.847C229.12 145.721 229.322 133.922 228.548 129.321C229.731 127.95 230.901 126.49 232.043 124.917C243.177 109.601 256.28 116.633 256.28 116.633Z" fill="url(#paint10_linear_607_207)"/>
<path opacity="0.3" d="M84.2829 117.237C77.9262 127.325 73.3673 126.887 71.7119 130.987C71.4043 129.669 72.0581 127.739 74.2107 124.994C70.4623 126.438 67.1974 130.515 62.7203 137.115C58.2432 143.707 55.545 150.706 55.545 150.706C55.545 150.706 75.4753 131.301 69.6862 142.919C71.6679 141.668 75.1222 134.975 78.7942 138.175C80.1071 139.324 87.1467 137.535 90.58 134.783C96.7424 129.833 100.059 121.738 100.059 121.738C100.377 122.377 102.244 132.989 92.2337 139.233C97.5483 138.22 102.926 135.13 107.961 129.755C109.838 127.755 112.645 120.87 115.77 115.921C118.896 110.963 122.348 107.941 125.518 113.631C126.973 110.154 130.091 105.231 129.141 102.026C128.85 101.056 126.393 103.161 126.698 100.608C126.606 99.1111 127.279 96.8763 127.074 95.5426C124.747 96.4669 121.731 95.1895 122.219 92.2215C122.186 92.4472 123.193 92.6266 124.015 92.4728C122.492 89.8333 124.745 86.3681 124.745 86.3681C124.745 86.3681 121.438 87.6613 118.704 92.3897C116.278 96.5918 116.153 106.898 111.166 110.664C111.825 116.396 100.083 135.829 102.466 115.074C97.5741 117.971 96.3826 124.565 95.9244 125.733C94.9165 128.285 89.2869 127.093 89.0138 124.123C88.748 121.153 92.7287 121.156 94.2006 123.76C97.1229 120.044 97.5877 114.031 97.5877 114.031C97.5877 114.031 95.048 117.623 91.8642 118.552C89.2242 119.342 84.624 120.077 84.2829 117.237Z" fill="url(#paint11_linear_607_207)"/>
<path opacity="0.3" d="M303.785 127.797C312.574 136.479 315.728 133.951 315.728 133.951C315.728 133.951 309.905 129.632 304.761 117.865C299.617 106.099 293.689 107.26 293.689 107.26C286.506 102.838 276.936 111.347 265.5 115.306C260.384 117.429 247.257 116.455 242.392 119.808C226.247 130.932 233.215 147.533 213.519 152.007C201.864 154.652 190.839 171.009 191.26 170.78C215.508 157.525 212.62 168.414 217.872 172.279C220.454 174.181 232.727 146.055 248.647 133.011C265.079 119.554 285.038 121.322 278.681 133.432C287.681 140.923 299.254 151.282 313.689 155.503C351.034 166.409 369.862 137.206 369.862 137.206C359.35 145.146 319.721 167.148 303.785 127.797Z" fill="url(#paint12_linear_607_207)"/>
<path opacity="0.3" d="M269.39 126.233C258.531 124.46 251.23 132.662 251.23 132.662C264.807 125.89 271.528 140.685 280.715 139.649C289.901 138.613 305.722 129.923 320.165 140.041C328.557 145.922 332.92 129.654 342.078 114.44C351.235 99.226 369.995 106.78 369.995 106.78C369.995 106.78 336.621 88.1939 330.924 111.499C325.732 132.752 275.919 127.294 269.39 126.233Z" fill="url(#paint13_linear_607_207)"/>
<path opacity="0.3" d="M348.212 118.613C360.011 121.293 346.554 128.384 342.418 130.243C327.024 137.176 306.037 133.484 306.037 133.484C306.037 133.484 312.894 137.166 321.199 140.64C329.504 144.114 348.299 140.717 357.403 130.854C366.506 120.991 380.265 125.712 380.265 125.712C364.599 112.12 355.663 113.149 348.212 118.613Z" fill="url(#paint14_linear_607_207)"/>
<path opacity="0.3" d="M304.118 186.417C292.864 171.471 289.937 178.637 283.547 174.83C277.157 171.023 288.455 166.409 288.455 166.409C268.584 163.899 249.118 194.072 249.118 194.072C249.118 194.072 272.044 175.018 290.679 184.646C294.168 186.448 295.365 188.388 295.996 190.508C295.451 189.396 293.637 187.577 287.546 187.427C287.546 187.427 294.803 190.101 295.269 195.586C295.649 200.032 297.159 202.082 303.85 203.58C314.364 210.172 334.124 203.436 334.124 203.436C334.124 203.436 315.372 201.363 304.118 186.417Z" fill="url(#paint15_linear_607_207)"/>
<path opacity="0.3" d="M282.687 115.289C284.812 111.308 290.288 114.133 295.436 115.93C300.454 117.682 305.762 112.028 305.762 112.028C305.762 112.028 300.78 114.146 298.605 113.226C295.859 112.058 288.195 106.783 281.084 107.022C277.682 107.143 273.62 112.885 271.769 112.762C262.382 112.123 256.869 126.055 256.869 126.055C271.065 112.743 278.957 122.281 282.687 115.289Z" fill="url(#paint16_linear_607_207)"/>
<path opacity="0.3" d="M292.83 117.334C285.379 114.173 284.04 117.211 284.04 117.211C284.04 117.211 285.605 122.245 280.136 120.624C274.667 119.002 271.321 122.045 271.321 122.045C280.136 120.624 275.032 126.816 292.99 124.129C295.899 123.691 298.463 122.937 300.714 121.97C298.857 124.656 296.047 125.582 296.047 125.582C303.1 124.598 309.488 116.072 309.488 116.072C314.223 111.378 315.816 106.471 315.816 106.471C311.848 113.737 301.006 120.798 292.83 117.334Z" fill="url(#paint17_linear_607_207)"/>
<path opacity="0.3" d="M224.18 93.6258C219.393 99.7961 216.539 116.437 214.008 119.175C210.686 122.786 207.554 120.635 207.554 120.635C207.554 120.635 215.449 130.515 222.506 124.503C215.627 119.678 223.53 111.722 224.884 109.659C228.058 104.832 242.086 105.626 242.086 105.626C242.086 105.626 239.34 102.739 234.002 102.31C228.663 101.881 237.756 84.8897 237.756 84.8897C237.756 84.8897 227.985 88.7229 224.18 93.6258Z" fill="url(#paint18_linear_607_207)"/>
<path opacity="0.3" d="M288.668 142.852C284.752 144.216 275.116 140.809 270.025 138.124C264.942 135.438 261.043 141.38 261.043 141.38C261.043 141.38 268.476 139.926 275.938 142.896C279.032 144.128 277.016 146.729 277.016 146.729C282.322 147.121 288.668 142.852 288.668 142.852Z" fill="url(#paint19_linear_607_207)"/>
<defs>
<linearGradient id="paint0_linear_607_207" x1="115.604" y1="62.7701" x2="114.846" y2="116.841" gradientUnits="userSpaceOnUse">
<stop stop-color="#8C0000"/>
<stop offset="1" stop-color="#210707"/>
</linearGradient>
<linearGradient id="paint1_linear_607_207" x1="40.2979" y1="136.205" x2="39.8979" y2="164.771" gradientUnits="userSpaceOnUse">
<stop stop-color="#8C0000"/>
<stop offset="1" stop-color="#210707"/>
</linearGradient>
<linearGradient id="paint2_linear_607_207" x1="38.3217" y1="155.567" x2="38.1217" y2="169.85" gradientUnits="userSpaceOnUse">
<stop stop-color="#8C0000"/>
<stop offset="1" stop-color="#210707"/>
</linearGradient>
<linearGradient id="paint3_linear_607_207" x1="91.9483" y1="122.644" x2="91.3768" y2="163.452" gradientUnits="userSpaceOnUse">
<stop stop-color="#8C0000"/>
<stop offset="1" stop-color="#210707"/>
</linearGradient>
<linearGradient id="paint4_linear_607_207" x1="70.3889" y1="156.015" x2="70.2174" y2="168.257" gradientUnits="userSpaceOnUse">
<stop stop-color="#8C0000"/>
<stop offset="1" stop-color="#210707"/>
</linearGradient>
<linearGradient id="paint5_linear_607_207" x1="93.2659" y1="109.397" x2="90.9656" y2="273.652" gradientUnits="userSpaceOnUse">
<stop stop-color="#8C0000"/>
<stop offset="1" stop-color="#210707"/>
</linearGradient>
<linearGradient id="paint6_linear_607_207" x1="195.368" y1="21.0298" x2="192.482" y2="227.113" gradientUnits="userSpaceOnUse">
<stop stop-color="#8C0000"/>
<stop offset="1" stop-color="#210707"/>
</linearGradient>
<linearGradient id="paint7_linear_607_207" x1="240.508" y1="0.233478" x2="239.393" y2="79.8103" gradientUnits="userSpaceOnUse">
<stop stop-color="#8C0000"/>
<stop offset="1" stop-color="#210707"/>
</linearGradient>
<linearGradient id="paint8_linear_607_207" x1="48.321" y1="85.2973" x2="46.2493" y2="233.229" gradientUnits="userSpaceOnUse">
<stop stop-color="#8C0000"/>
<stop offset="1" stop-color="#210707"/>
</linearGradient>
<linearGradient id="paint9_linear_607_207" x1="66.7252" y1="76.3709" x2="66.368" y2="101.876" gradientUnits="userSpaceOnUse">
<stop stop-color="#8C0000"/>
<stop offset="1" stop-color="#210707"/>
</linearGradient>
<linearGradient id="paint10_linear_607_207" x1="212.133" y1="111.061" x2="211.433" y2="161.052" gradientUnits="userSpaceOnUse">
<stop stop-color="#8C0000"/>
<stop offset="1" stop-color="#210707"/>
</linearGradient>
<linearGradient id="paint11_linear_607_207" x1="93.1079" y1="85.9251" x2="92.1935" y2="151.219" gradientUnits="userSpaceOnUse">
<stop stop-color="#8C0000"/>
<stop offset="1" stop-color="#210707"/>
</linearGradient>
<linearGradient id="paint12_linear_607_207" x1="281.346" y1="105.908" x2="280.403" y2="173.243" gradientUnits="userSpaceOnUse">
<stop stop-color="#8C0000"/>
<stop offset="1" stop-color="#210707"/>
</linearGradient>
<linearGradient id="paint13_linear_607_207" x1="310.949" y1="99.26" x2="310.363" y2="141.089" gradientUnits="userSpaceOnUse">
<stop stop-color="#8C0000"/>
<stop offset="1" stop-color="#210707"/>
</linearGradient>
<linearGradient id="paint14_linear_607_207" x1="343.397" y1="114.614" x2="343.011" y2="142.16" gradientUnits="userSpaceOnUse">
<stop stop-color="#8C0000"/>
<stop offset="1" stop-color="#210707"/>
</linearGradient>
<linearGradient id="paint15_linear_607_207" x1="292.154" y1="166.344" x2="291.597" y2="206.132" gradientUnits="userSpaceOnUse">
<stop stop-color="#8C0000"/>
<stop offset="1" stop-color="#210707"/>
</linearGradient>
<linearGradient id="paint16_linear_607_207" x1="281.513" y1="107.012" x2="281.242" y2="126.396" gradientUnits="userSpaceOnUse">
<stop stop-color="#8C0000"/>
<stop offset="1" stop-color="#210707"/>
</linearGradient>
<linearGradient id="paint17_linear_607_207" x1="293.701" y1="106.161" x2="293.43" y2="125.546" gradientUnits="userSpaceOnUse">
<stop stop-color="#8C0000"/>
<stop offset="1" stop-color="#210707"/>
</linearGradient>
<linearGradient id="paint18_linear_607_207" x1="225.287" y1="84.7151" x2="224.701" y2="126.544" gradientUnits="userSpaceOnUse">
<stop stop-color="#8C0000"/>
<stop offset="1" stop-color="#210707"/>
</linearGradient>
<linearGradient id="paint19_linear_607_207" x1="274.931" y1="137.532" x2="274.802" y2="146.714" gradientUnits="userSpaceOnUse">
<stop stop-color="#8C0000"/>
<stop offset="1" stop-color="#210707"/>
</linearGradient>
</defs>
</svg>
