<svg width="334" height="318" viewBox="0 0 334 318" fill="none" xmlns="http://www.w3.org/2000/svg">
<path opacity="0.3" d="M303.119 212.349C291.865 193.689 288.938 202.636 282.548 197.883C276.158 193.13 287.456 187.369 287.456 187.369C267.585 184.235 248.119 221.906 248.119 221.906C248.119 221.906 271.045 198.118 289.68 210.138C293.169 212.388 294.366 214.811 294.997 217.457C294.452 216.069 292.638 213.798 286.547 213.61C286.547 213.61 293.804 216.949 294.27 223.798C294.65 229.347 296.16 231.907 302.851 233.777C313.365 242.007 333.125 233.597 333.125 233.597C333.125 233.597 314.373 231.01 303.119 212.349Z" fill="url(#paint0_linear_622_43)"/>
<path opacity="0.3" d="M281.687 123.546C283.812 118.575 289.288 122.102 294.436 124.346C299.454 126.533 304.762 119.474 304.762 119.474C304.762 119.474 299.78 122.119 297.605 120.97C294.859 119.512 287.195 112.926 280.084 113.224C276.682 113.375 272.62 120.544 270.769 120.39C261.382 119.593 255.869 136.986 255.869 136.986C270.065 120.366 277.957 132.275 281.687 123.546Z" fill="url(#paint1_linear_622_43)"/>
<path opacity="0.3" d="M287.669 157.958C283.753 159.66 274.117 155.407 269.026 152.054C263.943 148.702 260.044 156.12 260.044 156.12C260.044 156.12 267.477 154.305 274.938 158.012C278.033 159.551 276.017 162.798 276.017 162.798C281.323 163.287 287.669 157.958 287.669 157.958Z" fill="url(#paint2_linear_622_43)"/>
<path opacity="0.25" d="M126.361 114.796C125.153 120.909 132.007 120.768 132.007 120.768C137.461 118.675 134.386 115.685 134.386 115.685C134.612 116.081 133.562 119.292 132.218 117.071C130.874 114.85 136.603 113.205 139.076 109.849C141.548 106.494 143.228 101.06 143.679 94.3887C144.115 88.048 144.295 86.2726 147.007 81.2252C148.243 78.9169 152.982 73.7433 153.965 78.3261C160.868 72.6662 158.578 53.6242 158.578 53.6242C157.864 58.5035 153.9 68.0916 150.546 71.1142C146.405 74.8388 140.405 76.4078 137.078 83.9789C136.136 86.1363 142.099 83.7916 139.52 95.5392C140.689 101.696 131.18 109.055 132.008 108.313C132.826 107.57 132.869 102.443 130.495 100.363C127.058 97.3473 131.449 88.1477 131.449 88.1477C126.01 91.1717 124.319 100.327 126.44 103.737C128.571 107.147 127.569 108.694 126.361 114.796Z" fill="url(#paint3_linear_622_43)"/>
<path opacity="0.25" d="M56.5059 155.478C57.7086 157.244 59.084 157.128 59.8979 156.009C60.6535 154.976 61.3246 150.986 58.1602 145.203C58.1602 145.203 60.9764 152.595 57.4003 151.742C53.8241 150.89 52.6905 151.279 52.4953 152.803C52.2905 154.327 47.9374 155.231 49.4286 152.653C49.4286 152.653 50.8256 150.625 50.8978 148.52C50.9392 147.139 50.1514 145.485 48.9257 145.14C48.9257 145.14 50.81 148.673 46.0317 153.011C46.0317 153.011 36.1982 161.238 38.8983 173.44C38.8983 173.44 39.3254 165.814 43.2971 165.648C43.2971 165.648 41.5126 176.935 46.6241 179.491C46.6241 179.491 46.0499 177.521 48.4985 178.976C50.9471 180.431 54.8999 182.004 58.3886 179.503C58.3886 179.503 56.2449 180.265 54.4335 179.814C52.6223 179.353 51.8271 178.743 49.6629 176.104C47.5637 173.553 45.8862 169.529 47.3752 163.59C47.3752 163.59 48.5175 155.674 54.2739 156.432C54.2832 156.442 54.1836 152.083 56.5059 155.478Z" fill="url(#paint4_linear_622_43)"/>
<path opacity="0.25" d="M47.6439 186.853C50.6366 186.261 54.612 181.325 54.612 181.325C54.612 181.325 51.122 182.699 49.8083 181.112C48.4948 179.515 47.2009 179.63 47.2009 179.63C47.6437 181.026 46.354 181.464 46.354 181.464C39.8724 180.449 40.8634 169.166 40.8634 169.166C38.9767 174.187 39.5741 180.1 41.1179 183.892C42.287 186.777 44.9805 187.06 44.9805 187.06C42.589 183.979 47.6439 186.853 47.6439 186.853Z" fill="url(#paint5_linear_622_43)"/>
<path opacity="0.25" d="M145.563 128.606C145.563 128.606 137.372 148.954 115.61 150.112C113.938 150.202 112.227 150.3 110.486 150.409C118.401 145.803 119.512 140.208 119.512 140.208C114.902 147.107 100.027 149.502 100.027 149.502C100.027 149.502 96.3101 149.285 93.1022 152.984C88.0852 154.421 83.7455 156.626 80.8904 160.135C80.8904 160.135 84.9277 158.602 83.2891 161.984C81.6505 165.367 79.6307 169.492 82.5902 178.674C82.5902 178.674 82.0915 175.887 85.6954 171.732C89.3986 167.446 97.1938 161.853 111.285 158.042C111.304 158.042 120.83 157.736 124.957 157.261C129.093 156.797 133.818 151.232 133.818 151.232C133.818 151.232 125.901 155.941 127.144 153.63C142.592 146.392 145.09 130.179 145.563 128.606Z" fill="url(#paint6_linear_622_43)"/>
<path opacity="0.25" d="M89.0903 177.631C89.0903 177.631 86.5837 178.267 84.8948 179.561C79.6186 183.59 77.0475 173.444 78.2531 169.694C78.2531 169.694 74.4093 172.785 75.2824 179.425C78.8259 176.702 76.7547 185.414 78.4844 184.966C80.214 184.518 84.7238 181.362 87.3745 181.922C90.0361 182.481 98.2945 181.417 98.2945 181.417C98.2945 181.417 84.1951 180.359 89.0903 177.631Z" fill="url(#paint7_linear_622_43)"/>
<path opacity="0.25" d="M123.684 256.351C130.855 251.382 139.422 246.924 145.36 246.151C155.287 244.859 139.576 211.483 164.732 212.362C171.397 209.174 174.836 199.112 176.299 187.528C182.508 182.534 182.147 179.351 181.03 173.543C179.685 166.55 186.27 162.712 186.27 162.712C181.825 164.72 178.979 167.136 177.17 169.515C176.996 159.309 175.818 149.987 174.459 145.001C170.675 131.168 190.862 112.687 190.862 112.687C185.873 116.024 181.106 119.261 176.924 122.589C176.924 122.589 168.576 122.617 159.873 131.527C157.858 133.589 155.388 136.032 154.513 139.052C154.513 139.052 160.444 133.114 161.332 136.577C162.212 140.029 156.916 137.988 154.75 145.924C154.75 145.924 156.747 143.266 156.717 145.116C156.703 145.952 156.744 149.675 157.023 153.944C156.826 154.757 156.658 155.539 156.508 156.279C155.689 153.079 154.519 149.978 153.59 147.884C148.962 137.447 165.082 123.153 165.082 123.153C151.044 129.008 146.346 137.023 141.366 146.55C136.548 155.745 135.142 165.501 131.007 169.875C129.495 171.475 127.585 172.744 125.459 173.749C125.233 173.495 125.034 173.325 124.926 173.25C124.254 172.812 126.612 172.782 128.895 169.448C131.742 165.286 132.136 159.687 132.136 159.687C131.594 161.394 128.166 166.918 126.323 166.85C129.511 168.255 121.767 172.306 120.072 172.742C117.272 173.455 115.55 176.672 115.55 176.672C108.229 177.896 101.521 177.487 101.264 177.484C90.9296 177.316 98.7693 173.549 98.7693 173.549C96.4471 171.947 100.144 168.539 100.144 168.539C92.0144 169.835 88.0938 175.143 87.1954 180.191C93.2659 172.969 97.344 182.792 106.576 181.981C105.3 180.907 106.638 179.87 107.657 179.801C111.247 179.58 114.951 183.041 115.06 182.583C115.643 179.998 117.31 182.426 119.029 180.475C119.433 182.697 114.449 186.861 114.449 186.861C114.476 198.769 98.6525 203.292 98.6525 203.292C117.098 204.452 124.891 196.815 130.274 192.354C137.815 186.104 137.102 177.49 138.221 172.978C140.136 165.248 147.612 166.901 147.612 166.901C157.082 168.373 145.284 183.157 145.284 183.157C147.288 181.722 149.251 180.056 150.988 178.157C148.496 184.144 145.023 190.169 140.68 192.115C139.146 192.804 137.796 193.464 136.593 194.127C137.073 193.36 137.528 191.903 137.656 189.123C137.656 189.123 133.011 196.659 129.466 195.26C129.466 195.26 129.323 195.571 129.039 196.111C129.315 195.508 129.458 195.145 129.458 195.145C125.868 199.893 116.538 203.357 112.987 204.54C104.89 207.238 97.8987 206.773 96.7618 202.795C94.9825 196.58 97.5643 195.184 100.849 194.007C99.6159 193.687 97.5776 193.24 96.2713 193.472C93.7046 193.938 91.3221 195.483 89.5074 197.642C87.4926 198.011 81.3668 199.607 77.6485 205.451C73.1489 212.528 70.501 208.957 70.501 208.957C70.501 208.957 72.0759 213.642 76.6432 211.428C81.2106 209.213 85.3628 211.656 86.0798 221.714C86.0798 221.714 88.9282 215.774 86.8905 210.778C85.3999 207.119 84.9329 205.377 86.2056 204.956C86.1955 205.008 86.1947 205.06 86.1847 205.112C94.9211 221.222 84.501 225.727 84.501 225.727C88.0978 212.688 69.9909 213.247 66.913 214.123C64.3512 214.85 62.2791 217.048 60.4551 219.782C59.4978 219.424 58.5964 217.884 57.8813 213.347C56.3582 203.791 73.2618 202.765 73.2618 202.765L65.7839 201.206C61.3027 200.944 55.1616 202.352 52.3613 205.334C48.9077 209.007 49.4544 215.434 49.3075 216.571C49.0447 218.627 45.5553 219.425 45.5553 219.425C47.9143 219.322 46.6416 231.025 46.6416 231.025C51.1674 228.548 50.6546 232.441 49.7149 235.512C49.6135 235.541 49.5215 235.561 49.4202 235.581C41.2399 237.169 45.2514 220.623 44.9203 220.681C44.58 220.739 36.5525 230.411 37.3961 242.833C37.4333 243.367 37.5354 243.86 37.7116 244.302L37.5917 244.342C37.5917 244.342 35.3518 252.35 40.7754 258.397C40.7754 258.397 38.9655 251.241 42.1357 250.334C42.1357 250.334 40.7244 248.558 42.4263 247.129C45.1865 247.178 48.6574 245.826 51.6841 243.025C59.1901 236.085 63.6103 219.796 68.0317 222.043C67.3789 228.903 70.0553 234.106 73.708 237.932C73.708 237.932 66.8668 235.012 65.9255 230.284C65.9255 230.284 65.6198 244.571 83.2292 244.706C86.5688 246.353 89.1257 247.058 89.1257 247.058C89.1257 247.058 78.9062 237.535 81.819 230.456C79.0061 228.012 78.1896 222.375 83.3034 224.351C82.2267 226.259 87.28 227.439 85.3339 230.349C89.7567 229.691 92.9591 219.469 94.066 218.523C88.0237 213.293 95.2788 209.381 103.972 209.546C103.972 209.546 112.519 215.888 103.078 224.432C103.078 224.432 110.942 220.916 111.703 218.679C111.703 218.679 110.238 219.086 110.34 217.865C110.43 216.831 113.975 213.745 115.233 211.42C116.843 211.13 118.351 210.346 119.753 209.268C121.682 209.149 123.865 208.594 125.788 207.053C125.788 207.053 122.89 204.806 127.574 202.698C128.009 202.505 128.425 202.281 128.824 202.036C127.525 204.6 126.426 207.909 125.169 212.429C133.122 205.077 134.793 221.881 133.493 227.404C131.138 237.386 118.756 246.317 112.708 251.072C103.397 258.395 105.637 250.418 105.637 250.418C100.296 255.1 105.356 259.217 96.6814 263.569C82.624 270.637 75.4743 260.174 75.4743 260.174C76.0554 262.232 77.2613 264.789 78.9251 267.395C78.9251 267.395 66.1706 261.464 67.388 253.724C67.388 253.724 63.7302 258.105 67.1896 264.793C67.1896 264.793 69.5172 268.318 70.4294 272.011C71.3327 275.694 71.2669 276.916 76.6446 277.327C76.6446 277.327 71.7077 274.068 74.6615 271.799C77.6245 269.531 78.26 277.266 81.0637 277.463C81.0637 277.463 81.4012 275.324 85.1397 275.001C85.9888 275.807 86.8755 276.562 87.7817 277.244L87.7446 277.265C87.7446 277.265 92.208 284.26 85.5099 288.901C85.5099 288.901 88.4142 289.109 90.3258 286.627C92.1905 284.207 95.3668 286.312 94.877 287.664C94.0125 290.056 90.6231 292.037 90.4807 294.586C90.1692 300.206 92.2189 303.33 90.0958 301.899C91.4723 306.937 90.0141 309.175 87.123 311.538C85.8681 312.556 84.6987 313.961 82.2326 313.874C82.2326 313.874 83.3538 314.308 84.6953 314.17L84.5927 314.273C84.5927 314.273 82.6536 315.626 80.6903 315.086C80.7495 315.954 82.4636 316.595 83.8201 316.092C82.9955 315.474 86.8169 313.437 88.9652 313.885C89.9983 314.099 91.3144 314.389 92.3471 314.059C93.4627 313.709 94.2679 312.706 94.7181 312.095C94.7181 312.095 93.2265 313.005 92.3426 313.212C91.2653 313.458 90.8618 312.888 92.3803 311.456C95.893 309.791 99.4721 307.427 101.386 304.223C101.386 304.223 89.7358 305.982 99.1461 293.632C103.354 288.108 112.76 287.907 109.851 295.864C109.851 295.864 116.805 292.993 117.278 287.019C117.752 281.004 108.249 278.736 114.868 273.352C121.533 267.936 125.754 268.383 128.744 261.65C128.716 261.65 115.35 267.932 123.684 256.351Z" fill="url(#paint8_linear_622_43)"/>
<path opacity="0.25" d="M287.268 184.586C264.117 221.168 239.742 229.148 247.376 215.419C208.03 227.45 174.167 201.391 207.271 183.876C205.906 187.253 205.356 191.571 204.203 193.216C201.775 196.651 201.622 191.349 201.622 191.349C197.096 204.593 213.492 205.46 213.492 205.46C201.286 197.237 208.676 188.889 213.88 185.006C219.102 181.113 217.756 192.361 226.568 188.518C235.417 184.656 230.58 168.254 230.58 168.254C230.906 174.902 226.931 187.773 216.684 181.111C216.2 180.797 215.743 180.526 215.304 180.308C216.529 179.85 217.81 179.402 219.156 178.956C184.549 168.575 187.253 149.846 225.37 133.957C222.467 125.718 226.848 117.401 234.206 113.274C252.414 123.571 267.204 119.306 265.068 104.265C259.762 130.848 226.741 95.5972 223.093 94.0645C216.346 91.2396 207.946 103.233 207.946 103.233C207.946 103.233 217.341 97.6009 219.199 104.778C220.337 109.174 218.422 116.838 213.349 126.266C203.965 143.746 183.628 135.545 195.027 118.421C206.636 100.972 191.942 90.7987 228.843 78.1297C228.843 78.1297 227.053 76.983 223.649 76.3C238.582 70.6298 247.743 43.0538 253.423 51.8935C268.135 42.7609 268.14 15.2456 268.14 15.2456C267.916 15.3799 257.892 40.4471 237.022 43.452C233.793 43.9141 230.735 44.643 227.832 45.5222C229.099 40.2931 230.168 34.1197 232.607 26.0509C238 8.22807 271.966 3.01785 271.966 3.01785C258.315 0.772197 246.774 0.513489 234.395 5.78619C222.898 10.6906 217.615 25.1298 216.746 32.0042C215.453 42.3213 203.604 60.9414 203.709 51.6653C202.26 52.7978 200.503 54.73 198.587 56.7551C196.76 56.1474 196.832 53.4086 197.174 52.2815C188.282 53.097 184.191 61.1636 181.845 60.7495C176.949 59.8973 171.62 72.0297 167.751 73.2549C163.883 74.4801 162.601 73.8802 162.879 72.0646C163.918 65.5099 166.537 70.72 168.862 67.9601C171.186 65.2003 174.584 60.0013 172.196 51.9171C171.276 59.1399 166.316 63.3117 162.964 64.6077C161.013 65.3629 160.089 66.577 159.884 62.131C156.911 65.0615 156.53 70.9273 156.53 70.9273C158.773 76.0051 153.521 74.8729 151.695 88.4513C153.749 92.659 151.483 92.3519 150.043 91.2418C150.976 95.1692 155.206 93.2826 155.206 93.2826C158.175 89.474 156.331 101.836 156.331 101.836C158.731 99.5952 162.783 95.6009 162.491 92.5078C169.923 89.5664 164.005 106.673 164.005 106.673C170.056 104.072 172.874 98.2193 174.19 94.4507C174.19 94.4507 173.784 106.399 161.48 113.26C161.48 113.26 166.707 112.498 169.173 110.692C171.639 108.886 172.907 104.652 176.959 105.196C177.383 105.255 177.827 105.219 178.271 105.119C174.733 109.29 170.033 113.444 163.883 116.467C163.883 116.467 168.485 117.834 176.929 112.759C185.419 107.664 191.539 102.493 191.109 106.856C190.799 110.015 172.713 124.008 173.898 133.387C181.416 123.433 182.64 131.035 184.277 134.793C185.113 136.719 184.929 141.202 181.704 144.298C177.485 148.354 172.853 155.08 173.909 164.489C173.909 164.489 177.836 156.303 182.178 153.752C185.784 151.634 189.928 154.497 189.671 159.486C189.36 165.554 174.828 175.525 173.057 194.785C185.09 184.08 182.307 191.753 176.366 201.814C180.932 203.687 178.029 209.137 173.58 213.104C172.231 212.609 170.602 213.474 169.368 213.319C167.332 213.079 169.054 211.083 169.054 211.083C170.726 209.298 172.181 210.63 172.181 210.63C174.238 206.11 170.519 201.011 170.519 201.011C170.386 209.197 160.837 215.198 160.837 215.198C155.027 210.429 147.271 218.55 146.73 224.593C152.859 221.718 148.159 235.499 151.033 241.464C151.033 241.464 156.223 224.251 164.679 230.919C166.256 232.158 170.28 233.844 176.255 235.315L176.2 235.325C176.2 235.325 181.905 238.071 182.655 245.297C183.063 249.174 191.033 248.272 183.598 252.017C184.386 255.731 192.433 259.209 198.062 257.554C189.941 253.546 195.871 249.853 197.289 249.492C199.652 248.891 205.267 253.784 211.849 254.808C217.179 255.635 225.255 253.348 229.101 252.947C229.101 252.947 199.203 243.045 213.981 241.742C225.433 240.73 231.567 246.603 241.77 246.303C244.78 246.219 248.16 244.405 252.111 243.202C252.111 243.202 236.6 243.575 252.354 239.048C264.862 236.062 268.572 230.995 268.572 230.995C268.572 230.995 265.859 232.681 261.574 233.392C258.723 233.87 255.169 233.926 251.054 233.878C261.425 232.332 271.21 227.097 287.009 199.975C304.022 170.764 329.182 169.597 329.182 169.597C329.182 169.597 305.579 155.659 287.268 184.586ZM182.139 99.9902C179.654 100.685 177.113 100.85 178.108 98.1136C179.036 95.5561 180.219 93.1503 180.819 91.4662C182.788 91.8326 184.791 92.4217 186.067 92.81C185.177 94.7756 183.899 97.2753 182.139 99.9902ZM187.657 88.7174C187.657 88.7174 187.363 89.7182 186.681 91.3694C185.379 88.5794 182.661 84.3199 180.526 85.1148C174.964 87.1835 170.928 89.6229 171.739 85.1279C173.119 77.4567 180.65 75.1937 184.305 74.6002C187.96 74.0067 190.39 80.6422 196.74 77.823C199.064 76.7875 236.109 59.2861 221.642 75.9966C214.752 75.2008 203.127 76.6546 187.657 88.7174Z" fill="url(#paint9_linear_622_43)"/>
<path opacity="0.25" d="M28.8822 261.056C31.7345 262.537 33.2325 262.285 33.2325 262.285C33.2325 262.285 24.8372 255.89 28.0915 247.486C30.1796 251.457 31.9542 254.162 32.0511 254.479C32.0511 254.479 29.9669 238.294 32.8179 226.73C33.5521 230.083 35.188 232.187 35.188 232.187C33.1279 225.925 40.6559 216.046 41.4721 215.49L40.8853 215.629C41.081 215.579 41.2767 215.529 41.4723 215.479L41.5376 215.459C44.0511 214.948 43.1913 210.763 46.3544 205.689C51.3087 197.728 62.7155 192.96 73.6014 202.532C74.0222 202.906 75.4037 203.536 75.7323 203.298C73.6761 201.367 76.6373 199.002 78.6021 199.145C85.7849 193.371 102.157 185.089 100.41 194.419C108.91 190.934 114.301 182.36 114.654 182.302C114.654 182.302 113.923 182.197 112.654 182.063C112.654 182.063 112.66 181.685 111.529 181.049C110.398 180.413 107.108 179.651 106.084 179.836C106.084 179.836 110.161 181.292 108.262 181.686C101.107 181.195 89.5578 181.032 82.2322 184.176C70.9916 188.999 80.1096 157.227 86.2909 151.985C79.4139 155.504 73.0712 158.115 70.6372 164.009C70.0092 165.535 68.1988 172.446 63.714 174.359C62.7235 174.786 59.0395 176.521 60.6278 172.423C60.6079 172.507 58.0463 173.69 57.8625 178.144C61.8613 181.018 57.8424 184.514 51.1485 187.614C46.8105 189.624 42.5818 190.047 40.3379 184.823C35.1169 172.661 37.6877 157.225 46.7807 149.239C46.7807 149.239 36.1007 153.818 30.1376 162.762C31.8817 158.215 34.9956 153.308 37.1802 151.342C41.1539 147.772 41.2325 130.387 47.5896 129.742C52.5154 129.244 44.3592 142.951 44.3592 142.951C49.3877 141.845 56.7135 130.701 58.9769 105.065C60.6485 86.1474 74.857 81.976 74.857 81.976C68.7887 80.8389 63.775 83.3221 59.6703 87.5315C52.9801 94.3952 44.3641 111.27 46.7518 95.1058C33.7449 113.253 40.6718 124.924 36.974 134.353C29.9175 152.332 27.101 154.353 23.6414 158.834C20.1819 163.315 24.4399 168.505 24.4399 168.505L26.924 169.802C26.0935 172.943 25.9533 176.431 26.8373 180.269C30.5916 196.457 29.7467 203.908 26.94 209.892C24.7257 210.26 19.6537 208.338 21.8745 205.289C24.2375 202.054 25.1621 200.543 26.0055 203.456C29.3038 198.625 26.7128 191.347 26.7128 191.347C26.6929 196.56 26.1532 198.371 23.3703 199.466C20.5874 200.562 19.6496 206.309 18.5529 207.565C18.0707 208.116 16.1874 208.099 15.5522 206.65C14.7919 204.905 16.7921 202.295 18.2933 203.557C18.4278 201.562 20.8723 198.453 20.8723 198.453C20.2391 198.592 19.661 198.762 19.1288 198.965C20.0587 192.566 24.7236 194.419 24.7236 194.419C26.9733 186.736 23.5939 181.727 19.6661 177.34C15.7383 172.954 20.5129 165.779 20.5129 165.779C14.5704 169.458 14.1604 175.843 16.0901 182.703C18.0199 189.563 19.476 186.745 14.0498 196.906C9.58057 205.273 9.79117 213.433 9.9989 216.063C9.9989 216.063 7.83499 215.045 5.78447 212.188C2.44837 203.942 8.32689 191.076 8.32689 191.076C4.19269 197.671 2.99537 202.258 2.68533 204.776C2.43648 203.532 2.26373 202.174 2.20468 200.67C2.20468 200.67 -2.24881 218.339 5.16364 224.688C6.00866 214.378 15.371 232.054 15.371 232.054L16.7672 231.779C17.3087 233.857 15.7921 235.255 15.8526 237.81C15.8526 237.81 15.4954 238.667 15.3953 239.685C14.8269 239.835 14.2957 239.974 13.8031 240.03C9.89837 240.501 8.59341 233.45 8.59341 233.45C8.60445 246.463 14.8504 244.092 18.779 248.426C19.2986 249.001 19.6889 249.532 19.9963 250.03C20.1092 251.072 20.3426 252.127 20.7524 253.173C20.5364 254.474 19.6714 255.176 19.6714 255.176C19.6714 255.176 17.5714 257.07 15.5766 254.214C15.8128 254.522 16.099 258.605 20.5192 261.81C23.6005 264.04 29.6969 265.735 34.9366 265.904C34.9173 265.945 30.22 263.808 28.8822 261.056ZM13.8077 221.489C13.8077 221.489 13.8095 221.951 13.8626 222.677L10.2695 216.54L12.4279 211.052C12.4046 216.476 15.4128 218.074 16.5462 219.698C17.1989 220.643 18.8152 223.956 20.5455 227.67C19.1282 226.956 15.2207 224.746 13.8077 221.489Z" fill="url(#paint10_linear_622_43)"/>
<path opacity="0.25" d="M68.611 86.8713C61.5166 88.8788 57.2741 101.874 57.2741 101.874C61.9767 93.1212 65.8675 93.4746 70.301 92.394C74.7345 91.3133 80.1458 89.272 85.2464 80.3057C90.3469 71.3395 106.82 77.1013 106.82 77.1013C90.2537 65.2429 77.9589 72.8941 77.9589 72.8941C80.9013 73.5821 75.7149 84.864 68.611 86.8713Z" fill="url(#paint11_linear_622_43)"/>
<path opacity="0.25" d="M316.324 120.648C312.032 116.145 305.935 114.387 299.168 115.792C297.43 114.397 293.693 112.673 287.9 116.408C278.604 122.389 277.051 124.583 273.825 123.097C273.825 123.097 275.372 128.185 281.563 125.372C282.063 125.148 282.544 124.923 282.997 124.718C280.43 127.038 277.894 129.812 275.434 133.05C264.522 147.409 250.572 137.794 248.338 133.533C244.722 126.643 232.088 129.425 232.088 129.425C240.701 138.883 225.234 142.481 215.017 148.138C204.601 153.902 204.037 166.161 211.478 168.23C211.478 168.23 214.526 168.546 217.665 167.895C213.491 178.633 227.919 174.959 227.919 174.959C217.439 174.297 225.985 162.534 225.985 162.534L223.895 163.774C225.257 161.265 227.742 162.247 230.301 162.112C232.663 161.984 235.197 160.57 235.197 160.57C228.296 158.709 227.64 154.108 230.807 148.825C233.965 143.552 240.871 141.696 243.522 143.385C250.596 147.876 247.816 155.803 247.816 155.803C252.238 156.893 261.008 154.429 270.384 147.482C273.155 149.918 267.765 155.351 265.053 157.417C261.942 159.79 262.689 157.021 262.689 157.021C260.872 162.202 257.519 163.364 257.519 163.364C282.8 156.964 283.049 142.233 282.094 136.489C283.555 134.777 284.998 132.954 286.407 130.99C300.15 111.868 316.324 120.648 316.324 120.648Z" fill="url(#paint12_linear_622_43)"/>
<path opacity="0.25" d="M104.029 121.401C96.1829 133.996 90.5558 133.45 88.5127 138.568C88.133 136.923 88.9399 134.513 91.5968 131.086C86.9702 132.888 82.9405 137.979 77.4143 146.219C71.8884 154.449 68.558 163.187 68.558 163.187C68.558 163.187 93.1578 138.96 86.0124 153.465C88.4583 151.903 92.7219 143.547 97.2542 147.543C98.8747 148.978 107.564 146.744 111.801 143.307C119.407 137.127 123.501 127.02 123.501 127.02C123.894 127.819 126.199 141.068 113.843 148.864C120.402 147.599 127.04 143.74 133.255 137.03C135.572 134.532 139.035 125.937 142.893 119.758C146.751 113.568 151.012 109.795 154.925 116.899C156.721 112.558 160.569 106.412 159.397 102.41C159.037 101.199 156.005 103.828 156.382 100.64C156.268 98.7709 157.099 95.9808 156.846 94.3157C153.973 95.4696 150.251 93.8747 150.853 90.1692C150.812 90.451 152.055 90.6749 153.07 90.4829C151.19 87.1875 153.97 82.8612 153.97 82.8612C153.97 82.8612 149.889 84.4758 146.514 90.3792C143.52 95.6256 143.365 108.492 137.21 113.194C138.024 120.352 123.531 144.614 126.472 118.7C120.434 122.318 118.963 130.551 118.398 132.009C117.154 135.195 110.205 133.706 109.868 129.998C109.54 126.29 114.453 126.295 116.27 129.546C119.877 124.905 120.451 117.399 120.451 117.399C120.451 117.399 117.316 121.883 113.386 123.043C110.128 124.029 104.45 124.948 104.029 121.401Z" fill="url(#paint13_linear_622_43)"/>
<path opacity="0.3" d="M276.703 91.9226C270.794 99.6263 267.271 120.403 264.147 123.821C260.047 128.33 256.181 125.644 256.181 125.644C256.181 125.644 265.926 137.979 274.637 130.473C266.146 124.449 275.901 114.516 277.572 111.94C281.489 105.913 298.803 106.905 298.803 106.905C298.803 106.905 295.414 103.301 288.825 102.765C282.236 102.23 293.46 81.0155 293.46 81.0155C293.46 81.0155 281.4 85.8012 276.703 91.9226Z" fill="url(#paint14_linear_622_43)"/>
<defs>
<linearGradient id="paint0_linear_622_43" x1="291.155" y1="187.288" x2="290.287" y2="236.959" gradientUnits="userSpaceOnUse">
<stop stop-color="#8C0000"/>
<stop offset="1" stop-color="#210707"/>
</linearGradient>
<linearGradient id="paint1_linear_622_43" x1="280.513" y1="113.211" x2="280.09" y2="137.41" gradientUnits="userSpaceOnUse">
<stop stop-color="#8C0000"/>
<stop offset="1" stop-color="#210707"/>
</linearGradient>
<linearGradient id="paint2_linear_622_43" x1="273.932" y1="151.316" x2="273.731" y2="162.779" gradientUnits="userSpaceOnUse">
<stop stop-color="#8C0000"/>
<stop offset="1" stop-color="#210707"/>
</linearGradient>
<linearGradient id="paint3_linear_622_43" x1="142.688" y1="53.3991" x2="141.732" y2="120.907" gradientUnits="userSpaceOnUse">
<stop stop-color="#DF0101"/>
<stop offset="1" stop-color="#770404"/>
</linearGradient>
<linearGradient id="paint4_linear_622_43" x1="49.7395" y1="145.083" x2="49.2343" y2="180.748" gradientUnits="userSpaceOnUse">
<stop stop-color="#DF0101"/>
<stop offset="1" stop-color="#770404"/>
</linearGradient>
<linearGradient id="paint5_linear_622_43" x1="47.3002" y1="169.257" x2="47.0476" y2="187.089" gradientUnits="userSpaceOnUse">
<stop stop-color="#DF0101"/>
<stop offset="1" stop-color="#770404"/>
</linearGradient>
<linearGradient id="paint6_linear_622_43" x1="113.49" y1="128.152" x2="112.769" y2="179.101" gradientUnits="userSpaceOnUse">
<stop stop-color="#DF0101"/>
<stop offset="1" stop-color="#770404"/>
</linearGradient>
<linearGradient id="paint7_linear_622_43" x1="86.8799" y1="169.816" x2="86.6634" y2="185.101" gradientUnits="userSpaceOnUse">
<stop stop-color="#DF0101"/>
<stop offset="1" stop-color="#770404"/>
</linearGradient>
<linearGradient id="paint8_linear_622_43" x1="115.117" y1="111.614" x2="112.212" y2="316.686" gradientUnits="userSpaceOnUse">
<stop stop-color="#DF0101"/>
<stop offset="1" stop-color="#770404"/>
</linearGradient>
<linearGradient id="paint9_linear_622_43" x1="241.141" y1="1.28567" x2="237.496" y2="258.582" gradientUnits="userSpaceOnUse">
<stop stop-color="#DF0101"/>
<stop offset="1" stop-color="#770404"/>
</linearGradient>
<linearGradient id="paint10_linear_622_43" x1="59.6422" y1="81.5244" x2="57.0259" y2="266.217" gradientUnits="userSpaceOnUse">
<stop stop-color="#DF0101"/>
<stop offset="1" stop-color="#770404"/>
</linearGradient>
<linearGradient id="paint11_linear_622_43" x1="82.358" y1="70.3797" x2="81.9069" y2="102.223" gradientUnits="userSpaceOnUse">
<stop stop-color="#DF0101"/>
<stop offset="1" stop-color="#770404"/>
</linearGradient>
<linearGradient id="paint12_linear_622_43" x1="261.833" y1="113.692" x2="260.949" y2="176.105" gradientUnits="userSpaceOnUse">
<stop stop-color="#DF0101"/>
<stop offset="1" stop-color="#770404"/>
</linearGradient>
<linearGradient id="paint13_linear_622_43" x1="114.921" y1="82.308" x2="113.767" y2="163.828" gradientUnits="userSpaceOnUse">
<stop stop-color="#DF0101"/>
<stop offset="1" stop-color="#770404"/>
</linearGradient>
<linearGradient id="paint14_linear_622_43" x1="278.069" y1="80.7975" x2="277.329" y2="133.021" gradientUnits="userSpaceOnUse">
<stop stop-color="#8C0000"/>
<stop offset="1" stop-color="#210707"/>
</linearGradient>
</defs>
</svg>
