<svg width="31" height="33" viewBox="0 0 31 33" fill="none" xmlns="http://www.w3.org/2000/svg">
<g clip-path="url(#clip0_1307_41)">
<path d="M13.639 31.02C13.639 31.5451 13.4431 32.0487 13.0943 32.4201C12.7455 32.7914 12.2724 33 11.7791 33H3.09978C2.27766 33 1.48922 32.6523 0.907903 32.0335C0.326583 31.4146 0 30.5752 0 29.7V3.3C0 2.42479 0.326583 1.58542 0.907903 0.966548C1.48922 0.347678 2.27766 0 3.09978 0H11.7791C12.2724 0 12.7455 0.208607 13.0943 0.579929C13.4431 0.951251 13.639 1.45487 13.639 1.98C13.639 2.50513 13.4431 3.00875 13.0943 3.38007C12.7455 3.75139 12.2724 3.96 11.7791 3.96H3.71973V29.04H11.7791C12.2724 29.04 12.7455 29.2486 13.0943 29.6199C13.4431 29.9913 13.639 30.4949 13.639 31.02ZM30.4537 15.0992L24.2542 8.49915C23.9048 8.12718 23.4309 7.91822 22.9368 7.91822C22.4427 7.91822 21.9688 8.12718 21.6194 8.49915C21.27 8.87112 21.0737 9.37561 21.0737 9.90165C21.0737 10.4277 21.27 10.9322 21.6194 11.3042L24.6432 14.52H11.7791C11.2859 14.52 10.8128 14.7286 10.464 15.0999C10.1152 15.4713 9.91928 15.9749 9.91928 16.5C9.91928 17.0251 10.1152 17.5287 10.464 17.9001C10.8128 18.2714 11.2859 18.48 11.7791 18.48H24.6432L21.6178 21.6992C21.2684 22.0711 21.0721 22.5756 21.0721 23.1017C21.0721 23.6277 21.2684 24.1322 21.6178 24.5042C21.9672 24.8761 22.4411 25.0851 22.9352 25.0851C23.4294 25.0851 23.9032 24.8761 24.2526 24.5042L30.4522 17.9042C30.6257 17.7203 30.7634 17.5018 30.8574 17.2612C30.9514 17.0206 30.9999 16.7626 31 16.502C31.0001 16.2414 30.952 15.9833 30.8582 15.7426C30.7645 15.5019 30.627 15.2832 30.4537 15.0992Z" fill="#F7F7F7"/>
</g>
<defs>
<clipPath id="clip0_1307_41">
<rect width="31" height="33" fill="white"/>
</clipPath>
</defs>
</svg>
