<svg width="33" height="34" viewBox="0 0 33 34" fill="none" xmlns="http://www.w3.org/2000/svg">
<path d="M22.9453 4.25C20.2834 4.25 17.9528 5.42937 16.5 7.42289C15.0472 5.42937 12.7166 4.25 10.0547 4.25C7.93576 4.25246 5.9043 5.1208 4.406 6.66451C2.90769 8.20822 2.06489 10.3012 2.0625 12.4844C2.0625 21.7812 15.4417 29.3064 16.0114 29.6172C16.1616 29.7004 16.3295 29.744 16.5 29.744C16.6705 29.744 16.8384 29.7004 16.9886 29.6172C17.5583 29.3064 30.9375 21.7812 30.9375 12.4844C30.9351 10.3012 30.0923 8.20822 28.594 6.66451C27.0957 5.1208 25.0642 4.25246 22.9453 4.25ZM16.5 27.4656C14.1462 26.0525 4.125 19.6151 4.125 12.4844C4.12705 10.8647 4.75244 9.312 5.86403 8.16672C6.97561 7.02145 8.48267 6.37711 10.0547 6.375C12.5619 6.375 14.667 7.75094 15.5461 9.96094C15.6238 10.1558 15.756 10.3225 15.9258 10.4398C16.0957 10.5571 16.2955 10.6197 16.5 10.6197C16.7045 10.6197 16.9043 10.5571 17.0742 10.4398C17.244 10.3225 17.3762 10.1558 17.4539 9.96094C18.333 7.74695 20.4381 6.375 22.9453 6.375C24.5173 6.37711 26.0244 7.02145 27.136 8.16672C28.2476 9.312 28.873 10.8647 28.875 12.4844C28.875 19.6045 18.8512 26.0512 16.5 27.4656Z" fill="white"/>
</svg>
