<svg width="64" height="64" viewBox="0 0 64 64" fill="none" xmlns="http://www.w3.org/2000/svg">
<path d="M57.7324 55C57.5568 55.3041 57.3043 55.5566 57.0002 55.7321C56.696 55.9077 56.3511 56 55.9999 56H7.9999C7.649 55.9996 7.30437 55.9069 7.00062 55.7312C6.69687 55.5556 6.44468 55.3031 6.26939 54.9991C6.0941 54.6951 6.00186 54.3503 6.00195 53.9995C6.00204 53.6486 6.09445 53.3039 6.2699 53C10.0774 46.4175 15.9449 41.6975 22.7924 39.46C19.4053 37.4436 16.7738 34.3712 15.3019 30.7145C13.83 27.0577 13.5991 23.019 14.6448 19.2184C15.6904 15.4177 17.9547 12.0654 21.09 9.67628C24.2252 7.2871 28.0581 5.99316 31.9999 5.99316C35.9417 5.99316 39.7746 7.2871 42.9098 9.67628C46.0451 12.0654 48.3094 15.4177 49.3551 19.2184C50.4007 23.019 50.1698 27.0577 48.6979 30.7145C47.226 34.3712 44.5945 37.4436 41.2074 39.46C48.0549 41.6975 53.9224 46.4175 57.7299 53C57.9058 53.3038 57.9987 53.6486 57.9991 53.9996C57.9995 54.3507 57.9076 54.6957 57.7324 55Z" fill="white"/>
</svg>
