<svg width="51" height="49" viewBox="0 0 51 49" fill="none" xmlns="http://www.w3.org/2000/svg">
<path d="M46.938 25.0021C46.9478 24.665 46.9478 24.3279 46.938 23.9908L50.5733 19.6272C50.764 19.3981 50.8959 19.1292 50.9585 18.8421C51.0212 18.555 51.0127 18.2578 50.9339 17.9745C50.3369 15.8225 49.4455 13.7561 48.283 11.8293C48.1306 11.5772 47.9191 11.3628 47.6653 11.2031C47.4115 11.0434 47.1224 10.9428 46.8211 10.9093L41.0415 10.2913C40.8011 10.0478 40.5575 9.81373 40.3106 9.58899L39.6283 4.02209C39.5933 3.73231 39.4882 3.4544 39.3215 3.21054C39.1548 2.96668 38.9312 2.7636 38.6683 2.61749C36.6631 1.50142 34.5122 0.646483 32.2724 0.0751653C31.9775 -0.000542336 31.6681 -0.00863238 31.3693 0.0515471C31.0706 0.111727 30.7907 0.238493 30.5522 0.421633L26.0226 3.89568C25.6718 3.89568 25.3209 3.89568 24.97 3.89568L20.4283 0.409928C20.1899 0.226788 19.91 0.100022 19.6112 0.0398423C19.3124 -0.0203372 19.0031 -0.0122476 18.7081 0.06346C16.4683 0.637069 14.3176 1.49354 12.3122 2.61047C12.0498 2.75684 11.8266 2.96004 11.6604 3.20389C11.4941 3.44773 11.3894 3.7255 11.3546 4.01507L10.7113 9.57729C10.4579 9.80983 10.2143 10.0439 9.98038 10.2796L4.18626 10.9187C3.88465 10.9524 3.5954 11.0533 3.34158 11.2135C3.08776 11.3736 2.8764 11.5885 2.72433 11.841C1.56294 13.7681 0.672348 15.8344 0.0757966 17.9862C-0.00266786 18.2697 -0.0106932 18.567 0.0523675 18.8541C0.115428 19.1412 0.24781 19.41 0.438843 19.6389L4.05469 23.9908C4.05469 24.3279 4.05469 24.665 4.05469 25.0021L0.42666 29.3658C0.236045 29.5949 0.104104 29.8638 0.0414685 30.1509C-0.0211673 30.4379 -0.0127475 30.7351 0.0660502 31.0185C0.663072 33.1705 1.5545 35.2369 2.71702 37.1636C2.86937 37.4157 3.08086 37.6302 3.33466 37.7899C3.58846 37.9496 3.87756 38.0502 4.17895 38.0837L9.95845 38.7017C10.2005 38.9451 10.4441 39.1792 10.6894 39.404L11.3643 44.9709C11.3994 45.2607 11.5045 45.5386 11.6712 45.7824C11.8378 46.0263 12.0615 46.2294 12.3243 46.3755C14.33 47.4913 16.4807 48.347 18.7203 48.9202C19.0154 48.9955 19.3249 49.0033 19.6237 48.9427C19.9224 48.8821 20.2023 48.7549 20.4405 48.5713L24.97 45.0973C25.3209 45.1067 25.6718 45.1067 26.0226 45.0973L30.5644 48.5901C30.8028 48.7732 31.0827 48.9 31.3815 48.9602C31.6803 49.0203 31.9896 49.0122 32.2846 48.9365C34.5247 48.364 36.6756 47.5074 38.6805 46.3895C38.9429 46.2432 39.1661 46.04 39.3323 45.7961C39.4986 45.5523 39.6033 45.2745 39.6381 44.9849L40.2813 39.4321C40.5347 39.2011 40.7784 38.967 41.0123 38.7298L46.8064 38.0743C47.108 38.0406 47.3973 37.9396 47.6511 37.7795C47.9049 37.6194 48.1163 37.4045 48.2684 37.1519C49.4298 35.2249 50.3203 33.1586 50.9169 31.0068C50.9954 30.7233 51.0034 30.426 50.9403 30.1389C50.8773 29.8518 50.7449 29.583 50.5538 29.3541L46.938 25.0021ZM25.4963 33.8605C23.5687 33.8605 21.6844 33.3113 20.0816 32.2824C18.4789 31.2534 17.2297 29.791 16.492 28.0799C15.7544 26.3689 15.5613 24.4861 15.9374 22.6697C16.3135 20.8532 17.2417 19.1847 18.6047 17.8751C19.9678 16.5656 21.7044 15.6737 23.595 15.3124C25.4855 14.9511 27.4452 15.1365 29.2261 15.8453C31.0069 16.554 32.5291 17.7542 33.6 19.2941C34.671 20.834 35.2426 22.6445 35.2426 24.4965C35.2426 26.98 34.2157 29.3617 32.388 31.1178C30.5602 32.8739 28.0812 33.8605 25.4963 33.8605Z" fill="#FAF9F9"/>
</svg>
