<svg width="736" height="40" viewBox="0 0 736 40" fill="none" xmlns="http://www.w3.org/2000/svg">
<rect width="736" height="40" rx="20" fill="#EDEDED"/>
<g clip-path="url(#clip0_742_78)">
<path d="M23.7695 22.3665C23.005 23.8718 21.7345 24.7357 20.2834 24.7357C18.8324 24.7357 17.5619 23.8727 16.7966 22.3665C16.7576 22.2895 16.7322 22.2045 16.7221 22.1164C16.7119 22.0282 16.7171 21.9386 16.7373 21.8527C16.7575 21.7669 16.7923 21.6864 16.8399 21.6158C16.8874 21.5453 16.9467 21.4861 17.0143 21.4417C17.0819 21.3972 17.1566 21.3684 17.234 21.3568C17.3114 21.3452 17.39 21.3511 17.4654 21.3741C17.5408 21.3971 17.6115 21.4368 17.6735 21.491C17.7354 21.5451 17.7874 21.6126 17.8264 21.6896C18.3806 22.782 19.2529 23.3819 20.2834 23.3819C21.3139 23.3819 22.1862 22.7811 22.7412 21.6896C22.7784 21.6087 22.8295 21.5372 22.8916 21.4794C22.9536 21.4216 23.0253 21.3787 23.1023 21.3532C23.1793 21.3278 23.26 21.3204 23.3396 21.3314C23.4191 21.3424 23.496 21.3716 23.5654 21.4173C23.6348 21.463 23.6953 21.5242 23.7434 21.5972C23.7915 21.6703 23.8261 21.7536 23.8452 21.8423C23.8643 21.931 23.8674 22.0231 23.8544 22.1132C23.8414 22.2033 23.8125 22.2895 23.7695 22.3665ZM28.0105 19.9973C28.0108 20.8736 27.8966 21.7451 27.6717 22.5831C27.643 22.6889 27.592 22.7851 27.5231 22.8632L22.7999 28.2422C22.7317 28.3208 22.6475 28.379 22.5547 28.4114C21.0001 28.9559 19.3343 28.9278 17.7945 28.3312C16.2547 27.7346 14.9195 26.5998 13.9791 25.0885C13.0386 23.5772 12.5409 21.7666 12.5568 19.9143C12.5726 18.0621 13.1013 16.2628 14.0675 14.7727C15.0336 13.2827 16.388 12.1778 17.9377 11.6155C19.4874 11.0532 21.1534 11.0621 22.6984 11.641C24.2434 12.2199 25.5886 13.3393 26.5424 14.8397C27.4962 16.3401 28.0099 18.145 28.0105 19.9973ZM26.8217 19.9973C26.82 18.4395 26.3888 16.9217 25.589 15.658C24.7892 14.3943 23.6611 13.4485 22.364 12.9541C21.0669 12.4598 19.6662 12.4417 18.3596 12.9026C17.053 13.3635 15.9065 14.28 15.0818 15.5228C14.2571 16.7656 13.796 18.272 13.7634 19.8293C13.7308 21.3866 14.1284 22.9163 14.9001 24.2024C15.6719 25.4886 16.7788 26.4663 18.0646 26.9975C19.3504 27.5288 20.7503 27.5868 22.0666 27.1634L26.5758 22.0281C26.7395 21.3673 26.8223 20.6839 26.8217 19.9973ZM17.6087 19.3204C17.785 19.3204 17.9574 19.2608 18.104 19.1492C18.2506 19.0377 18.3649 18.8791 18.4324 18.6935C18.4999 18.508 18.5175 18.3039 18.4831 18.1069C18.4487 17.9099 18.3638 17.729 18.2391 17.587C18.1144 17.445 17.9556 17.3483 17.7826 17.3091C17.6097 17.2699 17.4304 17.29 17.2675 17.3669C17.1046 17.4437 16.9653 17.5739 16.8674 17.7409C16.7694 17.9078 16.7171 18.1042 16.7171 18.305C16.7171 18.5743 16.811 18.8325 16.9782 19.023C17.1454 19.2134 17.3722 19.3204 17.6087 19.3204ZM22.9582 17.2896C22.7818 17.2896 22.6095 17.3491 22.4628 17.4607C22.3162 17.5723 22.2019 17.7309 22.1345 17.9164C22.067 18.1019 22.0493 18.3061 22.0837 18.5031C22.1181 18.7 22.203 18.881 22.3277 19.023C22.4524 19.165 22.6113 19.2617 22.7842 19.3009C22.9572 19.34 23.1364 19.3199 23.2994 19.2431C23.4623 19.1662 23.6015 19.0361 23.6995 18.8691C23.7975 18.7021 23.8498 18.5058 23.8498 18.305C23.8498 18.0357 23.7558 17.7774 23.5886 17.587C23.4214 17.3966 23.1946 17.2896 22.9582 17.2896Z" fill="black"/>
</g>
<ellipse cx="716.682" cy="20" rx="19.3176" ry="20" fill="#8C0000"/>
<path d="M726.972 11.0567C726.779 10.8892 726.538 10.7693 726.274 10.7096C726.01 10.6498 725.733 10.6523 725.471 10.7167H725.456L707.06 15.57C706.761 15.6449 706.495 15.7973 706.297 16.007C706.1 16.2166 705.981 16.4736 705.955 16.7436C705.93 17.0136 706 17.2839 706.156 17.5185C706.312 17.7531 706.546 17.9408 706.828 18.0566L715.034 21.4358L718.921 28.5707C719.043 28.7992 719.239 28.9924 719.484 29.1275C719.729 29.2626 720.013 29.3339 720.303 29.3332C720.347 29.3332 720.391 29.3315 720.435 29.3282C720.745 29.3064 721.039 29.2028 721.279 29.0314C721.519 28.8599 721.692 28.6288 721.777 28.369L727.355 12.3742C727.355 12.37 727.355 12.3659 727.355 12.3617C727.43 12.1342 727.434 11.8934 727.367 11.664C727.299 11.4347 727.163 11.2251 726.972 11.0567ZM720.311 27.9873L720.307 27.999L716.534 21.0749L721.062 17.1375C721.2 17.0114 721.275 16.8436 721.273 16.6698C721.27 16.4959 721.19 16.3298 721.048 16.2069C720.907 16.084 720.716 16.0139 720.516 16.0117C720.316 16.0095 720.123 16.0752 719.978 16.195L715.449 20.1316L707.485 16.8516H707.498L725.887 12L720.311 27.9873Z" fill="white"/>
<defs>
<clipPath id="clip0_742_78">
<rect width="15.4541" height="24" fill="white" transform="translate(12.5564 8)"/>
</clipPath>
</defs>
</svg>
