<?xml version="1.0" encoding="UTF-8" standalone="no"?>
<svg
   width="126"
   height="120"
   viewBox="0 0 126 120"
   fill="none"
   version="1.1"
   id="svg329"
   sodipodi:docname="headphones-1.svg"
   inkscape:export-filename="headphones-1.svg"
   inkscape:export-xdpi="96"
   inkscape:export-ydpi="96"
   inkscape:version="1.2.2 (732a01da63, 2022-12-09)"
   xmlns:inkscape="http://www.inkscape.org/namespaces/inkscape"
   xmlns:sodipodi="http://sodipodi.sourceforge.net/DTD/sodipodi-0.dtd"
   xmlns="http://www.w3.org/2000/svg"
   xmlns:svg="http://www.w3.org/2000/svg">
  <defs
     id="defs333" />
  <sodipodi:namedview
     id="namedview331"
     pagecolor="#ffffff"
     bordercolor="#666666"
     borderopacity="1.0"
     inkscape:showpageshadow="2"
     inkscape:pageopacity="0.0"
     inkscape:pagecheckerboard="0"
     inkscape:deskcolor="#d1d1d1"
     showgrid="false"
     inkscape:zoom="1.9666667"
     inkscape:cx="59.745763"
     inkscape:cy="60"
     inkscape:window-width="1440"
     inkscape:window-height="837"
     inkscape:window-x="-8"
     inkscape:window-y="-8"
     inkscape:window-maximized="1"
     inkscape:current-layer="svg329" />
  <path
     d="M 106.59278,18.862292 C 100.9468,12.67502 94.231375,7.756855 86.831028,4.3893655 79.43068,1.021876 71.490812,-0.72898371 63.465958,-0.76271186 h -0.466043 c -16.2729,0 -31.879221,7.01340696 -43.385851,19.49746586 C 8.1074343,31.218812 1.6430085,48.15089 1.6430085,65.806006 V 101.6507 c 0,4.07428 1.4917444,7.98169 4.1471575,10.86265 2.655413,2.88123 6.256816,4.49936 10.012129,4.49936 h 9.439524 c 3.755312,0 7.356715,-1.61813 10.012128,-4.49936 2.655413,-2.88096 4.147158,-6.78837 4.147158,-10.86265 V 76.047347 c 0,-4.074279 -1.491745,-7.981692 -4.147158,-10.862649 -2.655413,-2.880821 -6.256816,-4.499363 -10.012128,-4.499363 H 11.294937 C 12.47239,46.690611 18.429179,33.678782 27.995643,24.204586 37.561986,14.730253 50.04721,9.4779466 62.999915,9.4786293 h 0.395321 c 12.898765,0.059127 25.312189,5.3428397 34.807092,14.8152607 9.494782,9.472558 15.386242,22.451068 16.520182,36.391445 h -13.9645 c -3.755311,0 -7.356714,1.618542 -10.012127,4.499363 -2.655413,2.880957 -4.147158,6.78837 -4.147158,10.862649 V 101.6507 c 0,4.07428 1.491745,7.98169 4.147158,10.86265 2.655413,2.88123 6.256816,4.49936 10.012127,4.49936 h 9.43953 c 3.75543,0 7.35623,-1.61813 10.01248,-4.49936 2.65506,-2.88096 4.1474,-6.78837 4.1474,-10.86265 V 65.806006 c 0.03,-8.707871 -1.52351,-17.336679 -4.57173,-25.392245 -3.04821,-8.055429 -7.53124,-15.379081 -13.19291,-21.551469 z M 25.241819,70.926676 c 1.251771,0 2.452238,0.539514 3.337336,1.499742 0.885218,0.960365 1.382426,2.262791 1.382426,3.620929 V 101.6507 c 0,1.35814 -0.497208,2.66056 -1.382426,3.62093 -0.885098,0.96023 -2.085565,1.49974 -3.337336,1.49974 h -9.439524 c -1.251771,0 -2.452239,-0.53951 -3.337337,-1.49974 -0.885217,-0.96037 -1.382425,-2.26279 -1.382425,-3.62093 V 70.926676 Z M 114.9179,101.6507 c 0,1.35814 -0.49745,2.66056 -1.38327,3.62093 -0.88462,0.96023 -2.08568,1.49974 -3.33709,1.49974 h -9.43953 c -1.251769,0 -2.452237,-0.53951 -3.337335,-1.49974 -0.885217,-0.96037 -1.382426,-2.26279 -1.382426,-3.62093 V 76.047347 c 0,-1.358138 0.497209,-2.660564 1.382426,-3.620929 0.885098,-0.960228 2.085566,-1.499742 3.337335,-1.499742 h 14.15989 z"
     fill="#ffffff"
     id="path327"
     style="stroke-width:1.27937" />
</svg>
