<svg width="54" height="53" viewBox="0 0 54 53" fill="none" xmlns="http://www.w3.org/2000/svg">
<path d="M42.4235 12.9726C40.4422 10.9714 38.0857 9.38062 35.4888 8.29141C32.8918 7.2022 30.1056 6.63592 27.2895 6.625H27.126C21.4155 6.625 15.939 8.89346 11.9011 12.9314C7.86319 16.9692 5.59473 22.4458 5.59473 28.1562V39.75C5.59473 41.0678 6.11822 42.3316 7.05004 43.2634C7.98186 44.1953 9.24568 44.7188 10.5635 44.7188H13.876C15.1938 44.7188 16.4576 44.1953 17.3894 43.2634C18.3212 42.3316 18.8447 41.0678 18.8447 39.75V31.4688C18.8447 30.151 18.3212 28.8871 17.3894 27.9553C16.4576 27.0235 15.1938 26.5 13.876 26.5H8.98176C9.39497 21.9735 11.4853 17.7649 14.8423 14.7005C18.1994 11.6361 22.5806 9.93727 27.126 9.9375H27.2647C31.7911 9.95662 36.1472 11.6656 39.4791 14.7294C42.811 17.7933 44.8786 21.9911 45.2764 26.5H40.376C39.0582 26.5 37.7944 27.0235 36.8625 27.9553C35.9307 28.8871 35.4072 30.151 35.4072 31.4688V39.75C35.4072 41.0678 35.9307 42.3316 36.8625 43.2634C37.7944 44.1953 39.0582 44.7188 40.376 44.7188H43.6885C45.0063 44.7188 46.2701 44.1953 47.2019 43.2634C48.1337 42.3316 48.6572 41.0678 48.6572 39.75V28.1562C48.668 25.3397 48.1229 22.5488 47.0532 19.9433C45.9836 17.3378 44.4103 14.969 42.4235 12.9726ZM13.876 29.8125C14.3152 29.8125 14.7365 29.987 15.0471 30.2976C15.3577 30.6082 15.5322 31.0295 15.5322 31.4688V39.75C15.5322 40.1893 15.3577 40.6105 15.0471 40.9211C14.7365 41.2318 14.3152 41.4062 13.876 41.4062H10.5635C10.1242 41.4062 9.70294 41.2318 9.39233 40.9211C9.08172 40.6105 8.90723 40.1893 8.90723 39.75V29.8125H13.876ZM45.3447 39.75C45.3447 40.1893 45.1702 40.6105 44.8596 40.9211C44.549 41.2318 44.1277 41.4062 43.6885 41.4062H40.376C39.9367 41.4062 39.5154 41.2318 39.2048 40.9211C38.8942 40.6105 38.7197 40.1893 38.7197 39.75V31.4688C38.7197 31.0295 38.8942 30.6082 39.2048 30.2976C39.5154 29.987 39.9367 29.8125 40.376 29.8125H45.3447V39.75Z" fill="white"/>
</svg>
