<svg width="58" height="57" viewBox="0 0 58 57" fill="none" xmlns="http://www.w3.org/2000/svg">
<path d="M48.7197 8.90625H16.6572C15.7124 8.90625 14.8063 9.28158 14.1382 9.94968C13.4701 10.6178 13.0947 11.5239 13.0947 12.4688V16.0312H9.53223C8.58739 16.0312 7.68126 16.4066 7.01316 17.0747C6.34506 17.7428 5.96973 18.6489 5.96973 19.5938V44.5312C5.96973 45.4761 6.34506 46.3822 7.01316 47.0503C7.68126 47.7184 8.58739 48.0938 9.53223 48.0938H41.5947C42.5396 48.0938 43.4457 47.7184 44.1138 47.0503C44.7819 46.3822 45.1572 45.4761 45.1572 44.5312V40.9688H48.7197C49.6646 40.9688 50.5707 40.5934 51.2388 39.9253C51.9069 39.2572 52.2822 38.3511 52.2822 37.4062V12.4688C52.2822 11.5239 51.9069 10.6178 51.2388 9.94968C50.5707 9.28158 49.6646 8.90625 48.7197 8.90625ZM16.6572 12.4688H48.7197V26.4404L46.4776 24.2005C46.1468 23.8696 45.754 23.6071 45.3217 23.428C44.8894 23.249 44.4261 23.1568 43.9582 23.1568C43.4903 23.1568 43.027 23.249 42.5947 23.428C42.1624 23.6071 41.7697 23.8696 41.4389 24.2005L36.9857 28.6536L27.1889 18.8568C26.5208 18.1892 25.6151 17.8142 24.6706 17.8142C23.7262 17.8142 22.8204 18.1892 22.1524 18.8568L16.6572 24.3519V12.4688ZM41.5947 44.5312H9.53223V19.5938H13.0947V37.4062C13.0947 38.3511 13.4701 39.2572 14.1382 39.9253C14.8063 40.5934 15.7124 40.9688 16.6572 40.9688H41.5947V44.5312ZM48.7197 37.4062H16.6572V29.3906L24.6729 21.375L35.73 32.4321C36.064 32.7659 36.5169 32.9534 36.9891 32.9534C37.4613 32.9534 37.9142 32.7659 38.2482 32.4321L43.9616 26.7188L48.7197 31.4791V37.4062ZM36.251 18.7031C36.251 18.1747 36.4077 17.6581 36.7013 17.2187C36.9949 16.7793 37.4121 16.4369 37.9004 16.2346C38.3886 16.0324 38.9258 15.9795 39.4441 16.0826C39.9624 16.1857 40.4385 16.4402 40.8122 16.8138C41.1858 17.1875 41.4403 17.6636 41.5434 18.1819C41.6465 18.7002 41.5936 19.2374 41.3913 19.7256C41.1891 20.2138 40.8467 20.6311 40.4073 20.9247C39.9679 21.2183 39.4513 21.375 38.9229 21.375C38.2142 21.375 37.5346 21.0935 37.0336 20.5924C36.5325 20.0914 36.251 19.4117 36.251 18.7031Z" fill="white"/>
</svg>
