<svg width="129" height="116" viewBox="0 0 129 116" fill="none" xmlns="http://www.w3.org/2000/svg">
<g clip-path="url(#clip0_686_15)">
<path d="M119.412 -0.280029H29.9364C27.2997 -0.280029 24.771 0.837101 22.9065 2.82561C21.0421 4.81411 19.9947 7.5111 19.9947 10.3233V20.9266H10.053C7.41626 20.9266 4.88755 22.0437 3.02312 24.0322C1.15869 26.0207 0.111267 28.7177 0.111267 31.5299V105.753C0.111267 108.565 1.15869 111.262 3.02312 113.251C4.88755 115.239 7.41626 116.356 10.053 116.356H99.5283C102.165 116.356 104.694 115.239 106.558 113.251C108.423 111.262 109.47 108.565 109.47 105.753V95.1497H119.412C122.048 95.1497 124.577 94.0326 126.442 92.0441C128.306 90.0556 129.353 87.3586 129.353 84.5464V10.3233C129.353 7.5111 128.306 4.81411 126.442 2.82561C124.577 0.837101 122.048 -0.280029 119.412 -0.280029ZM29.9364 10.3233H119.412V51.9081L113.155 45.2413C112.231 44.2564 111.135 43.4752 109.929 42.9421C108.723 42.4091 107.43 42.1348 106.124 42.1348C104.818 42.1348 103.525 42.4091 102.319 42.9421C101.113 43.4752 100.017 44.2564 99.0933 45.2413L86.6662 58.4954L59.3265 29.3363C57.4623 27.3493 54.9345 26.2331 52.299 26.2331C49.6634 26.2331 47.1357 27.3493 45.2714 29.3363L29.9364 45.6919V10.3233ZM99.5283 105.753H10.053V31.5299H19.9947V84.5464C19.9947 87.3586 21.0421 90.0556 22.9065 92.0441C24.771 94.0326 27.2997 95.1497 29.9364 95.1497H99.5283V105.753ZM119.412 84.5464H29.9364V60.689L52.3052 36.8315L83.1617 69.7415C84.0939 70.735 85.3577 71.2931 86.6755 71.2931C87.9933 71.2931 89.2572 70.735 90.1893 69.7415L106.133 52.7365L119.412 66.9052V84.5464ZM84.6157 28.8791C84.6157 27.3062 85.053 25.7687 85.8723 24.4609C86.6916 23.1531 87.8561 22.1338 89.2186 21.5319C90.5811 20.93 92.0803 20.7725 93.5266 21.0794C94.973 21.3862 96.3016 22.1436 97.3444 23.2558C98.3871 24.368 99.0973 25.785 99.385 27.3276C99.6727 28.8702 99.525 30.4692 98.9607 31.9223C98.3963 33.3755 97.4406 34.6175 96.2145 35.4913C94.9883 36.3651 93.5467 36.8315 92.072 36.8315C90.0945 36.8315 88.1979 35.9937 86.7996 34.5023C85.4013 33.0109 84.6157 30.9882 84.6157 28.8791Z" fill="white"/>
</g>
<defs>
<clipPath id="clip0_686_15">
<rect width="129" height="116" fill="white"/>
</clipPath>
</defs>
</svg>
