<svg width="53" height="46" viewBox="0 0 53 46" fill="none" xmlns="http://www.w3.org/2000/svg">
<path d="M52.4193 45.7937C52.4193 45.7937 49.4096 42.7717 52.2473 16.0159C52.2473 16.0159 52.6773 11.2986 52.7633 7.09729C52.7633 7.09729 52.9989 6.51513 51.0835 6.61936C51.0835 6.61936 51.6612 4.16977 48.0737 3.25769C48.0737 3.25769 49.8674 5.94182 48.7729 6.54119C48.7729 6.54119 47.2224 6.28059 47.4352 7.9484C47.648 9.61621 47.3744 23.115 47.3744 23.115C47.3744 23.115 46.7438 39.4548 41.2404 45.72L52.4193 45.7937Z" fill="white"/>
<path d="M23.526 45.7931C23.526 45.7931 23.182 39.8965 8.73538 30.5357C8.73538 30.5357 1.85602 25.7447 5.38169 14.7623C5.38169 14.7623 6.33067 10.8404 8.94531 8.44294C8.94531 8.44294 9.5093 7.92591 8.79987 6.41491C8.79987 6.41491 8.95036 4.0747 11.9171 3.50347C11.9171 3.50347 8.11194 1.58707 6.47809 5.19873C6.47809 5.19873 5.4946 4.46887 4.88654 5.26369C4.27849 6.0585 2.54395 8.71826 2.54395 8.71826C2.54395 8.71826 -1.32568 15.7205 0.480147 23.3123C2.28598 30.9042 2.80193 30.9779 2.80193 30.9779C2.80193 30.9779 7.10153 41.0758 0.652133 45.7194L23.526 45.7931Z" fill="white"/>
<path d="M15.3298 33.0951C15.3298 33.0951 20.2551 36.2743 22.4441 39.3493C22.4441 39.3493 36.6118 40.1311 35.1524 26.4238C35.1524 26.4238 33.114 27.0712 30.0183 23.3859C30.0183 23.3859 28.0728 32.3378 15.3298 33.0951Z" fill="white"/>
<path d="M23.9559 41.1501C23.9559 41.1501 25.8048 43.1402 26.4067 45.7199L30.6633 45.7937C30.6633 45.7937 27.4816 42.8822 27.0516 40.5604" fill="white"/>
<path d="M28.8145 40.1178L31.1792 39.0122C31.1792 39.0122 34.6189 42.587 40.0794 43.2135L37.7576 45.7564L33.458 45.7933C33.458 45.7933 30.1473 43.4347 28.8145 40.1178Z" fill="white"/>
<path d="M34.7909 35.8802L32.6841 38.0546C32.6841 38.0546 36.5537 41.5189 41.2833 41.5926C41.2833 41.5926 43.0031 39.0497 43.0891 37.7966C43.0891 37.7966 37.2417 37.6124 34.7909 35.8802Z" fill="white"/>
<path d="M43.5191 36.2848C44.508 34.5527 44.551 31.9729 44.551 31.9729C44.551 31.9729 40.2944 32.1204 36.8978 30.941C36.8978 30.941 36.7258 33.1523 35.6509 34.479C35.6509 34.479 39.4345 36.2111 43.5191 36.2848Z" fill="white"/>
<path d="M37.1556 29.2463L37.2846 25.9294C37.2846 25.9294 41.4122 27.3667 44.293 26.7771C44.293 26.7771 44.8519 28.8777 44.508 30.2413C44.508 30.2413 39.1335 30.4256 37.1556 29.2463Z" fill="white"/>
<path d="M36.1238 21.1013L37.0267 24.1233C37.0267 24.1233 41.3693 25.7449 44.078 25.0815L43.2181 22.2806C43.2181 22.2806 38.8755 22.1332 36.1238 21.1013Z" fill="white"/>
<path d="M27.7397 6.17569C27.7397 6.17569 29.1156 5.73344 30.8355 6.35996C30.8355 6.35996 31.8235 6.6582 32.3556 6.15004L35.2438 0L27.7397 6.17569Z" fill="white"/>
<path d="M14.9267 23.3125C14.9267 23.3125 15.0127 26.2608 17.8504 26.224C20.6882 26.1871 24.1708 23.6074 24.1708 23.6074L28.5564 20.6959C28.5564 20.6959 29.3304 19.9957 30.2763 20.9539C31.2222 21.9121 33.329 23.9022 33.329 23.9022C33.329 23.9022 34.0599 24.8235 34.9198 24.713C34.9198 24.713 35.3928 25.0631 33.63 20.6222C33.63 20.6222 33.1762 19.1797 35.3652 19.4663C37.5542 19.753 43.7868 20.6129 43.7868 20.6129H45.8237L38.1015 15.4792L45.6717 9.82432L36.5509 12.1957L45.7325 1.35498L31.8689 7.94803C31.8689 7.94803 24.2074 6.17598 19.8294 11.0231L15.725 13.186C15.725 13.186 14.6609 13.9417 13.6272 12.8472C12.5935 11.7527 12.8976 10.3976 12.8976 10.3976C12.8976 10.3976 11.8639 11.1533 11.2558 12.326C11.2558 12.326 9.91811 15.0883 9.43166 17.8767C9.43166 17.8767 8.33717 18.0591 8.42837 20.0136C8.42837 20.0136 8.64119 20.7172 8.97562 20.6651C9.31005 20.6129 11.0126 19.4142 11.0126 19.4142L12.5327 18.5282C12.5327 18.5282 13.7185 17.7725 14.0529 19.6487L15.3298 17.6422C15.3298 17.6422 16.0291 17.4076 16.3331 19.1015C16.3331 19.1015 17.154 18.6064 17.1844 17.4858L21.7752 17.0428C21.7752 17.0428 23.9946 16.7301 25.0587 14.489C25.0587 14.489 26.8524 17.5119 23.8426 19.8312C23.8426 19.8312 22.7481 20.1699 21.7752 19.2318C21.7752 19.2318 21.3495 19.2057 21.3799 20.9517L19.343 22.1505C19.343 22.1505 18.6437 22.0202 18.2789 21.4729C18.2789 21.4729 17.3668 22.8541 17.2452 23.5837C17.2452 23.5837 16.0438 24.0316 14.9267 23.3125Z" fill="white"/>
<path d="M22.7521 12.1641C22.7521 12.1641 22.8596 10.6347 26.1273 9.78708C29.395 8.93944 29.3305 8.90259 29.3305 8.90259L27.8041 10.2293C27.8041 10.2293 28.707 10.2478 29.266 10.0451C29.266 10.0451 28.2126 11.5192 26.9227 11.8325C25.6328 12.1457 25.5038 11.5376 22.7521 12.1641Z" fill="black"/>
</svg>
