<?xml version="1.0" encoding="UTF-8" standalone="no"?>
<!-- Created with Inkscape (http://www.inkscape.org/) -->

<svg
   version="1.1"
   id="svg1"
   width="254"
   height="230"
   viewBox="0 0 254 230"
   sodipodi:docname="lixeira.svg"
   inkscape:version="1.3 (0e150ed6c4, 2023-07-21)"
   xml:space="preserve"
   xmlns:inkscape="http://www.inkscape.org/namespaces/inkscape"
   xmlns:sodipodi="http://sodipodi.sourceforge.net/DTD/sodipodi-0.dtd"
   xmlns="http://www.w3.org/2000/svg"
   xmlns:svg="http://www.w3.org/2000/svg"><defs
     id="defs1" /><sodipodi:namedview
     id="namedview1"
     pagecolor="#ffffff"
     bordercolor="#000000"
     borderopacity="0.25"
     inkscape:showpageshadow="2"
     inkscape:pageopacity="0.0"
     inkscape:pagecheckerboard="0"
     inkscape:deskcolor="#d1d1d1"
     inkscape:zoom="0.69673915"
     inkscape:cx="-239.68798"
     inkscape:cy="101.18564"
     inkscape:window-width="1600"
     inkscape:window-height="837"
     inkscape:window-x="1432"
     inkscape:window-y="-8"
     inkscape:window-maximized="1"
     inkscape:current-layer="g11" /><g
     inkscape:groupmode="layer"
     inkscape:label="Image"
     id="g1"><path
       style="opacity:1;fill:#f9f9f9;fill-opacity:1;stroke:none;stroke-width:0.290256;stroke-linecap:square;stroke-linejoin:miter;stroke-dasharray:none;stroke-opacity:1"
       d=""
       id="path8" /><g
       id="g11"
       transform="translate(41.01563,-360.0502)"><g
         id="g2"
         style="fill:#ffffff"
         transform="matrix(0.70439168,0,0,0.70439168,375.20463,285.76068)"><path
           style="opacity:1;fill:#ffffff;fill-opacity:1;stroke:none;stroke-width:0.410484;stroke-linecap:square;stroke-linejoin:miter;stroke-dasharray:none;stroke-opacity:1"
           d="m -436.71294,34.891681 c -0.37496,-0.347017 -1.95527,-1.03856 -3.51181,-1.536773 -1.55654,-0.498207 -3.25136,-1.263816 -3.76627,-1.701354 -5.36637,-4.559993 -7.58409,-7.722123 -8.8774,-12.657815 -1.05102,-4.011064 -1.9421,-14.582014 -2.03625,-24.1561925 -0.0395,-4.0223375 -0.34099,-7.4796425 -0.66986,-7.6828965 -0.32887,-0.203254 -0.99878,-10.959827 -1.48868,-23.903501 -0.48991,-12.943675 -1.16191,-24.179824 -1.49335,-24.969216 -0.33143,-0.789391 -0.98088,-11.284711 -1.44322,-23.322932 -0.46233,-12.038221 -1.10561,-23.340871 -1.42951,-25.117001 -0.32389,-1.77613 -0.82196,-10.74398 -1.10681,-19.92856 -0.28486,-9.18457 -0.79956,-16.87329 -1.14379,-17.08603 -0.34423,-0.21275 -0.62587,-2.46681 -0.62587,-5.00904 v -4.62224 h 94.77464 94.77466 l -0.37766,6.99688 c -2.54637,47.17783 -3.12923,57.23089 -3.31815,57.23089 -0.23904,0 -1.36459,18.893778 -3.42008,57.410294 -0.71616,13.419657 -1.50174,24.883775 -1.74572,25.4758188 -0.24399,0.5920436 -0.64183,6.5600662 -0.88409,13.262266 -0.24225,6.7022002 -0.75348,12.4988452 -1.13607,12.8814352 -0.38259,0.382589 -0.69562,1.390262 -0.69562,2.239274 0,2.48217 -3.48811,8.341422 -6.71031,11.271851 -1.67652,1.524696 -4.31573,3.055211 -6.03979,3.502545 -1.68417,0.436978 -3.23716,1.07772 -3.45109,1.423876 -0.51218,0.828717 -133.28242,0.82716 -134.1779,-0.0016 z m 48.2243,-51.952765 c 1.91447,-1.292327 6.96032,-5.846341 11.213,-10.120028 6.8522,-6.886028 7.86883,-7.659911 8.93308,-6.80007 0.6605,0.533643 4.84898,4.603258 9.30772,9.043585 4.45873,4.440328 8.566,8.073323 9.12725,8.073323 0.56124,0 1.155,0.403666 1.31946,0.897036 0.21348,0.640462 2.42,0.897036 7.7145,0.897036 5.29451,0 7.50103,-0.256574 7.71451,-0.897036 0.16446,-0.49337 0.70463,-0.897036 1.20038,-0.897036 1.25452,0 6.01491,-5.280125 6.93668,-7.694027 0.99731,-2.611709 0.97866,-12.18939 -0.0289,-14.828297 -0.43466,-1.138446 -4.93496,-6.279323 -10.00067,-11.424175 l -9.21037,-9.354262 8.33223,-8.473049 c 10.01789,-10.187177 9.95404,-10.113311 10.90435,-12.612819 0.9597,-2.524237 0.95949,-11.28226 -3.6e-4,-14.466781 -0.90006,-2.986148 -6.54706,-8.697286 -8.59962,-8.697286 -0.82897,0 -1.50723,-0.32294 -1.50723,-0.71763 0,-0.41299 -2.22756,-0.71763 -5.24742,-0.71763 -7.30842,0 -9.53288,1.28794 -19.78214,11.453681 -4.79101,4.751957 -8.95132,8.639921 -9.24515,8.639921 -0.29383,0 -3.91531,-3.429203 -8.04773,-7.620451 -8.3496,-8.468451 -11.41818,-11.037891 -13.18211,-11.037891 -0.65346,0 -1.18811,-0.32294 -1.18811,-0.71763 0,-0.41299 -2.22756,-0.71763 -5.24743,-0.71763 -7.44629,0 -11.34549,1.96984 -15.52909,7.845159 -2.37203,3.331208 -2.99652,12.838564 -1.10511,16.82441 0.68819,1.450248 5.24722,6.615438 10.13118,11.478183 4.88396,4.862753 8.87993,9.118643 8.87993,9.457536 0,0.338893 -4.1778,4.835303 -9.284,9.992032 -5.10621,5.156729 -9.62727,10.278703 -10.04681,11.382165 -0.96272,2.532145 -0.98097,10.068933 -0.0326,13.482973 0.86862,3.127124 4.50484,7.14723 8.30889,9.186077 2.12169,1.137162 4.08391,1.490307 8.28072,1.490307 5.02649,0 5.7999,-0.20235 8.98099,-2.349696 z"
           id="path1"
           transform="translate(-41.01563,360.0502)" /><path
           style="opacity:1;fill:#ffffff;fill-opacity:1;stroke:none;stroke-width:0.410484;stroke-linecap:square;stroke-linejoin:miter;stroke-dasharray:none;stroke-opacity:1"
           d="m -469.63884,-173.22783 c -0.21691,-0.35097 -1.27958,-0.8603 -2.36149,-1.13184 -1.0819,-0.27154 -3.26475,-1.81751 -4.85077,-3.4355 l -2.88368,-2.94178 v -6.52904 c 0,-4.75988 0.29169,-6.87368 1.07645,-7.80094 2.75409,-3.25418 4.82364,-4.89975 6.63806,-5.27813 1.08542,-0.22636 1.97348,-0.68966 1.97348,-1.02955 0,-0.33989 10.41459,-0.70319 23.14353,-0.80733 l 23.14352,-0.18935 0.22488,-2.33229 c 0.12368,-1.28276 0.52734,-2.3323 0.89703,-2.3323 0.36969,0 0.67216,-0.44234 0.67216,-0.98297 0,-1.59456 4.86592,-6.67611 8.11548,-8.47512 l 3.00777,-1.66515 h 41.26365 41.26365 l 3.01582,1.66935 c 3.396,1.87979 8.10742,6.74933 8.10742,8.37952 0,0.59091 0.30247,1.07437 0.67216,1.07437 0.36969,0 0.77335,1.04954 0.89704,2.3323 l 0.22487,2.33229 22.24649,0.17435 c 14.17702,0.1111 22.89726,0.45963 24.04056,0.96084 4.37074,1.91607 6.83311,3.45584 7.5164,4.70018 0.40498,0.73751 1.05927,1.57134 1.45396,1.85296 0.99663,0.71112 0.9313,14.11314 -0.072,14.76374 -0.43428,0.28163 -1.17862,1.25057 -1.65408,2.1532 -0.47547,0.90263 -2.66306,2.43656 -4.86131,3.40873 l -3.99683,1.76759 h -99.25993 c -57.15529,0 -99.42722,-0.27068 -99.65431,-0.63813 z"
           id="path2"
           transform="translate(-41.01563,360.0502)" /></g></g></g></svg>
