<svg width="18" height="12" viewBox="0 0 18 12" fill="none" xmlns="http://www.w3.org/2000/svg">
<mask id="path-1-inside-1_741_48" fill="white">
<path d="M15.5852 10.2348L12.3729 7.88823C13.3039 7.07153 13.7682 6.02401 13.6691 4.96358C13.57 3.90314 12.9152 2.91145 11.8408 2.19478C10.7665 1.47812 9.35532 1.09166 7.90092 1.11581C6.44652 1.13996 5.06084 1.57286 4.03216 2.32444C3.00348 3.07603 2.41098 4.08844 2.37793 5.15106C2.34487 6.21369 2.87381 7.24472 3.85469 8.02967C4.83558 8.81463 6.19291 9.29307 7.64431 9.36547C9.09571 9.43787 10.5294 9.09865 11.6472 8.41839L14.859 10.7654C14.9066 10.8003 14.9633 10.8279 15.0256 10.8468C15.0879 10.8656 15.1546 10.8753 15.2221 10.8753C15.2895 10.8753 15.3563 10.8656 15.4186 10.8468C15.4809 10.8279 15.5375 10.8003 15.5852 10.7654C15.6329 10.7306 15.6707 10.6892 15.6965 10.6437C15.7223 10.5982 15.7356 10.5494 15.7356 10.5001C15.7356 10.4508 15.7223 10.402 15.6965 10.3565C15.6707 10.311 15.6329 10.2696 15.5852 10.2348ZM3.41716 5.25011C3.41716 4.58259 3.68808 3.93007 4.19566 3.37506C4.70323 2.82004 5.42467 2.38746 6.26874 2.13201C7.11281 1.87657 8.0416 1.80973 8.93766 1.93996C9.83372 2.07018 10.6568 2.39162 11.3028 2.86362C11.9489 3.33562 12.3888 3.93699 12.567 4.59168C12.7453 5.24636 12.6538 5.92496 12.3042 6.54166C11.9545 7.15836 11.3625 7.68547 10.6028 8.05632C9.84319 8.42717 8.95009 8.62511 8.03648 8.62511C6.81178 8.62411 5.63762 8.26822 4.77163 7.6355C3.90563 7.00278 3.41852 6.14491 3.41716 5.25011Z"/>
</mask>
<path d="M15.5852 10.2348L12.3729 7.88823C13.3039 7.07153 13.7682 6.02401 13.6691 4.96358C13.57 3.90314 12.9152 2.91145 11.8408 2.19478C10.7665 1.47812 9.35532 1.09166 7.90092 1.11581C6.44652 1.13996 5.06084 1.57286 4.03216 2.32444C3.00348 3.07603 2.41098 4.08844 2.37793 5.15106C2.34487 6.21369 2.87381 7.24472 3.85469 8.02967C4.83558 8.81463 6.19291 9.29307 7.64431 9.36547C9.09571 9.43787 10.5294 9.09865 11.6472 8.41839L14.859 10.7654C14.9066 10.8003 14.9633 10.8279 15.0256 10.8468C15.0879 10.8656 15.1546 10.8753 15.2221 10.8753C15.2895 10.8753 15.3563 10.8656 15.4186 10.8468C15.4809 10.8279 15.5375 10.8003 15.5852 10.7654C15.6329 10.7306 15.6707 10.6892 15.6965 10.6437C15.7223 10.5982 15.7356 10.5494 15.7356 10.5001C15.7356 10.4508 15.7223 10.402 15.6965 10.3565C15.6707 10.311 15.6329 10.2696 15.5852 10.2348ZM3.41716 5.25011C3.41716 4.58259 3.68808 3.93007 4.19566 3.37506C4.70323 2.82004 5.42467 2.38746 6.26874 2.13201C7.11281 1.87657 8.0416 1.80973 8.93766 1.93996C9.83372 2.07018 10.6568 2.39162 11.3028 2.86362C11.9489 3.33562 12.3888 3.93699 12.567 4.59168C12.7453 5.24636 12.6538 5.92496 12.3042 6.54166C11.9545 7.15836 11.3625 7.68547 10.6028 8.05632C9.84319 8.42717 8.95009 8.62511 8.03648 8.62511C6.81178 8.62411 5.63762 8.26822 4.77163 7.6355C3.90563 7.00278 3.41852 6.14491 3.41716 5.25011Z" fill="white"/>
<path d="M15.5852 10.2348L16.7651 8.6199L16.7649 8.61979L15.5852 10.2348ZM12.3729 7.88823L11.054 6.38469L9.17741 8.03078L11.1931 9.50324L12.3729 7.88823ZM11.6472 8.41839L12.8273 6.80361L11.7487 6.0154L10.6075 6.7099L11.6472 8.41839ZM14.859 10.7654L13.6789 12.3802L13.6791 12.3803L14.859 10.7654ZM15.7356 10.5001L17.7356 10.5001L15.7356 10.5001ZM3.41716 5.25011L1.41716 5.25011L1.41716 5.25314L3.41716 5.25011ZM8.03648 8.62511L8.03486 10.6251H8.03648L8.03648 8.62511ZM16.7649 8.61979L13.5526 6.27323L11.1931 9.50324L14.4055 11.8498L16.7649 8.61979ZM13.6917 9.39177C15.0151 8.23091 15.8295 6.58655 15.6604 4.7775L11.6778 5.14966C11.7069 5.46147 11.5927 5.91215 11.054 6.38469L13.6917 9.39177ZM15.6604 4.7775C15.4933 2.98877 14.4088 1.50363 12.9507 0.530986L10.731 3.85858C11.4216 4.31926 11.6468 4.81751 11.6778 5.14966L15.6604 4.7775ZM12.9507 0.530986C11.4965 -0.439056 9.67511 -0.913922 7.86771 -0.883911L7.93412 3.11554C9.03553 3.09725 10.0365 3.39529 10.731 3.85858L12.9507 0.530986ZM7.86771 -0.883911C6.06119 -0.853914 4.26016 -0.319087 2.85228 0.70955L5.21204 3.93933C5.86153 3.4648 6.83184 3.13384 7.93412 3.11554L7.86771 -0.883911ZM2.85228 0.70955C1.43609 1.74425 0.434991 3.2854 0.378893 5.08888L4.37696 5.21324C4.38697 4.89147 4.57086 4.4078 5.21204 3.93933L2.85228 0.70955ZM0.378893 5.08888C0.322579 6.89928 1.23366 8.49376 2.60507 9.59122L5.10432 6.46812C4.51395 5.99568 4.36716 5.5281 4.37696 5.21324L0.378893 5.08888ZM2.60507 9.59122C3.96348 10.6783 5.74175 11.273 7.54467 11.363L7.74395 7.36795C6.64406 7.31309 5.70769 6.95097 5.10432 6.46812L2.60507 9.59122ZM7.54467 11.363C9.35019 11.453 11.1895 11.0382 12.687 10.1269L10.6075 6.7099C9.86934 7.15912 8.84122 7.42269 7.74395 7.36795L7.54467 11.363ZM10.4672 10.0332L13.6789 12.3802L16.039 9.15064L12.8273 6.80361L10.4672 10.0332ZM13.6791 12.3803C13.9263 12.5609 14.1903 12.6835 14.4462 12.761L15.6049 8.9325C15.7362 8.97225 15.887 9.03958 16.0388 9.15053L13.6791 12.3803ZM14.4462 12.761C14.7031 12.8387 14.9655 12.8753 15.2221 12.8753V8.87532C15.3438 8.87532 15.4727 8.89248 15.6049 8.9325L14.4462 12.761ZM15.2221 12.8753C15.4787 12.8753 15.7411 12.8387 15.9979 12.761L14.8393 8.9325C14.9715 8.89248 15.1004 8.87532 15.2221 8.87532V12.8753ZM15.9979 12.761C16.2539 12.6835 16.5179 12.5609 16.7651 12.3803L14.4053 9.15053C14.5572 9.03958 14.7079 8.97225 14.8393 8.9325L15.9979 12.761ZM16.7651 12.3803C17.0124 12.1996 17.2537 11.9524 17.4364 11.6301L13.9567 9.65732C14.0878 9.42607 14.2534 9.26154 14.4053 9.15053L16.7651 12.3803ZM17.4364 11.6301C17.6218 11.3031 17.7356 10.9167 17.7356 10.5001L13.7356 10.5001C13.7356 10.1821 13.8229 9.89324 13.9567 9.65732L17.4364 11.6301ZM17.7356 10.5001C17.7356 10.0835 17.6218 9.69711 17.4364 9.37015L13.9567 11.3429C13.8229 11.107 13.7356 10.8182 13.7356 10.5001L17.7356 10.5001ZM17.4364 9.37015C17.2537 9.04785 17.0124 8.8006 16.7651 8.6199L14.4053 11.8497C14.2534 11.7387 14.0878 11.5741 13.9567 11.3429L17.4364 9.37015ZM5.41716 5.25011C5.41716 5.14639 5.45511 4.96144 5.67154 4.72479L2.71978 2.02532C1.92104 2.89871 1.41716 4.0188 1.41716 5.25011H5.41716ZM5.67154 4.72479C5.89736 4.47786 6.28815 4.21572 6.84807 4.04627L5.68942 0.217755C4.5612 0.559195 3.50911 1.16222 2.71978 2.02532L5.67154 4.72479ZM6.84807 4.04627C7.40377 3.8781 8.03622 3.82996 8.65002 3.91916L9.2253 -0.0392512C8.04699 -0.210496 6.82185 -0.12496 5.68942 0.217755L6.84807 4.04627ZM8.65002 3.91916C9.26641 4.00874 9.77317 4.22296 10.1229 4.47851L12.4827 1.24873C11.5404 0.56028 10.401 0.131619 9.2253 -0.0392512L8.65002 3.91916ZM10.1229 4.47851C10.4711 4.73287 10.5987 4.97535 10.6373 5.11705L14.4968 4.0663C14.1789 2.89863 13.4266 1.93838 12.4827 1.24873L10.1229 4.47851ZM10.6373 5.11705C10.6701 5.23766 10.6666 5.37482 10.5643 5.55529L14.044 7.52803C14.641 6.47511 14.8204 5.25506 14.4968 4.0663L10.6373 5.11705ZM10.5643 5.55529C10.4496 5.75774 10.1935 6.03053 9.72543 6.25905L11.4802 9.85358C12.5314 9.34041 13.4595 8.55899 14.044 7.52803L10.5643 5.55529ZM9.72543 6.25905C9.26067 6.48594 8.67104 6.62511 8.03648 6.62511L8.03648 10.6251C9.22915 10.6251 10.4257 10.3684 11.4802 9.85358L9.72543 6.25905ZM8.0381 6.62511C7.17447 6.62441 6.42818 6.36887 5.95151 6.0206L3.59174 9.25039C4.84707 10.1676 6.44908 10.6238 8.03486 10.6251L8.0381 6.62511ZM5.95151 6.0206C5.48467 5.67951 5.41735 5.37404 5.41716 5.24707L1.41716 5.25314C1.41969 6.91578 2.3266 8.32604 3.59174 9.25039L5.95151 6.0206Z" fill="white" mask="url(#path-1-inside-1_741_48)"/>
</svg>
