<?xml version="1.0" encoding="UTF-8" standalone="no"?>
<!-- Created with Inkscape (http://www.inkscape.org/) -->

<svg
   version="1.1"
   id="svg1"
   width="254"
   height="230"
   viewBox="0 0 254 230"
   sodipodi:docname="mestre.svg"
   inkscape:version="1.3 (0e150ed6c4, 2023-07-21)"
   xml:space="preserve"
   xmlns:inkscape="http://www.inkscape.org/namespaces/inkscape"
   xmlns:sodipodi="http://sodipodi.sourceforge.net/DTD/sodipodi-0.dtd"
   xmlns="http://www.w3.org/2000/svg"
   xmlns:svg="http://www.w3.org/2000/svg"><defs
     id="defs1" /><sodipodi:namedview
     id="namedview1"
     pagecolor="#ffffff"
     bordercolor="#000000"
     borderopacity="0.25"
     inkscape:showpageshadow="2"
     inkscape:pageopacity="0.0"
     inkscape:pagecheckerboard="0"
     inkscape:deskcolor="#d1d1d1"
     inkscape:zoom="1.3934783"
     inkscape:cx="115.53822"
     inkscape:cy="80.733226"
     inkscape:window-width="1600"
     inkscape:window-height="837"
     inkscape:window-x="1432"
     inkscape:window-y="-8"
     inkscape:window-maximized="1"
     inkscape:current-layer="g1" /><g
     inkscape:groupmode="layer"
     inkscape:label="Image"
     id="g1"><path
       style="opacity:1;fill:#f9f9f9;fill-opacity:1;stroke:none;stroke-width:0.290256;stroke-linecap:square;stroke-linejoin:miter;stroke-dasharray:none;stroke-opacity:1"
       d=""
       id="path8" /><g
       id="g13"
       transform="matrix(0.37013356,0,0,0.37013356,45.709464,76.630278)"><path
         style="opacity:1;fill:#f9f9f9;fill-opacity:1;stroke:none;stroke-width:1.64193;stroke-linecap:square;stroke-linejoin:miter;stroke-dasharray:none;stroke-opacity:1"
         d="m -29.422776,354.27864 c -6.990322,-4.07149 -6.271794,-14.87222 1.435258,-21.57445 4.563298,-3.96834 8.439752,-13.8369 13.209465,-33.62826 l 6.7508079,-28.01167 14.2709217,-7.23162 C 24.682373,254.48905 63.263724,240.89946 86.504396,235.56225 130.79321,225.39133 175.8663,227.35842 205.2418,240.74419 l 14.35257,6.54015 14.35258,-6.53205 c 29.42541,-13.39192 74.45245,-15.36007 118.7374,-5.19004 23.24067,5.33721 61.82202,18.9268 80.26071,28.27039 l 14.27094,7.23162 6.75079,28.01167 c 4.76973,19.79136 8.64619,29.65992 13.20948,33.62826 8.44115,7.34062 8.42338,18.16176 -0.0362,22.01619 -5.16733,2.35439 -24.08893,-1.50968 -92.5741,-18.90503 l -86.07927,-21.86428 -4.26935,6.64381 c -29.82806,46.41727 -99.41794,46.41727 -129.24601,0 l -4.26935,-6.64381 -85.4876,21.71401 c -47.018184,11.9427 -86.415997,21.67472 -87.550699,21.62671 -1.134703,-0.048 -4.323626,-1.40393 -7.086497,-3.01315 z"
         id="path1" /><path
         style="opacity:1;fill:#f9f9f9;fill-opacity:1;stroke:none;stroke-width:0.820967;stroke-linecap:square;stroke-linejoin:miter;stroke-dasharray:none;stroke-opacity:1"
         d="m 6.2534141,211.71254 c -8.0429238,-3.24572 -10.3658596,-15.6018 -4.1093489,-21.85832 3.9064396,-3.90643 11.9154328,-5.59877 39.1758728,-8.27801 37.958668,-3.7307 82.750622,0.69851 112.220232,11.09679 l 7.86157,2.77392 -25.80228,0.85613 c -14.19125,0.47087 -30.9692,1.86536 -37.284332,3.09886 -19.36655,3.78277 -27.087835,5.40245 -31.575661,6.6236 -2.368175,0.64438 -8.5039,1.58612 -13.634945,2.09275 -5.131045,0.50663 -16.628242,1.84282 -25.549326,2.9693 -18.3522222,2.31738 -17.192342,2.28335 -21.3017819,0.62498 z"
         id="path2" /><path
         style="opacity:1;fill:#f9f9f9;fill-opacity:1;stroke:none;stroke-width:0.820967;stroke-linecap:square;stroke-linejoin:miter;stroke-dasharray:none;stroke-opacity:1"
         d="m -18.145961,131.33813 c -7.532197,-3.03962 -10.034525,-13.86579 -4.755965,-20.57639 7.488824,-9.5205 24.2209835,-3.75132 24.2596235,8.36462 0.030143,9.45179 -10.3059587,15.9235 -19.5036585,12.21177 z"
         id="path3" /><path
         style="opacity:1;fill:#f9f9f9;fill-opacity:1;stroke:none;stroke-width:0.820967;stroke-linecap:square;stroke-linejoin:miter;stroke-dasharray:none;stroke-opacity:1"
         d="m -5.6711266,-62.598924 c -10.5835614,-4.693092 -18.1496024,-11.942064 -23.2250504,-22.251762 -4.056455,-8.23983 -4.630692,-10.826181 -4.567926,-20.573824 0.06309,-9.797 0.64917,-12.23249 4.832356,-20.08095 8.342843,-15.65278 22.760336,-24.49597 39.873981,-24.45732 5.262949,0.0119 12.015288,0.87347 15.005197,1.91465 22.842514,7.95441 36.722447,35.04982 29.068082,56.744603 -4.633288,13.132136 -17.0995,25.775979 -29.582781,30.004308 -7.901047,2.676237 -23.9339627,2.012686 -31.4038586,-1.299705 z"
         id="path4" /><path
         style="opacity:1;fill:#f9f9f9;fill-opacity:1;stroke:none;stroke-width:0.820967;stroke-linecap:square;stroke-linejoin:miter;stroke-dasharray:none;stroke-opacity:1"
         d="M 116.97347,138.65044 C 114.6053,137.15901 90.546798,113.7271 63.510138,86.579511 16.968504,39.846926 14.352574,36.942274 14.352574,31.996383 c 0,-7.987551 5.75024,-14.055666 13.319366,-14.055666 5.824438,0 6.442548,0.553117 57.339534,51.31045 l 51.451626,51.310453 -0.41564,7.12789 c -0.36726,6.29824 -0.98328,7.50939 -5.29248,10.40561 -5.92074,3.97934 -8.19888,4.07113 -13.78151,0.55532 z"
         id="path5" /><path
         style="opacity:1;fill:#f9f9f9;fill-opacity:1;stroke:none;stroke-width:0.820967;stroke-linecap:square;stroke-linejoin:miter;stroke-dasharray:none;stroke-opacity:1"
         d="m 181.29284,122.78594 c -6.95732,-4.24218 -6.43499,-2.3765 -12.07487,-43.129157 -0.81935,-5.920437 -2.38606,-16.577222 -3.48159,-23.681746 -1.09553,-7.104524 -2.7095,-18.407176 -3.58661,-25.117004 -0.8771,-6.709828 -2.19699,-15.698202 -2.93309,-19.974162 -2.28865,-13.2945822 -1.83648,-15.8161821 3.78722,-21.120016 2.81908,-2.658731 6.60717,-4.834057 8.41799,-4.834057 7.18163,0 15.16157,10.0345907 15.16157,19.0653255 0,2.6704154 0.60226,8.3538145 1.33836,12.6297765 0.7361,4.275961 2.06465,13.264334 2.95234,19.974162 2.32392,17.566108 4.22026,30.582616 6.48207,44.492978 3.87516,23.83263 4.18468,32.26167 1.36024,37.04306 -2.44125,4.13271 -7.40726,7.4561 -11.1241,7.44455 -0.9496,-0.003 -3.78439,-1.26012 -6.29953,-2.79371 z"
         id="path6" /><path
         style="opacity:1;fill:#f9f9f9;fill-opacity:1;stroke:none;stroke-width:0.820967;stroke-linecap:square;stroke-linejoin:miter;stroke-dasharray:none;stroke-opacity:1"
         d="m 210.3902,-79.526312 c -8.48175,-8.853035 -2.97849,-22.311718 9.12327,-22.311718 8.03777,0 12.99822,4.897679 12.99822,12.833736 0,12.396397 -13.70132,18.266746 -22.12149,9.477982 z"
         id="path7" /><path
         style="opacity:1;fill:#f9f9f9;fill-opacity:1;stroke:none;stroke-width:0.820967;stroke-linecap:square;stroke-linejoin:miter;stroke-dasharray:none;stroke-opacity:1"
         d="m 246.0321,123.94229 c -1.64177,-0.79664 -4.1419,-3.40684 -5.55584,-5.80044 -3.15692,-5.34424 -2.64906,-9.93592 4.17728,-37.767438 5.57592,-22.733458 12.81457,-52.861961 16.03478,-66.739467 1.19063,-5.1310452 4.34639,-18.3712943 7.01281,-29.422776 2.66641,-11.051481 6.23407,-25.906395 7.92811,-33.010919 3.60368,-15.113167 5.33376,-18.289305 11.31105,-20.76518 3.4957,-1.447968 5.29337,-1.466537 8.61896,-0.08903 9.33334,3.865995 11.03104,10.930708 6.73592,28.030498 -1.18968,4.736349 -4.17728,17.007799 -6.63912,27.269889 -11.58662,48.298461 -14.54569,60.695745 -15.75856,66.021839 -0.71905,3.157566 -3.55844,15.106083 -6.30977,26.552261 -2.75132,11.446177 -5.98693,24.910023 -7.19023,29.919663 -2.42989,10.11615 -3.85043,12.37645 -9.66943,15.38558 -4.57084,2.36367 -6.52467,2.43958 -10.69596,0.41552 z"
         id="path9" /><path
         style="opacity:1;fill:#f9f9f9;fill-opacity:1;stroke:none;stroke-width:0.820967;stroke-linecap:square;stroke-linejoin:miter;stroke-dasharray:none;stroke-opacity:1"
         d="m 349.21795,10.835867 c -9.25398,-5.6425519 -10.22115,-13.7910729 -2.50111,-21.072012 5.6919,-5.368147 8.74919,-5.897051 15.10095,-2.612428 8.35099,4.3184663 9.36119,14.4059277 2.16347,21.6036428 -5.59783,5.5978382 -8.35737,5.9867772 -14.76331,2.0807972 z"
         id="path10" /><path
         style="opacity:1;fill:#f9f9f9;fill-opacity:1;stroke:none;stroke-width:0.820967;stroke-linecap:square;stroke-linejoin:miter;stroke-dasharray:none;stroke-opacity:1"
         d="m 412.0866,-61.903644 c -4.39788,-3.080393 -7.34403,-10.404611 -7.34403,-18.257468 v -6.337556 l -9.2828,-0.591083 c -7.16603,-0.456299 -10.07838,-1.338485 -12.77167,-3.8687 -6.169,-5.795473 -5.88047,-13.997779 0.70832,-20.136169 2.5712,-2.39543 5.07462,-3.00834 12.28761,-3.00834 h 9.05854 l 0.081,-6.81747 c 0.12481,-10.50345 2.7387,-16.44859 8.61664,-19.59804 6.15159,-3.29608 10.83727,-2.45688 16.19456,2.90041 3.38638,3.38637 3.81294,4.915 3.81294,13.66402 v 9.85108 l 9.68799,0.0456 c 5.34093,0.0252 10.7098,0.83017 11.96525,1.79407 6.34679,4.87292 7.38516,14.602543 2.20154,20.628854 -3.01435,3.504396 -4.61437,4.038064 -13.63494,4.547772 l -10.21984,0.577472 v 9.277614 c 0,8.340527 -0.42375,9.701366 -4.19537,13.47298 -4.84746,4.847467 -11.8179,5.600682 -17.16575,1.854904 z"
         id="path11" /><path
         style="opacity:1;fill:#f9f9f9;fill-opacity:1;stroke:none;stroke-width:0.820967;stroke-linecap:square;stroke-linejoin:miter;stroke-dasharray:none;stroke-opacity:1"
         d="m 290.74181,136.53879 c -5.73482,-5.40863 -6.68868,-10.95396 -2.83148,-16.46089 1.95601,-2.7926 9.88774,-7.13957 21.38763,-11.72146 1.57878,-0.62903 5.77691,-2.42434 9.32917,-3.98958 3.55226,-1.56523 17.11545,-7.19491 30.14041,-12.51039 13.02496,-5.31548 26.26521,-10.78931 29.42277,-12.164067 11.64455,-5.069861 13.86141,-5.776649 18.11866,-5.776649 5.98336,0 12.73937,6.841872 12.73937,12.901267 0,8.480564 -3.76248,11.91114 -19.1769,17.485199 -3.83748,1.38768 -9.9732,3.89576 -13.63495,5.57352 -3.66175,1.67776 -7.94945,3.63412 -9.52824,4.34746 -14.63375,6.61198 -66.28376,27.14965 -68.27842,27.14965 -1.40934,0 -4.86895,-2.17533 -7.68802,-4.83406 z"
         id="path12" /><path
         style="opacity:1;fill:#f9f9f9;fill-opacity:1;stroke:none;stroke-width:0.820967;stroke-linecap:square;stroke-linejoin:miter;stroke-dasharray:none;stroke-opacity:1"
         d="m 416.22463,211.74354 c -4.34165,-0.62672 -14.6755,-1.86873 -22.96412,-2.76002 -8.28861,-0.8913 -17.97659,-2.30448 -21.52886,-3.14041 -28.43966,-6.69247 -42.0183,-8.62992 -67.65571,-9.65337 l -24.91839,-0.99474 8.61155,-3.05609 c 34.82329,-12.3582 85.9056,-15.18553 135.28183,-7.48765 12.81904,1.99853 17.57308,5.85291 17.57308,14.24756 0,11.13583 -7.7982,15.24108 -24.39938,12.84472 z"
         id="path13" /></g></g></svg>
