<svg width="292" height="59" viewBox="0 0 292 59" fill="none" xmlns="http://www.w3.org/2000/svg">
<rect width="292" height="59" fill="black"/>
<path d="M20.9854 35.1233L23.6944 26.8954L21.3234 18.9536L52.004 18.9474L49.4481 27.0197L52.3869 35.1234" fill="black"/>
<path d="M20.9854 35.1233L23.6944 26.8954L21.3234 18.9536L52.004 18.9474L49.4481 27.0197L52.3869 35.1234" stroke="black" stroke-width="1.50538" stroke-linecap="round" stroke-linejoin="round"/>
<path d="M27.2134 33.995C27.2134 33.995 28.022 32.1372 28.9776 31.8376C28.9776 31.8376 29.1268 33.1003 30.1538 33.8751C30.1538 33.8751 31.1829 32.3769 31.771 32.0773C31.771 32.0773 32.2426 33.7274 32.9755 34.7638C32.9755 34.7638 34.2434 32.909 34.6845 32.7292C34.6845 32.7292 34.0089 33.8158 34.7114 34.3546C34.7114 34.3546 35.0054 32.7365 35.4465 32.1971C35.4465 32.1971 35.8978 33.65 36.8431 34.2347C36.8431 34.2347 37.5047 32.5567 37.7988 32.2571C37.7988 32.2571 38.4885 33.6397 39.1219 33.995C39.1219 33.995 39.061 33.0997 40.2298 31.9955C40.2298 31.9955 40.503 32.8884 42.1358 33.9351C42.1358 33.9351 42.5441 32.1817 43.5732 31.5679C43.5732 31.5679 43.8634 33.0882 44.8557 33.995C44.8557 33.995 45.1039 32.3397 46.4412 31.6278C46.4412 31.6278 46.0949 32.705 46.7669 33.6953L46.6128 35.0345L27.2246 34.9921L27.2134 33.995Z" fill="white"/>
<path d="M26.9521 25.7395L33.6501 27.9871C33.6501 27.9871 27.59 30.7741 26.9521 25.7395Z" fill="white" stroke="white" stroke-width="1.70121" stroke-linecap="round" stroke-linejoin="round"/>
<path d="M46.798 25.7811L40.1001 28.0287C40.1001 28.0287 46.1601 30.8157 46.798 25.7811Z" fill="white" stroke="white" stroke-width="1.70121" stroke-linecap="round" stroke-linejoin="round"/>
<path d="M18.6504 35.2123L21.1451 48.6603L52.7445 48.5724L55.1353 35.2123H18.6504Z" fill="white"/>
<path d="M21.355 18.9269L23.2095 11.5725H48.7352L51.9725 18.9197" fill="white"/>
<path d="M27.407 35.0053C27.407 35.0053 24.921 33.1219 25.2813 31.4646C25.2813 31.4646 23.624 33.8502 23.624 35.1308" fill="white"/>
<path d="M27.407 35.0053C27.407 35.0053 24.921 33.1219 25.2813 31.4646C25.2813 31.4646 23.624 33.8502 23.624 35.1308" stroke="black" stroke-width="0.5" stroke-linecap="round" stroke-linejoin="round"/>
<path d="M45.9199 34.9686C45.9199 34.9686 48.3973 33.025 48.0383 31.3146C48.0383 31.3146 49.6899 33.7653 49.6899 35.0869" fill="white"/>
<path d="M45.9199 34.9686C45.9199 34.9686 48.3973 33.025 48.0383 31.3146C48.0383 31.3146 49.6899 33.7653 49.6899 35.0869" stroke="black" stroke-width="0.5" stroke-linecap="round" stroke-linejoin="round"/>
<path d="M28.0741 18.952C28.0741 18.952 25.6051 20.956 25.9629 22.7196C25.9629 22.7196 24.3169 20.5552 24.3169 19.1925" fill="white"/>
<path d="M28.0741 18.952C28.0741 18.952 25.6051 20.956 25.9629 22.7196C25.9629 22.7196 24.3169 20.5552 24.3169 19.1925" stroke="black" stroke-width="0.5" stroke-linecap="round" stroke-linejoin="round"/>
<path d="M32.9233 34.7467C32.9233 34.7467 38.8392 35.6021 39.2718 38.5487C39.7043 41.4953 39.8573 42.1299 39.8573 42.1299C39.8573 42.1299 40.7377 46.0066 46.3132 46.474C46.3132 46.474 49.0048 46.8195 50.5428 45.0312C50.5428 45.0312 51.6822 43.9076 51.8744 43.0134C51.8744 43.0134 51.6341 42.6476 51.0814 43.0134C50.5286 43.3792 49.0649 43.7611 49.0649 43.7611C49.0649 43.7611 46.4638 43.944 46.656 40.3166C46.656 40.3166 46.9541 37.9983 44.609 35.0238C44.609 35.0238 39.3306 29.4315 33.4358 30.8429" fill="black"/>
<path d="M44.894 18.7007C44.894 18.7007 47.3672 20.6745 47.0088 22.4114C47.0088 22.4114 48.6576 20.2797 48.6576 18.9375" fill="white"/>
<path d="M44.894 18.7007C44.894 18.7007 47.3672 20.6745 47.0088 22.4114C47.0088 22.4114 48.6576 20.2797 48.6576 18.9375" stroke="black" stroke-width="0.5" stroke-linecap="round" stroke-linejoin="round"/>
<path d="M50.146 34.7728L51.2374 32.5754L52.6407 34.9486L50.146 34.7728Z" fill="white" stroke="black" stroke-width="0.5" stroke-linecap="round"/>
<path d="M23.1718 35.0365L22.1323 32.5754L21.3008 34.597L23.1718 35.0365Z" fill="white" stroke="black" stroke-width="0.5" stroke-linecap="round"/>
<path d="M48.944 19.6237L50.7815 22.203L51.7738 18.8468L48.7603 19.0022L48.944 19.6237Z" fill="white" stroke="black" stroke-width="0.5" stroke-linecap="round" stroke-linejoin="round"/>
<path d="M24.064 19.0644L22.5205 22.3584L21.5649 18.9401L24.064 19.0644Z" fill="white" stroke="black" stroke-width="0.5" stroke-linecap="round" stroke-linejoin="round"/>
<line x1="233.5" y1="16.5" x2="268.5" y2="16.5" stroke="white" stroke-width="5" stroke-linecap="round"/>
<line x1="233.5" y1="43.5" x2="268.5" y2="43.5" stroke="white" stroke-width="5" stroke-linecap="round"/>
<line x1="233.5" y1="30.5" x2="268.5" y2="30.5" stroke="white" stroke-width="5" stroke-linecap="round"/>
</svg>
