<svg width="341" height="59" viewBox="0 0 341 59" fill="none" xmlns="http://www.w3.org/2000/svg">
<rect width="341" height="59" fill="black"/>
<path d="M24.507 35.1234L27.6706 26.8954L24.9018 18.9536L60.7308 18.9474L57.746 27.0198L61.178 35.1234" fill="black"/>
<path d="M24.507 35.1234L27.6706 26.8954L24.9018 18.9536L60.7308 18.9474L57.746 27.0198L61.178 35.1234" stroke="black" stroke-width="1.50538" stroke-linecap="round" stroke-linejoin="round"/>
<path d="M31.7799 33.9951C31.7799 33.9951 32.7242 32.1373 33.8402 31.8377C33.8402 31.8377 34.0144 33.1004 35.2137 33.8752C35.2137 33.8752 36.4155 32.377 37.1023 32.0774C37.1023 32.0774 37.653 33.7276 38.509 34.7639C38.509 34.7639 39.9897 32.9091 40.5047 32.7293C40.5047 32.7293 39.7157 33.8159 40.5361 34.3547C40.5361 34.3547 40.8795 32.7366 41.3946 32.1972C41.3946 32.1972 41.9217 33.6501 43.0256 34.2348C43.0256 34.2348 43.7982 32.5568 44.1416 32.2572C44.1416 32.2572 44.9471 33.6398 45.6868 33.9951C45.6868 33.9951 45.6157 33.0998 46.9806 31.9956C46.9806 31.9956 47.2996 32.8886 49.2065 33.9352C49.2065 33.9352 49.6832 32.1818 50.8851 31.568C50.8851 31.568 51.2239 33.0883 52.3827 33.9951C52.3827 33.9951 52.6726 32.3398 54.2344 31.6279C54.2344 31.6279 53.8299 32.7051 54.6147 33.6955L54.4347 35.0346L31.793 34.9922L31.7799 33.9951Z" fill="white"/>
<path d="M31.475 25.7395L39.2969 27.9871C39.2969 27.9871 32.2199 30.7741 31.475 25.7395Z" fill="white" stroke="white" stroke-width="1.70121" stroke-linecap="round" stroke-linejoin="round"/>
<path d="M54.6509 25.7812L46.829 28.0288C46.829 28.0288 53.9059 30.8158 54.6509 25.7812Z" fill="white" stroke="white" stroke-width="1.70121" stroke-linecap="round" stroke-linejoin="round"/>
<path d="M21.78 35.2123L24.6934 48.6603L61.5955 48.5724L64.3874 35.2123H21.78Z" fill="white"/>
<path d="M24.9386 18.927L27.1044 11.5726H56.9135L60.694 18.9197" fill="white"/>
<path d="M32.0061 35.0053C32.0061 35.0053 29.103 33.1219 29.5238 31.4646C29.5238 31.4646 27.5884 33.8502 27.5884 35.1308" fill="white"/>
<path d="M32.0061 35.0053C32.0061 35.0053 29.103 33.1219 29.5238 31.4646C29.5238 31.4646 27.5884 33.8502 27.5884 35.1308" stroke="black" stroke-width="0.5" stroke-linecap="round" stroke-linejoin="round"/>
<path d="M53.6254 34.9686C53.6254 34.9686 56.5185 33.025 56.0992 31.3146C56.0992 31.3146 58.028 33.7653 58.028 35.087" fill="white"/>
<path d="M53.6254 34.9686C53.6254 34.9686 56.5185 33.025 56.0992 31.3146C56.0992 31.3146 58.028 33.7653 58.028 35.087" stroke="black" stroke-width="0.5" stroke-linecap="round" stroke-linejoin="round"/>
<path d="M32.7851 18.952C32.7851 18.952 29.9017 20.956 30.3196 22.7196C30.3196 22.7196 28.3973 20.5552 28.3973 19.1925" fill="white"/>
<path d="M32.7851 18.952C32.7851 18.952 29.9017 20.956 30.3196 22.7196C30.3196 22.7196 28.3973 20.5552 28.3973 19.1925" stroke="black" stroke-width="0.5" stroke-linecap="round" stroke-linejoin="round"/>
<path d="M38.4481 34.7467C38.4481 34.7467 45.3567 35.6021 45.8619 38.5487C46.367 41.4953 46.5456 42.1299 46.5456 42.1299C46.5456 42.1299 47.5738 46.0066 54.0849 46.474C54.0849 46.474 57.2282 46.8195 59.0243 45.0312C59.0243 45.0312 60.3549 43.9076 60.5794 43.0134C60.5794 43.0134 60.2987 42.6476 59.6532 43.0134C59.0077 43.3792 57.2983 43.7611 57.2983 43.7611C57.2983 43.7611 54.2608 43.944 54.4853 40.3166C54.4853 40.3166 54.8334 37.9983 52.0948 35.0238C52.0948 35.0238 45.9306 29.4315 39.0466 30.8429" fill="black"/>
<path d="M52.4274 18.7007C52.4274 18.7007 55.3156 20.6745 54.897 22.4115C54.897 22.4115 56.8225 20.2798 56.8225 18.9376" fill="white"/>
<path d="M52.4274 18.7007C52.4274 18.7007 55.3156 20.6745 54.897 22.4115C54.897 22.4115 56.8225 20.2798 56.8225 18.9376" stroke="black" stroke-width="0.5" stroke-linecap="round" stroke-linejoin="round"/>
<path d="M58.5608 34.7729L59.8354 32.5755L61.4741 34.9487L58.5608 34.7729Z" fill="white" stroke="black" stroke-width="0.5" stroke-linecap="round"/>
<path d="M27.0605 35.0366L25.8466 32.5755L24.8755 34.5971L27.0605 35.0366Z" fill="white" stroke="black" stroke-width="0.5" stroke-linecap="round"/>
<path d="M57.1571 19.6238L59.303 22.2031L60.4617 18.8469L56.9425 19.0023L57.1571 19.6238Z" fill="white" stroke="black" stroke-width="0.5" stroke-linecap="round" stroke-linejoin="round"/>
<path d="M28.1021 19.0644L26.2996 22.3585L25.1837 18.9401L28.1021 19.0644Z" fill="white" stroke="black" stroke-width="0.5" stroke-linecap="round" stroke-linejoin="round"/>
<line x1="272.264" y1="16.5" x2="307.264" y2="16.5" stroke="white" stroke-width="5" stroke-linecap="round"/>
<line x1="272.264" y1="43.5" x2="307.264" y2="43.5" stroke="white" stroke-width="5" stroke-linecap="round"/>
<line x1="272.264" y1="30.5" x2="307.264" y2="30.5" stroke="white" stroke-width="5" stroke-linecap="round"/>
</svg>
