<svg width="374" height="59" viewBox="0 0 374 59" fill="none" xmlns="http://www.w3.org/2000/svg">
<rect width="341" height="59" fill="black"/>
<path d="M332.654 35.1234L335.818 26.8954L333.049 18.9536L368.878 18.9474L365.893 27.0198L369.325 35.1234" fill="black"/>
<path d="M332.654 35.1234L335.818 26.8954L333.049 18.9536L368.878 18.9474L365.893 27.0198L369.325 35.1234" stroke="black" stroke-width="1.50538" stroke-linecap="round" stroke-linejoin="round"/>
<path d="M339.927 33.9951C339.927 33.9951 340.871 32.1373 341.987 31.8377C341.987 31.8377 342.162 33.1004 343.361 33.8752C343.361 33.8752 344.563 32.377 345.249 32.0774C345.249 32.0774 345.8 33.7276 346.656 34.7639C346.656 34.7639 348.137 32.9091 348.652 32.7293C348.652 32.7293 347.863 33.8159 348.683 34.3547C348.683 34.3547 349.027 32.7366 349.542 32.1972C349.542 32.1972 350.069 33.6501 351.173 34.2348C351.173 34.2348 351.945 32.5568 352.289 32.2572C352.289 32.2572 353.094 33.6398 353.834 33.9951C353.834 33.9951 353.763 33.0998 355.128 31.9956C355.128 31.9956 355.447 32.8886 357.354 33.9352C357.354 33.9352 357.83 32.1818 359.032 31.568C359.032 31.568 359.371 33.0883 360.53 33.9951C360.53 33.9951 360.82 32.3398 362.381 31.6279C362.381 31.6279 361.977 32.7051 362.762 33.6955L362.582 35.0346L339.94 34.9922L339.927 33.9951Z" fill="white"/>
<path d="M339.622 25.7395L347.444 27.9871C347.444 27.9871 340.367 30.7741 339.622 25.7395Z" fill="white" stroke="white" stroke-width="1.70121" stroke-linecap="round" stroke-linejoin="round"/>
<path d="M362.798 25.7812L354.976 28.0288C354.976 28.0288 362.053 30.8158 362.798 25.7812Z" fill="white" stroke="white" stroke-width="1.70121" stroke-linecap="round" stroke-linejoin="round"/>
<path d="M329.927 35.2123L332.841 48.6603L369.743 48.5724L372.535 35.2123H329.927Z" fill="white"/>
<path d="M333.086 18.927L335.252 11.5726H365.061L368.841 18.9197" fill="white"/>
<path d="M340.153 35.0053C340.153 35.0053 337.25 33.1219 337.671 31.4646C337.671 31.4646 335.736 33.8502 335.736 35.1308" fill="white"/>
<path d="M340.153 35.0053C340.153 35.0053 337.25 33.1219 337.671 31.4646C337.671 31.4646 335.736 33.8502 335.736 35.1308" stroke="black" stroke-width="0.5" stroke-linecap="round" stroke-linejoin="round"/>
<path d="M361.772 34.9686C361.772 34.9686 364.666 33.025 364.246 31.3146C364.246 31.3146 366.175 33.7653 366.175 35.087" fill="white"/>
<path d="M361.772 34.9686C361.772 34.9686 364.666 33.025 364.246 31.3146C364.246 31.3146 366.175 33.7653 366.175 35.087" stroke="black" stroke-width="0.5" stroke-linecap="round" stroke-linejoin="round"/>
<path d="M340.932 18.952C340.932 18.952 338.049 20.956 338.467 22.7196C338.467 22.7196 336.545 20.5552 336.545 19.1925" fill="white"/>
<path d="M340.932 18.952C340.932 18.952 338.049 20.956 338.467 22.7196C338.467 22.7196 336.545 20.5552 336.545 19.1925" stroke="black" stroke-width="0.5" stroke-linecap="round" stroke-linejoin="round"/>
<path d="M346.595 34.7467C346.595 34.7467 353.504 35.6021 354.009 38.5487C354.514 41.4953 354.693 42.1299 354.693 42.1299C354.693 42.1299 355.721 46.0066 362.232 46.474C362.232 46.474 365.375 46.8195 367.171 45.0312C367.171 45.0312 368.502 43.9076 368.726 43.0134C368.726 43.0134 368.446 42.6476 367.8 43.0134C367.155 43.3792 365.445 43.7611 365.445 43.7611C365.445 43.7611 362.408 43.944 362.632 40.3166C362.632 40.3166 362.98 37.9983 360.242 35.0238C360.242 35.0238 354.078 29.4315 347.194 30.8429" fill="black"/>
<path d="M360.575 18.7007C360.575 18.7007 363.463 20.6745 363.044 22.4115C363.044 22.4115 364.97 20.2798 364.97 18.9376" fill="white"/>
<path d="M360.575 18.7007C360.575 18.7007 363.463 20.6745 363.044 22.4115C363.044 22.4115 364.97 20.2798 364.97 18.9376" stroke="black" stroke-width="0.5" stroke-linecap="round" stroke-linejoin="round"/>
<path d="M366.708 34.7729L367.982 32.5755L369.621 34.9487L366.708 34.7729Z" fill="white" stroke="black" stroke-width="0.5" stroke-linecap="round"/>
<path d="M335.208 35.0366L333.994 32.5755L333.023 34.5971L335.208 35.0366Z" fill="white" stroke="black" stroke-width="0.5" stroke-linecap="round"/>
<path d="M365.304 19.6238L367.45 22.2031L368.609 18.8469L365.09 19.0023L365.304 19.6238Z" fill="white" stroke="black" stroke-width="0.5" stroke-linecap="round" stroke-linejoin="round"/>
<path d="M336.249 19.0644L334.447 22.3585L333.331 18.9401L336.249 19.0644Z" fill="white" stroke="black" stroke-width="0.5" stroke-linecap="round" stroke-linejoin="round"/>
<line x1="272.264" y1="16.5" x2="307.264" y2="16.5" stroke="white" stroke-width="5" stroke-linecap="round"/>
<line x1="272.264" y1="43.5" x2="307.264" y2="43.5" stroke="white" stroke-width="5" stroke-linecap="round"/>
<line x1="272.264" y1="30.5" x2="307.264" y2="30.5" stroke="white" stroke-width="5" stroke-linecap="round"/>
</svg>
