<svg width="341" height="59" viewBox="0 0 341 59" fill="none" xmlns="http://www.w3.org/2000/svg">
<rect width="341" height="59" fill="black"/>
<path d="M24.5071 35.1237L27.6707 26.8957L24.9019 18.9539L60.7309 18.9478L57.7461 27.0201L61.1781 35.1237" fill="black"/>
<path d="M24.5071 35.1237L27.6707 26.8957L24.9019 18.9539L60.7309 18.9478L57.7461 27.0201L61.1781 35.1237" stroke="black" stroke-width="1.50538" stroke-linecap="round" stroke-linejoin="round"/>
<path d="M31.7798 33.9955C31.7798 33.9955 32.7241 32.1377 33.8401 31.838C33.8401 31.838 34.0143 33.1008 35.2136 33.8756C35.2136 33.8756 36.4154 32.3774 37.1022 32.0778C37.1022 32.0778 37.6529 33.7279 38.5088 34.7643C38.5088 34.7643 39.9896 32.9095 40.5046 32.7297C40.5046 32.7297 39.7156 33.8163 40.536 34.355C40.536 34.355 40.8794 32.737 41.3944 32.1976C41.3944 32.1976 41.9216 33.6504 43.0255 34.2352C43.0255 34.2352 43.7981 32.5572 44.1415 32.2575C44.1415 32.2575 44.947 33.6402 45.6867 33.9955C45.6867 33.9955 45.6156 33.1002 46.9805 31.996C46.9805 31.996 47.2995 32.8889 49.2064 33.9355C49.2064 33.9355 49.6831 32.1822 50.885 31.5684C50.885 31.5684 51.2238 33.0886 52.3826 33.9955C52.3826 33.9955 52.6725 32.3402 54.2342 31.6283C54.2342 31.6283 53.8298 32.7055 54.6146 33.6958L54.4346 35.035L31.7929 34.9926L31.7798 33.9955Z" fill="white"/>
<path d="M31.4749 25.7397L39.2967 27.9873C39.2967 27.9873 32.2198 30.7743 31.4749 25.7397Z" fill="white" stroke="white" stroke-width="1.70121" stroke-linecap="round" stroke-linejoin="round"/>
<path d="M54.6507 25.7812L46.8289 28.0288C46.8289 28.0288 53.9058 30.8158 54.6507 25.7812Z" fill="white" stroke="white" stroke-width="1.70121" stroke-linecap="round" stroke-linejoin="round"/>
<path d="M21.78 35.2124L24.6934 48.6604L61.5955 48.5725L64.3874 35.2124H21.78Z" fill="white"/>
<path d="M24.9385 18.9271L27.1042 11.5728H56.9134L60.6939 18.9199" fill="white"/>
<path d="M32.0061 35.0055C32.0061 35.0055 29.103 33.1222 29.5238 31.4648C29.5238 31.4648 27.5884 33.8504 27.5884 35.1311" fill="white"/>
<path d="M32.0061 35.0055C32.0061 35.0055 29.103 33.1222 29.5238 31.4648C29.5238 31.4648 27.5884 33.8504 27.5884 35.1311" stroke="black" stroke-width="0.5" stroke-linecap="round" stroke-linejoin="round"/>
<path d="M53.6252 34.9689C53.6252 34.9689 56.5184 33.0253 56.0991 31.3149C56.0991 31.3149 58.0279 33.7656 58.0279 35.0873" fill="white"/>
<path d="M53.6252 34.9689C53.6252 34.9689 56.5184 33.0253 56.0991 31.3149C56.0991 31.3149 58.0279 33.7656 58.0279 35.0873" stroke="black" stroke-width="0.5" stroke-linecap="round" stroke-linejoin="round"/>
<path d="M32.7852 18.9521C32.7852 18.9521 29.9018 20.9562 30.3197 22.7197C30.3197 22.7197 28.3975 20.5554 28.3975 19.1926" fill="white"/>
<path d="M32.7852 18.9521C32.7852 18.9521 29.9018 20.9562 30.3197 22.7197C30.3197 22.7197 28.3975 20.5554 28.3975 19.1926" stroke="black" stroke-width="0.5" stroke-linecap="round" stroke-linejoin="round"/>
<path d="M38.448 34.747C38.448 34.747 45.3566 35.6023 45.8617 38.5489C46.3669 41.4955 46.5455 42.1302 46.5455 42.1302C46.5455 42.1302 47.5737 46.0068 54.0848 46.4742C54.0848 46.4742 57.228 46.8197 59.0242 45.0314C59.0242 45.0314 60.3547 43.9078 60.5792 43.0137C60.5792 43.0137 60.2986 42.6479 59.6531 43.0137C59.0076 43.3795 57.2982 43.7613 57.2982 43.7613C57.2982 43.7613 54.2606 43.9442 54.4852 40.3169C54.4852 40.3169 54.8332 37.9985 52.0946 35.0241C52.0946 35.0241 45.9305 29.4317 39.0465 30.8431" fill="black"/>
<path d="M52.4275 18.7012C52.4275 18.7012 55.3157 20.675 54.8971 22.4119C54.8971 22.4119 56.8226 20.2802 56.8226 18.938" fill="white"/>
<path d="M52.4275 18.7012C52.4275 18.7012 55.3157 20.675 54.8971 22.4119C54.8971 22.4119 56.8226 20.2802 56.8226 18.938" stroke="black" stroke-width="0.5" stroke-linecap="round" stroke-linejoin="round"/>
<path d="M58.5608 34.7731L59.8354 32.5757L61.4741 34.9489L58.5608 34.7731Z" fill="white" stroke="black" stroke-width="0.5" stroke-linecap="round"/>
<path d="M27.0605 35.0368L25.8466 32.5757L24.8755 34.5973L27.0605 35.0368Z" fill="white" stroke="black" stroke-width="0.5" stroke-linecap="round"/>
<path d="M57.157 19.6241L59.3028 22.2033L60.4616 18.8472L56.9424 19.0025L57.157 19.6241Z" fill="white" stroke="black" stroke-width="0.5" stroke-linecap="round" stroke-linejoin="round"/>
<path d="M28.102 19.0647L26.2994 22.3588L25.1836 18.9404L28.102 19.0647Z" fill="white" stroke="black" stroke-width="0.5" stroke-linecap="round" stroke-linejoin="round"/>
<line x1="272.264" y1="16.5" x2="307.264" y2="16.5" stroke="white" stroke-width="5" stroke-linecap="round"/>
<line x1="272.264" y1="43.5" x2="307.264" y2="43.5" stroke="white" stroke-width="5" stroke-linecap="round"/>
<line x1="272.264" y1="30.5" x2="307.264" y2="30.5" stroke="white" stroke-width="5" stroke-linecap="round"/>
</svg>
