<?xml version="1.0" encoding="UTF-8" standalone="no"?>
<svg
   width="32"
   height="32"
   fill="#fafafa"
   viewBox="0 0 256 256"
   version="1.1"
   id="svg4"
   sodipodi:docname="pencil.svg"
   inkscape:export-filename="pencil.svg"
   inkscape:export-xdpi="96"
   inkscape:export-ydpi="96"
   inkscape:version="1.2.2 (732a01da63, 2022-12-09)"
   xmlns:inkscape="http://www.inkscape.org/namespaces/inkscape"
   xmlns:sodipodi="http://sodipodi.sourceforge.net/DTD/sodipodi-0.dtd"
   xmlns="http://www.w3.org/2000/svg"
   xmlns:svg="http://www.w3.org/2000/svg">
  <defs
     id="defs8" />
  <sodipodi:namedview
     id="namedview6"
     pagecolor="#ffffff"
     bordercolor="#666666"
     borderopacity="1.0"
     inkscape:showpageshadow="2"
     inkscape:pageopacity="0.0"
     inkscape:pagecheckerboard="0"
     inkscape:deskcolor="#d1d1d1"
     showgrid="false"
     inkscape:zoom="7.375"
     inkscape:cx="15.118644"
     inkscape:cy="16"
     inkscape:window-width="1440"
     inkscape:window-height="837"
     inkscape:window-x="-8"
     inkscape:window-y="-8"
     inkscape:window-maximized="1"
     inkscape:current-layer="svg4" />
  <path
     d="m 246.33545,64.316456 -53.53463,-52.61376 a 23.963575,23.5461 0 0 0 -33.89647,0 L 11.156937,156.88796 A 23.783847,23.369504 0 0 0 4.1356093,173.53505 V 226.1488 A 23.963575,23.5461 0 0 0 28.099184,249.69491 H 81.64579 a 23.795829,23.381278 0 0 0 16.942243,-6.89902 L 246.33545,97.610642 a 23.963575,23.5461 0 0 0 0,-33.294186 z M 79.620869,221.43958 H 32.891899 V 175.52469 L 133.53891,76.631066 180.26787,122.54596 Z m 121.016041,-118.9078 -46.72897,-45.914899 21.9746,-21.591773 46.72897,45.914895 z"
     id="path2"
     style="stroke-width:1.1877" />
</svg>
