<svg width="114" height="115" viewBox="0 0 114 115" fill="none" xmlns="http://www.w3.org/2000/svg">
<path d="M44.0459 70.5676C47.0325 73.5638 49.4004 77.1279 51.0124 81.0535C52.6245 84.9791 53.4488 89.1882 53.4375 93.4373C53.4375 94.3904 53.0622 95.3045 52.3941 95.9784C51.726 96.6524 50.8198 97.031 49.875 97.031C48.9302 97.031 48.024 96.6524 47.3559 95.9784C46.6878 95.3045 46.3125 94.3904 46.3125 93.4373C46.3125 86.7654 43.6852 80.3668 39.0085 75.6491C34.3318 70.9314 27.9888 68.281 21.375 68.281C20.4302 68.281 19.524 67.9024 18.8559 67.2284C18.1878 66.5545 17.8125 65.6404 17.8125 64.6873C17.8125 63.7342 18.1878 62.8201 18.8559 62.1461C19.524 61.4722 20.4302 61.0935 21.375 61.0935C25.5871 61.0822 29.7597 61.9136 33.6511 63.5399C37.5426 65.1661 41.0756 67.5547 44.0459 70.5676ZM21.375 39.531C20.4302 39.531 19.524 39.9097 18.8559 40.5836C18.1878 41.2576 17.8125 42.1717 17.8125 43.1248C17.8125 44.0779 18.1878 44.992 18.8559 45.6659C19.524 46.3399 20.4302 46.7185 21.375 46.7185C27.4568 46.7185 33.4791 47.9269 39.098 50.2748C44.7169 52.6226 49.8224 56.0639 54.1229 60.4021C58.4234 64.7404 61.8347 69.8906 64.1622 75.5588C66.4896 81.227 67.6875 87.3021 67.6875 93.4373C67.6875 94.3904 68.0628 95.3045 68.7309 95.9784C69.399 96.6524 70.3052 97.031 71.25 97.031C72.1948 97.031 73.101 96.6524 73.7691 95.9784C74.4372 95.3045 74.8125 94.3904 74.8125 93.4373C74.8125 79.1404 69.1825 65.4292 59.161 55.3198C49.1395 45.2104 35.5475 39.531 21.375 39.531ZM74.2737 40.0746C67.3432 33.0446 59.0994 27.471 50.0193 23.6765C40.9393 19.882 31.2033 17.9419 21.375 17.9685C20.4302 17.9685 19.524 18.3472 18.8559 19.0211C18.1878 19.6951 17.8125 20.6092 17.8125 21.5623C17.8125 22.5154 18.1878 23.4295 18.8559 24.1034C19.524 24.7774 20.4302 25.156 21.375 25.156C30.2674 25.1314 39.0764 26.8864 47.292 30.3193C55.5076 33.7521 62.9665 38.7948 69.2372 45.1552C75.5424 51.4809 80.5411 59.0053 83.9442 67.2929C87.3472 75.5806 89.0869 84.4668 89.0625 93.4373C89.0625 94.3904 89.4378 95.3045 90.1059 95.9784C90.774 96.6524 91.6802 97.031 92.625 97.031C93.5698 97.031 94.476 96.6524 95.1441 95.9784C95.8122 95.3045 96.1875 94.3904 96.1875 93.4373C96.2139 83.5228 94.2906 73.7014 90.5291 64.5417C86.7676 55.382 81.2425 47.0658 74.2737 40.0746ZM23.1563 86.2498C22.0994 86.2498 21.0662 86.5659 20.1874 87.1583C19.3086 87.7506 18.6237 88.5925 18.2193 89.5775C17.8148 90.5625 17.709 91.6464 17.9152 92.6921C18.1214 93.7377 18.6303 94.6982 19.3777 95.4521C20.125 96.206 21.0772 96.7194 22.1137 96.9274C23.1503 97.1354 24.2248 97.0287 25.2012 96.6207C26.1777 96.2127 27.0122 95.5218 27.5994 94.6353C28.1866 93.7488 28.5 92.7066 28.5 91.6404C28.5 90.2107 27.937 88.8396 26.9349 87.8287C25.9327 86.8177 24.5735 86.2498 23.1563 86.2498Z" fill="white"/>
</svg>
