<svg width="31" height="31" viewBox="0 0 31 31" fill="none" xmlns="http://www.w3.org/2000/svg">
<path d="M11.9774 19.0227C12.7895 19.8304 13.4334 20.7911 13.8718 21.8493C14.3102 22.9075 14.5343 24.0422 14.5312 25.1876C14.5312 25.4445 14.4292 25.6909 14.2475 25.8726C14.0658 26.0543 13.8194 26.1563 13.5625 26.1563C13.3056 26.1563 13.0592 26.0543 12.8775 25.8726C12.6958 25.6909 12.5938 25.4445 12.5938 25.1876C12.5938 23.3891 11.8793 21.6642 10.6076 20.3925C9.33584 19.1208 7.611 18.4063 5.8125 18.4063C5.55557 18.4063 5.30917 18.3043 5.12749 18.1226C4.94582 17.9409 4.84375 17.6945 4.84375 17.4376C4.84375 17.1806 4.94582 16.9342 5.12749 16.7526C5.30917 16.5709 5.55557 16.4688 5.8125 16.4688C6.9579 16.4658 8.09254 16.6899 9.15074 17.1283C10.2089 17.5666 11.1697 18.2105 11.9774 19.0227ZM5.8125 10.6563C5.55557 10.6563 5.30917 10.7584 5.12749 10.9401C4.94582 11.1217 4.84375 11.3681 4.84375 11.6251C4.84375 11.882 4.94582 12.1284 5.12749 12.3101C5.30917 12.4918 5.55557 12.5938 5.8125 12.5938C7.46634 12.5938 9.10398 12.9196 10.6319 13.5525C12.1599 14.1854 13.5482 15.113 14.7176 16.2824C15.8871 17.4519 16.8147 18.8402 17.4476 20.3682C18.0805 21.8961 18.4062 23.5337 18.4062 25.1876C18.4062 25.4445 18.5083 25.6909 18.69 25.8726C18.8717 26.0543 19.1181 26.1563 19.375 26.1563C19.6319 26.1563 19.8783 26.0543 20.06 25.8726C20.2417 25.6909 20.3437 25.4445 20.3437 25.1876C20.3437 21.3336 18.8128 17.6376 16.0876 14.9124C13.3625 12.1873 9.66643 10.6563 5.8125 10.6563ZM20.1972 10.8028C18.3126 8.9078 16.0709 7.40536 13.6017 6.3825C11.1326 5.35963 8.48511 4.83665 5.8125 4.84382C5.55557 4.84382 5.30917 4.94589 5.12749 5.12756C4.94582 5.30924 4.84375 5.55564 4.84375 5.81257C4.84375 6.0695 4.94582 6.31591 5.12749 6.49758C5.30917 6.67926 5.55557 6.78132 5.8125 6.78132C8.23062 6.77469 10.626 7.24776 12.8601 8.17315C15.0942 9.09853 17.1225 10.4578 18.8277 12.1724C20.5422 13.8776 21.9015 15.9059 22.8269 18.14C23.7523 20.374 24.2254 22.7694 24.2187 25.1876C24.2187 25.4445 24.3208 25.6909 24.5025 25.8726C24.6842 26.0543 24.9306 26.1563 25.1875 26.1563C25.4444 26.1563 25.6908 26.0543 25.8725 25.8726C26.0542 25.6909 26.1562 25.4445 26.1562 25.1876C26.1634 22.515 25.6404 19.8675 24.6176 17.3983C23.5947 14.9292 22.0923 12.6874 20.1972 10.8028ZM6.29688 23.2501C6.00947 23.2501 5.72853 23.3353 5.48956 23.495C5.2506 23.6546 5.06435 23.8816 4.95436 24.1471C4.84438 24.4126 4.8156 24.7048 4.87167 24.9867C4.92774 25.2686 5.06614 25.5275 5.26936 25.7307C5.47258 25.9339 5.73151 26.0723 6.01339 26.1284C6.29526 26.1845 6.58744 26.1557 6.85296 26.0457C7.11849 25.9357 7.34543 25.7495 7.5051 25.5105C7.66478 25.2715 7.75 24.9906 7.75 24.7032C7.75 24.3178 7.5969 23.9482 7.32439 23.6757C7.05188 23.4032 6.68227 23.2501 6.29688 23.2501Z" fill="white"/>
</svg>
