<svg width="46" height="46" viewBox="0 0 46 46" fill="none" xmlns="http://www.w3.org/2000/svg">
<path d="M39.5417 9.84615H32.25V8.38462C32.25 7.22174 31.7891 6.1065 30.9686 5.28422C30.1481 4.46195 29.0353 4 27.875 4H19.125C17.9647 4 16.8519 4.46195 16.0314 5.28422C15.2109 6.1065 14.75 7.22174 14.75 8.38462V9.84615H7.45833C7.07156 9.84615 6.70063 10.0001 6.42714 10.2742C6.15365 10.5483 6 10.9201 6 11.3077C6 11.6953 6.15365 12.0671 6.42714 12.3412C6.70063 12.6152 7.07156 12.7692 7.45833 12.7692H8.91667V39.0769C8.91667 39.8522 9.22396 40.5957 9.77094 41.1438C10.3179 41.692 11.0598 42 11.8333 42H35.1667C35.9402 42 36.6821 41.692 37.2291 41.1438C37.776 40.5957 38.0833 39.8522 38.0833 39.0769V12.7692H39.5417C39.9284 12.7692 40.2994 12.6152 40.5729 12.3412C40.8464 12.0671 41 11.6953 41 11.3077C41 10.9201 40.8464 10.5483 40.5729 10.2742C40.2994 10.0001 39.9284 9.84615 39.5417 9.84615ZM20.5833 31.7692C20.5833 32.1569 20.4297 32.5286 20.1562 32.8027C19.8827 33.0768 19.5118 33.2308 19.125 33.2308C18.7382 33.2308 18.3673 33.0768 18.0938 32.8027C17.8203 32.5286 17.6667 32.1569 17.6667 31.7692V20.0769C17.6667 19.6893 17.8203 19.3176 18.0938 19.0435C18.3673 18.7694 18.7382 18.6154 19.125 18.6154C19.5118 18.6154 19.8827 18.7694 20.1562 19.0435C20.4297 19.3176 20.5833 19.6893 20.5833 20.0769V31.7692ZM29.3333 31.7692C29.3333 32.1569 29.1797 32.5286 28.9062 32.8027C28.6327 33.0768 28.2618 33.2308 27.875 33.2308C27.4882 33.2308 27.1173 33.0768 26.8438 32.8027C26.5703 32.5286 26.4167 32.1569 26.4167 31.7692V20.0769C26.4167 19.6893 26.5703 19.3176 26.8438 19.0435C27.1173 18.7694 27.4882 18.6154 27.875 18.6154C28.2618 18.6154 28.6327 18.7694 28.9062 19.0435C29.1797 19.3176 29.3333 19.6893 29.3333 20.0769V31.7692ZM29.3333 9.84615H17.6667V8.38462C17.6667 7.99699 17.8203 7.62524 18.0938 7.35115C18.3673 7.07706 18.7382 6.92308 19.125 6.92308H27.875C28.2618 6.92308 28.6327 7.07706 28.9062 7.35115C29.1797 7.62524 29.3333 7.99699 29.3333 8.38462V9.84615Z" fill="white"/>
</svg>
