<svg width="59" height="63" viewBox="0 0 59 63" fill="none" xmlns="http://www.w3.org/2000/svg">
<path d="M29.5 0C23.6655 0 17.9619 1.82466 13.1107 5.24324C8.25944 8.66183 4.47835 13.5208 2.24557 19.2057C0.0127819 24.8906 -0.571416 31.1461 0.566847 37.1811C1.70511 43.2162 4.51471 48.7597 8.64036 53.1108C12.766 57.4618 18.0224 60.4249 23.7448 61.6253C29.4673 62.8258 35.3987 62.2096 40.7892 59.8549C46.1796 57.5001 50.7869 53.5125 54.0284 48.3962C57.2699 43.2799 59 37.2648 59 31.1116C58.9917 22.8629 55.8811 14.9546 50.3505 9.12198C44.82 3.28932 37.3214 0.00871069 29.5 0ZM22.0201 43.0775H36.98C35.4567 48.5639 32.9039 53.5089 29.5 57.4038C26.0962 53.5089 23.5433 48.5639 22.0201 43.0775ZM20.9904 38.2911C20.2378 33.5377 20.2378 28.6855 20.9904 23.932H38.0096C38.7622 28.6855 38.7622 33.5377 38.0096 38.2911H20.9904ZM4.53847 31.1116C4.5365 28.6838 4.8544 26.2675 5.48304 23.932H16.3924C15.7154 28.6917 15.7154 33.5314 16.3924 38.2911H5.48304C4.8544 35.9556 4.5365 33.5393 4.53847 31.1116ZM36.98 19.1456H22.0201C23.5433 13.6592 26.0962 8.71423 29.5 4.8193C32.9039 8.71423 35.4567 13.6592 36.98 19.1456ZM42.6077 23.932H53.517C54.7764 28.6262 54.7764 33.5969 53.517 38.2911H42.6077C43.2846 33.5314 43.2846 28.6917 42.6077 23.932ZM51.73 19.1456H41.6801C40.522 14.3398 38.5772 9.78412 35.9333 5.68384C39.3112 6.64118 42.4617 8.33348 45.1823 10.6519C47.9028 12.9703 50.1332 15.8636 51.73 19.1456ZM23.0667 5.68384C20.4228 9.78412 18.478 14.3398 17.3199 19.1456H7.27006C8.86682 15.8636 11.0972 12.9703 13.8178 10.6519C16.5383 8.33348 19.6889 6.64118 23.0667 5.68384ZM7.27006 43.0775H17.3199C18.478 47.8833 20.4228 52.439 23.0667 56.5393C19.6889 55.5819 16.5383 53.8896 13.8178 51.5712C11.0972 49.2528 8.86682 46.3595 7.27006 43.0775ZM35.9333 56.5393C38.5772 52.439 40.522 47.8833 41.6801 43.0775H51.73C50.1332 46.3595 47.9028 49.2528 45.1823 51.5712C42.4617 53.8896 39.3112 55.5819 35.9333 56.5393Z" fill="#FAFAFA"/>
</svg>
