<svg width="9" height="6" viewBox="0 0 9 6" fill="none" xmlns="http://www.w3.org/2000/svg">
<path d="M5.01923 4.5C5.01923 4.56846 4.98878 4.63539 4.93173 4.69231C4.87467 4.74924 4.79358 4.7936 4.6987 4.8198C4.60382 4.846 4.49942 4.85286 4.3987 4.8395C4.29798 4.82615 4.20546 4.79318 4.13285 4.74477C4.06023 4.69636 4.01078 4.63468 3.99075 4.56753C3.97071 4.50038 3.98099 4.43078 4.02029 4.36753C4.05959 4.30428 4.12614 4.25022 4.21153 4.21218C4.29692 4.17415 4.39731 4.15385 4.5 4.15385C4.63771 4.15385 4.76978 4.19032 4.86715 4.25523C4.96453 4.32015 5.01923 4.40819 5.01923 4.5ZM4.5 1.38462C3.54548 1.38462 2.76923 1.85048 2.76923 2.42308V2.53846C2.76923 2.59966 2.8057 2.65836 2.87062 2.70164C2.93553 2.74492 3.02358 2.76923 3.11539 2.76923C3.20719 2.76923 3.29524 2.74492 3.36015 2.70164C3.42507 2.65836 3.46154 2.59966 3.46154 2.53846V2.42308C3.46154 2.10577 3.92755 1.84615 4.5 1.84615C5.07245 1.84615 5.53846 2.10577 5.53846 2.42308C5.53846 2.74038 5.07245 3 4.5 3C4.4082 3 4.32015 3.02431 4.25523 3.06759C4.19032 3.11087 4.15385 3.16956 4.15385 3.23077V3.46154C4.15385 3.52274 4.19032 3.58144 4.25523 3.62472C4.32015 3.66799 4.4082 3.69231 4.5 3.69231C4.59181 3.69231 4.67985 3.66799 4.74477 3.62472C4.80969 3.58144 4.84615 3.52274 4.84615 3.46154V3.44077C5.63539 3.34413 6.23077 2.92442 6.23077 2.42308C6.23077 1.85048 5.45452 1.38462 4.5 1.38462ZM9 3C9 3.59334 8.73608 4.17336 8.24161 4.66671C7.74715 5.16006 7.04434 5.54457 6.22208 5.77164C5.39981 5.9987 4.49501 6.05811 3.62209 5.94235C2.74918 5.8266 1.94736 5.54088 1.31802 5.12132C0.688685 4.70176 0.260102 4.16721 0.0864682 3.58527C-0.0871652 3.00333 0.00194978 2.40013 0.342544 1.85195C0.683138 1.30377 1.25991 0.835235 1.99994 0.505591C2.73996 0.175947 3.60999 0 4.5 0C5.69309 0.000839948 6.83695 0.31718 7.68059 0.879607C8.52423 1.44203 8.99874 2.20461 9 3ZM8.30769 3C8.30769 2.49794 8.08438 2.00715 7.66598 1.58971C7.24759 1.17226 6.65291 0.846897 5.95714 0.654767C5.26138 0.462637 4.49578 0.412367 3.75716 0.510314C3.01854 0.608261 2.34007 0.850026 1.80756 1.20504C1.27504 1.56005 0.912394 2.01236 0.765473 2.50477C0.618553 2.99718 0.693958 3.50758 0.982153 3.97143C1.27035 4.43527 1.75839 4.83172 2.38456 5.11065C3.01073 5.38958 3.74691 5.53846 4.5 5.53846C5.50951 5.5377 6.47735 5.27001 7.19118 4.79412C7.90501 4.31823 8.30655 3.67301 8.30769 3Z" fill="white"/>
</svg>
