<svg width="27" height="30" viewBox="0 0 27 30" fill="none" xmlns="http://www.w3.org/2000/svg">
<path d="M26.0969 15.3598C26.0969 15.6801 25.9853 15.9874 25.7867 16.2139C25.588 16.4404 25.3186 16.5677 25.0377 16.5677H14.4457V28.6471C14.4457 28.9675 14.3341 29.2747 14.1355 29.5012C13.9368 29.7278 13.6674 29.855 13.3865 29.855C13.1056 29.855 12.8362 29.7278 12.6376 29.5012C12.4389 29.2747 12.3273 28.9675 12.3273 28.6471V16.5677H1.73535C1.45443 16.5677 1.18502 16.4404 0.986379 16.2139C0.787741 15.9874 0.676147 15.6801 0.676147 15.3598C0.676147 15.0394 0.787741 14.7322 0.986379 14.5056C1.18502 14.2791 1.45443 14.1518 1.73535 14.1518H12.3273V2.07244C12.3273 1.75208 12.4389 1.44483 12.6376 1.2183C12.8362 0.991767 13.1056 0.864502 13.3865 0.864502C13.6674 0.864502 13.9368 0.991767 14.1355 1.2183C14.3341 1.44483 14.4457 1.75208 14.4457 2.07244V14.1518H25.0377C25.3186 14.1518 25.588 14.2791 25.7867 14.5056C25.9853 14.7322 26.0969 15.0394 26.0969 15.3598Z" fill="white"/>
</svg>
