<svg width="20" height="20" viewBox="0 0 20 20" fill="none" xmlns="http://www.w3.org/2000/svg">
<path d="M19.6234 18.3853C18.2171 15.9413 16.0499 14.1888 13.5207 13.3581C14.7718 12.6094 15.7438 11.4686 16.2874 10.1109C16.8311 8.75322 16.9163 7.25366 16.5301 5.84252C16.1439 4.43139 15.3076 3.18671 14.1495 2.29964C12.9915 1.41256 11.5758 0.932129 10.1199 0.932129C8.66392 0.932129 7.24823 1.41256 6.09019 2.29964C4.93216 3.18671 4.09582 4.43139 3.7096 5.84252C3.32339 7.25366 3.40866 8.75322 3.95231 10.1109C4.49597 11.4686 5.46796 12.6094 6.719 13.3581C4.18982 14.1879 2.02262 15.9404 0.616288 18.3853C0.564715 18.4699 0.530507 18.5639 0.515683 18.662C0.500858 18.76 0.505717 18.86 0.529973 18.9561C0.554229 19.0523 0.59739 19.1425 0.65691 19.2216C0.71643 19.3007 0.791103 19.367 0.876523 19.4166C0.961944 19.4662 1.05638 19.4981 1.15426 19.5104C1.25215 19.5227 1.35149 19.5152 1.44644 19.4883C1.54139 19.4614 1.63001 19.4156 1.70708 19.3537C1.78415 19.2918 1.84811 19.2151 1.89519 19.1279C3.63486 16.1056 6.70977 14.3011 10.1199 14.3011C13.53 14.3011 16.6049 16.1056 18.3445 19.1279C18.3916 19.2151 18.4556 19.2918 18.5326 19.3537C18.6097 19.4156 18.6983 19.4614 18.7933 19.4883C18.8882 19.5152 18.9876 19.5227 19.0855 19.5104C19.1833 19.4981 19.2778 19.4662 19.3632 19.4166C19.4486 19.367 19.5233 19.3007 19.5828 19.2216C19.6423 19.1425 19.6855 19.0523 19.7097 18.9561C19.734 18.86 19.7389 18.76 19.724 18.662C19.7092 18.5639 19.675 18.4699 19.6234 18.3853ZM4.94885 7.61789C4.94885 6.58981 5.25213 5.58482 5.82033 4.73C6.38852 3.87518 7.19612 3.20893 8.141 2.8155C9.08588 2.42207 10.1256 2.31913 11.1287 2.5197C12.1318 2.72027 13.0531 3.21534 13.7763 3.9423C14.4995 4.66926 14.992 5.59547 15.1915 6.6038C15.391 7.61213 15.2886 8.65729 14.8973 9.60711C14.5059 10.5569 13.8431 11.3688 12.9927 11.9399C12.1424 12.5111 11.1426 12.816 10.1199 12.816C8.74888 12.8145 7.43446 12.2664 6.46503 11.2919C5.49559 10.3174 4.95032 8.99606 4.94885 7.61789Z" fill="white"/>
</svg>
