<svg width="17" height="19" viewBox="0 0 17 19" fill="none" xmlns="http://www.w3.org/2000/svg">
<path d="M14.676 6.2225H12.0152V4.15761C12.0152 3.06233 11.5947 2.0119 10.8462 1.23742C10.0978 0.462933 9.08259 0.027832 8.02408 0.027832C6.96556 0.027832 5.9504 0.462933 5.20192 1.23742C4.45344 2.0119 4.03294 3.06233 4.03294 4.15761V6.2225H1.37219C1.01935 6.2225 0.680962 6.36754 0.431468 6.6257C0.181973 6.88386 0.0418091 7.234 0.0418091 7.59909V17.2352C0.0418091 17.6003 0.181973 17.9505 0.431468 18.2086C0.680962 18.4668 1.01935 18.6118 1.37219 18.6118H14.676C15.0288 18.6118 15.3672 18.4668 15.6167 18.2086C15.8662 17.9505 16.0063 17.6003 16.0063 17.2352V7.59909C16.0063 7.234 15.8662 6.88386 15.6167 6.6257C15.3672 6.36754 15.0288 6.2225 14.676 6.2225ZM5.36332 4.15761C5.36332 3.42742 5.64365 2.72714 6.14264 2.21081C6.64163 1.69449 7.3184 1.40443 8.02408 1.40443C8.72975 1.40443 9.40653 1.69449 9.90551 2.21081C10.4045 2.72714 10.6848 3.42742 10.6848 4.15761V6.2225H5.36332V4.15761ZM14.676 17.2352H1.37219V7.59909H14.676V17.2352Z" fill="white"/>
</svg>
