<svg width="1150" height="246" viewBox="0 0 1150 246" fill="none" xmlns="http://www.w3.org/2000/svg">
<path d="M22.4902 210.506L0 201.756V245.506H1150V0.505676L1127.51 5.50568L1102.52 33.6307L1091.53 44.2557L1051.54 9.25568H1034.05L1019.56 20.5057L999.066 0.505676H985.572L968.079 9.25568L952.086 29.2557L937.592 20.5057L918.601 13.6307L902.108 29.2557H879.618L842.634 20.5057L819.644 44.2557L784.159 59.2557L753.672 61.7557L737.18 56.1307L713.19 61.7557L693.199 81.1307L649.218 118.006L623.229 133.006H558.757L546.762 141.756L538.766 148.631L521.273 157.381L502.781 168.631L497.784 181.131H472.794L467.297 174.256H462.799L453.303 168.631H433.312L424.815 174.256H402.825L389.831 168.631L373.837 174.256L346.849 197.381H331.856L300.869 191.756L199.913 188.006L191.417 181.131H169.426L154.933 188.006H128.944L122.947 197.381L103.455 201.756L94.4589 191.756L80.9648 201.756H56.9752H40.9822L22.4902 210.506Z" fill="url(#paint0_linear_620_31)"/>
<defs>
<linearGradient id="paint0_linear_620_31" x1="575" y1="0.505676" x2="575" y2="245.506" gradientUnits="userSpaceOnUse">
<stop stop-color="#4B0707" stop-opacity="0"/>
<stop offset="0.885417" stop-color="#4B0707"/>
</linearGradient>
</defs>
</svg>
