<svg width="59" height="53" viewBox="0 0 59 53" fill="none" xmlns="http://www.w3.org/2000/svg">
<path d="M53.6363 0.575439H48.2727C46.8502 0.575439 45.4859 0.998144 44.4801 1.75056C43.4742 2.50298 42.9091 3.52348 42.9091 4.58756V8.59969H37.5454V4.58756C37.5454 3.52348 36.9804 2.50298 35.9745 1.75056C34.9686 0.998144 33.6043 0.575439 32.1818 0.575439H26.8182C25.3957 0.575439 24.0314 0.998144 23.0255 1.75056C22.0197 2.50298 21.4546 3.52348 21.4546 4.58756V8.59969H16.0909V4.58756C16.0909 3.52348 15.5258 2.50298 14.5199 1.75056C13.5141 0.998144 12.1498 0.575439 10.7273 0.575439H5.36366C3.94114 0.575439 2.57687 0.998144 1.571 1.75056C0.565122 2.50298 2.71365e-05 3.52348 2.71365e-05 4.58756V15.7939C-0.00222403 16.321 0.135609 16.8432 0.405515 17.33C0.67542 17.8169 1.07201 18.2588 1.57224 18.63L5.36366 21.4661V48.7209C5.36366 49.785 5.92875 50.8055 6.93463 51.5579C7.94051 52.3104 9.30477 52.7331 10.7273 52.7331H48.2727C49.6952 52.7331 51.0595 52.3104 52.0654 51.5579C53.0712 50.8055 53.6363 49.785 53.6363 48.7209V21.4661L57.4278 18.63C57.928 18.2588 58.3246 17.8169 58.5945 17.33C58.8644 16.8432 59.0022 16.321 59 15.7939V4.58756C59 3.52348 58.4349 2.50298 57.429 1.75056C56.4231 0.998144 55.0589 0.575439 53.6363 0.575439ZM34.8636 48.7209H24.1364V32.6724C24.1364 31.6084 24.7015 30.5879 25.7073 29.8354C26.7132 29.083 28.0775 28.6603 29.5 28.6603C30.9225 28.6603 32.2868 29.083 33.2927 29.8354C34.2985 30.5879 34.8636 31.6084 34.8636 32.6724V48.7209ZM53.6363 15.7939L49.8449 18.63C49.3447 19.0012 48.9481 19.4431 48.6782 19.93C48.4083 20.4168 48.2705 20.939 48.2727 21.4661V48.7209H40.2273V32.6724C40.2273 30.5443 39.0971 28.5033 37.0853 26.9984C35.0736 25.4936 32.345 24.6482 29.5 24.6482C26.655 24.6482 23.9264 25.4936 21.9147 26.9984C19.9029 28.5033 18.7727 30.5443 18.7727 32.6724V48.7209H10.7273V21.4661C10.7295 20.939 10.5917 20.4168 10.3218 19.93C10.0519 19.4431 9.6553 19.0012 9.15507 18.63L5.36366 15.7939V4.58756H10.7273V8.59969C10.7273 9.66377 11.2924 10.6843 12.2983 11.4367C13.3041 12.1891 14.6684 12.6118 16.0909 12.6118H21.4546C22.8771 12.6118 24.2413 12.1891 25.2472 11.4367C26.2531 10.6843 26.8182 9.66377 26.8182 8.59969V4.58756H32.1818V8.59969C32.1818 9.66377 32.7469 10.6843 33.7528 11.4367C34.7587 12.1891 36.1229 12.6118 37.5454 12.6118H42.9091C44.3316 12.6118 45.6959 12.1891 46.7017 11.4367C47.7076 10.6843 48.2727 9.66377 48.2727 8.59969V4.58756H53.6363V15.7939Z" fill="#FAFAFA"/>
</svg>
