<svg width="59" height="54" viewBox="0 0 59 54" fill="none" xmlns="http://www.w3.org/2000/svg">
<path d="M59 27.177C59 27.7634 58.741 28.3259 58.28 28.7406C57.8189 29.1553 57.1937 29.3883 56.5417 29.3883H31.9583V51.5019C31.9583 52.0884 31.6993 52.6509 31.2383 53.0656C30.7773 53.4803 30.152 53.7133 29.5 53.7133C28.848 53.7133 28.2227 53.4803 27.7617 53.0656C27.3007 52.6509 27.0417 52.0884 27.0417 51.5019V29.3883H2.45833C1.80634 29.3883 1.18106 29.1553 0.72003 28.7406C0.259003 28.3259 0 27.7634 0 27.177C0 26.5905 0.259003 26.028 0.72003 25.6133C1.18106 25.1986 1.80634 24.9656 2.45833 24.9656H27.0417V2.85199C27.0417 2.2655 27.3007 1.70303 27.7617 1.28832C28.2227 0.873607 28.848 0.640625 29.5 0.640625C30.152 0.640625 30.7773 0.873607 31.2383 1.28832C31.6993 1.70303 31.9583 2.2655 31.9583 2.85199V24.9656H56.5417C57.1937 24.9656 57.8189 25.1986 58.28 25.6133C58.741 26.028 59 26.5905 59 27.177Z" fill="white"/>
</svg>
