<svg width="8" height="6" viewBox="0 0 8 6" fill="none" xmlns="http://www.w3.org/2000/svg">
<path d="M4.46154 4.5C4.46154 4.56846 4.43447 4.63539 4.38376 4.69231C4.33304 4.74924 4.26096 4.7936 4.17662 4.8198C4.09229 4.846 3.99949 4.85286 3.90996 4.8395C3.82043 4.82615 3.73819 4.79318 3.67364 4.74477C3.6091 4.69636 3.56514 4.63468 3.54733 4.56753C3.52952 4.50038 3.53866 4.43078 3.57359 4.36753C3.60853 4.30428 3.66768 4.25022 3.74358 4.21218C3.81948 4.17415 3.90872 4.15385 4 4.15385C4.12241 4.15385 4.2398 4.19032 4.32636 4.25523C4.41291 4.32015 4.46154 4.40819 4.46154 4.5ZM4 1.38462C3.15154 1.38462 2.46154 1.85048 2.46154 2.42308V2.53846C2.46154 2.59966 2.49396 2.65836 2.55166 2.70164C2.60936 2.74492 2.68763 2.76923 2.76923 2.76923C2.85084 2.76923 2.9291 2.74492 2.9868 2.70164C3.04451 2.65836 3.07692 2.59966 3.07692 2.53846V2.42308C3.07692 2.10577 3.49115 1.84615 4 1.84615C4.50885 1.84615 4.92308 2.10577 4.92308 2.42308C4.92308 2.74038 4.50885 3 4 3C3.9184 3 3.84013 3.02431 3.78243 3.06759C3.72473 3.11087 3.69231 3.16956 3.69231 3.23077V3.46154C3.69231 3.52274 3.72473 3.58144 3.78243 3.62472C3.84013 3.66799 3.9184 3.69231 4 3.69231C4.08161 3.69231 4.15987 3.66799 4.21757 3.62472C4.27528 3.58144 4.30769 3.52274 4.30769 3.46154V3.44077C5.00923 3.34413 5.53846 2.92442 5.53846 2.42308C5.53846 1.85048 4.84846 1.38462 4 1.38462ZM8 3C8 3.59334 7.7654 4.17336 7.32588 4.66671C6.88635 5.16006 6.26164 5.54457 5.53073 5.77164C4.79983 5.9987 3.99556 6.05811 3.21964 5.94235C2.44372 5.8266 1.73098 5.54088 1.17157 5.12132C0.612164 4.70176 0.231202 4.16721 0.0768607 3.58527C-0.0774802 3.00333 0.00173314 2.40013 0.304484 1.85195C0.607234 1.30377 1.11992 0.835235 1.77772 0.505591C2.43552 0.175947 3.20888 0 4 0C5.06052 0.000839948 6.07729 0.31718 6.82719 0.879607C7.57709 1.44203 7.99888 2.20461 8 3ZM7.38462 3C7.38462 2.49794 7.18611 2.00715 6.8142 1.58971C6.4423 1.17226 5.91369 0.846897 5.29524 0.654767C4.67678 0.462637 3.99625 0.412367 3.3397 0.510314C2.68314 0.608261 2.08006 0.850026 1.60672 1.20504C1.13337 1.56005 0.811017 2.01236 0.680421 2.50477C0.549825 2.99718 0.616851 3.50758 0.873025 3.97143C1.1292 4.43527 1.56301 4.83172 2.11961 5.11065C2.67621 5.38958 3.33059 5.53846 4 5.53846C4.89734 5.5377 5.75764 5.27001 6.39216 4.79412C7.02668 4.31823 7.3836 3.67301 7.38462 3Z" fill="white"/>
</svg>
