<svg width="9" height="7" viewBox="0 0 9 7" fill="none" xmlns="http://www.w3.org/2000/svg">
<path d="M5.01923 5.25C5.01923 5.32987 4.98878 5.40795 4.93173 5.47436C4.87467 5.54078 4.79358 5.59254 4.6987 5.6231C4.60382 5.65367 4.49942 5.66167 4.3987 5.64609C4.29798 5.6305 4.20546 5.59204 4.13285 5.53556C4.06023 5.47908 4.01078 5.40712 3.99075 5.32879C3.97071 5.25045 3.98099 5.16925 4.02029 5.09545C4.05959 5.02166 4.12614 4.95859 4.21153 4.91421C4.29692 4.86984 4.39731 4.84615 4.5 4.84615C4.63771 4.84615 4.76978 4.8887 4.86715 4.96444C4.96453 5.04017 5.01923 5.14289 5.01923 5.25ZM4.5 1.61538C3.54548 1.61538 2.76923 2.15889 2.76923 2.82692V2.96154C2.76923 3.03294 2.8057 3.10142 2.87062 3.15191C2.93553 3.2024 3.02358 3.23077 3.11539 3.23077C3.20719 3.23077 3.29524 3.2024 3.36015 3.15191C3.42507 3.10142 3.46154 3.03294 3.46154 2.96154V2.82692C3.46154 2.45673 3.92755 2.15385 4.5 2.15385C5.07245 2.15385 5.53846 2.45673 5.53846 2.82692C5.53846 3.19711 5.07245 3.5 4.5 3.5C4.4082 3.5 4.32015 3.52836 4.25523 3.57886C4.19032 3.62935 4.15385 3.69783 4.15385 3.76923V4.03846C4.15385 4.10987 4.19032 4.17835 4.25523 4.22884C4.32015 4.27933 4.4082 4.30769 4.5 4.30769C4.59181 4.30769 4.67985 4.27933 4.74477 4.22884C4.80969 4.17835 4.84615 4.10987 4.84615 4.03846V4.01423C5.63539 3.90149 6.23077 3.41183 6.23077 2.82692C6.23077 2.15889 5.45452 1.61538 4.5 1.61538ZM9 3.5C9 4.19223 8.73608 4.86892 8.24161 5.44449C7.74715 6.02007 7.04434 6.46867 6.22208 6.73358C5.39981 6.99848 4.49501 7.0678 3.62209 6.93275C2.74918 6.7977 1.94736 6.46436 1.31802 5.97487C0.688685 5.48539 0.260102 4.86175 0.0864682 4.18282C-0.0871652 3.50388 0.00194978 2.80015 0.342544 2.16061C0.683138 1.52107 1.25991 0.974441 1.99994 0.589856C2.73996 0.205271 3.60999 0 4.5 0C5.69309 0.000979939 6.83695 0.370043 7.68059 1.02621C8.52423 1.68237 8.99874 2.57204 9 3.5ZM8.30769 3.5C8.30769 2.91426 8.08438 2.34168 7.66598 1.85466C7.24759 1.36763 6.65291 0.988047 5.95714 0.763895C5.26138 0.539743 4.49578 0.481095 3.75716 0.595367C3.01854 0.709638 2.34007 0.991697 1.80756 1.40588C1.27504 1.82005 0.912394 2.34775 0.765473 2.92223C0.618553 3.49671 0.693958 4.09218 0.982153 4.63333C1.27035 5.17448 1.75839 5.63701 2.38456 5.96243C3.01073 6.28785 3.74691 6.46154 4.5 6.46154C5.50951 6.46065 6.47735 6.14834 7.19118 5.59314C7.90501 5.03794 8.30655 4.28517 8.30769 3.5Z" fill="white"/>
</svg>
