<svg width="3" height="15" viewBox="0 0 3 15" fill="none" xmlns="http://www.w3.org/2000/svg">
<path d="M3 7.5C3 7.77813 2.91203 8.05001 2.7472 8.28127C2.58238 8.51253 2.34811 8.69277 2.07402 8.7992C1.79994 8.90564 1.49834 8.93349 1.20736 8.87923C0.916393 8.82497 0.649119 8.69104 0.43934 8.49437C0.229562 8.2977 0.0867004 8.04713 0.0288227 7.77435C-0.0290551 7.50156 0.00065 7.21881 0.114181 6.96185C0.227713 6.70489 0.419972 6.48527 0.666646 6.33075C0.913319 6.17622 1.20333 6.09375 1.5 6.09375C1.89782 6.09375 2.27936 6.24191 2.56066 6.50563C2.84196 6.76935 3 7.12704 3 7.5ZM1.5 2.8125C1.79667 2.8125 2.08668 2.73003 2.33335 2.5755C2.58003 2.42098 2.77229 2.20136 2.88582 1.9444C2.99935 1.68744 3.02906 1.40469 2.97118 1.1319C2.9133 0.859119 2.77044 0.608549 2.56066 0.411882C2.35088 0.215214 2.08361 0.0812818 1.79264 0.0270213C1.50166 -0.0272391 1.20006 0.000609299 0.925975 0.107045C0.651887 0.213481 0.417618 0.393723 0.252796 0.62498C0.0879741 0.856236 7.4576e-07 1.12812 7.4576e-07 1.40625C7.4576e-07 1.77921 0.158036 2.1369 0.43934 2.40062C0.720644 2.66434 1.10218 2.8125 1.5 2.8125ZM1.5 12.1875C1.20333 12.1875 0.913319 12.27 0.666646 12.4245C0.419972 12.579 0.227713 12.7986 0.114181 13.0556C0.00065 13.3126 -0.0290551 13.5953 0.0288227 13.8681C0.0867004 14.1409 0.229562 14.3914 0.43934 14.5881C0.649119 14.7848 0.916393 14.9187 1.20736 14.973C1.49834 15.0272 1.79994 14.9994 2.07402 14.893C2.34811 14.7865 2.58238 14.6063 2.7472 14.375C2.91203 14.1438 3 13.8719 3 13.5938C3 13.2208 2.84196 12.8631 2.56066 12.5994C2.27936 12.3357 1.89782 12.1875 1.5 12.1875Z" fill="white"/>
</svg>
