<svg width="67" height="80" viewBox="0 0 67 80" fill="none" xmlns="http://www.w3.org/2000/svg">
<g filter="url(#filter0_i_598_647)">
<path d="M60.2453 16.298C60.2453 16.298 59.672 13.163 58.4623 11.3322C49.7993 -1.77741 16.6063 -1.77741 7.9434 11.3322C6.73363 13.163 5.56604 16.298 5.56604 16.298H2V60.7103L3.03067 64.1585L5.47853 66.2273L33.5 77.5L61.7791 66.2273L63.8405 64.1585L65 60.7103V16.298H60.2453Z" fill="url(#paint0_linear_598_647)"/>
</g>
<path d="M60.2453 16.298C60.2453 16.298 59.672 13.163 58.4623 11.3322C49.7993 -1.77741 16.6063 -1.77741 7.9434 11.3322C6.73363 13.163 5.56604 16.298 5.56604 16.298H2V60.7103L3.03067 64.1585L5.47853 66.2273L33.5 77.5L61.7791 66.2273L63.8405 64.1585L65 60.7103V16.298H60.2453Z" stroke="#1F090D" stroke-width="3"/>
<defs>
<filter id="filter0_i_598_647" x="0.5" y="0" width="70" height="83.1157" filterUnits="userSpaceOnUse" color-interpolation-filters="sRGB">
<feFlood flood-opacity="0" result="BackgroundImageFix"/>
<feBlend mode="normal" in="SourceGraphic" in2="BackgroundImageFix" result="shape"/>
<feColorMatrix in="SourceAlpha" type="matrix" values="0 0 0 0 0 0 0 0 0 0 0 0 0 0 0 0 0 0 127 0" result="hardAlpha"/>
<feOffset dx="4" dy="4"/>
<feGaussianBlur stdDeviation="2.5"/>
<feComposite in2="hardAlpha" operator="arithmetic" k2="-1" k3="1"/>
<feColorMatrix type="matrix" values="0 0 0 0 0.0666667 0 0 0 0 0.0186111 0 0 0 0 0.0186111 0 0 0 1 0"/>
<feBlend mode="normal" in2="shape" result="effect1_innerShadow_598_647"/>
</filter>
<linearGradient id="paint0_linear_598_647" x1="-100.5" y1="-32.5" x2="147" y2="105.5" gradientUnits="userSpaceOnUse">
<stop stop-color="white" stop-opacity="0"/>
<stop offset="0.380718" stop-color="#2B050D" stop-opacity="0.94"/>
<stop offset="0.554302" stop-color="#380E17"/>
</linearGradient>
</defs>
</svg>
