<svg width="27" height="26" viewBox="0 0 27 26" fill="none" xmlns="http://www.w3.org/2000/svg">
<path d="M13.5 0C10.9288 0 8.41543 0.762437 6.27759 2.1909C4.13975 3.61935 2.47351 5.64968 1.48957 8.02512C0.505633 10.4006 0.248189 13.0144 0.749797 15.5362C1.25141 18.0579 2.48953 20.3743 4.30762 22.1924C6.1257 24.0105 8.44208 25.2486 10.9638 25.7502C13.4856 26.2518 16.0995 25.9944 18.4749 25.0104C20.8503 24.0265 22.8807 22.3603 24.3091 20.2224C25.7376 18.0846 26.5 15.5712 26.5 13C26.4964 9.5533 25.1256 6.24882 22.6884 3.81163C20.2512 1.37445 16.9467 0.00363977 13.5 0ZM10.2038 18H16.7963C16.125 20.2925 15 22.3587 13.5 23.9862C12 22.3587 10.875 20.2925 10.2038 18ZM9.75001 16C9.41834 14.0138 9.41834 11.9862 9.75001 10H17.25C17.5817 11.9862 17.5817 14.0138 17.25 16H9.75001ZM2.50001 13C2.49914 11.9855 2.63923 10.9759 2.91626 10H7.72376C7.42542 11.9889 7.42542 14.0111 7.72376 16H2.91626C2.63923 15.0241 2.49914 14.0145 2.50001 13ZM16.7963 8H10.2038C10.875 5.7075 12 3.64125 13.5 2.01375C15 3.64125 16.125 5.7075 16.7963 8ZM19.2763 10H24.0838C24.6388 11.9615 24.6388 14.0385 24.0838 16H19.2763C19.5746 14.0111 19.5746 11.9889 19.2763 10ZM23.2963 8H18.8675C18.3572 5.99189 17.5001 4.0883 16.335 2.375C17.8236 2.77503 19.2119 3.48215 20.4108 4.45091C21.6097 5.41967 22.5926 6.62861 23.2963 8ZM10.665 2.375C9.49987 4.0883 8.64284 5.99189 8.13251 8H3.70376C4.40741 6.62861 5.39029 5.41967 6.58918 4.45091C7.78808 3.48215 9.17644 2.77503 10.665 2.375ZM3.70376 18H8.13251C8.64284 20.0081 9.49987 21.9117 10.665 23.625C9.17644 23.225 7.78808 22.5178 6.58918 21.5491C5.39029 20.5803 4.40741 19.3714 3.70376 18ZM16.335 23.625C17.5001 21.9117 18.3572 20.0081 18.8675 18H23.2963C22.5926 19.3714 21.6097 20.5803 20.4108 21.5491C19.2119 22.5178 17.8236 23.225 16.335 23.625Z" fill="#FAFAFA"/>
</svg>
