<svg width="59" height="51" viewBox="0 0 59 51" fill="none" xmlns="http://www.w3.org/2000/svg">
<path d="M59 25.2021C59 25.7591 58.741 26.2933 58.28 26.6872C57.8189 27.081 57.1937 27.3023 56.5417 27.3023H31.9583V48.304C31.9583 48.861 31.6993 49.3952 31.2383 49.7891C30.7773 50.1829 30.152 50.4042 29.5 50.4042C28.848 50.4042 28.2227 50.1829 27.7617 49.7891C27.3007 49.3952 27.0417 48.861 27.0417 48.304V27.3023H2.45833C1.80634 27.3023 1.18106 27.081 0.72003 26.6872C0.259003 26.2933 0 25.7591 0 25.2021C0 24.6451 0.259003 24.1109 0.72003 23.7171C1.18106 23.3232 1.80634 23.1019 2.45833 23.1019H27.0417V2.10018C27.0417 1.54317 27.3007 1.00899 27.7617 0.615128C28.2227 0.221268 28.848 0 29.5 0C30.152 0 30.7773 0.221268 31.2383 0.615128C31.6993 1.00899 31.9583 1.54317 31.9583 2.10018V23.1019H56.5417C57.1937 23.1019 57.8189 23.3232 58.28 23.7171C58.741 24.1109 59 24.6451 59 25.2021Z" fill="white"/>
</svg>
