<svg width="9" height="9" viewBox="0 0 9 9" fill="none" xmlns="http://www.w3.org/2000/svg">
<path d="M5.01923 6.75C5.01923 6.85269 4.98878 6.95308 4.93173 7.03847C4.87467 7.12385 4.79358 7.19041 4.6987 7.2297C4.60382 7.269 4.49942 7.27929 4.3987 7.25925C4.29798 7.23922 4.20546 7.18977 4.13285 7.11715C4.06023 7.04453 4.01078 6.95202 3.99075 6.85129C3.97071 6.75057 3.98099 6.64617 4.02029 6.5513C4.05959 6.45642 4.12614 6.37533 4.21153 6.31827C4.29692 6.26122 4.39731 6.23077 4.5 6.23077C4.63771 6.23077 4.76978 6.28547 4.86715 6.38285C4.96453 6.48022 5.01923 6.61229 5.01923 6.75ZM4.5 2.07692C3.54548 2.07692 2.76923 2.77572 2.76923 3.63461V3.80769C2.76923 3.8995 2.8057 3.98754 2.87062 4.05246C2.93553 4.11738 3.02358 4.15385 3.11539 4.15385C3.20719 4.15385 3.29524 4.11738 3.36015 4.05246C3.42507 3.98754 3.46154 3.8995 3.46154 3.80769V3.63461C3.46154 3.15865 3.92755 2.76923 4.5 2.76923C5.07245 2.76923 5.53846 3.15865 5.53846 3.63461C5.53846 4.11058 5.07245 4.5 4.5 4.5C4.4082 4.5 4.32015 4.53647 4.25523 4.60138C4.19032 4.6663 4.15385 4.75435 4.15385 4.84615V5.19231C4.15385 5.28411 4.19032 5.37216 4.25523 5.43707C4.32015 5.50199 4.4082 5.53846 4.5 5.53846C4.59181 5.53846 4.67985 5.50199 4.74477 5.43707C4.80969 5.37216 4.84615 5.28411 4.84615 5.19231V5.16115C5.63539 5.0162 6.23077 4.38663 6.23077 3.63461C6.23077 2.77572 5.45452 2.07692 4.5 2.07692ZM9 4.5C9 5.39001 8.73608 6.26004 8.24161 7.00006C7.74715 7.74009 7.04434 8.31686 6.22208 8.65746C5.39981 8.99805 4.49501 9.08716 3.62209 8.91353C2.74918 8.7399 1.94736 8.31131 1.31802 7.68198C0.688685 7.05264 0.260102 6.25082 0.0864682 5.37791C-0.0871652 4.50499 0.00194978 3.60019 0.342544 2.77792C0.683138 1.95566 1.25991 1.25285 1.99994 0.758387C2.73996 0.26392 3.60999 0 4.5 0C5.69309 0.00125992 6.83695 0.47577 7.68059 1.31941C8.52423 2.16305 8.99874 3.30691 9 4.5ZM8.30769 4.5C8.30769 3.74691 8.08438 3.01073 7.66598 2.38456C7.24759 1.75839 6.65291 1.27035 5.95714 0.982151C5.26138 0.693956 4.49578 0.618551 3.75716 0.765471C3.01854 0.912392 2.34007 1.27504 1.80756 1.80755C1.27504 2.34007 0.912394 3.01854 0.765473 3.75716C0.618553 4.49578 0.693958 5.26137 0.982153 5.95714C1.27035 6.6529 1.75839 7.24758 2.38456 7.66598C3.01073 8.08437 3.74691 8.30769 4.5 8.30769C5.50951 8.30655 6.47735 7.90501 7.19118 7.19118C7.90501 6.47735 8.30655 5.50951 8.30769 4.5Z" fill="white"/>
</svg>
