<svg width="23" height="26" viewBox="0 0 23 26" fill="none" xmlns="http://www.w3.org/2000/svg">
<path d="M20.5 0H18.5C17.9696 0 17.4609 0.210714 17.0858 0.585786C16.7107 0.960859 16.5 1.46957 16.5 2V4H14.5V2C14.5 1.46957 14.2893 0.960859 13.9142 0.585786C13.5392 0.210714 13.0304 0 12.5 0H10.5C9.96958 0 9.46087 0.210714 9.0858 0.585786C8.71072 0.960859 8.50001 1.46957 8.50001 2V4H6.50001V2C6.50001 1.46957 6.2893 0.960859 5.91422 0.585786C5.53915 0.210714 5.03044 0 4.50001 0H2.50001C1.96958 0 1.46087 0.210714 1.0858 0.585786C0.710724 0.960859 0.50001 1.46957 0.50001 2V7.58625C0.499171 7.84899 0.550566 8.10928 0.651209 8.35198C0.751852 8.59468 0.899734 8.81496 1.08626 9L2.50001 10.4137V24C2.50001 24.5304 2.71072 25.0391 3.0858 25.4142C3.46087 25.7893 3.96958 26 4.50001 26H18.5C19.0304 26 19.5392 25.7893 19.9142 25.4142C20.2893 25.0391 20.5 24.5304 20.5 24V10.4137L21.9138 9C22.1003 8.81496 22.2482 8.59468 22.3488 8.35198C22.4495 8.10928 22.5008 7.84899 22.5 7.58625V2C22.5 1.46957 22.2893 0.960859 21.9142 0.585786C21.5392 0.210714 21.0304 0 20.5 0ZM13.5 24H9.50001V16C9.50001 15.4696 9.71072 14.9609 10.0858 14.5858C10.4609 14.2107 10.9696 14 11.5 14C12.0304 14 12.5392 14.2107 12.9142 14.5858C13.2893 14.9609 13.5 15.4696 13.5 16V24ZM20.5 7.58625L19.0863 9C18.8997 9.18504 18.7519 9.40532 18.6512 9.64802C18.5506 9.89072 18.4992 10.151 18.5 10.4137V24H15.5V16C15.5 14.9391 15.0786 13.9217 14.3284 13.1716C13.5783 12.4214 12.5609 12 11.5 12C10.4391 12 9.42173 12.4214 8.67158 13.1716C7.92144 13.9217 7.50001 14.9391 7.50001 16V24H4.50001V10.4137C4.50085 10.151 4.44945 9.89072 4.34881 9.64802C4.24817 9.40532 4.10029 9.18504 3.91376 9L2.50001 7.58625V2H4.50001V4C4.50001 4.53043 4.71072 5.03914 5.0858 5.41421C5.46087 5.78929 5.96958 6 6.50001 6H8.50001C9.03044 6 9.53915 5.78929 9.91422 5.41421C10.2893 5.03914 10.5 4.53043 10.5 4V2H12.5V4C12.5 4.53043 12.7107 5.03914 13.0858 5.41421C13.4609 5.78929 13.9696 6 14.5 6H16.5C17.0304 6 17.5392 5.78929 17.9142 5.41421C18.2893 5.03914 18.5 4.53043 18.5 4V2H20.5V7.58625Z" fill="#FAFAFA"/>
</svg>
