<svg width="44" height="36" viewBox="0 0 44 36" fill="none" xmlns="http://www.w3.org/2000/svg">
<path d="M42.4994 3.92863C42.3047 3.79445 42.0781 3.70126 41.8366 3.65612C41.5952 3.61097 41.3453 3.61507 41.1059 3.66808L28.6889 6.41371L16.2272 0.900894C15.88 0.747692 15.4823 0.709449 15.1059 0.793082L2.10594 3.66808C1.75439 3.74582 1.44229 3.92527 1.21926 4.17791C0.996228 4.43056 0.875055 4.7419 0.875 5.06246V30.9375C0.875037 31.1559 0.931345 31.3714 1.03965 31.5677C1.14795 31.764 1.3054 31.9359 1.50003 32.0703C1.69466 32.2047 1.92136 32.2982 2.16291 32.3435C2.40446 32.3888 2.65451 32.3848 2.89406 32.3318L15.3111 29.5862L27.7728 35.099C27.999 35.1977 28.2478 35.2493 28.5 35.25C28.6329 35.2499 28.7652 35.2354 28.8941 35.2068L41.8941 32.3318C42.2456 32.2541 42.5577 32.0746 42.7807 31.822C43.0038 31.5694 43.1249 31.258 43.125 30.9375V5.06246C43.1251 4.84382 43.0687 4.62806 42.9603 4.43158C42.8519 4.2351 42.6943 4.06309 42.4994 3.92863ZM17.125 4.51261L26.875 8.82511V31.4873L17.125 27.1748V4.51261ZM4.125 6.1855L13.875 4.02925V26.9394L4.125 29.0957V6.1855ZM39.875 29.8144L30.125 31.9707V9.0605L39.875 6.90425V29.8144Z" fill="#FAFAFA"/>
</svg>
