<svg width="180" height="248" viewBox="0 0 180 248" fill="none" xmlns="http://www.w3.org/2000/svg">
<g clip-path="url(#clip0_121_4443)">
<path d="M10.44 0H4.58C3.65 2 0 4.15 0 4.15V6.73C2.9035 3.6983 6.47998 1.39277 10.44 0" fill="#353535"/>
<path d="M169.55 247.39H175.42C176.35 245.39 180 243.24 180 243.24V240.67C177.093 243.7 173.513 246.002 169.55 247.39Z" fill="#353535"/>
<path d="M180 6.73V4.15C180 4.15 176.35 2 175.42 0H169.55C173.516 1.38693 177.097 3.69318 180 6.73Z" fill="#353535"/>
<path d="M0 240.67V243.25C0 243.25 3.65 245.41 4.58 247.39H10.45C6.48704 246.002 2.90694 243.7 0 240.67" fill="#353535"/>
<path d="M0 227.08V236.7C0.28 237.14 0.62 237.7 1 238.2C0.625988 236.154 0.732106 234.048 1.31 232.05L0 227.08Z" fill="#353535"/>
<path d="M168.56 244.75H106.32C106.255 244.874 106.157 244.977 106.037 245.049C105.917 245.122 105.78 245.16 105.64 245.16C105.529 245.173 105.418 245.162 105.312 245.128C105.206 245.094 105.108 245.038 105.025 244.964C104.942 244.89 104.876 244.799 104.83 244.698C104.785 244.596 104.761 244.486 104.761 244.375C104.761 244.264 104.785 244.154 104.83 244.052C104.876 243.951 104.942 243.86 105.025 243.786C105.108 243.712 105.206 243.656 105.312 243.622C105.418 243.588 105.529 243.577 105.64 243.59C105.78 243.59 105.917 243.628 106.037 243.701C106.157 243.773 106.255 243.876 106.32 244H168.56C170.44 243.943 172.284 243.471 173.961 242.619C175.638 241.767 177.106 240.555 178.26 239.07C178.848 236.789 178.813 234.393 178.16 232.13V232.06V231.99L180 225.15V22.24L178.14 15.33V15.26C178.793 13.0006 178.827 10.6073 178.24 8.33C177.085 6.8448 175.617 5.63221 173.941 4.77842C172.264 3.92463 170.42 3.45059 168.54 3.39H106.32C106.255 3.51367 106.157 3.61718 106.037 3.68941C105.917 3.76165 105.78 3.79988 105.64 3.8C105.529 3.81249 105.418 3.80151 105.312 3.76776C105.206 3.73401 105.108 3.67826 105.025 3.60415C104.942 3.53005 104.876 3.43926 104.83 3.33774C104.785 3.23621 104.761 3.12623 104.761 3.015C104.761 2.90377 104.785 2.79379 104.83 2.69226C104.876 2.59074 104.942 2.49995 105.025 2.42585C105.108 2.35174 105.206 2.29599 105.312 2.26224C105.418 2.22849 105.529 2.21751 105.64 2.23C105.78 2.23012 105.917 2.26835 106.037 2.34059C106.157 2.41282 106.255 2.51633 106.32 2.64H168.56C174.29 2.64 178.07 6.64 180 9.35V7.46C176.711 3.85733 172.461 1.26915 167.75 0L12.24 0C7.5349 1.26964 3.28908 3.8539 0 7.45L0 9.35C1.94 6.6 5.71 2.64 11.44 2.64H73.68C73.7454 2.51633 73.8433 2.41282 73.9631 2.34059C74.0829 2.26835 74.2201 2.23012 74.36 2.23C74.4705 2.21751 74.5825 2.22849 74.6884 2.26224C74.7944 2.29599 74.8921 2.35174 74.975 2.42585C75.058 2.49995 75.1244 2.59074 75.1698 2.69226C75.2152 2.79379 75.2387 2.90377 75.2387 3.015C75.2387 3.12623 75.2152 3.23621 75.1698 3.33774C75.1244 3.43926 75.058 3.53005 74.975 3.60415C74.8921 3.67826 74.7944 3.73401 74.6884 3.76776C74.5825 3.80151 74.4705 3.81249 74.36 3.8C74.2201 3.79988 74.0829 3.76165 73.9631 3.68941C73.8433 3.61718 73.7454 3.51367 73.68 3.39H11.44C9.55961 3.45059 7.71565 3.92463 6.03918 4.77842C4.3627 5.63221 2.89487 6.8448 1.74 8.33C1.15255 10.6073 1.18708 13.0006 1.84 15.26V15.33V15.4L0 22.24V225.15L1.86 232.06V232.13C1.20708 234.389 1.17255 236.783 1.76 239.06C2.91487 240.545 4.3827 241.758 6.05918 242.612C7.73565 243.465 9.57961 243.939 11.46 244H73.68C73.7454 243.876 73.8433 243.773 73.9631 243.701C74.0829 243.628 74.2201 243.59 74.36 243.59C74.4705 243.577 74.5825 243.588 74.6884 243.622C74.7944 243.656 74.8921 243.712 74.975 243.786C75.058 243.86 75.1244 243.951 75.1698 244.052C75.2152 244.154 75.2387 244.264 75.2387 244.375C75.2387 244.486 75.2152 244.596 75.1698 244.698C75.1244 244.799 75.058 244.89 74.975 244.964C74.8921 245.038 74.7944 245.094 74.6884 245.128C74.5825 245.162 74.4705 245.173 74.36 245.16C74.2201 245.16 74.0829 245.122 73.9631 245.049C73.8433 244.977 73.7454 244.874 73.68 244.75H11.44C5.71 244.75 1.94 240.8 0 238.05V239.94C3.29357 243.536 7.5424 246.12 12.25 247.39H167.75C172.458 246.12 176.706 243.536 180 239.94V238.05C178.07 240.8 174.29 244.75 168.56 244.75Z" fill="#353535"/>
<path d="M0 10.7V20.32L1.34 15.32C0.755353 13.3337 0.638976 11.2389 1 9.2C0.59 9.74 0.25 10.25 0 10.7Z" fill="#353535"/>
<path d="M180 20.32V10.7C179.72 10.25 179.38 9.7 179 9.2C179.374 11.243 179.268 13.345 178.69 15.34L180 20.32Z" fill="#353535"/>
<path d="M179 238.2C179.374 236.154 179.268 234.048 178.69 232.05L180.03 227.05V236.67C179.75 237.11 179.41 237.67 179.03 238.17" fill="#353535"/>
</g>
<defs>
<clipPath id="clip0_121_4443">
<rect width="180" height="247.39" fill="white"/>
</clipPath>
</defs>
</svg>
