<svg width="18" height="18" viewBox="0 0 18 18" fill="none" xmlns="http://www.w3.org/2000/svg">
<path d="M16.65 13.2251L10.5012 2.54677C10.3475 2.28515 10.1282 2.06823 9.86487 1.91751C9.60155 1.76679 9.30342 1.6875 9.00002 1.6875C8.69662 1.6875 8.39849 1.76679 8.13517 1.91751C7.87186 2.06823 7.6525 2.28515 7.49885 2.54677L1.35002 13.2251C1.20218 13.4782 1.12427 13.766 1.12427 14.059C1.12427 14.3521 1.20218 14.6399 1.35002 14.8929C1.50171 15.1561 1.72069 15.3742 1.98449 15.5249C2.2483 15.6755 2.54743 15.7532 2.85119 15.75H15.1488C15.4524 15.753 15.7512 15.6751 16.0148 15.5245C16.2783 15.3739 16.497 15.1559 16.6486 14.8929C16.7967 14.64 16.8748 14.3523 16.8751 14.0592C16.8753 13.7662 16.7977 13.4783 16.65 13.2251ZM15.6748 14.3297C15.6212 14.4212 15.5442 14.4967 15.4518 14.5486C15.3594 14.6005 15.2548 14.6269 15.1488 14.625H2.85119C2.74522 14.6269 2.64066 14.6005 2.54824 14.5486C2.45582 14.4967 2.37886 14.4212 2.32526 14.3297C2.2767 14.2475 2.25109 14.1538 2.25109 14.0583C2.25109 13.9629 2.2767 13.8691 2.32526 13.7869L8.47408 3.10856C8.52877 3.01756 8.60608 2.94226 8.69848 2.88998C8.79089 2.8377 8.89526 2.81022 9.00143 2.81022C9.1076 2.81022 9.21196 2.8377 9.30437 2.88998C9.39678 2.94226 9.47409 3.01756 9.52877 3.10856L15.6776 13.7869C15.7257 13.8694 15.7509 13.9632 15.7504 14.0587C15.7499 14.1542 15.7238 14.2478 15.6748 14.3297ZM8.43752 10.125V7.31255C8.43752 7.16336 8.49679 7.02029 8.60227 6.9148C8.70776 6.80931 8.85084 6.75005 9.00002 6.75005C9.14921 6.75005 9.29228 6.80931 9.39777 6.9148C9.50326 7.02029 9.56252 7.16336 9.56252 7.31255V10.125C9.56252 10.2742 9.50326 10.4173 9.39777 10.5228C9.29228 10.6283 9.14921 10.6875 9.00002 10.6875C8.85084 10.6875 8.70776 10.6283 8.60227 10.5228C8.49679 10.4173 8.43752 10.2742 8.43752 10.125ZM9.84377 12.6563C9.84377 12.8232 9.79429 12.9863 9.70157 13.1251C9.60886 13.2638 9.47709 13.372 9.32291 13.4358C9.16874 13.4997 8.99909 13.5164 8.83541 13.4838C8.67174 13.4513 8.5214 13.3709 8.4034 13.2529C8.2854 13.1349 8.20504 12.9846 8.17248 12.8209C8.13993 12.6572 8.15664 12.4876 8.2205 12.3334C8.28436 12.1792 8.39251 12.0475 8.53126 11.9547C8.67001 11.862 8.83314 11.8125 9.00002 11.8125C9.2238 11.8125 9.43841 11.9014 9.59664 12.0597C9.75488 12.2179 9.84377 12.4325 9.84377 12.6563Z" fill="white"/>
</svg>
