<svg width="507" height="484" viewBox="0 0 507 484" fill="none" xmlns="http://www.w3.org/2000/svg">
<path d="M503.607 484C503.607 484 474.692 452.06 501.955 169.275C501.955 169.275 506.085 119.418 506.912 75.0133C506.912 75.0133 509.175 68.8604 490.774 69.9621C490.774 69.9621 496.323 44.072 461.857 34.4321C461.857 34.4321 479.09 62.801 468.575 69.1358C468.575 69.1358 453.679 66.3815 455.723 84.0088C457.768 101.636 455.139 244.307 455.139 244.307C455.139 244.307 449.081 417.004 396.208 483.221L503.607 484Z" fill="white" fill-opacity="0.2"/>
<path d="M226.021 483.994C226.021 483.994 222.716 421.672 83.9232 322.736C83.9232 322.736 17.8313 272.1 51.7034 156.026C51.7034 156.026 60.8206 114.575 85.9402 89.236C85.9402 89.236 91.3586 83.7714 84.5429 67.8015C84.5429 67.8015 85.9886 43.0675 114.491 37.0301C114.491 37.0301 77.9337 16.7755 62.2369 54.9476C62.2369 54.9476 52.7882 47.2336 46.9464 55.6341C41.1047 64.0345 24.4405 92.1459 24.4405 92.1459C24.4405 92.1459 -12.7362 166.153 4.61291 246.392C21.9621 326.632 26.9189 327.411 26.9189 327.411C26.9189 327.411 68.2264 434.137 6.26523 483.215L226.021 483.994Z" fill="white" fill-opacity="0.2"/>
<path d="M147.277 349.784C147.277 349.784 194.596 383.386 215.626 415.886C215.626 415.886 351.739 424.149 337.719 279.275C337.719 279.275 318.135 286.118 288.394 247.167C288.394 247.167 269.702 341.781 147.277 349.784Z" fill="white" fill-opacity="0.2"/>
<path d="M230.152 434.922C230.152 434.922 247.915 455.955 253.698 483.221L294.592 484C294.592 484 264.025 453.229 259.894 428.689" fill="white" fill-opacity="0.2"/>
<path d="M276.83 424.01L299.549 412.325C299.549 412.325 332.595 450.107 385.055 456.729L362.749 483.605L321.442 483.995C321.442 483.995 289.635 459.066 276.83 424.01Z" fill="white" fill-opacity="0.2"/>
<path d="M334.246 379.224L314.005 402.205C314.005 402.205 351.182 438.819 396.62 439.598C396.62 439.598 413.143 412.722 413.97 399.479C413.97 399.479 357.791 397.531 334.246 379.224Z" fill="white" fill-opacity="0.2"/>
<path d="M418.101 383.497C427.602 365.19 428.015 337.924 428.015 337.924C428.015 337.924 387.12 339.482 354.488 327.018C354.488 327.018 352.835 350.389 342.508 364.411C342.508 364.411 378.859 382.718 418.101 383.497Z" fill="white" fill-opacity="0.2"/>
<path d="M356.965 309.11L358.204 274.054C358.204 274.054 397.859 289.245 425.535 283.012C425.535 283.012 430.905 305.215 427.601 319.627C427.601 319.627 375.966 321.574 356.965 309.11Z" fill="white" fill-opacity="0.2"/>
<path d="M347.051 223.02L355.726 254.959C355.726 254.959 397.446 272.098 423.47 265.087L415.209 235.484C415.209 235.484 373.488 233.926 347.051 223.02Z" fill="white" fill-opacity="0.2"/>
<path d="M266.503 65.2716C266.503 65.2716 279.721 60.5975 296.244 67.2192C296.244 67.2192 305.737 70.3713 310.849 65.0005L338.597 0L266.503 65.2716Z" fill="white" fill-opacity="0.2"/>
<path d="M143.406 246.393C143.406 246.393 144.232 277.554 171.495 277.164C198.758 276.775 232.217 249.509 232.217 249.509L274.35 218.738C274.35 218.738 281.786 211.337 290.873 221.464C299.961 231.592 320.201 252.625 320.201 252.625C320.201 252.625 327.224 262.363 335.485 261.194C335.485 261.194 340.029 264.895 323.093 217.959C323.093 217.959 318.734 202.712 339.764 205.742C360.794 208.771 420.672 217.861 420.672 217.861H440.242L366.052 163.602L438.782 103.834L351.155 128.898L439.366 14.3208L306.174 84.0035C306.174 84.0035 232.568 65.2746 190.507 116.504L151.075 139.364C151.075 139.364 140.852 147.351 130.921 135.784C120.99 124.216 123.911 109.894 123.911 109.894C123.911 109.894 113.98 117.881 108.138 130.275C108.138 130.275 95.2866 159.47 90.6131 188.941C90.6131 188.941 80.098 190.869 80.9742 211.526C80.9742 211.526 83.0188 218.962 86.2318 218.411C89.4448 217.861 105.802 205.191 105.802 205.191L120.406 195.826C120.406 195.826 131.798 187.839 135.01 207.67L147.278 186.462C147.278 186.462 153.996 183.983 156.917 201.886C156.917 201.886 164.803 196.653 165.096 184.809L209.201 180.127C209.201 180.127 230.523 176.822 240.746 153.135C240.746 153.135 257.979 185.085 229.063 209.598C229.063 209.598 218.548 213.178 209.201 203.263C209.201 203.263 205.112 202.988 205.404 221.441L185.834 234.111C185.834 234.111 179.116 232.734 175.611 226.95C175.611 226.95 166.848 241.547 165.68 249.259C165.68 249.259 154.137 253.993 143.406 246.393Z" fill="white" fill-opacity="0.2"/>
<path d="M218.585 128.567C218.585 128.567 219.618 112.402 251.011 103.443C282.405 94.4847 281.785 94.0952 281.785 94.0952L267.121 108.118C267.121 108.118 275.796 108.312 281.166 106.17C281.166 106.17 271.045 121.75 258.653 125.061C246.261 128.372 245.022 121.945 218.585 128.567Z" fill="black" fill-opacity="0.6"/>
</svg>
