<?xml version="1.0" encoding="UTF-8" standalone="no"?>
<svg
   viewBox="0 0 230400 262144"
   version="1.1"
   id="svg658"
   width="230400"
   height="262144"
   xmlns="http://www.w3.org/2000/svg"
   xmlns:svg="http://www.w3.org/2000/svg">
  <defs
     id="defs662" />
  <path
     d="M 106.75,215.06 1.2,370.95 c -3.08,5 0.1,11.5 5.93,12.14 l 208.26,22.07 z M 7.41,315.43 82.7,193.08 6.06,147.1 C 3.39,145.5 0,147.42 0,150.53 v 162.81 c 0,4.03 5.29,5.53 7.41,2.09 z m 10.84,108.17 194.4,87.66 C 217.95,513.71 224,509.83 224,504 V 438.33 L 20.45,416.03 c -4.45,-0.5 -6.23,5.59 -2.2,7.57 z M 99.47,165.82 179.4,22.88 C 183.74,15.82 175.81,7.63 168.62,11.74 L 17.81,110.35 c -2.47,1.62 -2.39,5.26 0.13,6.78 z M 240,176 H 349.21 L 253.63,7.62 C 250.5,2.54 245.25,0 240,0 234.75,0 229.5,2.54 226.37,7.62 L 130.79,176 Z m 233.94,-28.9 -76.64,45.99 75.29,122.35 c 2.11,3.44 7.41,1.94 7.41,-2.1 V 150.53 c 0,-3.11 -3.39,-5.03 -6.06,-3.43 z m -93.41,18.72 81.53,-48.7 c 2.53,-1.52 2.6,-5.16 0.13,-6.78 L 311.38,11.74 C 304.19,7.63 296.26,15.82 300.6,22.88 Z M 459.55,416.03 256,438.32 v 65.67 c 0,5.84 6.05,9.71 11.35,7.26 l 194.4,-87.66 c 4.03,-1.97 2.25,-8.06 -2.2,-7.56 z m -86.3,-200.97 -108.63,190.1 208.26,-22.07 c 5.83,-0.65 9.01,-7.14 5.93,-12.14 z M 240,208 H 139.57 L 240,383.75 340.43,208 Z"
     id="path656"
     style="fill:#ffffff" />
</svg>
