<svg width="131" height="118" viewBox="0 0 131 118" fill="none" xmlns="http://www.w3.org/2000/svg">
<g clip-path="url(#clip0_686_7)">
<path d="M112.222 19.4298C106.193 13.2162 99.0214 8.277 91.1184 4.89505C83.2153 1.51311 74.7361 -0.245148 66.1662 -0.279053H65.6684C48.2902 -0.279053 31.6237 6.76441 19.3355 19.3019C7.04721 31.8393 0.143738 48.8437 0.143738 66.5744V102.572C0.143738 106.664 1.73685 110.588 4.5726 113.481C7.40835 116.375 11.2545 118 15.2648 118H25.3455C29.3559 118 33.202 116.375 36.0378 113.481C38.8735 110.588 40.4666 106.664 40.4666 102.572V76.8595C40.4666 72.7678 38.8735 68.8437 36.0378 65.9505C33.202 63.0572 29.3559 61.4318 25.3455 61.4318H10.4513C11.7088 47.3772 18.0701 34.3097 28.2864 24.795C38.5026 15.2802 51.8359 10.0054 65.6684 10.0061H66.0906C79.8655 10.0655 93.1221 15.3717 103.262 24.8848C113.402 34.3978 119.694 47.4318 120.904 61.4318H105.991C101.981 61.4318 98.1348 63.0572 95.2991 65.9505C92.4633 68.8437 90.8702 72.7678 90.8702 76.8595V102.572C90.8702 106.664 92.4633 110.588 95.2991 113.481C98.1348 116.375 101.981 118 105.991 118H116.072C120.082 118 123.929 116.375 126.764 113.481C129.6 110.588 131.193 106.664 131.193 102.572V66.5744C131.226 57.8293 129.567 49.1635 126.312 41.0736C123.056 32.9837 118.269 25.6286 112.222 19.4298ZM25.3455 71.7169C26.6823 71.7169 27.9644 72.2587 28.9096 73.2231C29.8549 74.1876 30.3859 75.4956 30.3859 76.8595V102.572C30.3859 103.936 29.8549 105.244 28.9096 106.209C27.9644 107.173 26.6823 107.715 25.3455 107.715H15.2648C13.928 107.715 12.646 107.173 11.7007 106.209C10.7555 105.244 10.2245 103.936 10.2245 102.572V71.7169H25.3455ZM121.112 102.572C121.112 103.936 120.581 105.244 119.636 106.209C118.691 107.173 117.409 107.715 116.072 107.715H105.991C104.655 107.715 103.372 107.173 102.427 106.209C101.482 105.244 100.951 103.936 100.951 102.572V76.8595C100.951 75.4956 101.482 74.1876 102.427 73.2231C103.372 72.2587 104.655 71.7169 105.991 71.7169H121.112V102.572Z" fill="white"/>
</g>
<defs>
<clipPath id="clip0_686_7">
<rect width="131" height="118" fill="white"/>
</clipPath>
</defs>
</svg>
