<svg width="92" height="87" viewBox="0 0 92 87" fill="none" xmlns="http://www.w3.org/2000/svg">
<path d="M90.6377 8.01624C90.2138 7.67789 89.7203 7.44288 89.1946 7.32904C88.6689 7.2152 88.1247 7.22552 87.6035 7.35921L60.5652 14.2829L33.4296 0.381128C32.6736 -0.00520524 31.8075 -0.101642 30.9881 0.109255L2.68038 7.35921C1.91488 7.55524 1.23529 8.00776 0.749632 8.64487C0.263976 9.28197 0.000119471 10.0671 0 10.8754V76.1251C8.14055e-05 76.6759 0.122692 77.2194 0.35852 77.7145C0.594348 78.2095 0.937192 78.6429 1.36101 78.9819C1.78483 79.3208 2.27847 79.5564 2.80445 79.6706C3.33043 79.7849 3.87491 79.7749 4.39654 79.6413L31.4348 72.7176L58.5704 86.6194C59.063 86.8682 59.6046 86.9984 60.1538 87C60.4431 86.9998 60.7313 86.9633 61.0119 86.8913L89.3196 79.6413C90.0851 79.4453 90.7647 78.9927 91.2504 78.3556C91.736 77.7185 91.9999 76.9334 92 76.1251V10.8754C92.0001 10.3241 91.8775 9.78001 91.6414 9.28454C91.4053 8.78908 91.0621 8.35531 90.6377 8.01624ZM35.3846 9.48889L56.6154 20.3638V77.5116L35.3846 66.6367V9.48889ZM7.07692 13.7075L28.3077 8.26999V66.0431L7.07692 71.4806V13.7075ZM84.9231 73.2931L63.6923 78.7305V20.9574L84.9231 15.5199V73.2931Z" fill="#FAFAFA"/>
</svg>
