<?xml version="1.0" encoding="UTF-8" standalone="no"?>
<!-- Created with Inkscape (http://www.inkscape.org/) -->

<svg
   version="1.1"
   id="svg1"
   width="254"
   height="230"
   viewBox="0 0 254 230"
   sodipodi:docname="coc.svg"
   inkscape:version="1.3 (0e150ed6c4, 2023-07-21)"
   xml:space="preserve"
   xmlns:inkscape="http://www.inkscape.org/namespaces/inkscape"
   xmlns:sodipodi="http://sodipodi.sourceforge.net/DTD/sodipodi-0.dtd"
   xmlns="http://www.w3.org/2000/svg"
   xmlns:svg="http://www.w3.org/2000/svg"><defs
     id="defs1" /><sodipodi:namedview
     id="namedview1"
     pagecolor="#ffffff"
     bordercolor="#000000"
     borderopacity="0.25"
     inkscape:showpageshadow="2"
     inkscape:pageopacity="0.0"
     inkscape:pagecheckerboard="0"
     inkscape:deskcolor="#d1d1d1"
     inkscape:zoom="1.3934783"
     inkscape:cx="94.726989"
     inkscape:cy="77.145086"
     inkscape:window-width="1600"
     inkscape:window-height="837"
     inkscape:window-x="1432"
     inkscape:window-y="-8"
     inkscape:window-maximized="1"
     inkscape:current-layer="g1" /><g
     inkscape:groupmode="layer"
     inkscape:label="Image"
     id="g1"><path
       style="opacity:1;fill:#f9f9f9;fill-opacity:1;stroke:none;stroke-width:0.290256;stroke-linecap:square;stroke-linejoin:miter;stroke-dasharray:none;stroke-opacity:1"
       d=""
       id="path8" /><g
       id="g23"
       transform="matrix(0.4119742,0,0,0.4119742,338.56882,55.245129)"><path
         style="opacity:1;fill:#ffffff;fill-opacity:1;stroke:none;stroke-width:1.16102;stroke-linecap:square;stroke-linejoin:miter;stroke-dasharray:none;stroke-opacity:1"
         d="m -525.88877,153.75436 c -4.66262,-7.76347 -35.32216,-48.77327 -69.72694,-93.265865 l -19.14728,-24.761445 4.13426,-14.818885 c 5.80428,-20.80493138 19.37508,-55.127195 24.2447,-61.317914 9.83602,-12.504469 48.23408,-27.884335 68.71975,-27.524839 6.18147,0.108476 13.82591,0.159043 16.98765,0.11237 7.73607,-0.114197 31.58874,8.388869 46.81191,16.687637 9.88601,5.389268 13.4894,8.779668 17.81966,16.76637 5.91811,10.915309 24.00368,62.083198 24.00368,67.911454 0,1.986206 -10.21923,16.716233 -22.70939,32.733392 -36.26539,46.506075 -53.12523,68.816655 -62.27118,82.403325 -4.69682,6.9773 -9.08999,12.686 -9.7626,12.686 -0.6726,0 -2.46603,-1.59844 -3.98538,-3.55208 -2.63091,-3.38294 -2.86384,-3.38294 -4.89158,0 -3.12718,5.21715 -5.13431,4.42045 -10.22726,-4.05952 z"
         id="path1" /><path
         style="opacity:1;fill:#ffffff;fill-opacity:1;stroke:none;stroke-width:0.580512;stroke-linecap:square;stroke-linejoin:miter;stroke-dasharray:none;stroke-opacity:1"
         d="m -586.90679,351.55905 c -7.31672,-1.72186 -14.7504,-6.01602 -19.43581,-11.22732 -2.53842,-2.82334 -4.61531,-5.46835 -4.61531,-5.87781 0,-0.40946 1.94096,-1.3249 4.31324,-2.0343 2.37229,-0.7094 6.55404,-2.42405 9.29278,-3.81032 l 4.97955,-2.52049 3.78512,2.12735 c 8.45095,4.7497 17.95915,1.33429 29.18475,-10.48335 5.79759,-6.10335 7.62212,-8.885 10.18232,-15.5238 6.209,-16.10051 9.29006,-35.70244 9.29649,-59.14519 0.008,-29.91283 -4.69566,-45.28742 -16.32044,-53.3434 -9.214,-6.3853 -19.51846,-7.56145 -43.55012,-4.97083 -22.08893,2.3812 -48.25946,2.4106 -60.38538,0.0678 -20.84558,-4.02746 -28.06484,-6.72965 -41.10265,-15.3849 -17.81776,-11.82843 -26.38689,-28.94964 -26.38689,-52.72128 0,-11.33334 1.51545,-18.631878 6.21643,-29.938969 7.66519,-18.436762 26.46325,-40.688703 47.45781,-56.177506 8.45505,-6.237742 10.82497,-7.542272 11.97222,-6.590143 2.20551,1.830419 5.29297,6.456779 6.94054,10.399977 l 1.49101,3.568482 -8.36864,6.362368 c -26.20347,19.921547 -42.52531,41.94802 -46.05565,62.152541 -1.52123,8.70616 -1.18483,14.19585 1.37276,22.40181 4.3284,13.88756 11.04598,22.05751 22.94332,27.90376 14.35455,7.05368 21.59542,8.45664 43.81735,8.48986 26.95026,0.0403 38.70586,-3.01493 47.88839,-12.4459 5.65999,-5.81312 3.96886,-12.62535 -3.91758,-15.78088 -3.71552,-1.48665 -4.62439,-1.49863 -9.3555,-0.12326 -5.56407,1.61752 -9.39917,4.93265 -12.26018,10.59793 l -1.72627,3.41831 -4.02806,-3.92575 c -5.32393,-5.1887 -9.71057,-14.42894 -11.04728,-23.27053 -2.17,-14.35337 4.71966,-34.257018 15.7311,-45.4458 3.10891,-3.158976 6.0996,-5.743592 6.64601,-5.743592 0.5464,0 0.99345,2.658283 0.99345,5.907298 0,11.322755 8.153,22.170454 15.98437,21.267477 4.01175,-0.462568 4.32402,1.342027 1.2686,7.331157 -2.27725,4.46378 -2.53319,6.08928 -0.95874,6.08928 1.77166,0 6.13958,-10.77404 6.74464,-16.636516 0.41503,-4.021224 -0.0259,-7.425668 -1.65715,-12.796353 -1.22244,-4.02462 -2.05379,-7.486319 -1.84744,-7.692667 1.28431,-1.284303 33.2395,40.834086 33.2395,43.811166 0,0.31121 -1.20334,-0.38069 -2.67407,-1.53757 -3.40443,-2.67793 -9.56871,-2.80629 -11.8844,-0.24747 -2.5734,2.84357 -2.01939,6.85227 1.7489,12.65485 6.32177,9.73449 11.54878,13.61029 28.20937,20.91705 14.73796,6.46357 17.12567,9.50927 23.54383,30.03192 3.15726,10.09561 3.17373,10.26583 3.14292,32.47617 -0.0329,23.68454 -1.68774,38.88629 -7.18136,65.96722 -4.58282,22.59115 -7.81054,31.83498 -15.93292,45.63009 -11.36901,19.3092 -30.75988,29.80741 -47.69493,25.82201 z"
         id="path2" /><path
         style="opacity:1;fill:#ffffff;fill-opacity:1;stroke:none;stroke-width:0.580512;stroke-linecap:square;stroke-linejoin:miter;stroke-dasharray:none;stroke-opacity:1"
         d="m -680.98464,154.08673 c -4.43604,-1.913 -10.14881,-6.1788 -10.14881,-7.57825 0,-1.03972 8.01654,-12.97774 23.5006,-34.9965 13.73136,-19.526366 17.70094,-30.427675 18.80193,-51.634046 0.63928,-12.313427 -1.09396,-23.783572 -4.64602,-30.746195 -7.2973,-14.30389 -23.50405,-19.2150813 -38.55681,-11.684011 -7.25112,3.627823 -11.28956,8.963403 -14.82941,19.592601 -3.54026,10.630438 -5.10401,10.232078 -4.98685,-1.270381 0.11076,-10.873708 3.02862,-17.468695 11.60804,-26.2366247 8.26163,-8.4431617 16.94132,-12.4102079 27.34304,-12.4971172 6.73796,-0.056297 8.57621,0.3566118 14.44062,3.24365058 10.23072,5.03656772 24.44032,21.68544632 27.34419,32.03822232 1.85139,6.600493 2.6119,19.636233 1.69475,29.049331 -1.60343,16.456637 -5.8776,29.164231 -16.17082,48.07765 -7.40493,13.60629 -29.17657,46.37276 -30.73492,46.25627 -0.6091,-0.0455 -2.70589,-0.7721 -4.65953,-1.6146 z"
         id="path3" /><path
         style="opacity:1;fill:#ffffff;fill-opacity:1;stroke:none;stroke-width:0.580512;stroke-linecap:square;stroke-linejoin:miter;stroke-dasharray:none;stroke-opacity:1"
         d="m -641.40431,288.61932 c -24.34056,-2.74853 -48.4448,-16.43062 -60.26177,-34.20588 -5.77638,-8.68891 -8.17133,-14.82492 -10.85781,-27.81827 -3.38017,-16.34846 -1.56324,-37.89709 4.31606,-51.18823 l 1.99426,-4.50835 3.22682,2.16572 c 1.77475,1.19115 5.88312,3.35859 9.1297,4.81654 5.026,2.25702 5.80708,2.96102 5.25799,4.73908 -4.06973,13.17861 -4.89664,18.02049 -4.94973,28.9826 -0.0618,12.76357 1.50369,19.95877 6.25106,28.73043 3.75486,6.93782 14.95414,17.13079 23.08635,21.01194 7.67409,3.66251 22.56491,7.05775 31.04078,7.07759 l 5.69652,0.0133 0.7151,9.7419 c 0.3933,5.35804 0.57005,9.86441 0.39276,10.01417 -1.12405,0.94948 -8.54655,1.16044 -15.03809,0.42743 z"
         id="path4" /><path
         style="opacity:1;fill:#ffffff;fill-opacity:1;stroke:none;stroke-width:0.580512;stroke-linecap:square;stroke-linejoin:miter;stroke-dasharray:none;stroke-opacity:1"
         d="m -541.94605,409.38691 c -27.63392,-2.76274 -66.17776,-14.22472 -94.37914,-28.06602 -8.61548,-4.22849 -28.75742,-17.50829 -41.61481,-27.43709 -13.78643,-10.64622 -39.84112,-37.5667 -49.34101,-50.98057 -24.43357,-34.50032 -39.49452,-68.19164 -46.93859,-105.00158 -4.07987,-20.17436 -5.20843,-31.46749 -5.20843,-52.1188 0,-21.26169 1.22406,-33.84316 5.19812,-53.428748 10.15929,-50.0687 34.77796,-95.8886863 71.42534,-132.936034 16.78313,-16.966302 25.5422,-24.271414 44.65473,-37.242272 15.66358,-10.630204 20.14805,-13.003721 38.56545,-20.411739 40.54187,-16.307127 67.83802,-22.027367 105.11134,-22.027367 39.31233,0 67.442,5.87782 109.02738,22.781757 7.81402,3.176302 16.71959,7.20405 19.79016,8.950551 7.88381,4.484212 26.35772,17.083249 36.53671,24.917698 7.81801,6.017284 41.61009,38.613586 41.61009,40.137666 0,0.349414 3.23031,4.98995 7.17848,10.312296 28.40644,38.293482 47.07897,85.748034 51.64484,131.250702 1.35904,13.54402 1.35366,42.11336 -0.0103,54.736 -4.96418,45.94 -23.3708,92.49462 -51.63454,130.59573 -3.94817,5.32235 -7.18041,10.01828 -7.18277,10.4354 -0.009,1.56275 -33.3186,33.60106 -41.6058,40.01766 -12.91014,9.99602 -33.01364,23.25969 -41.61009,27.45306 -29.34899,14.31646 -66.81612,25.31095 -95.82873,28.12033 -12.7649,1.23607 -42.75589,1.20432 -55.38843,-0.0586 z m 55.31097,-20.28155 c 16.8931,-1.66375 41.42253,-6.75607 54.1279,-11.23698 34.16221,-12.04827 60.87497,-28.85331 91.36091,-57.47527 14.69938,-13.80063 24.97849,-26.5861 35.42296,-44.06019 15.56454,-26.04017 23.51324,-43.98028 29.57933,-66.76015 6.22115,-23.36217 8.27277,-39.34433 8.27277,-64.44489 0,-31.21474 -4.73573,-58.323285 -14.9814,-85.757386 -7.69724,-20.61032 -25.75645,-52.5986548 -38.9397,-68.9740013 -16.91174,-21.0066127 -50.10029,-48.7100207 -73.88917,-61.6773497 -17.0571,-9.297834 -39.35901,-18.121119 -53.06378,-20.993574 -4.09388,-0.858056 -10.86863,-2.2874 -15.05501,-3.17632 -27.39626,-5.817209 -66.22928,-6.207019 -94.38386,-0.947433 -24.26208,4.532427 -33.2471,7.080631 -50.73,14.387331 -27.21402,11.373663 -50.72385,27.205213 -76.91325,51.793477 -14.78247,13.878717 -25.04771,26.6394563 -35.50812,44.140203 -21.6951,36.296878 -31.17564,62.582175 -36.34149,100.758643 -1.97824,14.61948 -1.97824,46.27333 0,60.89281 5.16585,38.17647 14.64639,64.46177 36.34149,100.75864 10.44447,17.47409 20.72357,30.25956 35.42296,44.06019 30.48594,28.62196 57.1987,45.427 91.36091,57.47527 8.37876,2.95501 12.90309,4.06396 33.83029,8.29208 22.44489,4.53476 47.73579,5.54006 74.08626,2.9449 z"
         id="path5" /><path
         style="opacity:1;fill:#ffffff;fill-opacity:1;stroke:none;stroke-width:0.580512;stroke-linecap:square;stroke-linejoin:miter;stroke-dasharray:none;stroke-opacity:1"
         d="m -638.50642,12.775466 -4.71371,-5.9583368 5.04659,-4.930885 c 6.7401,-6.5855619 9.60317,-11.7154091 10.97661,-19.6671152 1.21368,-7.02673 0.48108,-10.853733 -2.7642,-14.43972 -3.49712,-3.864283 -14.18009,-0.80698 -18.53099,5.303289 -2.75463,3.86853 -4.07588,3.897396 -4.07588,0.08904 0,-4.651276 1.78903,-8.318932 6.40196,-13.124527 7.68945,-8.01062 17.12001,-10.318816 25.56677,-6.25765 5.91185,2.842389 7.35449,4.268516 9.71417,9.602962 4.81911,10.894406 3.04137,23.235836 -5.20614,36.14217578 -3.70493,5.79774092 -15.74097,19.27485622 -17.16472,19.21984022 -0.29521,-0.01141 -2.65792,-2.701992 -5.25046,-5.979077 z"
         id="path6" /><path
         style="opacity:1;fill:#ffffff;fill-opacity:1;stroke:none;stroke-width:0.580512;stroke-linecap:square;stroke-linejoin:miter;stroke-dasharray:none;stroke-opacity:1"
         d="m -324.11028,156.52033 c -4.75258,-8.04667 -4.87212,-8.43935 -3.31372,-10.88501 8.7449,-13.72378 12.1098,-27.16689 9.85933,-39.38896 -1.50339,-8.164761 -7.53792,-21.418498 -13.64628,-29.971533 -5.04487,-7.063922 -25.94411,-27.718716 -31.80652,-31.434508 -2.12396,-1.346234 -7.7953,-6.048989 -12.60298,-10.450566 -4.80769,-4.401576 -12.40626,-11.297449 -16.88572,-15.324161 -21.29274,-19.14064341 -29.60327,-39.092635 -22.94227,-55.079991 4.21455,-10.115526 16.80273,-15.103463 27.17726,-10.768708 8.27576,3.457831 15.43436,13.500651 14.61444,20.50264 l -0.34406,2.938221 -3.54336,-3.900397 c -4.50209,-4.955719 -7.98217,-6.755845 -13.06068,-6.755845 -5.73902,0 -8.2431,3.383859 -8.2431,11.139252 0,7.770543 2.08501,14.2234799 6.2202,19.2510708 4.55443,5.5372983 18.89011,17.7693592 33.86576,28.8962922 18.28957,13.589187 22.68717,17.331244 30.34,25.817292 10.71783,11.884768 17.64897,21.737935 22.51016,31.999998 6.45051,13.617166 7.84757,20.684593 7.24491,36.650453 -0.51763,13.71337 -1.50762,17.84974 -7.13966,29.83105 -2.2003,4.68082 -11.16868,15.38202 -12.82768,15.30617 -0.30007,-0.0137 -2.76429,-3.78145 -5.47603,-8.37276 z"
         id="path7" /><path
         style="opacity:1;fill:#ffffff;fill-opacity:1;stroke:none;stroke-width:0.580512;stroke-linecap:square;stroke-linejoin:miter;stroke-dasharray:none;stroke-opacity:1"
         d="m -356.24437,277.31603 c -0.0118,-1.25592 -1.15153,-5.48036 -2.53278,-9.38765 -1.38125,-3.90728 -2.51336,-7.2066 -2.51579,-7.33181 -0.002,-0.12522 1.47779,-0.99414 3.28938,-1.93096 5.07987,-2.6269 15.93594,-13.55776 18.51885,-18.64643 7.87478,-15.51434 8.37861,-34.22128 1.48178,-55.01818 -4.4045,-13.28148 -8.887,-21.49992 -24.79207,-45.45497 -27.24841,-41.039566 -35.28747,-61.129357 -35.24274,-88.072318 0.0176,-10.623581 1.36324,-18.768054 3.94273,-23.864082 l 1.43591,-2.836777 3.75602,2.977849 c 2.06582,1.637817 5.69575,4.741151 8.06652,6.896299 4.20507,3.822623 4.28633,4.017723 3.32257,7.977969 -2.21497,9.101689 -0.39814,32.235143 3.35332,42.69728 2.737,7.633003 6.98211,15.07356 15.88195,27.8369 31.31541,44.9097 35.12281,51.01104 40.07704,64.22349 7.36942,19.6535 6.93265,46.97997 -1.05901,66.25663 -2.84416,6.8604 -10.35059,17.26564 -16.68897,23.13386 -5.17415,4.79035 -17.46007,12.82638 -19.60968,12.82638 -0.36499,0 -0.67326,-1.02757 -0.68503,-2.28348 z"
         id="path9" /><path
         style="opacity:1;fill:#ffffff;fill-opacity:1;stroke:none;stroke-width:0.580512;stroke-linecap:square;stroke-linejoin:miter;stroke-dasharray:none;stroke-opacity:1"
         d="m -499.76028,293.21098 c -4.88569,-19.46615 -9.76674,-54.32828 -10.43135,-74.50429 -0.64562,-19.59961 0.25837,-26.7556 5.36018,-42.43127 4.84382,-14.88296 7.79261,-18.3378 20.71048,-24.26473 14.86374,-6.81972 17.40949,-8.3217 22.65105,-13.36399 5.87236,-5.64912 9.85377,-12.13867 9.83267,-16.02691 -0.0185,-3.41077 -0.78373,-4.71691 -3.64541,-6.22226 -2.29273,-1.20606 -8.92272,0.0283 -10.06316,1.8736 -0.3322,0.53751 -1.02952,0.9773 -1.54961,0.9773 -2.18376,0 14.68827,-23.350332 28.59919,-39.580331 4.24004,-4.946905 5.0761,-3.956812 2.25205,2.66698 -1.03713,2.432591 -1.69372,6.829606 -1.72343,11.541344 -0.0401,6.352947 0.40764,8.492657 2.70742,12.939727 1.51547,2.93046 3.20441,5.32812 3.75319,5.32812 1.32909,0 1.3078,-0.11002 -1.00969,-5.2173 -2.89501,-6.38004 -2.70501,-7.720441 1.01693,-7.174177 7.55296,1.108537 15.21882,-8.696648 16.69436,-21.353294 0.37418,-3.209559 1.06584,-5.835561 1.53703,-5.835561 0.47118,0 3.44002,2.85435 6.59742,6.343001 6.70579,7.409302 11.69232,17.342251 14.28757,28.460191 1.568,6.71725 1.6807,9.05731 0.74805,15.53119 -1.31579,9.13339 -5.77432,18.74886 -11.01331,23.75188 -3.51338,3.35512 -3.78397,3.44492 -4.88014,1.61941 -6.29668,-10.48625 -15.86307,-14.9021 -23.66301,-10.92286 -3.92658,2.00318 -6.42159,5.58327 -6.42159,9.21433 0,4.73354 9.28271,12.01948 19.36611,15.20034 16.74684,5.28287 35.55786,5.45983 61.86357,0.58195 l 3.59134,-0.66594 4.3629,8.8047 c 2.39959,4.84258 4.20871,8.93104 4.02026,9.08545 -0.9662,0.79171 -17.6168,4.66239 -24.69976,5.74184 -11.6054,1.76865 -39.03621,1.47861 -56.80951,-0.60068 -19.33487,-2.26198 -30.63728,-1.74185 -38.291,1.76214 -15.67594,7.17668 -22.13028,23.56079 -22.09426,56.0855 0.0141,12.73903 1.69429,30.90179 3.53781,38.24369 0.60531,2.41068 0.23669,2.95145 -3.21504,4.71653 -2.14431,1.09652 -6.01953,3.86341 -8.61159,6.14866 l -4.71283,4.15498 z"
         id="path10" /><path
         style="opacity:1;fill:#ffffff;fill-opacity:1;stroke:none;stroke-width:0.580512;stroke-linecap:square;stroke-linejoin:miter;stroke-dasharray:none;stroke-opacity:1"
         d="m -406.32716,288.72226 c -11.14746,-1.37426 -16.78238,-2.97637 -26.51926,-7.53992 -7.57421,-3.54994 -11.44975,-6.34683 -22.69576,-16.37906 -7.459,-6.65395 -16.25776,-13.92488 -19.55279,-16.15762 -7.82674,-5.30346 -8.72152,-7.98384 -7.23405,-21.66996 0.70791,-6.51345 1.90877,-11.69919 3.46321,-14.95545 2.15307,-4.51028 2.73913,-5.0145 6.1579,-5.29803 2.18589,-0.18128 5.67058,0.52367 8.26792,1.6726 l 4.48956,1.98595 0.37445,8.98364 c 0.50774,12.18129 3.55565,18.70151 13.0504,27.91795 3.87351,3.75998 9.14288,8.06708 11.7097,9.57134 11.50526,6.74253 28.51347,11.58212 40.70408,11.58212 h 5.5268 l 2.05388,4.64315 c 1.12964,2.55373 2.30959,7.12069 2.62212,10.1488 l 0.56824,5.50566 h -3.55242 c -1.95383,0 -5.55712,0.19087 -8.00731,0.42416 -2.45019,0.23328 -7.59219,0.0374 -11.42667,-0.43533 z"
         id="path11" /><path
         style="opacity:1;fill:#ffffff;fill-opacity:1;stroke:none;stroke-width:0.580512;stroke-linecap:square;stroke-linejoin:miter;stroke-dasharray:none;stroke-opacity:1"
         d="m -430.81666,222.68399 c -6.69821,-4.97805 -13.777,-10.35077 -15.73065,-11.93938 -5.44613,-4.42856 -9.03918,-5.96138 -18.34047,-7.82419 -4.70462,-0.94222 -8.73171,-1.87359 -8.9491,-2.06972 -1.0108,-0.91199 5.53032,-7.76428 9.81728,-10.28431 4.59141,-2.69899 5.28214,-2.80422 16.96485,-2.5845 15.21652,0.28619 18.16013,1.02193 18.58775,4.64594 0.2351,1.99249 2.79077,4.77708 9.64136,10.50501 5.1268,4.28664 9.94989,8.36232 10.71796,9.05709 1.17035,1.05865 0.82652,2.22269 -2.12332,7.18835 -1.93589,3.25882 -4.10398,7.4094 -4.81798,9.2235 -0.71399,1.81409 -1.81364,3.26119 -2.44365,3.21578 -0.63001,-0.0454 -6.62582,-4.15553 -13.32403,-9.13357 z"
         id="path12" /><path
         style="opacity:1;fill:#ffffff;fill-opacity:1;stroke:none;stroke-width:0.580512;stroke-linecap:square;stroke-linejoin:miter;stroke-dasharray:none;stroke-opacity:1"
         d="m -407.98186,262.83189 c -12.28069,-2.72946 -12.24878,-2.71747 -11.77171,-4.4233 0.25287,-0.90414 0.77278,-3.651 1.15537,-6.10413 1.04556,-6.70398 5.93102,-20.43892 10.07521,-28.32534 5.0659,-9.64042 12.20388,-17.35856 19.44859,-21.02934 5.36439,-2.71805 6.9164,-3.01837 15.59847,-3.01837 16.40096,0 21.3546,4.33701 21.49084,18.81565 0.0714,7.58406 -1.91751,12.24633 -5.52732,12.95707 -1.73954,0.3425 -2.28143,-1.01159 -3.24368,-8.10533 -0.97007,-7.15141 -3.6629,-9.9716 -9.49514,-9.94422 -13.69498,0.0643 -23.98714,12.63475 -28.70321,35.05697 -1.1664,5.5456 -2.41882,11.27047 -2.78316,12.72192 l -0.66242,2.63901 z"
         id="path13" /><path
         style="opacity:1;fill:#ffffff;fill-opacity:1;stroke:none;stroke-width:0.580512;stroke-linecap:square;stroke-linejoin:miter;stroke-dasharray:none;stroke-opacity:1"
         d="m -406.45954,332.4505 c -1.67455,-0.38362 -2.93079,-1.12881 -2.79165,-1.65596 0.13915,-0.52715 1.52501,-4.59653 3.07971,-9.04307 2.53588,-7.25281 3.13636,-8.14899 5.83629,-8.71042 7.33022,-1.52425 12.77445,-6.481 17.78065,-16.18858 3.5537,-6.891 3.21105,-17.049 -0.8692,-25.7683 -2.84685,-6.08357 -10.14524,-16.99811 -12.22652,-18.28441 -1.54405,-0.95427 5.07695,-21.9145 6.92244,-21.9145 1.19286,0 9.39513,9.08034 14.64891,16.2171 9.00955,12.23861 14.76204,27.45322 14.7963,39.13436 0.0291,9.93721 -5.8339,25.62326 -12.88753,34.4794 -7.84123,9.84503 -21.75393,14.60618 -34.2894,11.73438 z"
         id="path14" /><path
         style="opacity:1;fill:#ffffff;fill-opacity:1;stroke:none;stroke-width:0.580512;stroke-linecap:square;stroke-linejoin:miter;stroke-dasharray:none;stroke-opacity:1"
         d="m -454.44181,351.11023 c -12.28719,-2.63865 -23.90909,-11.53686 -31.09954,-23.81113 -3.53312,-6.03111 -3.7456,-6.80661 -2.47903,-9.04796 1.90853,-3.37739 14.28819,-10.15456 14.88051,-8.14625 0.75743,2.56817 14.89295,15.69352 19.0005,17.64268 5.64907,2.68066 11.69093,3.15254 15.45331,1.20694 7.71161,-3.98783 13.19367,-16.09515 16.02892,-35.4004 0.61847,-4.21122 0.53901,-4.16999 5.54136,-2.87475 1.95364,0.50585 5.76227,1.22246 8.46361,1.59247 l 4.91153,0.67274 -0.67505,6.26719 c -1.81568,16.85694 -7.42618,32.60943 -14.34004,40.26225 -9.15026,10.12824 -22.47538,14.47319 -35.68608,11.63622 z"
         id="path15" /><path
         style="opacity:1;fill:#ffffff;fill-opacity:1;stroke:none;stroke-width:0.580512;stroke-linecap:square;stroke-linejoin:miter;stroke-dasharray:none;stroke-opacity:1"
         d="m -493.73698,359.19108 c -4.53293,-2.36354 -6.5715,-4.50493 -9.10554,-9.56484 -4.37308,-8.73204 -6.04436,-15.38907 -6.02292,-23.99045 0.018,-7.23626 0.42735,-9.08607 3.30303,-14.92741 3.47235,-7.05334 12.85904,-16.6575 21.04603,-21.53364 8.00262,-4.76632 18.26183,-4.94634 29.95736,-0.52565 4.19305,1.58489 20.44482,11.44393 26.02872,15.79017 0.54653,0.42539 -3.58421,11.70963 -5.17549,14.13823 l -1.67923,2.56283 -3.80511,-2.23712 c -2.0928,-1.23041 -6.67135,-4.4024 -10.17455,-7.04886 -11.54468,-8.72133 -22.27282,-9.68265 -32.83044,-2.94184 -9.97761,6.37049 -14.26402,13.14556 -14.8987,23.5488 -0.526,8.62178 1.77191,13.34472 10.69691,21.98563 l 6.55155,6.343 -5.42462,-0.006 c -2.98354,-0.003 -6.79369,-0.7201 -8.467,-1.59259 z"
         id="path16" /><path
         style="opacity:1;fill:#ffffff;fill-opacity:1;stroke:none;stroke-width:0.580512;stroke-linecap:square;stroke-linejoin:miter;stroke-dasharray:none;stroke-opacity:1"
         d="m -320.19565,37.040329 c -1.50638,-4.523242 -4.1776,-10.140773 -5.93604,-12.483401 -6.52326,-8.690398 -21.16161,-12.973861 -32.01618,-9.368553 -5.9367,1.971856 -6.22397,1.869373 -15.18044,-5.4155106 l -4.41935,-3.5945414 2.38958,-1.9684242 c 9.63479,-7.9366682 23.84924,-9.4816112 35.79677,-3.8906872 8.41127,3.9361081 17.40153,12.7372844 21.4376,20.9867254 2.38623,4.877277 2.84021,7.129933 2.91491,14.464011 0.11716,11.502459 -1.44659,11.900819 -4.98685,1.270381 z"
         id="path17" /><path
         style="opacity:1;fill:#ffffff;fill-opacity:1;stroke:none;stroke-width:0.580512;stroke-linecap:square;stroke-linejoin:miter;stroke-dasharray:none;stroke-opacity:1"
         d="m -648.00104,262.83409 c -3.3491,-0.75466 -6.57286,-1.40143 -7.1639,-1.43727 -0.59105,-0.0358 -1.87423,-0.64984 -2.85152,-1.36445 -1.63948,-1.19881 -1.36988,-1.92475 3.48634,-9.38764 6.49152,-9.97595 21.44142,-25.42476 39.51269,-40.83129 16.04689,-13.68067 17.25297,-14.93884 17.25297,-17.99827 0,-2.57612 1.32076,-2.89924 17.00155,-4.15928 10.98309,-0.88255 16.12693,0.57821 22.63241,6.4272 2.76142,2.48275 5.02077,5.13612 5.02077,5.89638 0,0.81283 -1.56785,1.63229 -3.8058,1.98915 -13.71909,2.1876 -14.84634,2.75723 -34.75965,17.56491 -26.05475,19.3745 -36.04557,28.3565 -44.26099,39.79177 -1.99583,2.77805 -4.15682,5.01273 -4.80219,4.96595 -0.64537,-0.0468 -3.91357,-0.7025 -7.26268,-1.45716 z"
         id="path18" /><path
         style="opacity:1;fill:#ffffff;fill-opacity:1;stroke:none;stroke-width:0.580512;stroke-linecap:square;stroke-linejoin:miter;stroke-dasharray:none;stroke-opacity:1"
         d="m -620.98193,301.72903 c -0.61359,-4.63575 -1.57208,-15.05073 -2.12998,-23.1444 -0.55789,-8.09367 -1.30152,-17.45637 -1.65249,-20.806 l -0.63814,-6.09023 7.17172,-6.37385 7.17171,-6.37384 2.00517,6.49196 c 2.0894,6.7647 4.64181,26.3868 5.6985,43.8082 0.33857,5.58184 0.70747,11.0341 0.81979,12.11614 0.15104,1.45495 -1.24953,2.69472 -5.37762,4.76022 -3.07001,1.5361 -7.01536,3.07359 -8.76744,3.41666 l -3.18561,0.62377 z"
         id="path19" /><path
         style="opacity:1;fill:#ffffff;fill-opacity:1;stroke:none;stroke-width:0.580512;stroke-linecap:square;stroke-linejoin:miter;stroke-dasharray:none;stroke-opacity:1"
         d="m -670.65605,230.84444 c -2.7075,-2.90617 -3.59326,-7.36678 -3.02443,-15.23077 0.73811,-10.20428 6.28852,-14.95181 18.63944,-15.94323 10.24777,-0.82259 20.77234,3.00913 27.36153,9.96162 l 3.02072,3.18726 -6.06969,5.45823 -6.06969,5.45824 -3.57167,-3.47988 c -6.61403,-6.44403 -17.16912,-8.75682 -21.26618,-4.65976 -2.00351,2.00351 -4.10957,8.03412 -4.11976,11.79677 -0.003,1.14923 -0.61548,2.92349 -1.36082,3.9428 -1.29538,1.77154 -1.45149,1.74988 -3.53945,-0.49128 z"
         id="path20" /><path
         style="opacity:1;fill:#ffffff;fill-opacity:1;stroke:none;stroke-width:0.580512;stroke-linecap:square;stroke-linejoin:miter;stroke-dasharray:none;stroke-opacity:1"
         d="m -600.21791,281.37555 c -0.2543,-1.25592 -0.71083,-6.1654 -1.01451,-10.90996 l -0.55216,-8.62649 6.71952,-3.55208 c 3.70279,-1.95737 10.04676,-6.74351 14.13067,-10.66074 9.79487,-9.39508 12.8305,-15.78186 13.43806,-28.27283 l 0.43749,-8.9946 4.46479,-1.97499 c 2.57649,-1.1397 6.06278,-1.84246 8.24315,-1.66164 3.39322,0.28141 4.01105,0.80029 6.06101,5.09026 1.44225,3.01823 2.7111,8.54487 3.44642,15.01146 1.59485,14.0254 0.77305,16.43834 -7.51321,22.05996 -3.48419,2.36377 -12.20392,9.57423 -19.37718,16.02325 -8.74276,7.86007 -15.34207,12.88365 -20.01855,15.23869 -3.83694,1.93225 -7.20731,3.51319 -7.4897,3.51319 -0.2824,0 -0.72151,-1.02757 -0.9758,-2.28348 z"
         id="path21" /><path
         style="opacity:1;fill:#ffffff;fill-opacity:1;stroke:none;stroke-width:0.580512;stroke-linecap:square;stroke-linejoin:miter;stroke-dasharray:none;stroke-opacity:1"
         d="m -637.39497,332.06571 c -9.69563,-2.7405 -16.36062,-8.88493 -22.60988,-20.84395 -4.0774,-7.80282 -6.77147,-16.26464 -6.77147,-21.26858 0,-3.13618 0.22929,-3.41935 2.28348,-2.82 1.25591,0.36643 6.00653,1.60687 10.55692,2.75653 l 8.27345,2.0903 1.79833,4.70888 c 1.03995,2.72307 3.99709,6.90762 7.01217,9.9227 10.99083,10.99083 23.19794,9.2953 45.20091,-6.27828 16.85842,-11.93228 26.69991,-15.54425 40.38576,-14.82216 3.84328,0.20278 3.85942,-0.24552 -0.43072,11.96948 l -2.53751,7.22488 -5.40226,0.0485 c -6.09566,0.0548 -11.81797,2.52594 -18.6171,8.03976 -7.43634,6.03056 -22.17452,13.68374 -33.51963,17.40592 -8.33042,2.73309 -19.64057,3.55676 -25.62245,1.86597 z"
         id="path22" /><path
         style="opacity:1;fill:#ffffff;fill-opacity:1;stroke:none;stroke-width:0.580512;stroke-linecap:square;stroke-linejoin:miter;stroke-dasharray:none;stroke-opacity:1"
         d="m -539.80183,354.43041 c 10.48445,-10.28593 12.88502,-17.53668 9.53777,-28.8081 -1.48969,-5.01634 -1.46297,-5.20981 1.85606,-13.43721 3.77051,-9.34655 3.90081,-9.34761 8.22061,-0.0673 4.9617,10.6593 2.903,27.84099 -4.78416,39.92802 -3.73458,5.87213 -9.01567,8.68886 -16.3526,8.72183 l -4.95994,0.0223 z"
         id="path23" /></g></g></svg>
