<svg width="39" height="34" viewBox="0 0 39 34" fill="none" xmlns="http://www.w3.org/2000/svg">
<path d="M34.9688 6.95314H20.4475L15.8771 1.8045C15.5463 1.43238 15.1401 1.1348 14.6855 0.931457C14.231 0.728118 13.7384 0.623664 13.2404 0.625013H4.03125C3.09885 0.625013 2.20464 0.995408 1.54533 1.65472C0.88602 2.31402 0.515625 3.20824 0.515625 4.14064V30.2652C0.51702 31.1683 0.87638 32.034 1.51495 32.6726C2.15351 33.3111 3.0192 33.6705 3.92227 33.6719H35.1252C36.0158 33.671 36.8697 33.3167 37.4995 32.687C38.1292 32.0572 38.4834 31.2033 38.4844 30.3127V10.4688C38.4844 9.53636 38.114 8.64215 37.4547 7.98284C36.7954 7.32353 35.9012 6.95314 34.9688 6.95314ZM4.73438 4.84376H12.9275L14.8031 6.95314H4.73438V4.84376ZM34.2656 29.4531H4.73438V11.1719H34.2656V29.4531Z" fill="#FAF9F9"/>
</svg>
