<svg width="33" height="36" viewBox="0 0 33 36" fill="none" xmlns="http://www.w3.org/2000/svg">
<g clip-path="url(#clip0_1305_2)">
<path d="M30.3717 18.3689C30.378 18.1213 30.378 17.8736 30.3717 17.6259L32.7239 14.42C32.8473 14.2517 32.9326 14.0541 32.9732 13.8432C33.0137 13.6323 33.0082 13.4139 32.9573 13.2057C32.571 11.6247 31.9942 10.1065 31.2419 8.69094C31.1434 8.50573 31.0065 8.34819 30.8423 8.23084C30.6781 8.1135 30.491 8.03959 30.296 8.01501L26.5563 7.56095C26.4007 7.38208 26.2431 7.21009 26.0833 7.04497L25.6419 2.95501C25.6192 2.7421 25.5512 2.53793 25.4433 2.35876C25.3355 2.1796 25.1908 2.0304 25.0207 1.92306C23.7232 1.10308 22.3315 0.474967 20.8821 0.0552235C20.6913 -0.000398451 20.4911 -0.00634216 20.2978 0.0378713C20.1045 0.0820848 19.9234 0.175219 19.7691 0.309771L16.8382 2.86213C16.6112 2.86213 16.3841 2.86213 16.1571 2.86213L13.2183 0.301172C13.064 0.16662 12.8829 0.0734854 12.6896 0.0292719C12.4962 -0.0149416 12.2961 -0.00899824 12.1052 0.0466237C10.656 0.468051 9.26431 1.09729 7.96669 1.9179C7.79692 2.02544 7.65251 2.17472 7.54494 2.35388C7.43737 2.53303 7.36963 2.7371 7.34709 2.94985L6.93087 7.03638C6.76691 7.20722 6.60925 7.37921 6.45789 7.55235L2.70876 8.02189C2.51359 8.04666 2.32643 8.12083 2.1622 8.23848C1.99797 8.35613 1.8612 8.51401 1.7628 8.69954C1.01131 10.1153 0.435049 11.6334 0.0490449 13.2143C-0.00172627 13.4227 -0.0069191 13.6411 0.0338848 13.852C0.0746888 14.0629 0.160348 14.2604 0.283957 14.4286L2.62362 17.6259C2.62362 17.8736 2.62362 18.1213 2.62362 18.3689L0.276074 21.5749C0.152735 21.7432 0.0673616 21.9408 0.0268325 22.1517C-0.0136965 22.3626 -0.00824839 22.5809 0.0427384 22.7891C0.429046 24.3702 1.00585 25.8883 1.75807 27.3039C1.85665 27.4891 1.9935 27.6467 2.15772 27.764C2.32194 27.8813 2.50901 27.9552 2.70403 27.9798L6.44371 28.4339C6.60031 28.6128 6.75797 28.7848 6.91668 28.9499L7.3534 33.0398C7.3761 33.2527 7.44409 33.4569 7.55194 33.6361C7.65979 33.8152 7.80451 33.9644 7.97458 34.0718C9.27237 34.8916 10.664 35.5202 12.1131 35.9413C12.3041 35.9967 12.5043 36.0024 12.6977 35.9579C12.891 35.9134 13.072 35.8199 13.2262 35.6851L16.1571 33.1327C16.3841 33.1396 16.6112 33.1396 16.8382 33.1327L19.7769 35.6988C19.9312 35.8334 20.1124 35.9265 20.3057 35.9707C20.499 36.0149 20.6992 36.009 20.89 35.9534C22.3395 35.5327 23.7313 34.9034 25.0286 34.0821C25.1983 33.9746 25.3428 33.8253 25.4503 33.6461C25.5579 33.467 25.6256 33.2629 25.6482 33.0502L26.0644 28.9705C26.2284 28.8008 26.386 28.6288 26.5374 28.4545L30.2865 27.973C30.4817 27.9482 30.6688 27.874 30.8331 27.7564C30.9973 27.6387 31.1341 27.4808 31.2325 27.2953C31.984 25.8795 32.5602 24.3614 32.9462 22.7805C32.997 22.5722 33.0022 22.3538 32.9614 22.1429C32.9206 21.9319 32.8349 21.7344 32.7113 21.5663L30.3717 18.3689ZM16.4976 24.8771C15.2504 24.8771 14.0311 24.4736 12.994 23.7177C11.9569 22.9617 11.1486 21.8873 10.6713 20.6302C10.194 19.3731 10.0691 17.9898 10.3124 16.6553C10.5558 15.3207 11.1564 14.0949 12.0384 13.1328C12.9203 12.1706 14.044 11.5154 15.2673 11.2499C16.4906 10.9845 17.7586 11.1207 18.911 11.6414C20.0633 12.1621 21.0482 13.0439 21.7412 14.1753C22.4341 15.3066 22.804 16.6367 22.804 17.9974C22.804 19.822 22.1396 21.5719 20.9569 22.8621C19.7742 24.1523 18.1702 24.8771 16.4976 24.8771Z" fill="#FAF9F9"/>
</g>
<defs>
<clipPath id="clip0_1305_2">
<rect width="33" height="36" fill="white"/>
</clipPath>
</defs>
</svg>
