<?xml version="1.0" encoding="UTF-8" standalone="no"?>
<!-- Created with Inkscape (http://www.inkscape.org/) -->

<svg
   version="1.1"
   id="svg1"
   width="254"
   height="230"
   viewBox="0 0 254 230"
   sodipodi:docname="friend-request.svg"
   inkscape:version="1.3 (0e150ed6c4, 2023-07-21)"
   xml:space="preserve"
   xmlns:inkscape="http://www.inkscape.org/namespaces/inkscape"
   xmlns:sodipodi="http://sodipodi.sourceforge.net/DTD/sodipodi-0.dtd"
   xmlns="http://www.w3.org/2000/svg"
   xmlns:svg="http://www.w3.org/2000/svg"><defs
     id="defs1" /><sodipodi:namedview
     id="namedview1"
     pagecolor="#ffffff"
     bordercolor="#000000"
     borderopacity="0.25"
     inkscape:showpageshadow="2"
     inkscape:pageopacity="0.0"
     inkscape:pagecheckerboard="0"
     inkscape:deskcolor="#d1d1d1"
     inkscape:zoom="0.98533796"
     inkscape:cx="49.729131"
     inkscape:cy="142.59067"
     inkscape:window-width="1600"
     inkscape:window-height="837"
     inkscape:window-x="1432"
     inkscape:window-y="-8"
     inkscape:window-maximized="1"
     inkscape:current-layer="g11" /><g
     inkscape:groupmode="layer"
     inkscape:label="Image"
     id="g1"><path
       style="opacity:1;fill:#f9f9f9;fill-opacity:1;stroke:none;stroke-width:0.290256;stroke-linecap:square;stroke-linejoin:miter;stroke-dasharray:none;stroke-opacity:1"
       d=""
       id="path8" /><g
       id="g11"
       transform="translate(41.01563,-360.0502)"><path
         style="opacity:1;fill:#f9f9f9;fill-opacity:1;stroke:none;stroke-width:0.555339;stroke-linecap:square;stroke-linejoin:miter;stroke-dasharray:none;stroke-opacity:1"
         d="m 82.857625,553.44839 c -0.817268,-0.93448 -5.954463,-9.4539 -11.415987,-18.93207 L 61.51159,517.28327 H 37.060431 c -23.432554,0 -24.630697,-0.091 -28.7608882,-2.18446 -2.5522602,-1.29367 -5.1105976,-3.57016 -6.2736896,-5.58254 -1.90284268,-3.29234 -1.96395505,-4.97422 -1.96395505,-54.05511 0,-49.87844 0.03119852,-50.69918 2.03102165,-53.39816 1.1170691,-1.50759 3.4753688,-3.72411 5.240673,-4.92556 l 3.2096512,-2.18447 H 85.984372 161.4255 l 3.20965,2.18447 c 1.76531,1.20145 4.12361,3.41797 5.24068,4.92556 1.9998,2.69898 2.03101,3.51972 2.03101,53.39816 0,49.08089 -0.0611,50.76277 -1.96396,54.05511 -1.16308,2.01238 -3.72141,4.28887 -6.27368,5.58254 -4.13021,2.09346 -5.32833,2.18446 -28.76089,2.18446 h -24.45116 l -9.93005,17.23305 c -10.87086,18.86577 -12.115225,20.63111 -14.542728,20.63111 -0.902443,0 -2.30948,-0.76457 -3.126747,-1.69904 z m 38.078265,-65.08567 c 0,-10.03589 -2.2778,-15.79067 -7.66786,-19.37266 -3.20162,-2.12764 -4.00641,-2.1923 -27.283658,-2.1923 -23.277242,0 -24.082043,0.0646 -27.283655,2.1923 -5.390071,3.58199 -7.667861,9.33677 -7.667861,19.37266 v 8.53218 H 85.984372 120.93589 Z M 97.337431,449.67587 c 5.418519,-4.37956 7.547069,-8.58608 7.544269,-14.90915 -0.003,-6.85623 -2.71426,-12.19115 -8.145077,-16.0273 -3.608954,-2.54925 -4.950407,-2.91264 -10.752251,-2.91264 -5.801843,0 -7.143298,0.36339 -10.75225,2.91264 -9.458538,6.68118 -11.199073,19.59237 -3.780291,28.04189 4.445559,5.06322 8.175168,6.53296 15.691407,6.18355 5.564873,-0.25869 7.029699,-0.73129 10.194193,-3.28899 z"
         id="path1" /></g></g></svg>
