<?xml version="1.0" encoding="UTF-8" standalone="no"?>
<svg
   width="132"
   height="130"
   viewBox="0 0 132 130"
   fill="none"
   version="1.1"
   id="svg4"
   sodipodi:docname="images-1.svg"
   inkscape:export-filename="images-1.svg"
   inkscape:export-xdpi="96"
   inkscape:export-ydpi="96"
   inkscape:version="1.2.2 (732a01da63, 2022-12-09)"
   xmlns:inkscape="http://www.inkscape.org/namespaces/inkscape"
   xmlns:sodipodi="http://sodipodi.sourceforge.net/DTD/sodipodi-0.dtd"
   xmlns="http://www.w3.org/2000/svg"
   xmlns:svg="http://www.w3.org/2000/svg">
  <defs
     id="defs8" />
  <sodipodi:namedview
     id="namedview6"
     pagecolor="#ffffff"
     bordercolor="#666666"
     borderopacity="1.0"
     inkscape:showpageshadow="2"
     inkscape:pageopacity="0.0"
     inkscape:pagecheckerboard="0"
     inkscape:deskcolor="#d1d1d1"
     showgrid="false"
     inkscape:zoom="1.8153846"
     inkscape:cx="62.521186"
     inkscape:cy="65"
     inkscape:window-width="1440"
     inkscape:window-height="837"
     inkscape:window-x="-8"
     inkscape:window-y="-8"
     inkscape:window-maximized="1"
     inkscape:current-layer="svg4" />
  <path
     d="M 119.29873,7.6430085 H 32.082627 c -2.570085,0 -5.035041,1.0986858 -6.852308,3.0545005 -1.817384,1.955687 -2.83837,4.608192 -2.83837,7.374031 v 10.428531 h -9.690678 c -2.570085,0 -5.0350412,1.098685 -6.8523076,3.0545 -1.8173838,1.955687 -2.8383702,4.608192 -2.8383702,7.374031 v 72.999078 c 0,2.76596 1.0209864,5.41898 2.8383702,7.37505 1.8172664,1.95479 4.2822226,3.05476 6.8523076,3.05476 h 87.216102 c 2.570087,0 5.035037,-1.09997 6.852777,-3.05476 1.81715,-1.95607 2.8379,-4.60909 2.8379,-7.37505 v -10.42789 h 9.69068 c 2.57008,0 5.03445,-1.09869 6.85278,-3.054503 1.81715,-1.955686 2.8379,-4.608191 2.8379,-7.37403 V 18.07154 c 0,-2.765839 -1.02075,-5.418344 -2.8379,-7.374031 -1.81833,-1.9558147 -4.2827,-3.0545005 -6.85278,-3.0545005 z M 32.082627,18.07154 h 87.216103 v 40.899351 l -6.09867,-6.556947 c -0.89976,-0.968538 -1.96867,-1.736977 -3.14448,-2.261163 -1.1758,-0.524314 -2.43617,-0.794108 -3.70947,-0.794108 -1.27236,0 -2.53273,0.269794 -3.70853,0.794108 -1.17592,0.524186 -2.24425,1.292625 -3.14413,2.261163 L 87.380102,65.449672 60.730738,36.771147 c -1.817267,-1.954146 -4.281165,-3.051934 -6.850194,-3.051934 -2.569028,0 -5.032927,1.097788 -6.850075,3.051934 L 32.082627,52.857268 Z m 67.834746,93.85614 H 12.701271 V 38.928602 h 9.690678 v 52.142655 c 0,2.765839 1.020986,5.418344 2.83837,7.37403 1.817267,1.955813 4.282223,3.054503 6.852308,3.054503 H 99.917373 Z M 119.29873,91.071257 H 32.082627 V 67.606998 L 53.886653,44.142867 83.96405,76.51046 c 0.908575,0.977138 2.140524,1.525967 3.425097,1.525967 1.284455,0 2.516405,-0.548829 3.425097,-1.525967 L 106.35551,59.785664 119.29873,73.720748 Z M 85.381356,36.321405 c 0,-1.546888 0.426272,-3.058993 1.224902,-4.345329 0.798629,-1.286206 1.933672,-2.288629 3.261706,-2.880584 1.328151,-0.592084 2.789505,-0.746876 4.199293,-0.445122 1.409906,0.301753 2.704933,1.046703 3.721338,2.140512 1.016523,1.093808 1.708731,2.487445 1.989115,4.004684 0.2805,1.517239 0.136491,3.089797 -0.413587,4.518987 -0.550078,1.429191 -1.481675,2.650708 -2.676859,3.510148 -1.195183,0.859439 -2.60039,1.318166 -4.0379,1.318166 -1.927564,0 -3.776193,-0.824014 -5.13923,-2.290811 -1.363038,-1.466797 -2.128778,-3.45624 -2.128778,-5.530651 z"
     fill="#ffffff"
     id="path2"
     style="stroke-width:1.22786" />
</svg>
