<svg width="96" height="78" viewBox="0 0 96 78" fill="none" xmlns="http://www.w3.org/2000/svg">
<path d="M94.5178 7.18702C94.0761 6.88367 93.5618 6.67297 93.0139 6.57091C92.466 6.46884 91.899 6.47809 91.3558 6.59795L63.1787 12.8055L34.9002 0.341703C34.1122 -0.00466679 33.2097 -0.0911275 32.3558 0.0979538L2.85578 6.59795C2.05803 6.7737 1.34982 7.17942 0.843706 7.75061C0.337594 8.32181 0.0626245 9.02572 0.0625 9.75045V68.2505C0.0625848 68.7443 0.19036 69.2316 0.436121 69.6754C0.681882 70.1192 1.03917 70.5079 1.48083 70.8117C1.9225 71.1156 2.43694 71.3268 2.98507 71.4293C3.53321 71.5317 4.10062 71.5227 4.64422 71.403L32.8213 65.1954L61.0998 77.6592C61.6132 77.8823 62.1776 77.999 62.75 78.0005C63.0515 78.0003 63.3518 77.9675 63.6442 77.903L93.1442 71.403C93.942 71.2272 94.6502 70.8215 95.1563 70.2503C95.6624 69.6791 95.9374 68.9752 95.9375 68.2505V9.75045C95.9376 9.25615 95.8098 8.76833 95.5638 8.32412C95.3178 7.87991 94.9601 7.49101 94.5178 7.18702ZM36.9375 8.50733L59.0625 18.2573V69.4936L36.9375 59.7436V8.50733ZM7.4375 12.2895L29.5625 7.41452V59.2114L7.4375 64.0864V12.2895ZM88.5625 65.7114L66.4375 70.5864V18.7895L88.5625 13.9145V65.7114Z" fill="#FAFAFA"/>
</svg>
