<?xml version="1.0" encoding="UTF-8" standalone="no"?>
<!-- Created with Inkscape (http://www.inkscape.org/) -->

<svg
   version="1.1"
   id="svg1"
   width="254"
   height="230"
   viewBox="0 0 254 230"
   sodipodi:docname="others.svg"
   inkscape:version="1.3 (0e150ed6c4, 2023-07-21)"
   xml:space="preserve"
   xmlns:inkscape="http://www.inkscape.org/namespaces/inkscape"
   xmlns:sodipodi="http://sodipodi.sourceforge.net/DTD/sodipodi-0.dtd"
   xmlns="http://www.w3.org/2000/svg"
   xmlns:svg="http://www.w3.org/2000/svg"><defs
     id="defs1" /><sodipodi:namedview
     id="namedview1"
     pagecolor="#ffffff"
     bordercolor="#000000"
     borderopacity="0.25"
     inkscape:showpageshadow="2"
     inkscape:pageopacity="0.0"
     inkscape:pagecheckerboard="0"
     inkscape:deskcolor="#d1d1d1"
     inkscape:zoom="0.69673915"
     inkscape:cx="35.881434"
     inkscape:cy="20.811232"
     inkscape:window-width="1600"
     inkscape:window-height="837"
     inkscape:window-x="1432"
     inkscape:window-y="-8"
     inkscape:window-maximized="1"
     inkscape:current-layer="g1" /><g
     inkscape:groupmode="layer"
     inkscape:label="Image"
     id="g1"><path
       style="opacity:1;fill:#f9f9f9;fill-opacity:1;stroke:none;stroke-width:0.290256;stroke-linecap:square;stroke-linejoin:miter;stroke-dasharray:none;stroke-opacity:1"
       d=""
       id="path8" /><g
       id="g27"
       transform="matrix(0.40580445,0,0,0.40580445,110.40136,104.46147)"><path
         style="opacity:1;fill:#f9f9f9;fill-opacity:1;stroke:none;stroke-width:0.820967;stroke-linecap:square;stroke-linejoin:miter;stroke-dasharray:none;stroke-opacity:1"
         d="m -164.33697,-8.1358712 c -12.24426,-4.1250298 -19.23079,-9.7635818 -24.59751,-19.8516478 -2.50671,-4.711993 -2.67238,-9.605574 -2.67238,-78.939151 0,-83.16026 -0.52129,-78.9097 11.01801,-89.84035 10.79569,-10.22626 7.94143,-9.91004 89.450007,-9.91004 68.633677,0 73.511371,0.16664 78.221527,2.67238 6.7768831,3.60521 14.1228317,10.7405 16.4579237,15.98596 4.8513278,10.89787 5.0709365,14.38979 5.0709365,80.63387 0,63.583608 -0.1336799,66.967385 -2.9792929,75.414463 -3.9308255,11.668485 -10.863951,18.60161 -22.5324353,22.5324359 -8.472798,2.854282 -11.661251,2.9745422 -75.987455,2.8659794 -41.121431,-0.069395 -68.812301,-0.6755039 -71.449331,-1.5638995 z"
         id="path24" /><path
         style="opacity:1;fill:#f9f9f9;fill-opacity:1;stroke:none;stroke-width:0.820967;stroke-linecap:square;stroke-linejoin:miter;stroke-dasharray:none;stroke-opacity:1"
         d="M 88.346243,-9.4892902 C 77.00069,-13.390722 70.004718,-20.470301 66.13062,-31.970387 c -2.845618,-8.447078 -2.979296,-11.830855 -2.979296,-75.414463 0,-66.24408 0.219602,-69.736 5.070941,-80.63387 2.335095,-5.24546 9.681039,-12.38075 16.45792,-15.98596 4.710154,-2.50574 9.587845,-2.67238 78.221525,-2.67238 81.50858,0 78.65432,-0.31622 89.45001,9.91004 11.53929,10.93065 11.01801,6.68009 11.01801,89.84035 0,69.333577 -0.16567,74.227158 -2.67238,78.939151 -3.60521,6.776884 -10.7405,14.122832 -15.98597,16.457924 -10.91355,4.8583178 -14.33684,5.0707359 -80.9474,5.0228701 -63.56155,-0.045684 -67.308027,-0.1938602 -75.417737,-2.9825653 z"
         id="path25" /><path
         style="opacity:1;fill:#f9f9f9;fill-opacity:1;stroke:none;stroke-width:0.820967;stroke-linecap:square;stroke-linejoin:miter;stroke-dasharray:none;stroke-opacity:1"
         d="m 151.97233,257.17171 c -8.30892,-3.11 -11.42728,-5.91307 -52.476794,-47.17112 -24.919744,-25.04634 -40.210597,-41.53747 -42.340092,-45.66362 -4.306368,-8.34411 -4.602244,-22.56304 -0.63563,-30.54648 3.544598,-7.13407 85.206806,-88.79628 92.340876,-92.340879 7.98338,-3.966579 22.20235,-3.670732 30.54648,0.635566 8.03827,4.148445 84.60617,79.939243 90.15588,89.240873 3.26451,5.47149 3.85348,8.10393 3.85348,17.22309 0,7.21586 -0.80583,12.42043 -2.44446,15.78783 -2.57181,5.28513 -85.40988,88.30531 -91.53065,91.73188 -5.03158,2.8168 -21.15998,3.46435 -27.46909,1.10286 z"
         id="path26" /><path
         style="opacity:1;fill:#f9f9f9;fill-opacity:1;stroke:none;stroke-width:0.820967;stroke-linecap:square;stroke-linejoin:miter;stroke-dasharray:none;stroke-opacity:1"
         d="m -164.33697,247.64786 c -8.20654,-2.16981 -11.51035,-4.13756 -17.35985,-10.33949 -10.22806,-10.84432 -9.91004,-7.97292 -9.91004,-89.47686 0,-68.633683 0.16664,-73.511373 2.67238,-78.221528 3.60521,-6.77688 10.7405,-14.122825 15.98597,-16.457919 10.89786,-4.851339 14.38978,-5.070941 80.63386,-5.070941 63.583611,0 66.967388,0.133678 75.414466,2.979295 11.6684843,3.930825 18.6016098,10.863952 22.5324353,22.532428 2.845613,8.447085 2.9792929,11.830859 2.9792929,75.414475 0,66.24407 -0.2196087,69.73599 -5.0709365,80.63386 -2.335092,5.24546 -9.6810406,12.38076 -16.4579237,15.98597 -4.685298,2.49251 -9.80509,2.68875 -76.068641,2.91577 -39.074883,0.13386 -72.982833,-0.2689 -75.351013,-0.89506 z"
         id="path27" /></g></g></svg>
