<?xml version="1.0" encoding="UTF-8" standalone="no"?>
<!-- Created with Inkscape (http://www.inkscape.org/) -->

<svg
   version="1.1"
   id="svg1"
   width="254"
   height="230"
   viewBox="0 0 254 230"
   sodipodi:docname="player.svg"
   inkscape:version="1.3 (0e150ed6c4, 2023-07-21)"
   xml:space="preserve"
   xmlns:inkscape="http://www.inkscape.org/namespaces/inkscape"
   xmlns:sodipodi="http://sodipodi.sourceforge.net/DTD/sodipodi-0.dtd"
   xmlns="http://www.w3.org/2000/svg"
   xmlns:svg="http://www.w3.org/2000/svg"><defs
     id="defs1" /><sodipodi:namedview
     id="namedview1"
     pagecolor="#ffffff"
     bordercolor="#000000"
     borderopacity="0.25"
     inkscape:showpageshadow="2"
     inkscape:pageopacity="0.0"
     inkscape:pagecheckerboard="0"
     inkscape:deskcolor="#d1d1d1"
     inkscape:zoom="0.69673915"
     inkscape:cx="35.881434"
     inkscape:cy="22.246489"
     inkscape:window-width="1600"
     inkscape:window-height="837"
     inkscape:window-x="1432"
     inkscape:window-y="-8"
     inkscape:window-maximized="1"
     inkscape:current-layer="g1" /><g
     inkscape:groupmode="layer"
     inkscape:label="Image"
     id="g1"><path
       style="opacity:1;fill:#f9f9f9;fill-opacity:1;stroke:none;stroke-width:0.290256;stroke-linecap:square;stroke-linejoin:miter;stroke-dasharray:none;stroke-opacity:1"
       d=""
       id="path8" /><path
       style="opacity:1;fill:#f9f9f9;fill-opacity:1;stroke:none;stroke-width:0.437464;stroke-linecap:square;stroke-linejoin:miter;stroke-dasharray:none;stroke-opacity:1"
       d="m 44.892399,177.60899 c -5.419087,-1.59066 -10.077325,-7.67436 -11.80042,-15.41144 -2.577062,-11.57161 -2.371566,-36.71596 0.414328,-50.69702 4.10545,-20.603235 16.369716,-44.094839 27.34463,-52.377301 13.524847,-10.206822 30.717227,-9.83907 48.615063,1.039915 l 6.44891,3.91989 8.74683,0.259248 c 4.81076,0.142588 9.82442,0.05702 11.14147,-0.190067 1.31703,-0.247122 5.31998,-2.177548 8.89541,-4.289839 15.35541,-9.071641 30.27585,-10.553155 42.72886,-4.242732 11.10965,5.629678 21.82586,21.047653 28.40357,40.865701 6.16515,18.575025 8.18234,36.979875 6.08827,55.549515 -1.94159,17.21776 -6.43761,24.66099 -15.7387,26.05577 -2.88257,0.43227 -4.15375,0.14768 -8.16857,-1.82881 -5.75444,-2.83291 -17.8311,-13.44235 -25.78068,-22.64854 -8.9158,-10.32517 -5.51304,-9.60947 -45.66625,-9.60489 -39.708393,0.005 -36.240672,-0.68278 -44.353727,8.79127 -5.196645,6.0684 -14.110387,14.67982 -20.204423,19.51916 -7.046032,5.59533 -11.443826,6.9547 -17.114571,5.29017 z m 44.167117,-55.93862 c 2.06376,-0.7805 2.103198,-0.91557 2.103198,-7.20342 v -6.408 h 6.539812 6.539814 l 1.10817,-2.65224 c 1.43668,-3.43843 1.40104,-6.059425 -0.12615,-9.277755 l -1.23435,-2.601179 H 97.576357 91.162714 V 87.04156 c 0,-6.428669 -0.01865,-6.491242 -2.103198,-7.052736 -2.687316,-0.723858 -8.5874,-0.753184 -10.324781,-0.0513 -1.127822,0.45562 -1.338392,1.567232 -1.338392,7.06548 v 6.524781 h -6.760426 c -6.502249,0 -6.794325,0.07444 -7.647989,1.94799 -0.488157,1.07139 -0.887562,3.46431 -0.887562,5.317595 0,1.8533 0.399405,4.24622 0.887562,5.31761 0.847825,1.86077 1.173116,1.94798 7.26559,1.94798 h 6.378026 v 6.45565 c 0,6.87102 0.158141,7.18048 4.13963,8.10031 2.546043,0.58819 4.964277,0.31261 8.288342,-0.94454 z m 82.103204,-1.43806 c 3.12782,-2.92202 4.34421,-5.90032 3.92581,-9.61228 -0.4628,-4.10604 -2.13751,-6.73697 -5.34996,-8.40468 -7.54236,-3.915535 -16.15652,1.1892 -16.15652,9.57434 0,4.30919 1.5228,7.0924 5.1157,9.34992 3.40775,2.14119 9.69137,1.68381 12.46497,-0.9073 z M 196.4766,107.3251 c 9.0291,-5.50535 4.61006,-19.91571 -6.10731,-19.91571 -10.14758,0 -14.67527,12.320825 -7.00314,19.05703 2.26646,1.98999 3.30635,2.35687 6.67341,2.35447 2.60568,-0.002 4.83749,-0.52049 6.43704,-1.49579 z M 170.38059,92.085616 c 6.59964,-4.02446 6.31159,-14.926557 -0.49077,-18.574711 -11.73012,-6.290924 -22.51169,8.892734 -12.53475,17.652612 2.27486,1.99735 3.31175,2.363813 6.68133,2.361398 2.55211,-0.0018 4.83694,-0.52019 6.34419,-1.439299 z"
       id="path24" /></g></svg>
