<svg width="43" height="41" viewBox="0 0 43 41" fill="none" xmlns="http://www.w3.org/2000/svg">
<path d="M42.3856 33.6398L25.5992 2.69061C25.1797 1.93237 24.5809 1.30367 23.862 0.866838C23.1432 0.430002 22.3292 0.200195 21.501 0.200195C20.6727 0.200195 19.8588 0.430002 19.1399 0.866838C18.421 1.30367 17.8222 1.93237 17.4027 2.69061L0.616313 33.6398C0.212702 34.3732 0 35.2073 0 36.0567C0 36.9061 0.212702 37.7403 0.616313 38.4737C1.03042 39.2365 1.62824 39.8686 2.34844 40.3052C3.06863 40.7417 3.88527 40.967 4.71454 40.9578H38.2874C39.116 40.9662 39.9318 40.7406 40.6513 40.3041C41.3708 39.8676 41.968 39.2359 42.3818 38.4737C42.786 37.7406 42.9993 36.9067 43 36.0573C43.0007 35.2079 42.7886 34.3736 42.3856 33.6398ZM39.7232 36.8413C39.5769 37.1063 39.3668 37.3253 39.1145 37.4757C38.8621 37.6261 38.5767 37.7025 38.2874 37.6972H4.71454C4.42522 37.7025 4.13978 37.6261 3.88747 37.4757C3.63516 37.3253 3.42506 37.1063 3.27872 36.8413C3.14617 36.6031 3.07624 36.3314 3.07624 36.0547C3.07624 35.778 3.14617 35.5063 3.27872 35.2681L20.0651 4.31887C20.2144 4.05512 20.4255 3.83686 20.6778 3.68534C20.93 3.53382 21.2149 3.45419 21.5048 3.45419C21.7946 3.45419 22.0796 3.53382 22.3318 3.68534C22.5841 3.83686 22.7952 4.05512 22.9445 4.31887L39.7309 35.2681C39.8623 35.5071 39.9309 35.7791 39.9295 36.0558C39.9282 36.3325 39.8569 36.6038 39.7232 36.8413ZM19.9653 24.6548V16.5033C19.9653 16.0709 20.1271 15.6563 20.4151 15.3505C20.7031 15.0448 21.0937 14.873 21.501 14.873C21.9082 14.873 22.2988 15.0448 22.5868 15.3505C22.8748 15.6563 23.0366 16.0709 23.0366 16.5033V24.6548C23.0366 25.0872 22.8748 25.5019 22.5868 25.8076C22.2988 26.1134 21.9082 26.2851 21.501 26.2851C21.0937 26.2851 20.7031 26.1134 20.4151 25.8076C20.1271 25.5019 19.9653 25.0872 19.9653 24.6548ZM23.8044 31.9912C23.8044 32.4748 23.6693 32.9476 23.4162 33.3498C23.1631 33.7519 22.8034 34.0654 22.3824 34.2505C21.9615 34.4356 21.4984 34.484 21.0516 34.3896C20.6047 34.2953 20.1943 34.0624 19.8722 33.7204C19.55 33.3784 19.3306 32.9426 19.2418 32.4683C19.1529 31.9939 19.1985 31.5022 19.3728 31.0553C19.5472 30.6085 19.8424 30.2266 20.2212 29.9579C20.6 29.6891 21.0454 29.5457 21.501 29.5457C22.1119 29.5457 22.6978 29.8034 23.1297 30.262C23.5617 30.7206 23.8044 31.3426 23.8044 31.9912Z" fill="white"/>
</svg>
