<svg width="1154" height="424" viewBox="0 0 1154 424" fill="none" xmlns="http://www.w3.org/2000/svg">
<path fill-rule="evenodd" clip-rule="evenodd" d="M0 201.25L22.5684 210L41.1247 201.25H57.1734H81.2464L94.7875 191.25L103.815 201.25L123.374 196.875L129.392 187.5H155.472L170.016 180.625H192.083L200.608 187.5L301.916 191.25L333.01 196.875H348.056L375.138 173.75L391.186 168.125L404.226 173.75H426.293L434.819 168.125H454.88L464.409 173.75H468.922L474.439 180.625H499.515L504.53 168.125L523.086 156.875L540.64 148.125L548.664 141.25L560.701 132.5H625.397L651.476 117.5L695.61 80.625L715.671 61.25L739.744 55.625L756.294 61.25L786.887 58.75L822.495 43.75L845.565 20L882.677 28.75H905.246L921.796 13.125L940.854 20L955.398 28.75L971.446 8.75L989 0H1002.54L1023.1 20L1037.65 8.75H1055.2L1095.32 43.75L1106.36 33.125L1131.43 5L1154 0V245V396V397V424H0V397V396V245V201.25Z" fill="url(#paint0_linear_1734_61)" fill-opacity="0.8"/>
<defs>
<linearGradient id="paint0_linear_1734_61" x1="566.463" y1="-133.006" x2="576.927" y2="245.002" gradientUnits="userSpaceOnUse">
<stop stop-color="#4B0707" stop-opacity="0"/>
<stop offset="0.885417" stop-color="#4B0707"/>
</linearGradient>
</defs>
</svg>
