<?xml version="1.0" encoding="UTF-8" standalone="no"?>
<!-- Created with Inkscape (http://www.inkscape.org/) -->

<svg
   version="1.1"
   id="svg1"
   width="254"
   height="230"
   viewBox="0 0 254 230"
   sodipodi:docname="t20.svg"
   inkscape:version="1.3 (0e150ed6c4, 2023-07-21)"
   xml:space="preserve"
   xmlns:inkscape="http://www.inkscape.org/namespaces/inkscape"
   xmlns:sodipodi="http://sodipodi.sourceforge.net/DTD/sodipodi-0.dtd"
   xmlns="http://www.w3.org/2000/svg"
   xmlns:svg="http://www.w3.org/2000/svg"><defs
     id="defs1" /><sodipodi:namedview
     id="namedview1"
     pagecolor="#ffffff"
     bordercolor="#000000"
     borderopacity="0.25"
     inkscape:showpageshadow="2"
     inkscape:pageopacity="0.0"
     inkscape:pagecheckerboard="0"
     inkscape:deskcolor="#d1d1d1"
     inkscape:zoom="0.98533793"
     inkscape:cx="76.116018"
     inkscape:cy="240.01918"
     inkscape:window-width="1600"
     inkscape:window-height="837"
     inkscape:window-x="1432"
     inkscape:window-y="-8"
     inkscape:window-maximized="1"
     inkscape:current-layer="g1" /><g
     inkscape:groupmode="layer"
     inkscape:label="Image"
     id="g1"><path
       style="opacity:1;fill:#f9f9f9;fill-opacity:1;stroke:none;stroke-width:0.290256;stroke-linecap:square;stroke-linejoin:miter;stroke-dasharray:none;stroke-opacity:1"
       d=""
       id="path8" /><g
       id="g12"
       transform="matrix(1.5622718,0,0,1.589976,-81.578065,-71.556353)"><path
         style="opacity:1;fill:#f9f9f9;fill-opacity:1;stroke:none;stroke-width:0.572;stroke-linecap:square;stroke-linejoin:miter;stroke-dasharray:none;stroke-opacity:1"
         d="m 90.980411,94.869544 0.12686,52.393186 c 0,0 -8.68992,-2.09319 -13.38374,-14.90606 l 0.38058,-12.62257 -7.29445,-4.18638 7.86532,-3.1715 -0.19029,-17.474966 -12.32829,0.0949 c 0,0 -4.39548,0.49337 -8.5667,5.741026 0,0 -2.78081,-6.996876 4.66459,-15.877536 l 49.516389,-0.44851 -4.03667,12.6482 c 0,0 -0.80733,-2.422 -5.92043,-2.33229 z"
         id="path11"
         sodipodi:nodetypes="ccccccc" /><path
         style="opacity:1;fill:#f9f9f9;fill-opacity:1;stroke:none;stroke-width:0.572;stroke-linecap:square;stroke-linejoin:miter;stroke-dasharray:none;stroke-opacity:1"
         d="m 110.24571,110.42512 c 0,0 6.09984,-11.033545 14.44228,-13.545245 0,0 11.66146,-2.15289 10.58502,4.395475 -1.07644,6.54836 -5.65133,10.58503 -5.65133,10.58503 0,0 -11.84087,10.76443 -14.89079,16.59516 -3.04992,5.83073 -4.66459,13.63494 -4.66459,13.63494 l -0.71763,5.02341 34.17707,-0.0897 c 0,0 7.26599,-0.71763 7.26599,-16.95398 0,0 -4.30577,4.48517 -9.9571,5.1131 -5.65132,0.62792 -13.54524,-0.0897 -13.54524,-0.0897 0,0 5.74103,-12.91731 13.63495,-17.31279 7.89391,-4.39547 9.32917,-13.90405 9.32917,-13.90405 0,0 2.24259,-13.724655 -11.39236,-18.030425 0,0 -9.06006,-2.96023 -17.6716,1.61465 0,0 -2.5117,-0.26911 -3.85726,-2.87051 0,0 -8.25273,11.30265 -7.08658,25.834635 z"
         id="path12"
         sodipodi:nodetypes="ccscsccccscscccc" /><path
         id="path10"
         style="opacity:1;fill:#f9f9f9;fill-opacity:1;stroke:none;stroke-width:0.346699;stroke-linecap:square;stroke-linejoin:miter;stroke-dasharray:none;stroke-opacity:1"
         d="m 179.77193,83.461941 -4.53641,5.997237 c 0,0 -8.99642,1.000165 -14.60952,5.613675 -5.6131,4.613501 -8.84313,16.147297 -8.84313,16.147297 0,0 -1.6915,7.68853 0.15389,15.22394 1.84541,7.5354 12.61005,15.45595 12.61005,15.45595 0,0 6.22797,3.84466 10.91838,3.30641 l 5.07503,5.99723 5.45979,-6.38198 c 0,0 7.45898,0.23027 15.14815,-6.99755 7.68919,-7.22784 8.14942,-13.37837 8.14943,-13.37837 0,0 3.15278,-14.37935 -4.53641,-23.3757 -7.68919,-8.996336 -14.91613,-10.610574 -14.91613,-10.610574 0,0 -2.76879,-1.077114 -5.76757,-0.846438 z m -3.69353,14.552698 7.50306,0.217831 0.32673,2.93587 2.82697,-2.174682 c 0,0 3.58816,0.869949 4.34935,1.522402 0.76119,0.65244 0.65229,2.06576 0.65229,2.06576 l 2.06577,-0.87011 c 0,0 3.04545,1.95772 3.48043,3.26261 0.43495,1.3049 -0.97902,2.71923 -0.97902,2.71923 l 2.93587,0.21664 1.6313,4.6761 -2.3925,2.50141 2.28359,1.08675 0.10891,7.1775 -3.69707,0.8701 2.2836,1.95685 c 0,0 -2.93591,6.63347 -5.98067,7.72088 l -4.785,-2.82696 1.52239,4.34935 -4.24043,0.7612 -1.5224,-0.7612 -0.10891,0.97902 c 0,0 -2.12328,0.67421 -3.31943,0.81921 -1.19616,0.14499 -3.85808,0.0497 -3.85808,0.0497 l -0.86892,-4.24045 -2.61032,2.50142 c 0,0 -5.00181,0.2173 -5.87175,-1.6313 l 1.19211,-4.22625 -3.92082,1.76863 -2.84471,-3.76691 1.07609,-2.23031 -1.99947,-0.1539 c 0,0 -1.76823,-5.15204 -1.22999,-6.84367 l 0.9222,-1.46084 -0.99915,-1.30693 c 0,0 0.01,-2.59629 0.73516,-3.52778 l 3.15368,-0.54457 -2.39249,-2.17467 1.84912,-3.47924 h 1.84794 l -0.65227,-1.84913 2.39249,-2.06576 3.1537,1.41347 -0.65228,-2.82695 4.34935,-1.95805 1.74022,1.5224 z m 4.13154,6.307391 c 0,0 -8.69915,12.39658 0.10891,26.53297 8.80806,-16.31122 -0.10891,-26.53297 -0.10891,-26.53297 z" /></g></g></svg>
