<svg width="29" height="37" viewBox="0 0 29 37" fill="none" xmlns="http://www.w3.org/2000/svg">
<path d="M27.2188 6.875H22.0156V4.90625C22.0156 3.68791 21.5893 2.51947 20.8303 1.65798C20.0714 0.796483 19.042 0.3125 17.9688 0.3125H11.0312C9.95795 0.3125 8.92861 0.796483 8.16968 1.65798C7.41074 2.51947 6.98438 3.68791 6.98438 4.90625V6.875H1.78125C1.32127 6.875 0.88012 7.08242 0.554862 7.45163C0.229603 7.82085 0.046875 8.3216 0.046875 8.84375C0.046875 9.3659 0.229603 9.86665 0.554862 10.2359C0.88012 10.6051 1.32127 10.8125 1.78125 10.8125H2.35938V33.125C2.35938 33.9952 2.66392 34.8298 3.20602 35.4452C3.74812 36.0605 4.48336 36.4062 5.25 36.4062H23.75C24.5166 36.4062 25.2519 36.0605 25.794 35.4452C26.3361 34.8298 26.6406 33.9952 26.6406 33.125V10.8125H27.2188C27.6787 10.8125 28.1199 10.6051 28.4451 10.2359C28.7704 9.86665 28.9531 9.3659 28.9531 8.84375C28.9531 8.3216 28.7704 7.82085 28.4451 7.45163C28.1199 7.08242 27.6787 6.875 27.2188 6.875ZM10.4531 4.90625C10.4531 4.7322 10.514 4.56528 10.6225 4.44221C10.7309 4.31914 10.8779 4.25 11.0312 4.25H17.9688C18.1221 4.25 18.2691 4.31914 18.3775 4.44221C18.486 4.56528 18.5469 4.7322 18.5469 4.90625V6.875H10.4531V4.90625ZM23.1719 32.4688H5.82812V10.8125H23.1719V32.4688ZM12.7656 16.0625V26.5625C12.7656 27.0846 12.5829 27.5854 12.2576 27.9546C11.9324 28.3238 11.4912 28.5312 11.0312 28.5312C10.5713 28.5312 10.1301 28.3238 9.80486 27.9546C9.4796 27.5854 9.29688 27.0846 9.29688 26.5625V16.0625C9.29688 15.5404 9.4796 15.0396 9.80486 14.6704C10.1301 14.3012 10.5713 14.0938 11.0312 14.0938C11.4912 14.0938 11.9324 14.3012 12.2576 14.6704C12.5829 15.0396 12.7656 15.5404 12.7656 16.0625ZM19.7031 16.0625V26.5625C19.7031 27.0846 19.5204 27.5854 19.1951 27.9546C18.8699 28.3238 18.4287 28.5312 17.9688 28.5312C17.5088 28.5312 17.0676 28.3238 16.7424 27.9546C16.4171 27.5854 16.2344 27.0846 16.2344 26.5625V16.0625C16.2344 15.5404 16.4171 15.0396 16.7424 14.6704C17.0676 14.3012 17.5088 14.0938 17.9688 14.0938C18.4287 14.0938 18.8699 14.3012 19.1951 14.6704C19.5204 15.0396 19.7031 15.5404 19.7031 16.0625Z" fill="#FAF9F9"/>
</svg>
