<svg width="21" height="17" viewBox="0 0 21 17" fill="none" xmlns="http://www.w3.org/2000/svg">
<path d="M17.5002 6.68094C17.5002 6.87498 17.4209 7.06107 17.2798 7.19828C17.1386 7.33549 16.9472 7.41258 16.7476 7.41258H12.985C12.7855 7.41258 12.5941 7.33549 12.4529 7.19828C12.3118 7.06107 12.2325 6.87498 12.2325 6.68094C12.2325 6.48689 12.3118 6.3008 12.4529 6.16359C12.5941 6.02638 12.7855 5.9493 12.985 5.9493H16.7476C16.9472 5.9493 17.1386 6.02638 17.2798 6.16359C17.4209 6.3008 17.5002 6.48689 17.5002 6.68094ZM16.7476 8.87585H12.985C12.7855 8.87585 12.5941 8.95293 12.4529 9.09014C12.3118 9.22735 12.2325 9.41345 12.2325 9.60749C12.2325 9.80153 12.3118 9.98763 12.4529 10.1248C12.5941 10.262 12.7855 10.3391 12.985 10.3391H16.7476C16.9472 10.3391 17.1386 10.262 17.2798 10.1248C17.4209 9.98763 17.5002 9.80153 17.5002 9.60749C17.5002 9.41345 17.4209 9.22735 17.2798 9.09014C17.1386 8.95293 16.9472 8.87585 16.7476 8.87585ZM20.5103 1.55947V14.729C20.5103 15.117 20.3517 15.4892 20.0694 15.7637C19.7872 16.0381 19.4044 16.1922 19.0052 16.1922H2.44974C2.05058 16.1922 1.66777 16.0381 1.38552 15.7637C1.10327 15.4892 0.944702 15.117 0.944702 14.729V1.55947C0.944702 1.17138 1.10327 0.799193 1.38552 0.524775C1.66777 0.250358 2.05058 0.0961914 2.44974 0.0961914H19.0052C19.4044 0.0961914 19.7872 0.250358 20.0694 0.524775C20.3517 0.799193 20.5103 1.17138 20.5103 1.55947ZM19.0052 14.729V1.55947H2.44974V14.729H19.0052ZM11.4555 11.6195C11.5054 11.8075 11.4765 12.007 11.375 12.1742C11.2736 12.3415 11.108 12.4627 10.9147 12.5112C10.7213 12.5597 10.5161 12.5315 10.3441 12.4329C10.1721 12.3343 10.0474 12.1733 9.99753 11.9853C9.75014 11.047 8.76904 10.3391 7.71645 10.3391C6.66386 10.3391 5.6837 11.047 5.43537 11.9853C5.38548 12.1733 5.26082 12.3343 5.08882 12.4329C4.91683 12.5315 4.71158 12.5597 4.51824 12.5112C4.32489 12.4627 4.15929 12.3415 4.05786 12.1742C3.95642 12.007 3.92747 11.8075 3.97736 11.6195C4.22156 10.7358 4.79879 9.97381 5.59434 9.48494C5.17158 9.07635 4.88312 8.55492 4.76552 7.98675C4.64793 7.41858 4.70649 6.82926 4.93379 6.29349C5.16108 5.75772 5.54688 5.29962 6.04228 4.97728C6.53767 4.65493 7.12035 4.48285 7.71645 4.48285C8.31255 4.48285 8.89523 4.65493 9.39063 4.97728C9.88602 5.29962 10.2718 5.75772 10.4991 6.29349C10.7264 6.82926 10.785 7.41858 10.6674 7.98675C10.5498 8.55492 10.2613 9.07635 9.83856 9.48494C10.635 9.97311 11.2127 10.7353 11.4565 11.6195H11.4555ZM7.71739 8.87585C8.01506 8.87585 8.30605 8.79003 8.55355 8.62924C8.80105 8.46846 8.99396 8.23993 9.10787 7.97255C9.22178 7.70517 9.25159 7.41095 9.19352 7.1271C9.13544 6.84326 8.9921 6.58253 8.78162 6.37788C8.57113 6.17324 8.30296 6.03388 8.01101 5.97741C7.71906 5.92095 7.41645 5.94993 7.14144 6.06068C6.86643 6.17144 6.63137 6.35899 6.466 6.59962C6.30062 6.84026 6.21235 7.12317 6.21235 7.41258C6.21235 7.80066 6.37092 8.17285 6.65317 8.44727C6.93542 8.72169 7.31823 8.87585 7.71739 8.87585Z" fill="white"/>
</svg>
