<svg width="17" height="20" viewBox="0 0 17 20" fill="none" xmlns="http://www.w3.org/2000/svg">
<path d="M14.676 6.67465H12.0152V4.60976C12.0152 3.51447 11.5947 2.46405 10.8462 1.68956C10.0978 0.915081 9.08259 0.47998 8.02408 0.47998C6.96556 0.47998 5.9504 0.915081 5.20192 1.68956C4.45344 2.46405 4.03294 3.51447 4.03294 4.60976V6.67465H1.37219C1.01935 6.67465 0.680962 6.81968 0.431468 7.07785C0.181973 7.33601 0.0418091 7.68615 0.0418091 8.05124V17.6874C0.0418091 18.0525 0.181973 18.4026 0.431468 18.6608C0.680962 18.919 1.01935 19.064 1.37219 19.064H14.676C15.0288 19.064 15.3672 18.919 15.6167 18.6608C15.8662 18.4026 16.0063 18.0525 16.0063 17.6874V8.05124C16.0063 7.68615 15.8662 7.33601 15.6167 7.07785C15.3672 6.81968 15.0288 6.67465 14.676 6.67465ZM5.36332 4.60976C5.36332 3.87957 5.64365 3.17929 6.14264 2.66296C6.64163 2.14664 7.3184 1.85657 8.02408 1.85657C8.72975 1.85657 9.40653 2.14664 9.90551 2.66296C10.4045 3.17929 10.6848 3.87957 10.6848 4.60976V6.67465H5.36332V4.60976ZM14.676 17.6874H1.37219V8.05124H14.676V17.6874Z" fill="white"/>
</svg>
