<?xml version="1.0" encoding="UTF-8" standalone="no"?>
<!-- Created with Inkscape (http://www.inkscape.org/) -->

<svg
   width="26.5mm"
   height="27mm"
   viewBox="0 0 26.5 27"
   version="1.1"
   id="svg1"
   xml:space="preserve"
   inkscape:version="1.3.2 (091e20e, 2023-11-25, custom)"
   sodipodi:docname="Creature.svg"
   xmlns:inkscape="http://www.inkscape.org/namespaces/inkscape"
   xmlns:sodipodi="http://sodipodi.sourceforge.net/DTD/sodipodi-0.dtd"
   xmlns="http://www.w3.org/2000/svg"
   xmlns:svg="http://www.w3.org/2000/svg"><sodipodi:namedview
     id="namedview1"
     pagecolor="#ffffff"
     bordercolor="#000000"
     borderopacity="0.25"
     inkscape:showpageshadow="2"
     inkscape:pageopacity="0.0"
     inkscape:pagecheckerboard="0"
     inkscape:deskcolor="#d1d1d1"
     inkscape:document-units="mm"
     inkscape:zoom="1.9578168"
     inkscape:cx="55.418873"
     inkscape:cy="33.455633"
     inkscape:window-width="1920"
     inkscape:window-height="991"
     inkscape:window-x="-9"
     inkscape:window-y="-9"
     inkscape:window-maximized="1"
     inkscape:current-layer="layer1" /><defs
     id="defs1" /><g
     inkscape:label="Camada 1"
     inkscape:groupmode="layer"
     id="layer1"><path
       id="path1"
       style="fill:#ffffff;stroke-width:0.956924;stroke-linecap:round;stroke-linejoin:round"
       d="m 13.378849,0.26630585 c -7.2584304,0 -13.14235045,5.94468005 -13.14235045,13.27775015 0,3.66653 1.47053005,6.98629 3.84886005,9.38909 0.21094,0.21311 0.43198,0.41614 0.6568,0.61443 0.01222,-0.0012 1.61482,-0.16778 3.00706,-2.08359 l -2.07843,0.66869 c 0,0 2.86676,-3.2727 2.80706,-4.82555 l -1.85156,0.83613 c 0,0 1.50532,-2.56819 1.51722,-4.35994 0,0 -0.41796,0.29856 -1.06299,0.32246 0,0 1.09677,-3.07622 3.7827204,-4.9175304 0,0 -0.54048,-0.20273 -1.6216104,-0.21963 0,0 1.9257304,-1.7229797 4.0204304,-1.7905797 0,0 1.24996,-0.13497 1.6216,0.9968297 l -1.43608,-4.1893997 2.50062,3.14192 c 0,0 -2.28065,-2.98987 -1.53738,-5.15214 0,0 0.10136,1.06404 1.25006,2.75332 0,0 2.81513,3.21333 2.95847,5.7934501 0,0 0.6209,-0.191 0.6687,0.2868 l 0.04806,1.55288 1.28984,1.98282 0.11937,1.43196 c 0,0 0.68936,0.08878 0.79427,0.23668 0.1013,0.14284 -0.07522,1.06884 -0.37156,2.48305 -0.0497,0.23705 -0.69298,-0.21963 -0.69298,-0.21963 0,0 -0.47304,1.26716 -1.41903,0.9462 -0.946,-0.32096 -0.92914,-1.38545 -0.92914,-1.38545 0,0 -0.27224,-0.72168 -1.53841,-1.4981 0,0 -1.52883,-0.54949 -1.58853,-2.28151 0,0 -0.91988,1.15893 0.95549,2.54455 0,0 0.56214,2.13024 2.24638,4.38784 0,0 1.41488,2.33825 1.65519,4.1057 1.03322,-0.5927 1.98055,-1.31981 2.81482,-2.16266 2.37834,-2.4028 3.84938,-5.72256 3.84938,-9.38909 0,-3.6665304 -1.47104,-6.9857901 -3.84938,-9.3885801 -2.37833,-2.40279 -5.66376,-3.88917005 -9.29297,-3.88917005 z m 6.47815,24.82950015 c -0.03174,0.01821 -0.06317,0.03682 -0.09508,0.05477 0.03178,-0.01797 0.06385,-0.03286 0.0956,-0.05116 -1.6e-4,-0.0012 -3.6e-4,-0.0024 -5.2e-4,-0.0036 z m -0.09508,0.05477 c -0.1363,0.07705 -0.27302,0.14856 -0.4098,0.21963 0.13781,-0.07119 0.27487,-0.14372 0.4098,-0.21963 z m -0.4098,0.21963 c -1.79263,0.92606 -3.82163,1.45159 -5.97327,1.45159 -1.3525,0 -2.65715,-0.20682 -3.8850404,-0.59015 2.6330204,0.84228 6.3124204,0.98103 9.8583104,-0.86144 z m -9.8583104,0.86144 c -0.02284,-0.0073 -0.04553,-0.01481 -0.06821,-0.02222 0.0228,0.0073 0.04536,0.01509 0.06821,0.02222 z m -0.06821,-0.02222 c -0.12707,-0.04044 -0.25239,-0.08498 -0.37776,-0.12919 0.04742,0.01724 0.09249,0.03584 0.14056,0.05271 0.07684,0.02696 0.1584,0.05074 0.2372,0.07648 z m -0.37776,-0.12919 c -1.6199,-0.58911 -2.84838,-1.3853 -3.57187,-1.92753 1.07418,0.81805 2.27717,1.47101 3.57187,1.92753 z m -3.57187,-1.92753 c -0.2525,-0.19229 -0.49594,-0.39533 -0.73381,-0.60513 -4e-5,0 -0.00413,0.001 -0.00413,0.001 0,0 0.26244,0.24773 0.73794,0.6041 z" /><path
       id="path1-2"
       style="fill:#ffffff;stroke-width:0.956924;stroke-linecap:round;stroke-linejoin:round"
       d="m -236.161,175.24341 c 0,3.66654 -1.47103,6.98596 -3.84937,9.38876 -2.37833,2.40279 -5.66397,3.88895 -9.29319,3.88895 -3.62922,0 -6.91486,-1.48616 -9.2932,-3.88895 -2.37833,-2.4028 -3.84936,-5.72222 -3.84936,-9.38876 0,-7.33307 5.88413,-13.2777 13.14256,-13.2777 3.62922,0 6.91486,1.48616 9.29319,3.88895 2.37834,2.40279 3.84937,5.72222 3.84937,9.38875 z"
       sodipodi:nodetypes="ssssssss" /><path
       style="fill:#000000;stroke:none;stroke-width:0.01;stroke-linecap:square;stroke-linejoin:miter;stroke-dasharray:none;stroke-opacity:1"
       d="m -242.82488,186.79841 c -0.2389,-1.76786 -1.65586,-4.10916 -1.65586,-4.10916 -1.68424,-2.2576 -2.2462,-4.38791 -2.2462,-4.38791 -1.87537,-1.38562 -0.9556,-2.54428 -0.9556,-2.54428 0.0597,1.73202 1.58868,2.28149 1.58868,2.28149 1.26617,0.77642 1.5386,1.49803 1.5386,1.49803 0,0 -0.0169,1.06424 0.9291,1.3852 0.94599,0.32096 1.41899,-0.94599 1.41899,-0.94599 0,0 0.6429,0.45665 0.6926,0.2196 0.29634,-1.41421 0.47294,-2.34039 0.37164,-2.48323 -0.10491,-0.1479 -0.79396,-0.2365 -0.79396,-0.2365 l -0.11955,-1.43193 -1.29006,-1.98286 -0.0478,-1.55285 c -0.0478,-0.4778 -0.66891,-0.28668 -0.66891,-0.28668 -0.14334,-2.58012 -2.9584,-5.79354 -2.9584,-5.79354 -1.1487,-1.68928 -1.25006,-2.75352 -1.25006,-2.75352 -0.74328,2.16227 1.53724,5.15229 1.53724,5.15229 l -2.50013,-3.14205 1.43589,4.1894 c -0.37164,-1.13181 -1.62171,-0.99667 -1.62171,-0.99667 -2.0947,0.0676 -4.02047,1.79063 -4.02047,1.79063 1.08113,0.0169 1.6217,0.21961 1.6217,0.21961 -2.68595,1.84131 -3.78292,4.91735 -3.78292,4.91735 0.64503,-0.0239 1.06311,-0.32252 1.06311,-0.32252 -0.0119,1.79175 -1.51701,4.35992 -1.51701,4.35992 l 1.85147,-0.83615 c 0.0597,1.55285 -2.80707,4.82577 -2.80707,4.82577 l 2.07842,-0.66892 c -1.39756,1.92314 -3.01132,2.08491 -3.01132,2.08491 0,0 1.68079,1.61218 4.45075,2.58417 2.76995,0.97199 6.83377,1.17626 10.66884,-1.03361 z"
       id="path2-1"
       sodipodi:nodetypes="ccccccccccccccccccccsscsccccccsc" /></g></svg>
