<svg xmlns="http://www.w3.org/2000/svg" width="400" height="400"><path fill="#c90000" d="M34.518 0h331C384.55 0 400 15.45 400 34.52v331C400 384.55 384.55 400 365.5 400H34.52C15.454 400 0 384.55 0 365.5V34.52C0 15.45 15.45 0 34.52 0z"/><path d="M131.671 94.6h33.7V293.33h-38.44V145.57c-4 4.6-13.7 11.76-23.67 15.18V125.1c10.24-5.6 22.74-16.43 28.4-30.5zm124.84 125.5c0-19.16-1.85-24.5-9.33-24.5-7 0-9.5 6-9.5 24.5v27.57c0 13.43-.13 24.5 9.5 24.5 8.73 0 9.33-10.83 9.33-24.5v-27.57zm40.25-77.85h-40.25c.4-21.73-2.1-26.6-9.33-26.6-8.7 0-9.5 11.23-9.5 20.5v44.25c9.7-12.9 21.4-13.65 27.16-13.65 27.63 0 32.17 22.68 32.17 44.7v21.44c0 50.1-14.46 64-49.6 64-38.46 0-49.7-17-49.7-65V155c0-24.23 3.64-41 11-50s20.2-13.65 38.8-13.65c18.66 0 31.54 3.46 38.65 10.37s10.65 19.53 10.65 40.46z" fill="#fff"/></svg>