<svg width="58" height="55" viewBox="0 0 58 55" fill="none" xmlns="http://www.w3.org/2000/svg">
<path d="M38.8371 0.52999C38.5199 3.29347 37.147 5.24813 34.8179 6.26365C33.7576 6.72648 32.3574 7.0545 31.0026 7.15785L30.7579 7.17582L30.7896 7.03653C31.0434 5.85924 31.0524 4.72689 30.8123 3.80123C30.4679 2.45769 29.5299 1.37476 28.0482 0.592899C27.4591 0.28285 27.4637 0.278356 27.7582 0.862507C28.089 1.51855 28.2929 2.04429 28.447 2.64192C28.5557 3.07778 28.5693 3.19461 28.5648 3.93154C28.5648 4.65948 28.5512 4.7853 28.4424 5.18073C27.9666 6.94216 26.5393 8.50589 24.106 9.9393L23.5895 10.2449L23.4399 9.68767C23.0276 8.13743 22.4023 6.97362 21.4824 6.06594C20.7937 5.38293 20.0098 4.90213 19.1035 4.60556C18.7591 4.49323 18.2154 4.35393 18.2154 4.3764C18.2154 4.38538 18.4374 4.61455 18.7093 4.88865C19.8965 6.09739 20.5988 7.25221 20.9205 8.51937C21.0338 8.95973 21.0474 9.09004 21.0474 9.79551C21.0474 10.6628 20.993 11.0087 20.7393 11.7726C20.4901 12.523 19.7605 13.8486 19.244 14.4867L19.1398 14.6125L19.0084 14.2845C18.8271 13.8396 18.4057 13.0937 18.0659 12.6264C17.6807 12.0962 16.924 11.3592 16.4029 11.0132C15.8455 10.6448 15.193 10.3212 14.604 10.128C14.1191 9.96627 13.1721 9.75058 12.941 9.75058C12.8277 9.75058 12.8549 9.77754 13.1676 10.0022C15.2746 11.494 16.5298 13.1387 16.9829 15.0079C17.1959 15.8842 17.2276 17.1109 17.0599 18.041C16.9829 18.4769 16.7065 19.5059 16.5977 19.7845L16.5252 19.9552L16.3123 19.5553C15.7413 18.4859 14.9755 17.6591 13.9107 16.9761C13.521 16.7244 12.6012 16.2481 12.5695 16.2796C12.5604 16.2886 12.7145 16.6166 12.9093 17.012C13.3987 17.9871 13.7295 18.7824 14.0693 19.7935C14.681 21.6088 14.971 23.0602 15.1749 25.298C15.2112 25.7204 15.2565 25.9226 15.4332 26.4213C15.764 27.3784 15.7595 27.8682 15.406 29.2522C15.329 29.5353 15.2384 29.9217 15.2021 30.106C15.1613 30.2902 15.1024 30.5508 15.0616 30.6856L14.9937 30.9238L14.8849 30.8249C14.681 30.6362 14.2596 30.0071 14.024 29.5398L13.7838 29.068L13.734 29.2837C13.5845 29.9038 13.4984 30.7755 13.4576 32.0606C13.4304 32.8021 13.3896 33.9299 13.3624 34.5635C13.299 36.0643 13.3352 36.3968 13.657 37.1562C14.0466 38.0774 14.7762 38.8008 15.6779 39.1648C15.8274 39.2232 15.9679 39.2726 15.9951 39.2726C16.0223 39.2726 16.0404 39.0974 16.0404 38.8233C16.0404 38.5762 16.0495 38.3739 16.063 38.3739C16.0721 38.3739 16.2307 38.4234 16.412 38.4818C17.436 38.8233 18.442 38.7154 19.5793 38.1448C19.9645 37.9561 19.9916 37.8797 19.6835 37.8797C19.4388 37.8797 18.6776 37.664 18.3377 37.5022C17.7396 37.2191 17.2593 36.7967 16.9104 36.2485C16.711 35.9385 16.7563 35.8711 17.0554 36.0373C17.649 36.3699 18.3377 36.5092 19.1987 36.4732C19.824 36.4507 20.481 36.3564 20.481 36.298C20.481 36.28 20.4402 36.262 20.3859 36.262C20.0959 36.262 19.3346 35.943 18.9359 35.6509C18.6459 35.4397 18.1384 34.9005 17.9073 34.559C17.6354 34.1546 17.658 34.0333 17.9616 34.2624C18.1791 34.4287 18.6549 34.6264 18.9766 34.6893C19.4343 34.7792 20.123 34.7028 20.6351 34.5096L20.771 34.4601L20.5263 34.3478C19.9871 34.1007 19.466 33.3907 19.1307 32.4381C19.0129 32.1056 18.9993 32.0337 19.0491 31.9663C19.108 31.8899 19.1262 31.8944 19.4207 32.0247C19.9463 32.2628 20.2273 32.3257 20.7755 32.3257C21.0565 32.3302 21.3827 32.3033 21.5187 32.2673L21.7588 32.2044L21.4779 32.0741C21.0746 31.8809 20.7302 31.5169 20.472 31.0271C20.3587 30.8025 20.2409 30.5463 20.2091 30.452C20.1593 30.2992 20.1638 30.2677 20.2635 30.1239C20.3405 30.0071 20.3904 29.9757 20.4584 29.9936C20.7846 30.0925 20.9613 30.1105 21.342 30.0925C21.7905 30.07 22.1485 29.9757 22.6062 29.7555C22.8826 29.6207 22.9052 29.6387 22.2935 29.5263C21.9673 29.4634 21.5957 29.3106 21.3284 29.1309L21.1562 29.0141L21.3284 28.8343C21.4235 28.74 21.6274 28.5692 21.777 28.4614C22.5427 27.9177 23.2224 27.8323 23.9565 28.1828C24.4005 28.3985 24.4096 28.4209 24.1921 28.7355C23.5577 29.6701 22.8871 30.9193 22.511 31.8539C22.2845 32.4246 21.8495 33.8805 21.7452 34.4197C21.6501 34.896 21.6773 36.1182 21.7996 37.1158C21.9491 38.365 21.9537 39.7265 21.8041 40.396C21.5504 41.5284 21.0746 42.3911 20.0641 43.5639L19.8693 43.7886L20.1185 43.5864C21.1879 42.7281 21.8449 41.9642 22.2301 41.1374C22.4068 40.76 22.4974 40.4499 22.579 39.9736L22.6379 39.6186L22.9007 40.0994C23.3493 40.9083 24.0562 41.8968 24.6543 42.5529C24.8718 42.791 24.8673 42.7775 24.5818 42.3057C24.0426 41.4205 23.5124 40.2432 23.227 39.2996C22.5654 37.1427 22.6877 34.8915 23.5623 33.1615C24.2193 31.8584 25.5379 29.8454 25.6602 29.9667C25.7101 30.0161 25.9095 30.798 26.0816 31.6337L26.1995 32.1954L25.9457 32.4291C25.6602 32.6942 25.1663 32.9548 24.8084 33.0267C24.6724 33.0537 24.5682 33.0941 24.5818 33.1166C24.5954 33.1391 24.7177 33.1795 24.8491 33.211C25.1618 33.2784 25.7327 33.2424 26.0635 33.1301L26.3173 33.0402L26.3445 33.1346C26.3762 33.2514 26.2538 33.3817 25.9004 33.6154C25.5515 33.8445 25.1391 33.9704 24.7132 33.9704C24.5274 33.9704 24.3779 33.9883 24.3779 34.0108C24.3779 34.0737 24.7495 34.3972 24.9715 34.523C25.2841 34.7073 25.6965 34.7927 26.1315 34.7702C26.4985 34.7522 26.5076 34.7522 26.5076 34.8556C26.5076 35.1207 25.4155 35.5565 24.5591 35.6284L24.174 35.6599L24.4232 35.7812C24.9579 36.0329 25.6738 36.1092 26.2584 35.9744C26.707 35.8666 26.6526 35.9565 26.0545 36.298C25.2343 36.7608 24.4459 37.0304 23.6166 37.1203L23.1363 37.1742L23.3991 37.4168C23.8613 37.8437 24.3507 38.0235 25.053 38.0235C25.4382 38.0235 26.0454 37.9246 26.3399 37.8123C26.4124 37.7808 26.417 37.8033 26.3898 38.0909C26.3671 38.3245 26.3762 38.4099 26.4215 38.4503C26.4985 38.5132 27.0559 38.5986 27.3821 38.5986C27.7809 38.5986 28.1977 38.365 28.7279 37.8392C29.0995 37.4708 29.7701 36.6799 29.7701 36.608C29.7701 36.599 29.684 36.5945 29.5798 36.6035C29.2762 36.6305 28.9635 36.5002 28.7913 36.2755C28.6101 36.0418 28.5466 35.7543 28.5466 35.1926C28.5466 34.3208 28.7324 33.4671 29.5526 30.5778C30.2957 27.9491 30.3682 27.5537 30.1824 27.1628C30.1371 27.0639 29.9513 26.7808 29.7701 26.5337C29.394 26.0169 29.3215 25.8821 29.1901 25.4777C29.0405 25.0239 28.9907 24.6464 28.9952 24.0398C28.9998 23.1815 29.1946 22.2963 29.5163 21.6717C29.9876 20.7551 30.9573 19.8744 32.0448 19.3711C32.5432 19.1374 32.8921 19.0565 33.531 19.0206C34.8224 18.9577 36.2135 19.3891 37.0654 20.1215C37.736 20.6967 38.2209 21.6762 38.461 22.9389C38.5743 23.5275 38.5698 25.4777 38.4565 26.1967C38.2073 27.7739 37.7405 29.1623 36.9385 30.7081C36.4537 31.6382 36.0912 32.2269 35.5338 32.9593C34.8587 33.858 33.7666 34.932 33.1141 35.3409C32.9963 35.4172 32.9012 35.4936 32.8966 35.5161C32.8921 35.6105 34.1337 35.4352 34.7771 35.2555C36.1727 34.8556 37.7179 33.9074 39.0954 32.6043L39.5259 32.1954L39.4941 32.8245C39.1634 39.4434 36.0413 44.4671 30.6265 47.0913C26.5755 49.0549 21.4643 49.4773 17.649 48.1697C9.5743 45.3972 4.36336 38.7784 2.40586 28.8029C2.09773 27.2167 1.84398 25.4148 1.71711 23.869C1.68539 23.4916 1.64461 23.186 1.63101 23.186C1.59023 23.186 1.03289 24.7003 0.842575 25.3204C0.502732 26.4573 0.267107 27.6211 0.108513 28.9601C0.0088253 29.7959 -0.00476845 32.137 0.0813253 32.9369C0.380388 35.579 1.00117 37.8437 2.08414 40.2163C3.13086 42.5079 4.71679 44.9209 6.47945 46.9115C9.3432 50.1468 12.7416 52.6632 15.6552 53.7101C19.4887 55.0851 24.9851 55.3772 30.0193 54.4785C35.7649 53.454 40.7674 51.059 44.7323 47.4373C47.3241 45.0647 49.4855 42.0631 51.076 38.6211C51.9505 36.7293 52.807 34.195 53.3099 31.9932C53.4051 31.5843 53.4866 31.2428 53.4957 31.2338C53.5365 31.1889 54.2751 31.7596 54.6512 32.128C55.2901 32.7571 55.8202 33.6199 56.006 34.3343C56.0921 34.6758 56.1012 34.6758 56.1918 34.3972C57.0255 31.8404 56.9984 29.2387 56.1148 26.5786C55.5121 24.7767 54.5787 23.0467 53.0607 20.9303C52.9791 20.8135 52.9202 20.7056 52.9338 20.6922C53.0063 20.6203 54.121 20.3866 54.692 20.3237C55.2493 20.2608 55.4351 20.2563 55.938 20.3012C56.654 20.3686 57.3337 20.5304 57.8321 20.7596C57.9001 20.791 57.9635 20.809 57.9771 20.7955C58.0134 20.7596 57.7007 19.6901 57.5512 19.3262C56.9576 17.9107 55.9879 16.8413 54.6104 16.0684C53.6724 15.5427 52.304 15.1023 51.0443 14.9181C50.8449 14.8911 50.6546 14.8552 50.6184 14.8462C50.5821 14.8327 50.6999 14.6844 50.9355 14.4328C51.9687 13.3588 52.7299 12.1815 53.3054 10.7841C53.532 10.2269 53.8174 9.35965 53.899 8.99568L53.9307 8.84739L53.5184 9.12149C53.0652 9.42256 52.3402 9.78203 51.8871 9.92582C51.3026 10.1145 50.931 10.1685 50.2513 10.1685C49.2907 10.1685 48.6563 10.0112 47.6368 9.52591L47.0885 9.26079L47.2698 8.8429C48.022 7.11292 48.2077 5.40989 47.8452 3.59903L47.7954 3.35638L47.5507 3.81921C46.3726 6.01651 44.764 7.28816 42.6705 7.6701C42.163 7.76447 40.7946 7.77795 40.2826 7.69257C39.9065 7.62966 39.177 7.49486 39.1634 7.48587C39.1588 7.48138 39.3129 7.16234 39.5123 6.77141C40.6859 4.46177 40.6315 2.60148 39.3355 0.615366C39.1815 0.381706 39.0229 0.161526 38.9776 0.121085C38.896 0.0491895 38.8915 0.0671634 38.8371 0.52999ZM18.8452 21.1954C19.4116 22.6738 19.4388 24.0353 18.9223 25.0688C18.7093 25.5002 18.528 25.7518 18.161 26.1293L17.8529 26.4438L17.7577 26.3315C17.7079 26.2686 17.6037 26.0888 17.5266 25.936C17.2366 25.3429 17.3182 24.7947 17.8529 23.6354C18.451 22.3458 18.6323 21.7661 18.6413 21.1101C18.6459 20.9213 18.6595 20.7775 18.673 20.7955C18.6912 20.8135 18.7637 20.9932 18.8452 21.1954Z" fill="#571414"/>
</svg>
