<svg width="54" height="54" viewBox="0 0 54 54" fill="none" xmlns="http://www.w3.org/2000/svg">
<path d="M49.0409 45.4587L39.0235 35.4371C42.0271 31.5231 43.4293 26.6131 42.9459 21.7032C42.4624 16.7934 40.1295 12.2512 36.4202 8.99816C32.711 5.74512 27.9032 4.02481 22.9722 4.18619C18.0412 4.34757 13.3563 6.37856 9.86765 9.86716C6.37905 13.3558 4.34806 18.0408 4.18668 22.9717C4.0253 27.9027 5.74561 32.7105 8.99865 36.4197C12.2517 40.129 16.7938 42.4619 21.7037 42.9454C26.6136 43.4288 31.5236 42.0266 35.4376 39.023L45.4634 49.051C45.6989 49.2864 45.9784 49.4732 46.2861 49.6007C46.5937 49.7281 46.9234 49.7937 47.2564 49.7937C47.5894 49.7937 47.9191 49.7281 48.2268 49.6007C48.5344 49.4732 48.8139 49.2864 49.0494 49.051C49.2848 48.8155 49.4716 48.536 49.599 48.2284C49.7265 47.9207 49.792 47.591 49.792 47.258C49.792 46.925 49.7265 46.5953 49.599 46.2877C49.4716 45.98 49.2848 45.7005 49.0494 45.4651L49.0409 45.4587ZM9.28133 23.6246C9.28133 20.7877 10.1226 18.0144 11.6987 15.6556C13.2748 13.2968 15.515 11.4583 18.136 10.3727C20.7569 9.28705 23.641 9.00299 26.4234 9.55645C29.2058 10.1099 31.7616 11.476 33.7676 13.482C35.7737 15.488 37.1398 18.0438 37.6932 20.8263C38.2467 23.6087 37.9626 26.4927 36.877 29.1137C35.7913 31.7347 33.9529 33.9749 31.594 35.551C29.2352 37.1271 26.462 37.9683 23.6251 37.9683C19.8221 37.9644 16.176 36.452 13.4868 33.7628C10.7977 31.0737 9.28524 27.4276 9.28133 23.6246Z" fill="white"/>
</svg>
