<svg width="35" height="35" viewBox="0 0 35 35" fill="none" xmlns="http://www.w3.org/2000/svg">
<path d="M29.5981 14.2855L18.6606 25.223C18.5081 25.3759 18.327 25.4973 18.1276 25.5801C17.9282 25.6629 17.7144 25.7055 17.4985 25.7055C17.2825 25.7055 17.0687 25.6629 16.8693 25.5801C16.6699 25.4973 16.4888 25.3759 16.3363 25.223L5.39884 14.2855C5.09063 13.9773 4.91748 13.5592 4.91748 13.1234C4.91748 12.6875 5.09063 12.2695 5.39884 11.9612C5.70705 11.653 6.12508 11.4799 6.56095 11.4799C6.99683 11.4799 7.41485 11.653 7.72306 11.9612L17.4998 21.738L27.2766 11.9599C27.5848 11.6517 28.0028 11.4785 28.4387 11.4785C28.8746 11.4785 29.2926 11.6517 29.6008 11.9599C29.909 12.2681 30.0822 12.6861 30.0822 13.122C30.0822 13.5579 29.909 13.9759 29.6008 14.2841L29.5981 14.2855Z" fill="white"/>
</svg>
