<svg width="42" height="42" viewBox="0 0 42 42" fill="none" xmlns="http://www.w3.org/2000/svg">
<path d="M35.5181 17.1428L22.3931 30.2678C22.2102 30.4513 21.9928 30.5969 21.7535 30.6963C21.5142 30.7957 21.2576 30.8468 20.9985 30.8468C20.7394 30.8468 20.4829 30.7957 20.2435 30.6963C20.0042 30.5969 19.7869 30.4513 19.604 30.2678L6.479 17.1428C6.10915 16.7729 5.90137 16.2713 5.90137 15.7482C5.90137 15.2252 6.10915 14.7235 6.479 14.3537C6.84885 13.9838 7.35048 13.7761 7.87353 13.7761C8.39658 13.7761 8.89821 13.9838 9.26806 14.3537L21.0002 26.0858L32.7323 14.352C33.1021 13.9822 33.6038 13.7744 34.1268 13.7744C34.6499 13.7744 35.1515 13.9822 35.5213 14.352C35.8912 14.7219 36.099 15.2235 36.099 15.7466C36.099 16.2696 35.8912 16.7713 35.5213 17.1411L35.5181 17.1428Z" fill="white"/>
</svg>
