<svg xmlns="http://www.w3.org/2000/svg" width="400" height="400"><path fill="#2474b9" d="M34.52 0h331C384.55 0 400 15.454 400 34.518v331C400 384.546 384.546 400 365.5 400H34.52C15.45 400 0 384.546 0 365.5V34.52C0 15.45 15.45 0 34.52 0z"/><path d="M137.8 102.6h33.7v198.73h-38.437V153.57c-4.648 5.182-14.23 12-23.675 15.18v-35.65c15.027-8.514 24.11-19.68 28.41-30.5zm165.7 60.441v77.85c0 24.14-3.7 40.83-11.07 50.06s-20.4 13.85-39.06 13.85c-18.85 0-31.94-4.6-39.27-13.786s-11-25.9-11-50.136v-77.848c0-24.23 3.67-40.9 11-50s20.426-13.65 39.27-13.65c18.75 0 31.8 4.55 39.13 13.65s11 25.766 11 50h0zm-40.25-14.9c0-11.45.6-24.5-9.9-24.5-10.45 0-10 15.14-10 25.5v109.5c.66 14.7 1.1 21.5 10 21.5 4.4 0 9.72-1.24 9.9-21.33V148.14z" fill="#fff"/></svg>