<svg width="20" height="20" viewBox="0 0 20 20" fill="none" xmlns="http://www.w3.org/2000/svg">
<path d="M9.77984 12.2611C10.565 11.6011 11.1283 10.7156 11.3931 9.72462C11.658 8.73366 11.6116 7.68523 11.2604 6.7215C10.9092 5.75777 10.27 4.92538 9.42967 4.33723C8.58931 3.74907 7.58839 3.43359 6.56265 3.43359C5.53692 3.43359 4.536 3.74907 3.69564 4.33723C2.85528 4.92538 2.21615 5.75777 1.86492 6.7215C1.51368 7.68523 1.46735 8.73366 1.7322 9.72462C1.99705 10.7156 2.56027 11.6011 3.34546 12.2611C2.11936 12.8155 1.05681 13.6765 0.260309 14.7611C0.113196 14.9616 0.0517444 15.2122 0.0894715 15.458C0.127199 15.7038 0.261014 15.9245 0.461481 16.0716C0.661947 16.2187 0.912643 16.2802 1.15842 16.2425C1.40419 16.2047 1.62492 16.0709 1.77203 15.8705C2.32339 15.1174 3.0445 14.505 3.87685 14.0828C4.7092 13.6607 5.62936 13.4406 6.56265 13.4406C7.49595 13.4406 8.4161 13.6607 9.24845 14.0828C10.0808 14.505 10.8019 15.1174 11.3533 15.8705C11.5004 16.071 11.7212 16.2049 11.967 16.2427C12.2128 16.2805 12.4636 16.2191 12.6642 16.072C12.8648 15.9249 12.9987 15.7041 13.0365 15.4583C13.0743 15.2125 13.0129 14.9617 12.8658 14.7611C12.0688 13.6767 11.006 12.8157 9.77984 12.2611ZM3.43765 8.43765C3.43765 7.81958 3.62093 7.2154 3.96431 6.70149C4.30769 6.18759 4.79575 5.78705 5.36677 5.55053C5.93779 5.314 6.56612 5.25212 7.17231 5.3727C7.7785 5.49327 8.33532 5.7909 8.77236 6.22794C9.2094 6.66498 9.50703 7.2218 9.62761 7.82799C9.74819 8.43418 9.6863 9.06252 9.44978 9.63354C9.21325 10.2046 8.81271 10.6926 8.29881 11.036C7.78491 11.3794 7.18072 11.5626 6.56265 11.5626C5.73385 11.5626 4.93899 11.2334 4.35294 10.6474C3.76689 10.0613 3.43765 9.26645 3.43765 8.43765ZM19.5392 16.0681C19.44 16.141 19.3273 16.1937 19.2077 16.2231C19.0881 16.2525 18.9639 16.258 18.8421 16.2393C18.7204 16.2207 18.6035 16.1782 18.4982 16.1144C18.3929 16.0506 18.3011 15.9666 18.2283 15.8673C17.6756 15.1158 16.9542 14.5044 16.1221 14.0824C15.2901 13.6604 14.3706 13.4396 13.4377 13.4376C13.189 13.4376 12.9506 13.3389 12.7747 13.1631C12.5989 12.9872 12.5002 12.7488 12.5002 12.5001C12.5002 12.2515 12.5989 12.0131 12.7747 11.8372C12.9506 11.6614 13.189 11.5626 13.4377 11.5626C13.8818 11.5619 14.3207 11.4664 14.7251 11.2826C15.1295 11.0988 15.49 10.831 15.7827 10.4969C16.0754 10.1628 16.2935 9.7701 16.4224 9.34506C16.5514 8.92003 16.5883 8.47238 16.5306 8.03197C16.473 7.59156 16.3221 7.1685 16.088 6.79099C15.854 6.41349 15.5422 6.09021 15.1733 5.84272C14.8045 5.59523 14.3872 5.42921 13.9491 5.35572C13.5111 5.28223 13.0624 5.30297 12.633 5.41656C12.513 5.45125 12.3874 5.46165 12.2634 5.44712C12.1394 5.4326 12.0195 5.39346 11.9109 5.33199C11.8022 5.27052 11.7069 5.18797 11.6306 5.08918C11.5542 4.99038 11.4984 4.87733 11.4663 4.75667C11.4343 4.63601 11.4267 4.51016 11.4439 4.3865C11.4612 4.26285 11.5029 4.14389 11.5668 4.0366C11.6306 3.92931 11.7152 3.83585 11.8157 3.7617C11.9161 3.68756 12.0304 3.63423 12.1517 3.60484C13.2497 3.3139 14.4141 3.40551 15.4531 3.86458C16.4921 4.32365 17.3438 5.12283 17.868 6.13053C18.3923 7.13824 18.5578 8.29441 18.3372 9.4087C18.1167 10.523 17.5234 11.529 16.6548 12.2611C17.8809 12.8155 18.9435 13.6765 19.74 14.7611C19.8861 14.9613 19.9469 15.2111 19.9093 15.456C19.8717 15.701 19.7386 15.921 19.5392 16.0681Z" fill="white"/>
</svg>
