<svg width="54" height="58" viewBox="0 0 54 58" fill="none" xmlns="http://www.w3.org/2000/svg">
<path d="M28.2484 3.64772e-06C29.6133 4.52293 25.1285 6.20029 25.1285 6.20029C20.4487 8.59098 21.5537 14.0859 21.5537 14.0859C23.8936 20.5795 20.6113 23.5517 20.6113 23.5517C18.2064 25.167 17.3614 26.8148 17.3614 26.8148C16.3214 27.8809 15.8664 31.5638 15.8664 31.5638C15.8664 31.5638 14.5665 34.4713 10.1142 34.9882C5.66195 35.5051 4.10207 30.7885 4.10207 30.7885L4.19701 26.0056C-0.812586 28.153 0.106808 33.6357 0.106808 33.6357C1.7154 41.9967 8.83053 41.9181 8.83053 41.9181C9.22051 45.5364 6.14954 46.0694 6.14954 46.0694C3.67966 46.8448 1.72977 44.454 1.72977 44.454C1.72977 53.6529 10.9302 54.1269 10.9302 54.1269L10.9533 51.1571C10.9533 51.1571 11.4247 48.6148 13.5729 48.5987C16.0217 48.5802 16.5144 50.9515 16.5144 50.9515V57.645L19.2259 57.6222L19.2719 50.9972C19.2719 50.9972 19.5705 48.7128 21.8455 48.7128C24.3096 48.7128 24.6262 50.8146 24.6262 50.8146L24.741 57.6222L28.8315 57.5765L28.8774 50.9288C28.8774 50.9288 29.3369 48.5917 31.589 48.5987C34.042 48.6063 34.3008 51.0202 34.3008 51.0202L34.3237 57.5993L37.0123 57.6222L36.9664 51.2942C36.9664 51.2942 37.2421 48.6215 39.7239 48.6444C42.2057 48.6672 42.5505 50.8831 42.5505 50.8831L42.5734 54.0585C51.7194 53.9671 51.7194 44.5553 51.7194 44.5553C51.7194 44.5553 50.892 46.1086 47.5829 45.9715C44.2738 45.8345 44.6877 41.9052 44.6877 41.9052C44.6877 41.9052 50.7083 42.3621 52.8684 35.1891C55.0285 28.016 49.2377 26.0513 49.2377 26.0513V30.8944C47.4912 35.7374 42.7573 34.8236 42.7573 34.8236C36.4149 34.9607 36.438 25.7808 36.438 25.7808C36.438 19.4487 31.3357 17.1873 31.3357 17.1873C28.5408 15.8305 27.5659 14.2474 27.5659 14.2474C27.5659 14.2474 25.6811 10.8229 28.4435 8.88448C31.2058 6.94608 31.0757 4.29684 31.0757 4.29684C30.9132 0.904642 28.2484 3.64772e-06 28.2484 3.64772e-06ZM36.2347 36.9667C38.3948 37.4693 38.8545 39.7994 38.8545 39.7994C38.8545 39.7994 39.6358 46.5156 34.2586 46.607C28.8813 46.6984 29.7086 41.9924 29.7086 41.9924L36.2347 36.9667ZM17.0323 36.971L23.5585 41.9968C23.5585 41.9968 24.3857 46.7027 19.0084 46.6113C13.6312 46.52 14.4125 39.8037 14.4125 39.8037C14.4125 39.8037 14.8722 37.4736 17.0323 36.971Z" fill="url(#paint0_linear_3709_78)"/>
<path opacity="0.785536" d="M50.6803 49.0498C48.2789 54.4867 42.5732 54.0583 42.5732 54.0583L42.5552 51.5512C42.5552 51.5512 46.8886 52.1566 50.6803 49.0498Z" fill="#BE0B05"/>
<path opacity="0.785536" d="M2.83008 49.2734C5.17913 53.7935 10.93 54.1269 10.93 54.1269L10.948 51.6198C10.948 51.6198 6.62175 52.3803 2.83008 49.2734Z" fill="#B50D05"/>
<path opacity="0.785536" d="M19.2189 54.6934H16.5215V57.6333H19.2189V54.6934Z" fill="#BE0B05"/>
<path opacity="0.785536" d="M37.0167 54.6709H34.3193V57.6108H37.0167V54.6709Z" fill="#BE0B05"/>
<path opacity="0.785536" d="M28.822 54.6709H24.7158V57.6108H28.822V54.6709Z" fill="#BE0B05"/>
<path d="M0.231445 34.2224C0.231445 34.2224 0.961445 38.6665 4.38544 40.5169C4.38544 40.5169 6.25644 41.8467 8.83016 41.918C8.83016 41.918 8.79192 40.5933 7.41074 39.6726C7.41074 39.6726 4.98085 38.9594 3.67099 37.5316C3.67099 37.5316 1.85953 35.9999 1.03225 32.6304L0.231445 34.2224Z" fill="url(#paint1_linear_3709_78)"/>
<path d="M53.1403 34.1229C53.1403 34.1229 52.6755 38.1014 49.1865 40.5656C49.1865 40.5656 47.4562 41.9148 44.6875 41.9053C44.6875 41.9053 44.7257 40.5806 46.1069 39.6599C46.1069 39.6599 48.5368 38.9467 49.8467 37.5189C49.8467 37.5189 51.6581 35.9872 52.4854 32.6177L53.1403 34.1229Z" fill="url(#paint2_linear_3709_78)"/>
<path d="M0.106789 33.6355C0.106789 33.6355 1.4406 29.8565 4.15422 28.1604L4.19699 26.0054C4.19699 26.0054 0.726761 27.0246 0.162999 31.1617C0.162999 31.1617 -0.00798833 32.1352 0.000291267 32.6303C0.00857327 33.1253 0.106789 33.6355 0.106789 33.6355Z" fill="#F5FAE9"/>
<path d="M53.328 33.6814C53.328 33.6814 51.9514 29.8909 49.2378 28.1948V26.0513C49.2378 26.0513 52.7365 27.1536 53.3003 31.2907C53.3003 31.2907 53.3594 32.1226 53.3511 32.6176C53.3428 33.1126 53.2446 33.6228 53.2446 33.6228L53.328 33.6814Z" fill="#F5FAE9"/>
<path d="M4.10203 30.7881C4.10203 30.7881 5.25457 34.9603 10.1142 34.9878C10.1142 34.9878 11.5767 34.9286 13.6909 33.8321L15.2075 33.7636C15.2075 33.7636 15.1379 36.2107 9.89852 36.2792C4.65911 36.3477 3.89356 32.356 3.89356 32.356C3.89356 32.356 3.66541 31.4963 4.10203 30.7881Z" fill="#F5FAE9"/>
<path d="M49.2376 30.8945C49.2376 30.8945 47.6168 34.7962 42.7572 34.8237C42.7572 34.8237 41.8022 35.0314 39.6881 33.9348L38.1714 33.8663C38.1714 33.8663 38.2129 36.3792 43.4479 36.1558C48.6548 35.9336 49.4854 32.4588 49.4854 32.4588C49.4854 32.4588 49.6742 31.6027 49.2376 30.8945Z" fill="#F5FAE9"/>
<path d="M15.958 30.7884C15.958 30.7884 16.1084 28.0295 18.3205 25.3763C18.8896 24.6937 19.2158 24.3283 20.3885 23.7044C21.2293 23.2569 21.86 21.5296 21.86 21.5296C21.86 21.5296 23.2906 18.3222 21.499 14.2473C21.499 14.2473 20.3632 9.37028 24.371 6.59488C24.371 6.59488 27.7614 5.07063 28.3408 2.83984C28.3408 2.83984 30.0136 4.74917 27.5112 6.65527C27.5112 6.65527 24.0664 8.2706 22.9614 11.8566C22.9614 11.8566 22.535 14.3341 23.9561 16.7114C23.9561 16.7114 24.4563 20.6764 22.7339 23.0671C22.7339 23.0671 21.4665 25.7808 19.6466 27.0408C19.6466 27.0408 17.1929 28.527 15.958 30.7884Z" fill="#F5FAE9"/>
<path d="M36.3746 24.5835C36.3746 24.5835 34.206 22.566 33.166 20.6437C33.166 20.6437 32.9548 19.8684 30.0624 17.7038C30.0624 17.7038 28.6321 16.7278 28.4209 15.2256C28.4209 15.2256 29.3151 16.1069 30.2758 16.5901C31.2365 17.0733 32.3193 17.7167 32.8226 18.0979C34.9165 19.6841 35.9188 22.4891 35.9188 22.4891C35.9188 22.4891 36.3327 23.6522 36.3746 24.5835Z" fill="#F5FAE9"/>
<defs>
<linearGradient id="paint0_linear_3709_78" x1="27.0012" y1="53.4765" x2="26.9417" y2="14.0016" gradientUnits="userSpaceOnUse">
<stop stop-color="#DF0303"/>
<stop offset="1" stop-color="#FAC125"/>
</linearGradient>
<linearGradient id="paint1_linear_3709_78" x1="0.231446" y1="34.2224" x2="8.78458" y2="41.9683" gradientUnits="userSpaceOnUse">
<stop stop-color="#BE0B05" stop-opacity="0"/>
<stop offset="1" stop-color="#BE0B05"/>
</linearGradient>
<linearGradient id="paint2_linear_3709_78" x1="52.5646" y1="34.4657" x2="44.7317" y2="41.9516" gradientUnits="userSpaceOnUse">
<stop stop-color="#BE0B05" stop-opacity="0"/>
<stop offset="1" stop-color="#BE0B05"/>
</linearGradient>
</defs>
</svg>
