<?xml version="1.0" encoding="UTF-8" standalone="no"?>
<!-- Created with Inkscape (http://www.inkscape.org/) -->

<svg
   width="38mm"
   height="38.743mm"
   viewBox="0 0 38 38.74298"
   version="1.1"
   id="svg1"
   xml:space="preserve"
   inkscape:version="1.3.2 (091e20e, 2023-11-25, custom)"
   sodipodi:docname="WhiteMap.svg"
   xmlns:inkscape="http://www.inkscape.org/namespaces/inkscape"
   xmlns:sodipodi="http://sodipodi.sourceforge.net/DTD/sodipodi-0.dtd"
   xmlns="http://www.w3.org/2000/svg"
   xmlns:svg="http://www.w3.org/2000/svg"><sodipodi:namedview
     id="namedview1"
     pagecolor="#ffffff"
     bordercolor="#000000"
     borderopacity="0.25"
     inkscape:showpageshadow="2"
     inkscape:pageopacity="0.0"
     inkscape:pagecheckerboard="0"
     inkscape:deskcolor="#d1d1d1"
     inkscape:document-units="mm"
     inkscape:zoom="3.9156336"
     inkscape:cx="31.284848"
     inkscape:cy="87.469881"
     inkscape:window-width="1920"
     inkscape:window-height="991"
     inkscape:window-x="-9"
     inkscape:window-y="-9"
     inkscape:window-maximized="1"
     inkscape:current-layer="layer1" /><defs
     id="defs1" /><g
     inkscape:label="Camada 1"
     inkscape:groupmode="layer"
     id="layer1"><g
       id="g7"
       transform="matrix(0.29751584,0,0,0.29751584,-10.382692,-10.868256)"
       style="fill:#ffffff"><path
         style="fill:#ffffff;stroke-width:0.0546022;stroke-linecap:square"
         d="m 146.63545,619.73451 c 0,-0.41658 3.59265,-6.75513 7.98367,-14.08567 4.39101,-7.33056 8.33481,-14.68213 8.76398,-16.33684 0.43861,-1.69108 -0.90873,-6.75219 -3.07676,-11.55747 -2.1214,-4.7019 -4.37364,-9.84914 -5.00498,-11.43829 -0.63134,-1.58916 -2.1426,-5.16475 -3.35836,-7.94577 -6.4381,-14.72692 -12.53097,-29.6719 -12.53097,-30.73674 0,-0.66464 3.00006,-8.16061 6.66679,-16.65773 3.66674,-8.49711 7.4893,-17.39962 8.49458,-19.78335 1.00529,-2.38372 3.53115,-8.08994 5.61303,-12.68048 2.08188,-4.59053 3.78524,-8.98475 3.78524,-9.76492 0,-1.87167 -11.19293,-28.55899 -20.27601,-48.34412 -3.69226,-8.04265 -4.275,-14.7654 -1.71461,-19.78068 3.30435,-6.47255 21.99062,-50.73422 21.99062,-52.08858 0,-0.75514 -0.94979,-3.42155 -2.11064,-5.92536 -2.77877,-5.99346 -11.35831,-26.06931 -17.63696,-41.26991 l -5.02184,-12.1579 2.47278,-6.623 c 1.36003,-3.64265 4.25908,-10.52365 6.44234,-15.29111 2.18325,-4.76746 6.72182,-15.40413 10.08571,-23.63704 l 6.11616,-14.96894 -8.4134,-16.81412 c -4.62737,-9.24776 -9.22494,-18.60191 -10.21683,-20.78699 l -1.80342,-3.97289 H 331.62478 519.364 l 0.021,191.0595 c 0.0184,167.38996 0.29375,191.84262 2.2224,197.38076 8.59271,24.67405 35.95182,37.31818 57.00453,26.3449 27.81436,-14.49766 26.57596,-54.54474 -1.9487,-63.01566 -3.99284,-1.18574 -7.79184,-2.1559 -8.4422,-2.1559 -0.65036,0 -1.18247,4.55076 -1.18247,10.11279 0,8.82782 0.33514,10.11279 2.63755,10.11279 4.91129,0 9.55381,6.70266 9.29498,13.41964 -0.19109,4.95904 -1.17819,6.95152 -5.33992,10.77882 -9.43365,8.67559 -23.50039,5.35085 -31.26984,-7.39076 -6.73028,-11.0374 -1.096,-30.15063 11.45792,-38.86881 6.23721,-4.3315 7.54573,-4.66048 18.2757,-4.59483 13.58297,0.0831 18.1344,2.03456 28.18367,12.08383 8.68176,8.68176 12.98984,19.64822 12.98984,33.06642 0,20.56284 -10.02683,35.81441 -27.8215,42.31858 -7.28263,2.6619 -14.68525,2.75322 -223.172,2.75322 -118.60174,0 -215.63953,-0.34083 -215.63953,-0.75739 z m 57.74379,-25.9253 9.2634,-9.34647 9.255,9.34647 c 5.09025,5.14057 9.70657,9.34648 10.25848,9.34648 0.55192,0 3.88511,-2.93617 7.40709,-6.5248 l 6.40361,-6.52481 -9.70313,-9.70312 -9.70312,-9.70313 9.6906,-9.76543 9.6906,-9.76543 -6.39108,-6.51203 c -3.5151,-3.58163 -7.01037,-6.51205 -7.76728,-6.51205 -0.75691,0 -5.45713,4.12127 -10.44493,9.15836 l -9.06873,9.15836 -9.07695,-9.15836 c -4.99232,-5.03709 -9.77441,-9.15836 -10.62686,-9.15836 -1.89612,0 -12.25806,10.74728 -12.25806,12.71392 0,0.77747 3.90064,5.30215 8.6681,10.05484 4.76746,4.7527 8.66811,8.9784 8.66811,9.39045 0,0.41205 -3.90065,4.63776 -8.66811,9.39045 -4.76746,4.75269 -8.6681,9.30908 -8.6681,10.1253 0,1.87212 10.3239,12.88456 12.32155,13.1433 0.81753,0.1059 5.65494,-4.01337 10.74981,-9.15394 z m 53.78697,-15.38396 c 4.21063,-0.88853 7.8579,-1.79501 8.10503,-2.01441 0.24713,-0.21941 -0.36576,-4.34518 -1.36198,-9.16839 l -1.8113,-8.76946 -8.75082,0.87328 c -4.81295,0.48032 -8.90022,0.98588 -9.08283,1.1235 -0.18262,0.13761 0.0739,4.59738 0.57008,9.9106 1.00069,10.71616 0.67615,10.50442 12.33182,8.04488 z m 32.93767,-8.4973 c 4.34774,-1.58915 8.07668,-2.88937 8.28654,-2.88937 1.11045,0 0.0957,-5.70827 -1.98173,-11.14801 -1.81214,-4.74502 -3.11869,-6.1882 -5.6023,-6.1882 -2.73794,0 -13.34667,3.62616 -14.9208,5.10007 -0.7347,0.68791 4.94075,18.01488 5.90078,18.01488 0.22689,0 3.96978,-1.30022 8.31751,-2.88937 z M 470.24473,559.09282 V 546.813 h 12.18577 c 14.25617,0 19.00547,-1.45451 21.31739,-6.52863 1.77449,-3.89458 1.08432,-6.83419 -5.92458,-25.23403 -3.85815,-10.12846 -3.79734,-11.32746 0.63088,-12.43887 3.89063,-0.97648 6.47613,-4.50646 6.44225,-8.79564 -0.026,-3.29118 -35.58489,-74.35972 -37.96129,-75.87001 -3.15217,-2.00332 -10.64243,-1.20747 -12.92958,1.37379 -2.56002,2.88921 -37.21416,71.71232 -37.21416,73.9073 0,3.9162 3.66339,8.74131 7.23175,9.52505 l 3.94325,0.86608 -4.24349,11.84586 c -5.54501,15.4791 -6.80728,20.67696 -5.88122,24.21821 1.29197,4.94047 7.82572,7.13089 21.27058,7.13089 h 12.35156 v 12.27982 12.27981 h 9.39045 9.39044 z m -145.16872,-5.1944 7.92403,-4.47204 -2.49176,-4.21824 c -1.37048,-2.32003 -3.88722,-5.96829 -5.59278,-8.10726 l -3.101,-3.88902 -6.83506,3.55002 c -3.75928,1.95252 -7.13788,4.29687 -7.50799,5.20965 -0.85793,2.11587 6.31741,16.39894 8.23828,16.39894 0.79323,0 5.00806,-2.01241 9.36628,-4.47205 z m 28.26685,-21.05969 7.21721,-6.75084 -6.1352,-6.25132 c -3.37436,-3.43822 -6.71894,-6.25131 -7.43237,-6.25131 -2.43092,0 -12.54809,8.90329 -12.54809,11.04255 0,1.82387 9.83729,14.96177 11.20295,14.96177 0.26308,0 3.72604,-3.03788 7.6955,-6.75085 z m 22.92799,-27.09836 c 2.4219,-3.52011 4.40346,-7.31743 4.40346,-8.43851 0,-1.8636 -12.42762,-9.72092 -15.37521,-9.72092 -1.58108,0 -9.46585,12.90407 -8.88818,14.54624 0.65332,1.85724 11.7558,9.92774 13.72002,9.97321 0.95506,0.0221 3.71801,-2.83991 6.13991,-6.36002 z M 247.76335,473.1341 v -13.00216 h 16.61387 16.61387 v 13.00216 13.00216 h 9.39045 9.39045 v -12.9414 -12.94138 l 11.14614,-0.42194 c 10.43753,-0.39511 11.28641,-0.67242 13.35237,-4.36193 2.11088,-3.76974 1.61865,-5.70501 -11.39099,-44.78521 -7.47847,-22.46488 -14.56295,-41.98291 -15.74331,-43.37342 -3.28636,-3.8715 -11.22963,-3.31392 -14.04706,0.98605 -1.26646,1.93285 -5.91881,14.35095 -10.33858,27.59578 l -8.03595,24.08155 -8.61761,-25.7345 c -4.73968,-14.15396 -9.69141,-26.55139 -11.00383,-27.54984 -3.07873,-2.34219 -8.94028,-2.32416 -12.04654,0.0371 -2.76186,2.09943 -28.6238,78.22635 -28.6238,84.25668 0,6.90154 3.60288,9.14817 14.67075,9.14817 h 9.88888 v 13.00216 13.00216 h 9.39045 9.39044 z m 142.40363,3.25054 c 0.4838,-2.18508 1.54151,-6.14558 2.35049,-8.8011 1.93377,-6.34776 0.56958,-7.51734 -9.87021,-8.46234 l -8.47403,-0.76706 -1.91142,8.24753 c -1.0513,4.53615 -1.7014,8.398 -1.44468,8.58189 1.02714,0.73578 15.03027,5.00153 16.69191,5.08483 0.97808,0.049 2.17415,-1.69866 2.65794,-3.88375 z m 4.95417,-41.44941 c 0,-5.11785 -0.48758,-9.58715 -1.08351,-9.9318 -0.59594,-0.34463 -4.82164,-0.30248 -9.39045,0.0937 l -8.30694,0.72023 v 9.21155 9.21156 h 9.39045 9.39045 z m -8.30693,-25.75921 c 2.18508,-0.77179 3.97288,-1.95011 3.97288,-2.61847 0,-3.14367 -6.16671,-17.21514 -7.5444,-17.21514 -1.54193,0 -17.01524,7.21642 -17.01524,7.93554 0,0.20517 1.59684,3.98379 3.54854,8.39692 l 3.54855,8.02388 4.75838,-1.55974 c 2.61712,-0.85785 6.5462,-2.19121 8.73129,-2.96299 z m -19.47737,-29.07217 c 7.56175,-7.14458 7.52695,-7.33675 -2.81049,-15.52415 -6.32764,-5.01159 -7.01248,-4.77829 -13.51424,4.60373 l -4.00569,5.78023 5.63764,5.72038 c 3.10069,3.14621 6.16305,5.73133 6.80524,5.74469 0.64218,0.0134 4.19158,-2.83282 7.88754,-6.32488 z m -28.00558,-18.7156 c 2.07968,-4.25072 3.78125,-8.42877 3.78125,-9.28454 0,-2.01725 -16.1132,-9.41447 -17.30338,-7.9436 -1.70705,2.10966 -7.74676,16.27981 -7.14007,16.75178 0.43625,0.33939 12.42005,6.16814 16.68932,8.11744 0.1054,0.0481 1.8932,-3.39036 3.97288,-7.64108 z m -29.32326,-17.02309 4.75849,-7.41546 -6.41374,-5.54359 c -3.52756,-3.04897 -6.76597,-5.56298 -7.19646,-5.58669 -0.4305,-0.0237 -3.68104,2.93388 -7.22342,6.57243 l -6.44071,6.61555 7.00203,6.38661 c 3.8511,3.51264 7.84651,6.38661 8.87866,6.38661 1.03217,0 4.01799,-3.33696 6.63515,-7.41546 z m 122.76429,-22.09723 10.64102,-10.73181 11.23284,10.73181 c 8.15861,7.79468 12.2758,10.7318 15.04364,10.7318 2.91481,0 7.50404,-3.6738 19.51907,-15.62553 19.72137,-19.61747 19.71782,-19.59257 4.95161,-34.76626 l -10.75668,-11.05351 10.75668,-10.7711 c 7.66579,-7.67607 10.75668,-11.8139 10.75668,-14.40015 0,-2.68406 -4.03758,-7.67917 -15.50573,-19.18299 -19.6821,-19.74332 -20.2156,-19.82366 -35.02643,-5.27488 l -10.46421,10.27906 -10.34811,-10.27906 c -14.89587,-14.79645 -16.09738,-14.64113 -35.22681,4.55362 -19.08753,19.15271 -19.243,20.3374 -4.60341,35.07536 l 10.17878,10.24717 -10.17878,10.46543 c -14.59913,15.01026 -14.474,15.86803 5.16948,35.44026 19.26722,19.19731 19.33816,19.20686 33.86036,4.56078 z M 223.20372,311.32946 V 298.3273 h 8.57406 c 13.06017,0 15.98557,-1.5834 15.98557,-8.65235 0,-5.906 -22.9479,-77.34242 -26.74394,-83.25344 -2.62666,-4.09011 -6.74176,-4.97124 -11.74961,-2.51583 -3.78841,1.8575 -5.21394,5.29202 -17.48796,42.13383 -7.34983,22.06131 -13.36333,41.83912 -13.36333,43.95069 0,5.87983 4.7786,8.3371 16.21298,8.3371 h 9.79134 v 13.00216 13.00216 h 9.39044 9.39045 z m 70.37121,6.00262 c 2.07413,-1.11005 2.51921,-2.76197 2.11464,-7.84873 -0.48118,-6.05011 -0.84487,-6.54238 -5.9672,-8.07707 -3.00014,-0.89886 -7.57958,-1.63429 -10.17652,-1.63429 h -4.72173 l 0.70947,9.91583 c 0.39021,5.45371 1.12687,10.59119 1.63702,11.41663 0.93555,1.51376 10.73988,-0.74086 16.40432,-3.77237 z m 12.44276,-29.9954 5.52336,-5.1337 -4.7635,-7.85973 c -3.05331,-5.03795 -5.47743,-7.58577 -6.75209,-7.09664 -2.90562,1.11499 -9.49571,6.73134 -12.44493,10.60609 -2.45562,3.22625 -2.45072,3.46163 0.12077,5.80144 4.47331,4.07028 10.96166,8.8968 11.90435,8.85534 0.48878,-0.0215 3.37419,-2.34926 6.41204,-5.1728 z m 27.83787,-10.86396 6.46935,-1.629 -0.96469,-8.84496 c -0.53059,-4.86473 -1.20898,-9.12123 -1.50755,-9.4589 -0.6505,-0.73568 -17.91808,2.36238 -18.95683,3.40113 -0.39905,0.39906 0.14474,4.64848 1.20843,9.44315 2.15034,9.6928 2.56339,9.90573 13.75129,7.08858 z m 39.30171,-13.24656 0.42871,-9.81916 -9.81916,0.42871 c -9.12968,0.39862 -9.85367,0.67285 -10.31047,3.90544 -0.27019,1.91219 -0.0634,6.33029 0.45966,9.818 l 0.95093,6.34128 8.9308,-0.42755 8.9308,-0.42755 z"
         id="path1"
         transform="scale(0.26458333)" /><path
         style="fill:#ffffff;stroke-width:0.0193048;stroke-linecap:square"
         d="m 440.03096,526.86238 c 0,-0.28093 0.22985,-0.51078 0.51077,-0.51078 0.28093,0 0.51078,-0.68954 0.51078,-1.53232 0,-0.84277 0.22985,-1.53232 0.51077,-1.53232 0.28093,0 0.51077,-0.46281 0.51077,-1.02847 0,-0.99301 0.18145,-1.48573 1.45258,-3.94463 0.32478,-0.62827 0.59052,-1.60513 0.59052,-2.17079 0,-0.56566 0.22984,-1.02847 0.51077,-1.02847 0.28092,0 0.51077,-0.68955 0.51077,-1.53232 0,-0.84278 0.22985,-1.53232 0.51077,-1.53232 0.28093,0 0.51078,-0.46282 0.51078,-1.02848 0,-0.56566 0.26573,-1.54251 0.59052,-2.17078 1.24016,-2.399 1.45257,-2.93948 1.45257,-3.69618 0,-0.42901 0.22985,-1.23659 0.51077,-1.79463 l 1.02155,-2.02923 c 0.28092,-0.55804 0.51077,-1.46387 0.51077,-2.01295 0,-0.54909 0.22985,-1.14039 0.51078,-1.31401 1.47953,-0.9144 -0.13887,-10.47085 -1.77325,-10.47085 -0.30531,0 -0.88643,-0.45969 -1.29139,-1.02154 -0.40496,-0.56185 -1.14525,-1.02155 -1.64508,-1.02155 -0.49983,0 -0.90879,-0.22985 -0.90879,-0.51077 0,-0.28093 -0.64343,-0.51078 -1.42985,-0.51078 -1.42265,0 -1.38373,-0.0925 7.72215,-18.34856 6.55869,-13.14931 9.35194,-18.27183 9.85761,-18.07779 0.38808,0.14892 0.7056,0.70587 0.7056,1.23766 0,0.5318 0.22985,0.9669 0.51077,0.9669 0.28093,0 0.51078,0.4597 0.51078,1.02155 0,0.56185 0.22985,1.02154 0.51077,1.02154 0.28093,0 0.51077,0.4597 0.51077,1.02155 0,0.56185 0.22985,1.02155 0.51078,1.02155 0.28092,0 0.51077,0.45969 0.51077,1.02154 0,0.56185 0.22985,1.02155 0.51077,1.02155 0.28093,0 0.51078,0.45969 0.51078,1.02154 0,0.56185 0.22984,1.02155 0.51077,1.02155 0.28092,0 0.51077,0.4597 0.51077,1.02155 0,0.56185 0.17239,1.02236 0.38308,1.02336 0.2107,10e-4 0.9577,1.26434 1.66001,2.80743 0.70232,1.54309 1.44932,2.80644 1.66002,2.80744 0.21069,10e-4 0.38308,0.46151 0.38308,1.02336 0,0.56185 0.22984,1.02155 0.51077,1.02155 0.28092,0 0.51077,0.45969 0.51077,1.02154 0,0.56185 0.22985,1.02155 0.51078,1.02155 0.28092,0 0.51077,0.4597 0.51077,1.02155 0,0.56185 0.22985,1.02154 0.51077,1.02154 0.28093,0 0.51077,0.4597 0.51077,1.02155 0,0.56185 0.22985,1.02154 0.51078,1.02154 0.28092,0 0.51077,0.4597 0.51077,1.02155 0,0.56185 0.22985,1.02155 0.51077,1.02155 0.28093,0 0.51078,0.45969 0.51078,1.02154 0,0.56185 0.22984,1.02155 0.51077,1.02155 0.28092,0 0.51077,0.45969 0.51077,1.02154 0,0.56185 0.22985,1.02155 0.51078,1.02155 0.28092,0 0.51077,0.4597 0.51077,1.02155 0,0.56185 0.22985,1.02154 0.51077,1.02154 0.28093,0 0.51077,0.4597 0.51077,1.02155 0,0.68103 -0.34051,1.02154 -1.02154,1.02154 -0.56185,0 -1.02155,0.22985 -1.02155,0.51078 0,0.28092 -0.58507,0.51077 -1.30015,0.51077 -1.43345,0 -3.80758,2.05565 -3.80758,3.29681 0,0.43416 -0.22985,0.78938 -0.51077,0.78938 -0.28093,0 -0.51077,0.45969 -0.51077,1.02154 0,0.56185 -0.22985,1.02155 -0.51078,1.02155 -0.28092,0 -0.51077,0.57462 -0.51077,1.27693 0,0.70231 0.22985,1.27693 0.51077,1.27693 0.28093,0 0.51078,1.14924 0.51078,2.55387 0,1.40462 0.22984,2.55386 0.51077,2.55386 0.28092,0 0.51077,0.56106 0.51077,1.24679 0,0.68573 0.22985,1.38884 0.51078,1.56246 0.28092,0.17363 0.51077,0.87674 0.51077,1.56247 0,0.68573 0.22985,1.24679 0.51077,1.24679 0.28093,0 0.51077,0.56105 0.51077,1.24678 0,0.68574 0.22985,1.38885 0.51078,1.56247 0.28092,0.17362 0.51077,0.87673 0.51077,1.56246 0,0.68574 0.22985,1.24679 0.51077,1.24679 0.28093,0 0.51078,0.57462 0.51078,1.27693 0,0.70231 0.22984,1.27693 0.51077,1.27693 0.28092,0 0.51077,0.68955 0.51077,1.53232 0,0.84278 0.22985,1.53232 0.51078,1.53232 0.28092,0 0.51077,0.68955 0.51077,1.53232 0,0.84278 0.22985,1.53232 0.51077,1.53232 0.28093,0 0.51077,0.52865 0.51077,1.17478 0,0.64613 0.19111,1.39313 0.42467,1.66001 0.38868,0.44411 1.61843,4.25377 1.61843,5.01376 0,0.1781 -9.30884,0.32382 -20.68631,0.32382 -13.45036,0 -20.68631,-0.17866 -20.68631,-0.51077 z"
         id="path2"
         transform="scale(0.26458333)" /><path
         style="fill:#ffffff;stroke-width:0.0193048;stroke-linecap:square"
         d="m 412.57691,303.69741 c -3.16041,-3.0617 -5.7462,-5.82223 -5.7462,-6.13451 0,-0.31228 4.30965,-4.88972 9.577,-10.17209 9.98955,-10.01805 10.85393,-11.05306 10.85393,-12.99661 0,-0.64994 0.28155,-1.46326 0.62567,-1.80738 0.49372,-0.49372 0.49372,-0.83698 0,-1.62755 -0.34412,-0.55102 -0.62567,-1.5796 -0.62567,-2.28573 0,-0.70612 -0.22985,-1.28386 -0.51078,-1.28386 -0.28092,0 -0.51077,-0.34763 -0.51077,-0.77252 0,-0.42488 -2.32511,-3.01067 -5.16692,-5.74619 -10.61561,-10.2186 -14.24246,-13.88774 -14.24246,-14.40856 0,-0.29458 2.5778,-3.11904 5.72845,-6.27659 l 5.72844,-5.741 9.33525,9.32161 c 5.13438,5.12688 9.46163,9.3216 9.6161,9.3216 0.15447,0 0.77429,0.4597 1.37736,1.02155 0.91415,0.85166 1.80252,1.02155 5.34176,1.02155 2.48966,0 4.24526,-0.21123 4.24526,-0.51078 0,-0.28092 0.35872,-0.51077 0.79715,-0.51077 0.43843,0 5.26813,-4.4902 10.73267,-9.97822 l 9.93553,-9.97823 5.86675,5.92692 c 6.69557,6.76423 6.57947,6.12067 1.92288,10.65874 -17.7208,17.26978 -17.5072,17.01027 -17.5072,21.27031 0,2.33642 0.41745,3.61367 1.78771,5.46972 0.28092,0.38052 4.83756,5.0599 10.12586,10.39862 10.69062,10.79255 10.18251,9.72244 6.27869,13.22326 -1.09642,0.98324 -3.45433,3.22818 -5.23981,4.98876 l -3.24631,3.20107 -3.4221,-3.20107 c -1.88216,-1.76058 -6.19214,-5.98218 -9.57773,-9.38132 -8.03141,-8.06359 -8.5098,-8.37677 -12.79566,-8.37677 -3.93669,0 -5.21474,0.68222 -8.93853,4.77132 -1.26416,1.38818 -3.75128,3.92801 -5.52694,5.64407 -1.77565,1.71605 -4.93235,4.7865 -7.01489,6.8232 -2.08254,2.03671 -3.8476,3.70109 -3.92236,3.69864 -0.0748,-0.002 -2.72172,-2.5095 -5.88213,-5.57119 z"
         id="path3"
         transform="scale(0.26458333)" /><path
         style="fill:#ffffff;stroke-width:0.0193048;stroke-linecap:square"
         d="m 200.98919,278.62669 c 0,-0.28093 0.22984,-0.51078 0.51077,-0.51078 0.28092,0 0.51077,-0.68954 0.51077,-1.53232 0,-0.84277 0.22985,-1.53232 0.51077,-1.53232 0.28093,0 0.51078,-0.56105 0.51078,-1.24678 0,-0.68574 0.22985,-1.38885 0.51077,-1.56247 0.28093,-0.17362 0.51077,-0.86316 0.51077,-1.53232 0,-0.66915 0.22985,-1.35869 0.51078,-1.53232 0.28092,-0.17362 0.51077,-0.87673 0.51077,-1.56246 0,-0.68573 0.22985,-1.24679 0.51077,-1.24679 0.28093,0 0.51078,-0.68954 0.51078,-1.53232 0,-0.84277 0.22984,-1.53232 0.51077,-1.53232 0.28092,0 0.51077,-0.68954 0.51077,-1.53231 0,-0.84278 0.22985,-1.53232 0.51077,-1.53232 0.28093,0 0.51078,-0.68955 0.51078,-1.53232 0,-0.84278 0.22985,-1.53232 0.51077,-1.53232 0.28093,0 0.51077,-0.68955 0.51077,-1.53232 0,-0.84278 0.22985,-1.53232 0.51078,-1.53232 0.28092,0 0.51077,-0.68954 0.51077,-1.53232 0,-0.84277 0.22985,-1.53232 0.51077,-1.53232 0.28093,0 0.51078,-0.56105 0.51078,-1.24679 0,-0.68573 0.22984,-1.38884 0.51077,-1.56246 0.28092,-0.17362 0.51077,-0.86316 0.51077,-1.53232 0,-0.66915 0.22985,-1.3587 0.51078,-1.53232 0.28092,-0.17362 0.51077,-0.77537 0.51077,-1.33722 0,-0.56185 0.22985,-0.87949 0.51077,-0.70587 0.28093,0.17362 0.51077,0.86317 0.51077,1.53232 0,0.66915 0.22985,1.3587 0.51078,1.53232 0.28092,0.17362 0.51077,0.87673 0.51077,1.56246 0,0.68574 0.22985,1.24679 0.51077,1.24679 0.28093,0 0.51078,0.68954 0.51078,1.53232 0,0.84277 0.22984,1.53232 0.51077,1.53232 0.28092,0 0.51077,0.68954 0.51077,1.53232 0,0.84277 0.22985,1.53232 0.51078,1.53232 0.28092,0 0.51077,0.68954 0.51077,1.53232 0,0.84277 0.22985,1.53231 0.51077,1.53231 0.28093,0 0.51354,0.51716 0.51693,1.14924 0.007,1.24564 2.68343,9.88298 3.23315,10.4327 0.18486,0.18485 0.33611,0.85885 0.33611,1.49776 0,0.63891 0.22984,1.30371 0.51077,1.47734 0.28092,0.17362 0.51077,0.86316 0.51077,1.53231 0,0.66916 0.20335,1.34232 0.45188,1.49593 0.24854,0.1536 0.5535,0.97163 0.6777,1.81785 l 0.22582,1.53857 h -12.17009 c -7.77288,0 -12.17009,-0.18455 -12.17009,-0.51077 z"
         id="path4"
         transform="scale(0.26458333)" /><path
         style="fill:#ffffff;stroke-width:0.0193048;stroke-linecap:square"
         d="m 227.03861,440.57188 c 0,-0.54527 0.22985,-1.13346 0.51077,-1.30708 0.28093,-0.17362 0.51078,-0.86316 0.51078,-1.53232 0,-0.66915 0.22984,-1.35869 0.51077,-1.53232 0.28092,-0.17362 0.51077,-0.86316 0.51077,-1.53232 0,-0.66915 0.22985,-1.35869 0.51078,-1.53231 0.28092,-0.17363 0.51077,-0.87673 0.51077,-1.56247 0,-0.68573 0.22985,-1.24679 0.51077,-1.24679 0.28093,0 0.51077,-0.68954 0.51077,-1.53231 0,-0.84278 0.22985,-1.53232 0.51078,-1.53232 0.28092,0 0.51077,-0.68955 0.51077,-1.53232 0,-0.84278 0.22985,-1.53232 0.51077,-1.53232 0.28093,0 0.51078,-0.68955 0.51078,-1.53232 0,-0.84278 0.22984,-1.53232 0.51077,-1.53232 0.28092,0 0.51077,-0.68954 0.51077,-1.53232 0,-0.84277 0.22985,-1.53232 0.51078,-1.53232 0.28092,0 0.51077,-0.68954 0.51077,-1.53232 0,-0.84277 0.22985,-1.53232 0.51077,-1.53232 0.28093,0 0.51077,-0.56105 0.51077,-1.24678 0,-0.68574 0.22985,-1.38885 0.51078,-1.56247 0.28092,-0.17362 0.51077,-0.76492 0.51077,-1.31401 0,-0.54908 0.21596,-1.39744 0.47992,-1.88525 0.26396,-0.48781 0.61552,-1.52863 0.78126,-2.31293 0.26516,-1.25483 0.3915,-1.33585 1.0524,-0.67495 0.41308,0.41308 0.75106,1.34209 0.75106,2.06447 0,0.72238 0.22985,1.31342 0.51077,1.31342 0.28093,0 0.51077,0.68954 0.51077,1.53232 0,0.84277 0.22985,1.53232 0.51078,1.53232 0.28092,0 0.51077,0.56105 0.51077,1.24679 0,0.68573 0.22985,1.38884 0.51077,1.56246 0.28093,0.17362 0.51078,0.74591 0.51078,1.27175 0,1.04239 2.36885,8.90933 3.11395,10.34141 0.2538,0.4878 0.46146,1.33617 0.46146,1.88525 0,0.54908 0.22985,1.14039 0.51077,1.31401 0.28093,0.17362 0.51077,0.86316 0.51077,1.53232 0,0.66915 0.22985,1.35869 0.51078,1.53232 0.28092,0.17362 0.51077,0.86316 0.51077,1.53231 0,0.66916 0.22985,1.3587 0.51077,1.53232 0.28093,0.17363 0.51078,0.86317 0.51078,1.53232 0,0.66916 0.22984,1.3587 0.51077,1.53232 0.28092,0.17362 0.51077,0.76181 0.51077,1.30708 0,0.95323 -0.46217,0.9914 -12.00316,0.9914 -11.541,0 -12.00317,-0.0382 -12.00317,-0.9914 z"
         id="path5"
         transform="scale(0.26458333)" /><path
         style="fill:#ffffff;stroke-width:0.0193048;stroke-linecap:square"
         d="m 278.11591,440.82727 c 0,-0.40481 0.22985,-0.87807 0.51078,-1.05169 0.28092,-0.17363 0.51077,-0.86317 0.51077,-1.53232 0,-0.66916 0.22985,-1.3587 0.51077,-1.53232 0.28093,-0.17362 0.51077,-0.86317 0.51077,-1.53232 0,-0.66916 0.22985,-1.3587 0.51078,-1.53232 0.28092,-0.17362 0.51077,-0.86317 0.51077,-1.53232 0,-0.66915 0.22985,-1.3587 0.51077,-1.53232 0.28093,-0.17362 0.51078,-0.76492 0.51078,-1.31401 0,-0.54908 0.22857,-1.39744 0.50795,-1.88525 0.81275,-1.41914 7.15097,-21.08552 7.17996,-22.27818 0.0331,-1.361 0.8652,0.73339 2.81677,7.08961 0.77628,2.52833 1.6034,4.81531 1.83803,5.08219 0.23464,0.26688 0.42661,1.00032 0.42661,1.62987 0,0.62955 0.22985,1.28669 0.51078,1.46031 0.28092,0.17362 0.51077,0.86317 0.51077,1.53232 0,0.66915 0.22985,1.3587 0.51077,1.53232 0.28093,0.17362 0.51077,0.86316 0.51077,1.53232 0,0.66915 0.22985,1.3587 0.51078,1.53232 0.28092,0.17362 0.51077,0.86316 0.51077,1.53232 0,0.66915 0.22985,1.35869 0.51077,1.53231 0.28093,0.17363 0.51078,0.86317 0.51078,1.53232 0,0.66916 0.22984,1.3587 0.51077,1.53232 0.28092,0.17362 0.51077,0.86317 0.51077,1.53232 0,0.66916 0.22985,1.3587 0.51078,1.53232 0.28092,0.17362 0.51077,0.86317 0.51077,1.53232 0,0.66915 0.22985,1.3587 0.51077,1.53232 0.28093,0.17362 0.51077,0.87673 0.51077,1.56246 v 1.24679 h -12.00316 c -10.11048,0 -12.00317,-0.11606 -12.00317,-0.73601 z"
         id="path6"
         transform="scale(0.26458333)" /><path
         style="fill:#ffffff;stroke-width:0.0193048;stroke-linecap:square"
         d="m 611.6507,525.41161 c -0.42139,-0.50956 -1.57014,-1.48337 -2.55279,-2.16402 -0.98265,-0.68066 -2.15885,-1.63979 -2.61378,-2.13141 -0.45493,-0.49162 -1.0971,-0.89385 -1.42706,-0.89385 -0.32995,0 -1.09333,-0.4597 -1.69641,-1.02155 -0.60308,-0.56185 -1.39793,-1.02155 -1.76635,-1.02155 -0.36841,0 -0.66985,-0.22984 -0.66985,-0.51077 0,-0.28092 -0.44054,-0.51077 -0.97898,-0.51077 -0.53844,0 -1.05559,-0.17239 -1.14924,-0.38308 -0.26508,-0.59644 -3.92026,-2.17079 -5.03993,-2.17079 -0.55232,0 -1.00421,-0.22984 -1.00421,-0.51077 0,-0.28092 -0.57462,-0.51077 -1.27694,-0.51077 -0.70231,0 -1.27693,-0.22985 -1.27693,-0.51078 0,-0.28092 -0.7909,-0.51077 -1.75756,-0.51077 -0.96666,0 -1.89962,-0.22985 -2.07324,-0.51077 -0.17362,-0.28093 -1.20793,-0.51077 -2.29848,-0.51077 -1.09054,0 -2.12485,-0.22985 -2.29847,-0.51078 -0.19333,-0.3128 -4.2517,-0.51077 -10.47085,-0.51077 -6.21915,0 -10.27752,0.19797 -10.47085,0.51077 -0.17362,0.28093 -0.97809,0.51078 -1.7877,0.51078 -0.80962,0 -1.61409,0.22984 -1.78771,0.51077 -0.17362,0.28092 -0.99165,0.51077 -1.81785,0.51077 -0.8262,0 -1.50217,0.22985 -1.50217,0.51077 0,0.28093 -0.57462,0.51078 -1.27694,0.51078 -0.70231,0 -1.27693,0.22985 -1.27693,0.51077 0,0.28093 -0.35051,0.51077 -0.77891,0.51077 -1.1518,0 -7.42033,3.3079 -9.13291,4.81943 -0.81624,0.72042 -1.67817,1.30985 -1.9154,1.30985 -0.63612,0 -0.55676,-345.65553 0.0794,-346.04873 0.28093,-0.17362 0.51077,-0.99165 0.51077,-1.81785 0,-0.82619 0.22985,-1.50217 0.51078,-1.50217 0.28092,0 0.51077,-0.68954 0.51077,-1.53232 0,-0.84277 0.22985,-1.53232 0.51077,-1.53232 0.28093,0 0.51078,-0.45969 0.51078,-1.02154 0,-0.56185 0.22984,-1.02155 0.51077,-1.02155 0.28092,0 0.51077,-0.4597 0.51077,-1.02155 0,-0.56185 0.22985,-1.02154 0.51078,-1.02154 0.28092,0 0.51105,-0.28731 0.51139,-0.63847 3.5e-4,-0.35115 0.57497,-1.3063 1.27694,-2.12254 0.70197,-0.81624 1.2763,-1.62571 1.2763,-1.79883 0,-0.58008 4.32133,-4.94079 6.12928,-6.18514 0.98324,-0.67674 2.23328,-1.6389 2.77787,-2.13816 0.54459,-0.49925 1.2916,-0.90773 1.66001,-0.90773 0.36842,0 0.66985,-0.22985 0.66985,-0.51078 0,-0.28092 0.4597,-0.51077 1.02155,-0.51077 0.56185,0 1.02154,-0.22985 1.02154,-0.51077 0,-0.28093 0.4597,-0.51078 1.02155,-0.51078 0.56185,0 1.02154,-0.22984 1.02154,-0.51077 0,-0.28092 0.68955,-0.51077 1.53232,-0.51077 0.84278,0 1.53232,-0.22985 1.53232,-0.51078 0,-0.28092 0.68955,-0.51077 1.53232,-0.51077 0.84278,0 1.53232,-0.22985 1.53232,-0.51077 0,-0.31855 2.97951,-0.51077 7.91698,-0.51077 4.93748,0 7.91698,0.19222 7.91698,0.51077 0,0.28092 0.68955,0.51077 1.53232,0.51077 0.84278,0 1.53232,0.22985 1.53232,0.51077 0,0.28093 0.68955,0.51078 1.53232,0.51078 0.84278,0 1.53232,0.22985 1.53232,0.51077 0,0.28093 0.4597,0.51077 1.02155,0.51077 0.56185,0 1.02154,0.22985 1.02154,0.51078 0,0.28092 0.4597,0.51077 1.02155,0.51077 0.56185,0 1.02155,0.22985 1.02155,0.51077 0,0.28093 0.44054,0.51078 0.97898,0.51078 0.53844,0 1.05559,0.17238 1.14924,0.38308 0.0936,0.21069 1.20457,1.21462 2.46873,2.23094 3.18892,2.56375 6.64005,5.97124 6.64005,6.55611 0,0.26846 0.57462,1.06274 1.27693,1.76505 0.70232,0.70232 1.27694,1.63215 1.27694,2.06631 0,0.43416 0.22984,0.78938 0.51077,0.78938 0.28093,0 0.51077,0.45969 0.51077,1.02154 0,0.56185 0.22985,1.02155 0.51078,1.02155 0.28092,0 0.51077,0.4597 0.51077,1.02155 0,0.56185 0.22985,1.02154 0.51077,1.02154 0.28093,0 0.51078,0.68955 0.51078,1.53232 0,0.84278 0.22984,1.53232 0.51077,1.53232 0.28092,0 0.51077,0.68954 0.51077,1.53232 0,0.84277 0.22985,1.53232 0.51077,1.53232 0.33953,0 0.51078,58.99428 0.51078,175.96131 0,96.77871 -0.17239,175.95826 -0.38308,175.95454 -0.2107,-0.004 -0.72785,-0.42368 -1.14924,-0.93323 z"
         id="path7"
         transform="scale(0.26458333)" /></g></g></svg>
